G04 #@! TF.GenerationSoftware,KiCad,Pcbnew,5.0.2+dfsg1-1*
G04 #@! TF.CreationDate,2021-05-05T10:51:01+02:00*
G04 #@! TF.ProjectId,fpga_adda,66706761-5f61-4646-9461-2e6b69636164,rev?*
G04 #@! TF.SameCoordinates,Original*
G04 #@! TF.FileFunction,Legend,Bot*
G04 #@! TF.FilePolarity,Positive*
%FSLAX46Y46*%
G04 Gerber Fmt 4.6, Leading zero omitted, Abs format (unit mm)*
G04 Created by KiCad (PCBNEW 5.0.2+dfsg1-1) date Wed 05 May 2021 10:51:01 AM CEST*
%MOMM*%
%LPD*%
G01*
G04 APERTURE LIST*
%ADD10C,0.500000*%
%ADD11C,0.120000*%
%ADD12C,0.150000*%
G04 APERTURE END LIST*
D10*
X87100000Y-73785714D02*
X86957142Y-73642857D01*
X86528571Y-73357142D01*
X86242857Y-73214285D01*
X85814285Y-73071428D01*
X85100000Y-72928571D01*
X84528571Y-72928571D01*
X83814285Y-73071428D01*
X83385714Y-73214285D01*
X83100000Y-73357142D01*
X82671428Y-73642857D01*
X82528571Y-73785714D01*
X85814285Y-76214285D02*
X85957142Y-75928571D01*
X85957142Y-75357142D01*
X85814285Y-75071428D01*
X85671428Y-74928571D01*
X85385714Y-74785714D01*
X84528571Y-74785714D01*
X84242857Y-74928571D01*
X84100000Y-75071428D01*
X83957142Y-75357142D01*
X83957142Y-75928571D01*
X84100000Y-76214285D01*
X87100000Y-77214285D02*
X86957142Y-77357142D01*
X86528571Y-77642857D01*
X86242857Y-77785714D01*
X85814285Y-77928571D01*
X85100000Y-78071428D01*
X84528571Y-78071428D01*
X83814285Y-77928571D01*
X83385714Y-77785714D01*
X83100000Y-77642857D01*
X82671428Y-77357142D01*
X82528571Y-77214285D01*
X83242857Y-79357142D02*
X83100000Y-79500000D01*
X82957142Y-79785714D01*
X82957142Y-80500000D01*
X83100000Y-80785714D01*
X83242857Y-80928571D01*
X83528571Y-81071428D01*
X83814285Y-81071428D01*
X84242857Y-80928571D01*
X85957142Y-79214285D01*
X85957142Y-81071428D01*
X82957142Y-82928571D02*
X82957142Y-83214285D01*
X83100000Y-83500000D01*
X83242857Y-83642857D01*
X83528571Y-83785714D01*
X84100000Y-83928571D01*
X84814285Y-83928571D01*
X85385714Y-83785714D01*
X85671428Y-83642857D01*
X85814285Y-83500000D01*
X85957142Y-83214285D01*
X85957142Y-82928571D01*
X85814285Y-82642857D01*
X85671428Y-82500000D01*
X85385714Y-82357142D01*
X84814285Y-82214285D01*
X84100000Y-82214285D01*
X83528571Y-82357142D01*
X83242857Y-82500000D01*
X83100000Y-82642857D01*
X82957142Y-82928571D01*
X83242857Y-85071428D02*
X83100000Y-85214285D01*
X82957142Y-85500000D01*
X82957142Y-86214285D01*
X83100000Y-86500000D01*
X83242857Y-86642857D01*
X83528571Y-86785714D01*
X83814285Y-86785714D01*
X84242857Y-86642857D01*
X85957142Y-84928571D01*
X85957142Y-86785714D01*
X82957142Y-88642857D02*
X82957142Y-88928571D01*
X83100000Y-89214285D01*
X83242857Y-89357142D01*
X83528571Y-89500000D01*
X84100000Y-89642857D01*
X84814285Y-89642857D01*
X85385714Y-89500000D01*
X85671428Y-89357142D01*
X85814285Y-89214285D01*
X85957142Y-88928571D01*
X85957142Y-88642857D01*
X85814285Y-88357142D01*
X85671428Y-88214285D01*
X85385714Y-88071428D01*
X84814285Y-87928571D01*
X84100000Y-87928571D01*
X83528571Y-88071428D01*
X83242857Y-88214285D01*
X83100000Y-88357142D01*
X82957142Y-88642857D01*
X82957142Y-92785714D02*
X82957142Y-94500000D01*
X85957142Y-93642857D02*
X82957142Y-93642857D01*
X85671428Y-95500000D02*
X85814285Y-95642857D01*
X85957142Y-95500000D01*
X85814285Y-95357142D01*
X85671428Y-95500000D01*
X85957142Y-95500000D01*
X84385714Y-97928571D02*
X84528571Y-98357142D01*
X84671428Y-98500000D01*
X84957142Y-98642857D01*
X85385714Y-98642857D01*
X85671428Y-98500000D01*
X85814285Y-98357142D01*
X85957142Y-98071428D01*
X85957142Y-96928571D01*
X82957142Y-96928571D01*
X82957142Y-97928571D01*
X83100000Y-98214285D01*
X83242857Y-98357142D01*
X83528571Y-98500000D01*
X83814285Y-98500000D01*
X84100000Y-98357142D01*
X84242857Y-98214285D01*
X84385714Y-97928571D01*
X84385714Y-96928571D01*
X85957142Y-100357142D02*
X85814285Y-100071428D01*
X85671428Y-99928571D01*
X85385714Y-99785714D01*
X84528571Y-99785714D01*
X84242857Y-99928571D01*
X84100000Y-100071428D01*
X83957142Y-100357142D01*
X83957142Y-100785714D01*
X84100000Y-101071428D01*
X84242857Y-101214285D01*
X84528571Y-101357142D01*
X85385714Y-101357142D01*
X85671428Y-101214285D01*
X85814285Y-101071428D01*
X85957142Y-100785714D01*
X85957142Y-100357142D01*
X85957142Y-102642857D02*
X83957142Y-102642857D01*
X84528571Y-102642857D02*
X84242857Y-102785714D01*
X84100000Y-102928571D01*
X83957142Y-103214285D01*
X83957142Y-103500000D01*
X85957142Y-104500000D02*
X83957142Y-104500000D01*
X84242857Y-104500000D02*
X84100000Y-104642857D01*
X83957142Y-104928571D01*
X83957142Y-105357142D01*
X84100000Y-105642857D01*
X84385714Y-105785714D01*
X85957142Y-105785714D01*
X84385714Y-105785714D02*
X84100000Y-105928571D01*
X83957142Y-106214285D01*
X83957142Y-106642857D01*
X84100000Y-106928571D01*
X84385714Y-107071428D01*
X85957142Y-107071428D01*
X90957142Y-75714285D02*
X87957142Y-75714285D01*
X90957142Y-77000000D02*
X89385714Y-77000000D01*
X89100000Y-76857142D01*
X88957142Y-76571428D01*
X88957142Y-76142857D01*
X89100000Y-75857142D01*
X89242857Y-75714285D01*
X90957142Y-79714285D02*
X89385714Y-79714285D01*
X89100000Y-79571428D01*
X88957142Y-79285714D01*
X88957142Y-78714285D01*
X89100000Y-78428571D01*
X90814285Y-79714285D02*
X90957142Y-79428571D01*
X90957142Y-78714285D01*
X90814285Y-78428571D01*
X90528571Y-78285714D01*
X90242857Y-78285714D01*
X89957142Y-78428571D01*
X89814285Y-78714285D01*
X89814285Y-79428571D01*
X89671428Y-79714285D01*
X90814285Y-82428571D02*
X90957142Y-82142857D01*
X90957142Y-81571428D01*
X90814285Y-81285714D01*
X90671428Y-81142857D01*
X90385714Y-81000000D01*
X89528571Y-81000000D01*
X89242857Y-81142857D01*
X89100000Y-81285714D01*
X88957142Y-81571428D01*
X88957142Y-82142857D01*
X89100000Y-82428571D01*
X90957142Y-83714285D02*
X87957142Y-83714285D01*
X89814285Y-84000000D02*
X90957142Y-84857142D01*
X88957142Y-84857142D02*
X90100000Y-83714285D01*
X88957142Y-85857142D02*
X90957142Y-86428571D01*
X89528571Y-87000000D01*
X90957142Y-87571428D01*
X88957142Y-88142857D01*
X90957142Y-89285714D02*
X88957142Y-89285714D01*
X87957142Y-89285714D02*
X88100000Y-89142857D01*
X88242857Y-89285714D01*
X88100000Y-89428571D01*
X87957142Y-89285714D01*
X88242857Y-89285714D01*
X88957142Y-90714285D02*
X90957142Y-90714285D01*
X89242857Y-90714285D02*
X89100000Y-90857142D01*
X88957142Y-91142857D01*
X88957142Y-91571428D01*
X89100000Y-91857142D01*
X89385714Y-92000000D01*
X90957142Y-92000000D01*
X90957142Y-93428571D02*
X87957142Y-93428571D01*
X89814285Y-93714285D02*
X90957142Y-94571428D01*
X88957142Y-94571428D02*
X90100000Y-93428571D01*
X90814285Y-97000000D02*
X90957142Y-96714285D01*
X90957142Y-96142857D01*
X90814285Y-95857142D01*
X90528571Y-95714285D01*
X89385714Y-95714285D01*
X89100000Y-95857142D01*
X88957142Y-96142857D01*
X88957142Y-96714285D01*
X89100000Y-97000000D01*
X89385714Y-97142857D01*
X89671428Y-97142857D01*
X89957142Y-95714285D01*
X90957142Y-98857142D02*
X90814285Y-98571428D01*
X90528571Y-98428571D01*
X87957142Y-98428571D01*
X90671428Y-100000000D02*
X90814285Y-100142857D01*
X90957142Y-100000000D01*
X90814285Y-99857142D01*
X90671428Y-100000000D01*
X90957142Y-100000000D01*
X88957142Y-101428571D02*
X90957142Y-101428571D01*
X89242857Y-101428571D02*
X89100000Y-101571428D01*
X88957142Y-101857142D01*
X88957142Y-102285714D01*
X89100000Y-102571428D01*
X89385714Y-102714285D01*
X90957142Y-102714285D01*
X90957142Y-104571428D02*
X90814285Y-104285714D01*
X90528571Y-104142857D01*
X87957142Y-104142857D01*
D11*
G04 #@! TO.C,C90*
X103511252Y-130410000D02*
X102988748Y-130410000D01*
X103511252Y-128990000D02*
X102988748Y-128990000D01*
G04 #@! TO.C,C91*
X122611252Y-129090000D02*
X122088748Y-129090000D01*
X122611252Y-130510000D02*
X122088748Y-130510000D01*
G04 #@! TO.C,C92*
X52411252Y-130510000D02*
X51888748Y-130510000D01*
X52411252Y-129090000D02*
X51888748Y-129090000D01*
G04 #@! TO.C,C93*
X77961252Y-128990000D02*
X77438748Y-128990000D01*
X77961252Y-130410000D02*
X77438748Y-130410000D01*
G04 #@! TO.C,C94*
X127738748Y-129090000D02*
X128261252Y-129090000D01*
X127738748Y-130510000D02*
X128261252Y-130510000D01*
G04 #@! TO.C,C95*
X108488748Y-130410000D02*
X109011252Y-130410000D01*
X108488748Y-128990000D02*
X109011252Y-128990000D01*
G04 #@! TO.C,C96*
X82938748Y-128990000D02*
X83461252Y-128990000D01*
X82938748Y-130410000D02*
X83461252Y-130410000D01*
G04 #@! TO.C,C97*
X57238748Y-130510000D02*
X57761252Y-130510000D01*
X57238748Y-129090000D02*
X57761252Y-129090000D01*
G04 #@! TO.C,C82*
X107611252Y-128310000D02*
X107088748Y-128310000D01*
X107611252Y-126890000D02*
X107088748Y-126890000D01*
G04 #@! TO.C,C83*
X126711252Y-126890000D02*
X126188748Y-126890000D01*
X126711252Y-128310000D02*
X126188748Y-128310000D01*
G04 #@! TO.C,C87*
X56511252Y-128310000D02*
X55988748Y-128310000D01*
X56511252Y-126890000D02*
X55988748Y-126890000D01*
G04 #@! TO.C,C86*
X82011252Y-126890000D02*
X81488748Y-126890000D01*
X82011252Y-128310000D02*
X81488748Y-128310000D01*
G04 #@! TO.C,R84*
X83538748Y-124790000D02*
X84061252Y-124790000D01*
X83538748Y-126210000D02*
X84061252Y-126210000D01*
G04 #@! TO.C,R74*
X111711252Y-126890000D02*
X111188748Y-126890000D01*
X111711252Y-128310000D02*
X111188748Y-128310000D01*
G04 #@! TO.C,R75*
X102988748Y-126890000D02*
X103511252Y-126890000D01*
X102988748Y-128310000D02*
X103511252Y-128310000D01*
G04 #@! TO.C,R76*
X130811252Y-126890000D02*
X130288748Y-126890000D01*
X130811252Y-128310000D02*
X130288748Y-128310000D01*
G04 #@! TO.C,R77*
X122088748Y-128310000D02*
X122611252Y-128310000D01*
X122088748Y-126890000D02*
X122611252Y-126890000D01*
G04 #@! TO.C,R70*
X105561252Y-126210000D02*
X105038748Y-126210000D01*
X105561252Y-124790000D02*
X105038748Y-124790000D01*
G04 #@! TO.C,R71*
X124661252Y-124840000D02*
X124138748Y-124840000D01*
X124661252Y-126260000D02*
X124138748Y-126260000D01*
G04 #@! TO.C,R72*
X109138748Y-124790000D02*
X109661252Y-124790000D01*
X109138748Y-126210000D02*
X109661252Y-126210000D01*
G04 #@! TO.C,R82*
X80011252Y-124790000D02*
X79488748Y-124790000D01*
X80011252Y-126210000D02*
X79488748Y-126210000D01*
G04 #@! TO.C,R83*
X54461252Y-126210000D02*
X53938748Y-126210000D01*
X54461252Y-124790000D02*
X53938748Y-124790000D01*
G04 #@! TO.C,R73*
X128238748Y-126260000D02*
X128761252Y-126260000D01*
X128238748Y-124840000D02*
X128761252Y-124840000D01*
G04 #@! TO.C,R85*
X57988748Y-124790000D02*
X58511252Y-124790000D01*
X57988748Y-126210000D02*
X58511252Y-126210000D01*
G04 #@! TO.C,R86*
X86111252Y-126890000D02*
X85588748Y-126890000D01*
X86111252Y-128310000D02*
X85588748Y-128310000D01*
G04 #@! TO.C,R87*
X77438748Y-126890000D02*
X77961252Y-126890000D01*
X77438748Y-128310000D02*
X77961252Y-128310000D01*
G04 #@! TO.C,R88*
X60561252Y-126890000D02*
X60038748Y-126890000D01*
X60561252Y-128310000D02*
X60038748Y-128310000D01*
G04 #@! TO.C,R89*
X51888748Y-126890000D02*
X52411252Y-126890000D01*
X51888748Y-128310000D02*
X52411252Y-128310000D01*
G04 #@! TO.C,C78*
X54761252Y-49310000D02*
X54238748Y-49310000D01*
X54761252Y-47890000D02*
X54238748Y-47890000D01*
G04 #@! TO.C,C79*
X105161252Y-47890000D02*
X104638748Y-47890000D01*
X105161252Y-49310000D02*
X104638748Y-49310000D01*
G04 #@! TO.C,C80*
X58738748Y-47890000D02*
X59261252Y-47890000D01*
X58738748Y-49310000D02*
X59261252Y-49310000D01*
G04 #@! TO.C,C81*
X109238748Y-49310000D02*
X109761252Y-49310000D01*
X109238748Y-47890000D02*
X109761252Y-47890000D01*
G04 #@! TO.C,C74*
X138460000Y-80688748D02*
X138460000Y-81211252D01*
X137040000Y-80688748D02*
X137040000Y-81211252D01*
G04 #@! TO.C,C75*
X137040000Y-84638748D02*
X137040000Y-85161252D01*
X138460000Y-84638748D02*
X138460000Y-85161252D01*
G04 #@! TO.C,R54*
X137040000Y-96461252D02*
X137040000Y-95938748D01*
X138460000Y-96461252D02*
X138460000Y-95938748D01*
G04 #@! TO.C,R55*
X138460000Y-92661252D02*
X138460000Y-92138748D01*
X137040000Y-92661252D02*
X137040000Y-92138748D01*
G04 #@! TO.C,C73*
X60338748Y-105790000D02*
X60861252Y-105790000D01*
X60338748Y-107210000D02*
X60861252Y-107210000D01*
G04 #@! TO.C,C72*
X60363748Y-104710000D02*
X60886252Y-104710000D01*
X60363748Y-103290000D02*
X60886252Y-103290000D01*
G04 #@! TO.C,C63*
X60810000Y-87738748D02*
X60810000Y-88261252D01*
X59390000Y-87738748D02*
X59390000Y-88261252D01*
G04 #@! TO.C,C64*
X68640000Y-87738748D02*
X68640000Y-88261252D01*
X70060000Y-87738748D02*
X70060000Y-88261252D01*
G04 #@! TO.C,C65*
X61361252Y-80710000D02*
X60838748Y-80710000D01*
X61361252Y-79290000D02*
X60838748Y-79290000D01*
G04 #@! TO.C,C66*
X67111252Y-83040000D02*
X66588748Y-83040000D01*
X67111252Y-84460000D02*
X66588748Y-84460000D01*
G04 #@! TO.C,C67*
X63810000Y-87738748D02*
X63810000Y-88261252D01*
X62390000Y-87738748D02*
X62390000Y-88261252D01*
G04 #@! TO.C,C68*
X67111252Y-81040000D02*
X66588748Y-81040000D01*
X67111252Y-82460000D02*
X66588748Y-82460000D01*
G04 #@! TO.C,C69*
X61361252Y-78210000D02*
X60838748Y-78210000D01*
X61361252Y-76790000D02*
X60838748Y-76790000D01*
G04 #@! TO.C,C70*
X70890000Y-87738748D02*
X70890000Y-88261252D01*
X72310000Y-87738748D02*
X72310000Y-88261252D01*
G04 #@! TO.C,C61*
X66810000Y-73738748D02*
X66810000Y-74261252D01*
X65390000Y-73738748D02*
X65390000Y-74261252D01*
G04 #@! TO.C,C60*
X64310000Y-73738748D02*
X64310000Y-74261252D01*
X62890000Y-73738748D02*
X62890000Y-74261252D01*
G04 #@! TO.C,C59*
X67890000Y-74261252D02*
X67890000Y-73738748D01*
X69310000Y-74261252D02*
X69310000Y-73738748D01*
G04 #@! TO.C,R49*
X56890000Y-72786252D02*
X56890000Y-72263748D01*
X58310000Y-72786252D02*
X58310000Y-72263748D01*
G04 #@! TO.C,R50*
X55810000Y-72263748D02*
X55810000Y-72786252D01*
X54390000Y-72263748D02*
X54390000Y-72786252D01*
G04 #@! TO.C,R51*
X71810000Y-73738748D02*
X71810000Y-74261252D01*
X70390000Y-73738748D02*
X70390000Y-74261252D01*
G04 #@! TO.C,R52*
X45836252Y-93210000D02*
X45313748Y-93210000D01*
X45836252Y-91790000D02*
X45313748Y-91790000D01*
G04 #@! TO.C,R53*
X45836252Y-81210000D02*
X45313748Y-81210000D01*
X45836252Y-79790000D02*
X45313748Y-79790000D01*
D12*
G04 #@! TO.C,U14*
X62900000Y-78650000D02*
X63400000Y-79150000D01*
X63400000Y-86150000D02*
X63400000Y-79150000D01*
X70400000Y-86150000D02*
X63400000Y-86150000D01*
X70400000Y-79150000D02*
X70400000Y-86150000D01*
X63400000Y-79150000D02*
X70400000Y-79150000D01*
D11*
G04 #@! TO.C,C50*
X123890000Y-121761252D02*
X123890000Y-121238748D01*
X125310000Y-121761252D02*
X125310000Y-121238748D01*
G04 #@! TO.C,C51*
X96390000Y-121786252D02*
X96390000Y-121263748D01*
X97810000Y-121786252D02*
X97810000Y-121263748D01*
G04 #@! TO.C,C52*
X121390000Y-121761252D02*
X121390000Y-121238748D01*
X122810000Y-121761252D02*
X122810000Y-121238748D01*
G04 #@! TO.C,C53*
X98890000Y-121761252D02*
X98890000Y-121238748D01*
X100310000Y-121761252D02*
X100310000Y-121238748D01*
G04 #@! TO.C,C54*
X47890000Y-121761252D02*
X47890000Y-121238748D01*
X49310000Y-121761252D02*
X49310000Y-121238748D01*
G04 #@! TO.C,C55*
X73390000Y-121761252D02*
X73390000Y-121238748D01*
X74810000Y-121761252D02*
X74810000Y-121238748D01*
G04 #@! TO.C,C56*
X45390000Y-121761252D02*
X45390000Y-121238748D01*
X46810000Y-121761252D02*
X46810000Y-121238748D01*
G04 #@! TO.C,C57*
X70890000Y-121761252D02*
X70890000Y-121238748D01*
X72310000Y-121761252D02*
X72310000Y-121238748D01*
G04 #@! TO.C,C47*
X106890000Y-61761252D02*
X106890000Y-61238748D01*
X108310000Y-61761252D02*
X108310000Y-61238748D01*
G04 #@! TO.C,C48*
X108310000Y-54238748D02*
X108310000Y-54761252D01*
X106890000Y-54238748D02*
X106890000Y-54761252D01*
G04 #@! TO.C,C49*
X103838748Y-57290000D02*
X104361252Y-57290000D01*
X103838748Y-58710000D02*
X104361252Y-58710000D01*
G04 #@! TO.C,C5*
X60861252Y-58710000D02*
X60338748Y-58710000D01*
X60861252Y-57290000D02*
X60338748Y-57290000D01*
G04 #@! TO.C,C46*
X111361252Y-58710000D02*
X110838748Y-58710000D01*
X111361252Y-57290000D02*
X110838748Y-57290000D01*
G04 #@! TO.C,C11*
X52838748Y-57290000D02*
X53361252Y-57290000D01*
X52838748Y-58710000D02*
X53361252Y-58710000D01*
G04 #@! TO.C,C18*
X55890000Y-61761252D02*
X55890000Y-61238748D01*
X57310000Y-61761252D02*
X57310000Y-61238748D01*
G04 #@! TO.C,C23*
X82960000Y-55738748D02*
X82960000Y-56261252D01*
X81540000Y-55738748D02*
X81540000Y-56261252D01*
G04 #@! TO.C,C21*
X57310000Y-54238748D02*
X57310000Y-54761252D01*
X55890000Y-54238748D02*
X55890000Y-54761252D01*
G04 #@! TO.C,C45*
X133310000Y-55738748D02*
X133310000Y-56261252D01*
X131890000Y-55738748D02*
X131890000Y-56261252D01*
G04 #@! TO.C,R46*
X75890000Y-79761252D02*
X75890000Y-79238748D01*
X77310000Y-79761252D02*
X77310000Y-79238748D01*
G04 #@! TO.C,R47*
X76111252Y-85710000D02*
X75588748Y-85710000D01*
X76111252Y-84290000D02*
X75588748Y-84290000D01*
G04 #@! TO.C,R48*
X73390000Y-79761252D02*
X73390000Y-79238748D01*
X74810000Y-79761252D02*
X74810000Y-79238748D01*
G04 #@! TO.C,R40*
X74310000Y-73738748D02*
X74310000Y-74261252D01*
X72890000Y-73738748D02*
X72890000Y-74261252D01*
G04 #@! TO.C,R44*
X76111252Y-90210000D02*
X75588748Y-90210000D01*
X76111252Y-88790000D02*
X75588748Y-88790000D01*
G04 #@! TO.C,R45*
X76111252Y-87960000D02*
X75588748Y-87960000D01*
X76111252Y-86540000D02*
X75588748Y-86540000D01*
G04 #@! TO.C,R43*
X70338748Y-77790000D02*
X70861252Y-77790000D01*
X70338748Y-79210000D02*
X70861252Y-79210000D01*
G04 #@! TO.C,R38*
X49838748Y-79790000D02*
X50361252Y-79790000D01*
X49838748Y-81210000D02*
X50361252Y-81210000D01*
G04 #@! TO.C,R39*
X49838748Y-91790000D02*
X50361252Y-91790000D01*
X49838748Y-93210000D02*
X50361252Y-93210000D01*
G04 #@! TO.C,R41*
X75588748Y-82040000D02*
X76111252Y-82040000D01*
X75588748Y-83460000D02*
X76111252Y-83460000D01*
G04 #@! TO.C,R42*
X76111252Y-92460000D02*
X75588748Y-92460000D01*
X76111252Y-91040000D02*
X75588748Y-91040000D01*
G04 #@! TO.C,C4*
X105511252Y-103910000D02*
X104988748Y-103910000D01*
X105511252Y-102490000D02*
X104988748Y-102490000D01*
G04 #@! TO.C,C34*
X103890000Y-120261252D02*
X103890000Y-119738748D01*
X105310000Y-120261252D02*
X105310000Y-119738748D01*
G04 #@! TO.C,C33*
X128890000Y-120261252D02*
X128890000Y-119738748D01*
X130310000Y-120261252D02*
X130310000Y-119738748D01*
G04 #@! TO.C,C35*
X136390000Y-120261252D02*
X136390000Y-119738748D01*
X137810000Y-120261252D02*
X137810000Y-119738748D01*
G04 #@! TO.C,C36*
X135310000Y-119738748D02*
X135310000Y-120261252D01*
X133890000Y-119738748D02*
X133890000Y-120261252D01*
G04 #@! TO.C,C37*
X111390000Y-120261252D02*
X111390000Y-119738748D01*
X112810000Y-120261252D02*
X112810000Y-119738748D01*
G04 #@! TO.C,C38*
X108890000Y-120261252D02*
X108890000Y-119738748D01*
X110310000Y-120261252D02*
X110310000Y-119738748D01*
G04 #@! TO.C,C39*
X52890000Y-120261252D02*
X52890000Y-119738748D01*
X54310000Y-120261252D02*
X54310000Y-119738748D01*
G04 #@! TO.C,C40*
X78390000Y-120261252D02*
X78390000Y-119738748D01*
X79810000Y-120261252D02*
X79810000Y-119738748D01*
G04 #@! TO.C,C41*
X60390000Y-120261252D02*
X60390000Y-119738748D01*
X61810000Y-120261252D02*
X61810000Y-119738748D01*
G04 #@! TO.C,C42*
X59310000Y-119738748D02*
X59310000Y-120261252D01*
X57890000Y-119738748D02*
X57890000Y-120261252D01*
G04 #@! TO.C,C43*
X87310000Y-119738748D02*
X87310000Y-120261252D01*
X85890000Y-119738748D02*
X85890000Y-120261252D01*
G04 #@! TO.C,C44*
X83390000Y-120261252D02*
X83390000Y-119738748D01*
X84810000Y-120261252D02*
X84810000Y-119738748D01*
G04 #@! TO.C,R14*
X127810000Y-121263748D02*
X127810000Y-121786252D01*
X126390000Y-121263748D02*
X126390000Y-121786252D01*
G04 #@! TO.C,R15*
X102810000Y-121263748D02*
X102810000Y-121786252D01*
X101390000Y-121263748D02*
X101390000Y-121786252D01*
G04 #@! TO.C,R16*
X132810000Y-119738748D02*
X132810000Y-120261252D01*
X131390000Y-119738748D02*
X131390000Y-120261252D01*
G04 #@! TO.C,R17*
X107810000Y-119738748D02*
X107810000Y-120261252D01*
X106390000Y-119738748D02*
X106390000Y-120261252D01*
G04 #@! TO.C,R34*
X115810000Y-54238748D02*
X115810000Y-54761252D01*
X114390000Y-54238748D02*
X114390000Y-54761252D01*
G04 #@! TO.C,R33*
X118810000Y-54238748D02*
X118810000Y-54761252D01*
X117390000Y-54238748D02*
X117390000Y-54761252D01*
G04 #@! TO.C,R32*
X115810000Y-58763748D02*
X115810000Y-59286252D01*
X114390000Y-58763748D02*
X114390000Y-59286252D01*
G04 #@! TO.C,R31*
X118810000Y-58738748D02*
X118810000Y-59261252D01*
X117390000Y-58738748D02*
X117390000Y-59261252D01*
G04 #@! TO.C,R30*
X111310000Y-54238748D02*
X111310000Y-54761252D01*
X109890000Y-54238748D02*
X109890000Y-54761252D01*
G04 #@! TO.C,R29*
X65310000Y-54238748D02*
X65310000Y-54761252D01*
X63890000Y-54238748D02*
X63890000Y-54761252D01*
G04 #@! TO.C,R28*
X68310000Y-54238748D02*
X68310000Y-54761252D01*
X66890000Y-54238748D02*
X66890000Y-54761252D01*
G04 #@! TO.C,R27*
X65310000Y-58738748D02*
X65310000Y-59261252D01*
X63890000Y-58738748D02*
X63890000Y-59261252D01*
G04 #@! TO.C,R26*
X68310000Y-58713748D02*
X68310000Y-59236252D01*
X66890000Y-58713748D02*
X66890000Y-59236252D01*
G04 #@! TO.C,R25*
X60310000Y-54238748D02*
X60310000Y-54761252D01*
X58890000Y-54238748D02*
X58890000Y-54761252D01*
G04 #@! TO.C,R24*
X82310000Y-119738748D02*
X82310000Y-120261252D01*
X80890000Y-119738748D02*
X80890000Y-120261252D01*
G04 #@! TO.C,R23*
X56810000Y-119738748D02*
X56810000Y-120261252D01*
X55390000Y-119738748D02*
X55390000Y-120261252D01*
G04 #@! TO.C,R22*
X77310000Y-121238748D02*
X77310000Y-121761252D01*
X75890000Y-121238748D02*
X75890000Y-121761252D01*
G04 #@! TO.C,R21*
X51810000Y-121238748D02*
X51810000Y-121761252D01*
X50390000Y-121238748D02*
X50390000Y-121761252D01*
G04 #@! TO.C,C32*
X109961252Y-81960000D02*
X109438748Y-81960000D01*
X109961252Y-80540000D02*
X109438748Y-80540000D01*
G04 #@! TO.C,C31*
X103690000Y-75186252D02*
X103690000Y-74663748D01*
X105110000Y-75186252D02*
X105110000Y-74663748D01*
G04 #@! TO.C,C30*
X96360000Y-85738748D02*
X96360000Y-86261252D01*
X94940000Y-85738748D02*
X94940000Y-86261252D01*
G04 #@! TO.C,C29*
X102961252Y-95560000D02*
X102438748Y-95560000D01*
X102961252Y-94140000D02*
X102438748Y-94140000D01*
G04 #@! TO.C,C28*
X104910000Y-99863748D02*
X104910000Y-100386252D01*
X103490000Y-99863748D02*
X103490000Y-100386252D01*
G04 #@! TO.C,C27*
X101961252Y-81760000D02*
X101438748Y-81760000D01*
X101961252Y-80340000D02*
X101438748Y-80340000D01*
G04 #@! TO.C,C26*
X97511252Y-98710000D02*
X96988748Y-98710000D01*
X97511252Y-97290000D02*
X96988748Y-97290000D01*
G04 #@! TO.C,C25*
X98040000Y-88311252D02*
X98040000Y-87788748D01*
X99460000Y-88311252D02*
X99460000Y-87788748D01*
G04 #@! TO.C,C24*
X128788748Y-73940000D02*
X129311252Y-73940000D01*
X128788748Y-75360000D02*
X129311252Y-75360000D01*
G04 #@! TO.C,C22*
X106190000Y-75186252D02*
X106190000Y-74663748D01*
X107610000Y-75186252D02*
X107610000Y-74663748D01*
G04 #@! TO.C,C8*
X124090000Y-73236252D02*
X124090000Y-72713748D01*
X125510000Y-73236252D02*
X125510000Y-72713748D01*
G04 #@! TO.C,C9*
X117461252Y-94610000D02*
X116938748Y-94610000D01*
X117461252Y-93190000D02*
X116938748Y-93190000D01*
G04 #@! TO.C,C10*
X123261252Y-80710000D02*
X122738748Y-80710000D01*
X123261252Y-79290000D02*
X122738748Y-79290000D01*
G04 #@! TO.C,C12*
X115890000Y-81836252D02*
X115890000Y-81313748D01*
X117310000Y-81836252D02*
X117310000Y-81313748D01*
G04 #@! TO.C,C13*
X112440000Y-94636252D02*
X112440000Y-94113748D01*
X113860000Y-94636252D02*
X113860000Y-94113748D01*
G04 #@! TO.C,C7*
X97511252Y-101360000D02*
X96988748Y-101360000D01*
X97511252Y-99940000D02*
X96988748Y-99940000D01*
G04 #@! TO.C,C6*
X108611252Y-96210000D02*
X108088748Y-96210000D01*
X108611252Y-94790000D02*
X108088748Y-94790000D01*
G04 #@! TO.C,C2*
X104598779Y-87160444D02*
X104835991Y-86694890D01*
X105864009Y-87805110D02*
X106101221Y-87339556D01*
G04 #@! TO.C,C3*
X108901221Y-88739556D02*
X108664009Y-89205110D01*
X107635991Y-88094890D02*
X107398779Y-88560444D01*
D12*
G04 #@! TO.C,U6*
X112560000Y-53026000D02*
X112060000Y-53526000D01*
X103060000Y-53526000D02*
X112060000Y-53526000D01*
X103060000Y-62526000D02*
X103060000Y-53526000D01*
X112060000Y-62526000D02*
X103060000Y-62526000D01*
X112060000Y-53526000D02*
X112060000Y-62526000D01*
G04 #@! TO.C,U5*
X61760000Y-53026000D02*
X61260000Y-53526000D01*
X52260000Y-53526000D02*
X61260000Y-53526000D01*
X52260000Y-62526000D02*
X52260000Y-53526000D01*
X61260000Y-62526000D02*
X52260000Y-62526000D01*
X61260000Y-53526000D02*
X61260000Y-62526000D01*
G04 #@! TO.C,C90*
X100592857Y-130007142D02*
X100640476Y-130054761D01*
X100783333Y-130102380D01*
X100878571Y-130102380D01*
X101021428Y-130054761D01*
X101116666Y-129959523D01*
X101164285Y-129864285D01*
X101211904Y-129673809D01*
X101211904Y-129530952D01*
X101164285Y-129340476D01*
X101116666Y-129245238D01*
X101021428Y-129150000D01*
X100878571Y-129102380D01*
X100783333Y-129102380D01*
X100640476Y-129150000D01*
X100592857Y-129197619D01*
X100116666Y-130102380D02*
X99926190Y-130102380D01*
X99830952Y-130054761D01*
X99783333Y-130007142D01*
X99688095Y-129864285D01*
X99640476Y-129673809D01*
X99640476Y-129292857D01*
X99688095Y-129197619D01*
X99735714Y-129150000D01*
X99830952Y-129102380D01*
X100021428Y-129102380D01*
X100116666Y-129150000D01*
X100164285Y-129197619D01*
X100211904Y-129292857D01*
X100211904Y-129530952D01*
X100164285Y-129626190D01*
X100116666Y-129673809D01*
X100021428Y-129721428D01*
X99830952Y-129721428D01*
X99735714Y-129673809D01*
X99688095Y-129626190D01*
X99640476Y-129530952D01*
X99021428Y-129102380D02*
X98926190Y-129102380D01*
X98830952Y-129150000D01*
X98783333Y-129197619D01*
X98735714Y-129292857D01*
X98688095Y-129483333D01*
X98688095Y-129721428D01*
X98735714Y-129911904D01*
X98783333Y-130007142D01*
X98830952Y-130054761D01*
X98926190Y-130102380D01*
X99021428Y-130102380D01*
X99116666Y-130054761D01*
X99164285Y-130007142D01*
X99211904Y-129911904D01*
X99259523Y-129721428D01*
X99259523Y-129483333D01*
X99211904Y-129292857D01*
X99164285Y-129197619D01*
X99116666Y-129150000D01*
X99021428Y-129102380D01*
G04 #@! TO.C,C91*
X119592857Y-130157142D02*
X119640476Y-130204761D01*
X119783333Y-130252380D01*
X119878571Y-130252380D01*
X120021428Y-130204761D01*
X120116666Y-130109523D01*
X120164285Y-130014285D01*
X120211904Y-129823809D01*
X120211904Y-129680952D01*
X120164285Y-129490476D01*
X120116666Y-129395238D01*
X120021428Y-129300000D01*
X119878571Y-129252380D01*
X119783333Y-129252380D01*
X119640476Y-129300000D01*
X119592857Y-129347619D01*
X119116666Y-130252380D02*
X118926190Y-130252380D01*
X118830952Y-130204761D01*
X118783333Y-130157142D01*
X118688095Y-130014285D01*
X118640476Y-129823809D01*
X118640476Y-129442857D01*
X118688095Y-129347619D01*
X118735714Y-129300000D01*
X118830952Y-129252380D01*
X119021428Y-129252380D01*
X119116666Y-129300000D01*
X119164285Y-129347619D01*
X119211904Y-129442857D01*
X119211904Y-129680952D01*
X119164285Y-129776190D01*
X119116666Y-129823809D01*
X119021428Y-129871428D01*
X118830952Y-129871428D01*
X118735714Y-129823809D01*
X118688095Y-129776190D01*
X118640476Y-129680952D01*
X117688095Y-130252380D02*
X118259523Y-130252380D01*
X117973809Y-130252380D02*
X117973809Y-129252380D01*
X118069047Y-129395238D01*
X118164285Y-129490476D01*
X118259523Y-129538095D01*
G04 #@! TO.C,C92*
X49442857Y-130157142D02*
X49490476Y-130204761D01*
X49633333Y-130252380D01*
X49728571Y-130252380D01*
X49871428Y-130204761D01*
X49966666Y-130109523D01*
X50014285Y-130014285D01*
X50061904Y-129823809D01*
X50061904Y-129680952D01*
X50014285Y-129490476D01*
X49966666Y-129395238D01*
X49871428Y-129300000D01*
X49728571Y-129252380D01*
X49633333Y-129252380D01*
X49490476Y-129300000D01*
X49442857Y-129347619D01*
X48966666Y-130252380D02*
X48776190Y-130252380D01*
X48680952Y-130204761D01*
X48633333Y-130157142D01*
X48538095Y-130014285D01*
X48490476Y-129823809D01*
X48490476Y-129442857D01*
X48538095Y-129347619D01*
X48585714Y-129300000D01*
X48680952Y-129252380D01*
X48871428Y-129252380D01*
X48966666Y-129300000D01*
X49014285Y-129347619D01*
X49061904Y-129442857D01*
X49061904Y-129680952D01*
X49014285Y-129776190D01*
X48966666Y-129823809D01*
X48871428Y-129871428D01*
X48680952Y-129871428D01*
X48585714Y-129823809D01*
X48538095Y-129776190D01*
X48490476Y-129680952D01*
X48109523Y-129347619D02*
X48061904Y-129300000D01*
X47966666Y-129252380D01*
X47728571Y-129252380D01*
X47633333Y-129300000D01*
X47585714Y-129347619D01*
X47538095Y-129442857D01*
X47538095Y-129538095D01*
X47585714Y-129680952D01*
X48157142Y-130252380D01*
X47538095Y-130252380D01*
G04 #@! TO.C,C93*
X74892857Y-130107142D02*
X74940476Y-130154761D01*
X75083333Y-130202380D01*
X75178571Y-130202380D01*
X75321428Y-130154761D01*
X75416666Y-130059523D01*
X75464285Y-129964285D01*
X75511904Y-129773809D01*
X75511904Y-129630952D01*
X75464285Y-129440476D01*
X75416666Y-129345238D01*
X75321428Y-129250000D01*
X75178571Y-129202380D01*
X75083333Y-129202380D01*
X74940476Y-129250000D01*
X74892857Y-129297619D01*
X74416666Y-130202380D02*
X74226190Y-130202380D01*
X74130952Y-130154761D01*
X74083333Y-130107142D01*
X73988095Y-129964285D01*
X73940476Y-129773809D01*
X73940476Y-129392857D01*
X73988095Y-129297619D01*
X74035714Y-129250000D01*
X74130952Y-129202380D01*
X74321428Y-129202380D01*
X74416666Y-129250000D01*
X74464285Y-129297619D01*
X74511904Y-129392857D01*
X74511904Y-129630952D01*
X74464285Y-129726190D01*
X74416666Y-129773809D01*
X74321428Y-129821428D01*
X74130952Y-129821428D01*
X74035714Y-129773809D01*
X73988095Y-129726190D01*
X73940476Y-129630952D01*
X73607142Y-129202380D02*
X72988095Y-129202380D01*
X73321428Y-129583333D01*
X73178571Y-129583333D01*
X73083333Y-129630952D01*
X73035714Y-129678571D01*
X72988095Y-129773809D01*
X72988095Y-130011904D01*
X73035714Y-130107142D01*
X73083333Y-130154761D01*
X73178571Y-130202380D01*
X73464285Y-130202380D01*
X73559523Y-130154761D01*
X73607142Y-130107142D01*
G04 #@! TO.C,C94*
X131992857Y-130157142D02*
X132040476Y-130204761D01*
X132183333Y-130252380D01*
X132278571Y-130252380D01*
X132421428Y-130204761D01*
X132516666Y-130109523D01*
X132564285Y-130014285D01*
X132611904Y-129823809D01*
X132611904Y-129680952D01*
X132564285Y-129490476D01*
X132516666Y-129395238D01*
X132421428Y-129300000D01*
X132278571Y-129252380D01*
X132183333Y-129252380D01*
X132040476Y-129300000D01*
X131992857Y-129347619D01*
X131516666Y-130252380D02*
X131326190Y-130252380D01*
X131230952Y-130204761D01*
X131183333Y-130157142D01*
X131088095Y-130014285D01*
X131040476Y-129823809D01*
X131040476Y-129442857D01*
X131088095Y-129347619D01*
X131135714Y-129300000D01*
X131230952Y-129252380D01*
X131421428Y-129252380D01*
X131516666Y-129300000D01*
X131564285Y-129347619D01*
X131611904Y-129442857D01*
X131611904Y-129680952D01*
X131564285Y-129776190D01*
X131516666Y-129823809D01*
X131421428Y-129871428D01*
X131230952Y-129871428D01*
X131135714Y-129823809D01*
X131088095Y-129776190D01*
X131040476Y-129680952D01*
X130183333Y-129585714D02*
X130183333Y-130252380D01*
X130421428Y-129204761D02*
X130659523Y-129919047D01*
X130040476Y-129919047D01*
G04 #@! TO.C,C95*
X112742857Y-130107142D02*
X112790476Y-130154761D01*
X112933333Y-130202380D01*
X113028571Y-130202380D01*
X113171428Y-130154761D01*
X113266666Y-130059523D01*
X113314285Y-129964285D01*
X113361904Y-129773809D01*
X113361904Y-129630952D01*
X113314285Y-129440476D01*
X113266666Y-129345238D01*
X113171428Y-129250000D01*
X113028571Y-129202380D01*
X112933333Y-129202380D01*
X112790476Y-129250000D01*
X112742857Y-129297619D01*
X112266666Y-130202380D02*
X112076190Y-130202380D01*
X111980952Y-130154761D01*
X111933333Y-130107142D01*
X111838095Y-129964285D01*
X111790476Y-129773809D01*
X111790476Y-129392857D01*
X111838095Y-129297619D01*
X111885714Y-129250000D01*
X111980952Y-129202380D01*
X112171428Y-129202380D01*
X112266666Y-129250000D01*
X112314285Y-129297619D01*
X112361904Y-129392857D01*
X112361904Y-129630952D01*
X112314285Y-129726190D01*
X112266666Y-129773809D01*
X112171428Y-129821428D01*
X111980952Y-129821428D01*
X111885714Y-129773809D01*
X111838095Y-129726190D01*
X111790476Y-129630952D01*
X110885714Y-129202380D02*
X111361904Y-129202380D01*
X111409523Y-129678571D01*
X111361904Y-129630952D01*
X111266666Y-129583333D01*
X111028571Y-129583333D01*
X110933333Y-129630952D01*
X110885714Y-129678571D01*
X110838095Y-129773809D01*
X110838095Y-130011904D01*
X110885714Y-130107142D01*
X110933333Y-130154761D01*
X111028571Y-130202380D01*
X111266666Y-130202380D01*
X111361904Y-130154761D01*
X111409523Y-130107142D01*
G04 #@! TO.C,C96*
X87492857Y-130057142D02*
X87540476Y-130104761D01*
X87683333Y-130152380D01*
X87778571Y-130152380D01*
X87921428Y-130104761D01*
X88016666Y-130009523D01*
X88064285Y-129914285D01*
X88111904Y-129723809D01*
X88111904Y-129580952D01*
X88064285Y-129390476D01*
X88016666Y-129295238D01*
X87921428Y-129200000D01*
X87778571Y-129152380D01*
X87683333Y-129152380D01*
X87540476Y-129200000D01*
X87492857Y-129247619D01*
X87016666Y-130152380D02*
X86826190Y-130152380D01*
X86730952Y-130104761D01*
X86683333Y-130057142D01*
X86588095Y-129914285D01*
X86540476Y-129723809D01*
X86540476Y-129342857D01*
X86588095Y-129247619D01*
X86635714Y-129200000D01*
X86730952Y-129152380D01*
X86921428Y-129152380D01*
X87016666Y-129200000D01*
X87064285Y-129247619D01*
X87111904Y-129342857D01*
X87111904Y-129580952D01*
X87064285Y-129676190D01*
X87016666Y-129723809D01*
X86921428Y-129771428D01*
X86730952Y-129771428D01*
X86635714Y-129723809D01*
X86588095Y-129676190D01*
X86540476Y-129580952D01*
X85683333Y-129152380D02*
X85873809Y-129152380D01*
X85969047Y-129200000D01*
X86016666Y-129247619D01*
X86111904Y-129390476D01*
X86159523Y-129580952D01*
X86159523Y-129961904D01*
X86111904Y-130057142D01*
X86064285Y-130104761D01*
X85969047Y-130152380D01*
X85778571Y-130152380D01*
X85683333Y-130104761D01*
X85635714Y-130057142D01*
X85588095Y-129961904D01*
X85588095Y-129723809D01*
X85635714Y-129628571D01*
X85683333Y-129580952D01*
X85778571Y-129533333D01*
X85969047Y-129533333D01*
X86064285Y-129580952D01*
X86111904Y-129628571D01*
X86159523Y-129723809D01*
G04 #@! TO.C,C97*
X61592857Y-130207142D02*
X61640476Y-130254761D01*
X61783333Y-130302380D01*
X61878571Y-130302380D01*
X62021428Y-130254761D01*
X62116666Y-130159523D01*
X62164285Y-130064285D01*
X62211904Y-129873809D01*
X62211904Y-129730952D01*
X62164285Y-129540476D01*
X62116666Y-129445238D01*
X62021428Y-129350000D01*
X61878571Y-129302380D01*
X61783333Y-129302380D01*
X61640476Y-129350000D01*
X61592857Y-129397619D01*
X61116666Y-130302380D02*
X60926190Y-130302380D01*
X60830952Y-130254761D01*
X60783333Y-130207142D01*
X60688095Y-130064285D01*
X60640476Y-129873809D01*
X60640476Y-129492857D01*
X60688095Y-129397619D01*
X60735714Y-129350000D01*
X60830952Y-129302380D01*
X61021428Y-129302380D01*
X61116666Y-129350000D01*
X61164285Y-129397619D01*
X61211904Y-129492857D01*
X61211904Y-129730952D01*
X61164285Y-129826190D01*
X61116666Y-129873809D01*
X61021428Y-129921428D01*
X60830952Y-129921428D01*
X60735714Y-129873809D01*
X60688095Y-129826190D01*
X60640476Y-129730952D01*
X60307142Y-129302380D02*
X59640476Y-129302380D01*
X60069047Y-130302380D01*
G04 #@! TO.C,C82*
X106457142Y-129307142D02*
X106504761Y-129259523D01*
X106552380Y-129116666D01*
X106552380Y-129021428D01*
X106504761Y-128878571D01*
X106409523Y-128783333D01*
X106314285Y-128735714D01*
X106123809Y-128688095D01*
X105980952Y-128688095D01*
X105790476Y-128735714D01*
X105695238Y-128783333D01*
X105600000Y-128878571D01*
X105552380Y-129021428D01*
X105552380Y-129116666D01*
X105600000Y-129259523D01*
X105647619Y-129307142D01*
X105980952Y-129878571D02*
X105933333Y-129783333D01*
X105885714Y-129735714D01*
X105790476Y-129688095D01*
X105742857Y-129688095D01*
X105647619Y-129735714D01*
X105600000Y-129783333D01*
X105552380Y-129878571D01*
X105552380Y-130069047D01*
X105600000Y-130164285D01*
X105647619Y-130211904D01*
X105742857Y-130259523D01*
X105790476Y-130259523D01*
X105885714Y-130211904D01*
X105933333Y-130164285D01*
X105980952Y-130069047D01*
X105980952Y-129878571D01*
X106028571Y-129783333D01*
X106076190Y-129735714D01*
X106171428Y-129688095D01*
X106361904Y-129688095D01*
X106457142Y-129735714D01*
X106504761Y-129783333D01*
X106552380Y-129878571D01*
X106552380Y-130069047D01*
X106504761Y-130164285D01*
X106457142Y-130211904D01*
X106361904Y-130259523D01*
X106171428Y-130259523D01*
X106076190Y-130211904D01*
X106028571Y-130164285D01*
X105980952Y-130069047D01*
X105647619Y-130640476D02*
X105600000Y-130688095D01*
X105552380Y-130783333D01*
X105552380Y-131021428D01*
X105600000Y-131116666D01*
X105647619Y-131164285D01*
X105742857Y-131211904D01*
X105838095Y-131211904D01*
X105980952Y-131164285D01*
X106552380Y-130592857D01*
X106552380Y-131211904D01*
G04 #@! TO.C,C83*
X125557142Y-129257142D02*
X125604761Y-129209523D01*
X125652380Y-129066666D01*
X125652380Y-128971428D01*
X125604761Y-128828571D01*
X125509523Y-128733333D01*
X125414285Y-128685714D01*
X125223809Y-128638095D01*
X125080952Y-128638095D01*
X124890476Y-128685714D01*
X124795238Y-128733333D01*
X124700000Y-128828571D01*
X124652380Y-128971428D01*
X124652380Y-129066666D01*
X124700000Y-129209523D01*
X124747619Y-129257142D01*
X125080952Y-129828571D02*
X125033333Y-129733333D01*
X124985714Y-129685714D01*
X124890476Y-129638095D01*
X124842857Y-129638095D01*
X124747619Y-129685714D01*
X124700000Y-129733333D01*
X124652380Y-129828571D01*
X124652380Y-130019047D01*
X124700000Y-130114285D01*
X124747619Y-130161904D01*
X124842857Y-130209523D01*
X124890476Y-130209523D01*
X124985714Y-130161904D01*
X125033333Y-130114285D01*
X125080952Y-130019047D01*
X125080952Y-129828571D01*
X125128571Y-129733333D01*
X125176190Y-129685714D01*
X125271428Y-129638095D01*
X125461904Y-129638095D01*
X125557142Y-129685714D01*
X125604761Y-129733333D01*
X125652380Y-129828571D01*
X125652380Y-130019047D01*
X125604761Y-130114285D01*
X125557142Y-130161904D01*
X125461904Y-130209523D01*
X125271428Y-130209523D01*
X125176190Y-130161904D01*
X125128571Y-130114285D01*
X125080952Y-130019047D01*
X124652380Y-130542857D02*
X124652380Y-131161904D01*
X125033333Y-130828571D01*
X125033333Y-130971428D01*
X125080952Y-131066666D01*
X125128571Y-131114285D01*
X125223809Y-131161904D01*
X125461904Y-131161904D01*
X125557142Y-131114285D01*
X125604761Y-131066666D01*
X125652380Y-130971428D01*
X125652380Y-130685714D01*
X125604761Y-130590476D01*
X125557142Y-130542857D01*
G04 #@! TO.C,C87*
X55257142Y-129307142D02*
X55304761Y-129259523D01*
X55352380Y-129116666D01*
X55352380Y-129021428D01*
X55304761Y-128878571D01*
X55209523Y-128783333D01*
X55114285Y-128735714D01*
X54923809Y-128688095D01*
X54780952Y-128688095D01*
X54590476Y-128735714D01*
X54495238Y-128783333D01*
X54400000Y-128878571D01*
X54352380Y-129021428D01*
X54352380Y-129116666D01*
X54400000Y-129259523D01*
X54447619Y-129307142D01*
X54780952Y-129878571D02*
X54733333Y-129783333D01*
X54685714Y-129735714D01*
X54590476Y-129688095D01*
X54542857Y-129688095D01*
X54447619Y-129735714D01*
X54400000Y-129783333D01*
X54352380Y-129878571D01*
X54352380Y-130069047D01*
X54400000Y-130164285D01*
X54447619Y-130211904D01*
X54542857Y-130259523D01*
X54590476Y-130259523D01*
X54685714Y-130211904D01*
X54733333Y-130164285D01*
X54780952Y-130069047D01*
X54780952Y-129878571D01*
X54828571Y-129783333D01*
X54876190Y-129735714D01*
X54971428Y-129688095D01*
X55161904Y-129688095D01*
X55257142Y-129735714D01*
X55304761Y-129783333D01*
X55352380Y-129878571D01*
X55352380Y-130069047D01*
X55304761Y-130164285D01*
X55257142Y-130211904D01*
X55161904Y-130259523D01*
X54971428Y-130259523D01*
X54876190Y-130211904D01*
X54828571Y-130164285D01*
X54780952Y-130069047D01*
X54352380Y-130592857D02*
X54352380Y-131259523D01*
X55352380Y-130830952D01*
G04 #@! TO.C,C86*
X80807142Y-129257142D02*
X80854761Y-129209523D01*
X80902380Y-129066666D01*
X80902380Y-128971428D01*
X80854761Y-128828571D01*
X80759523Y-128733333D01*
X80664285Y-128685714D01*
X80473809Y-128638095D01*
X80330952Y-128638095D01*
X80140476Y-128685714D01*
X80045238Y-128733333D01*
X79950000Y-128828571D01*
X79902380Y-128971428D01*
X79902380Y-129066666D01*
X79950000Y-129209523D01*
X79997619Y-129257142D01*
X80330952Y-129828571D02*
X80283333Y-129733333D01*
X80235714Y-129685714D01*
X80140476Y-129638095D01*
X80092857Y-129638095D01*
X79997619Y-129685714D01*
X79950000Y-129733333D01*
X79902380Y-129828571D01*
X79902380Y-130019047D01*
X79950000Y-130114285D01*
X79997619Y-130161904D01*
X80092857Y-130209523D01*
X80140476Y-130209523D01*
X80235714Y-130161904D01*
X80283333Y-130114285D01*
X80330952Y-130019047D01*
X80330952Y-129828571D01*
X80378571Y-129733333D01*
X80426190Y-129685714D01*
X80521428Y-129638095D01*
X80711904Y-129638095D01*
X80807142Y-129685714D01*
X80854761Y-129733333D01*
X80902380Y-129828571D01*
X80902380Y-130019047D01*
X80854761Y-130114285D01*
X80807142Y-130161904D01*
X80711904Y-130209523D01*
X80521428Y-130209523D01*
X80426190Y-130161904D01*
X80378571Y-130114285D01*
X80330952Y-130019047D01*
X79902380Y-131066666D02*
X79902380Y-130876190D01*
X79950000Y-130780952D01*
X79997619Y-130733333D01*
X80140476Y-130638095D01*
X80330952Y-130590476D01*
X80711904Y-130590476D01*
X80807142Y-130638095D01*
X80854761Y-130685714D01*
X80902380Y-130780952D01*
X80902380Y-130971428D01*
X80854761Y-131066666D01*
X80807142Y-131114285D01*
X80711904Y-131161904D01*
X80473809Y-131161904D01*
X80378571Y-131114285D01*
X80330952Y-131066666D01*
X80283333Y-130971428D01*
X80283333Y-130780952D01*
X80330952Y-130685714D01*
X80378571Y-130638095D01*
X80473809Y-130590476D01*
G04 #@! TO.C,R84*
X87942857Y-125902380D02*
X88276190Y-125426190D01*
X88514285Y-125902380D02*
X88514285Y-124902380D01*
X88133333Y-124902380D01*
X88038095Y-124950000D01*
X87990476Y-124997619D01*
X87942857Y-125092857D01*
X87942857Y-125235714D01*
X87990476Y-125330952D01*
X88038095Y-125378571D01*
X88133333Y-125426190D01*
X88514285Y-125426190D01*
X87371428Y-125330952D02*
X87466666Y-125283333D01*
X87514285Y-125235714D01*
X87561904Y-125140476D01*
X87561904Y-125092857D01*
X87514285Y-124997619D01*
X87466666Y-124950000D01*
X87371428Y-124902380D01*
X87180952Y-124902380D01*
X87085714Y-124950000D01*
X87038095Y-124997619D01*
X86990476Y-125092857D01*
X86990476Y-125140476D01*
X87038095Y-125235714D01*
X87085714Y-125283333D01*
X87180952Y-125330952D01*
X87371428Y-125330952D01*
X87466666Y-125378571D01*
X87514285Y-125426190D01*
X87561904Y-125521428D01*
X87561904Y-125711904D01*
X87514285Y-125807142D01*
X87466666Y-125854761D01*
X87371428Y-125902380D01*
X87180952Y-125902380D01*
X87085714Y-125854761D01*
X87038095Y-125807142D01*
X86990476Y-125711904D01*
X86990476Y-125521428D01*
X87038095Y-125426190D01*
X87085714Y-125378571D01*
X87180952Y-125330952D01*
X86133333Y-125235714D02*
X86133333Y-125902380D01*
X86371428Y-124854761D02*
X86609523Y-125569047D01*
X85990476Y-125569047D01*
G04 #@! TO.C,R74*
X115492857Y-128002380D02*
X115826190Y-127526190D01*
X116064285Y-128002380D02*
X116064285Y-127002380D01*
X115683333Y-127002380D01*
X115588095Y-127050000D01*
X115540476Y-127097619D01*
X115492857Y-127192857D01*
X115492857Y-127335714D01*
X115540476Y-127430952D01*
X115588095Y-127478571D01*
X115683333Y-127526190D01*
X116064285Y-127526190D01*
X115159523Y-127002380D02*
X114492857Y-127002380D01*
X114921428Y-128002380D01*
X113683333Y-127335714D02*
X113683333Y-128002380D01*
X113921428Y-126954761D02*
X114159523Y-127669047D01*
X113540476Y-127669047D01*
G04 #@! TO.C,R75*
X100592857Y-128052380D02*
X100926190Y-127576190D01*
X101164285Y-128052380D02*
X101164285Y-127052380D01*
X100783333Y-127052380D01*
X100688095Y-127100000D01*
X100640476Y-127147619D01*
X100592857Y-127242857D01*
X100592857Y-127385714D01*
X100640476Y-127480952D01*
X100688095Y-127528571D01*
X100783333Y-127576190D01*
X101164285Y-127576190D01*
X100259523Y-127052380D02*
X99592857Y-127052380D01*
X100021428Y-128052380D01*
X98735714Y-127052380D02*
X99211904Y-127052380D01*
X99259523Y-127528571D01*
X99211904Y-127480952D01*
X99116666Y-127433333D01*
X98878571Y-127433333D01*
X98783333Y-127480952D01*
X98735714Y-127528571D01*
X98688095Y-127623809D01*
X98688095Y-127861904D01*
X98735714Y-127957142D01*
X98783333Y-128004761D01*
X98878571Y-128052380D01*
X99116666Y-128052380D01*
X99211904Y-128004761D01*
X99259523Y-127957142D01*
G04 #@! TO.C,R76*
X134392857Y-128102380D02*
X134726190Y-127626190D01*
X134964285Y-128102380D02*
X134964285Y-127102380D01*
X134583333Y-127102380D01*
X134488095Y-127150000D01*
X134440476Y-127197619D01*
X134392857Y-127292857D01*
X134392857Y-127435714D01*
X134440476Y-127530952D01*
X134488095Y-127578571D01*
X134583333Y-127626190D01*
X134964285Y-127626190D01*
X134059523Y-127102380D02*
X133392857Y-127102380D01*
X133821428Y-128102380D01*
X132583333Y-127102380D02*
X132773809Y-127102380D01*
X132869047Y-127150000D01*
X132916666Y-127197619D01*
X133011904Y-127340476D01*
X133059523Y-127530952D01*
X133059523Y-127911904D01*
X133011904Y-128007142D01*
X132964285Y-128054761D01*
X132869047Y-128102380D01*
X132678571Y-128102380D01*
X132583333Y-128054761D01*
X132535714Y-128007142D01*
X132488095Y-127911904D01*
X132488095Y-127673809D01*
X132535714Y-127578571D01*
X132583333Y-127530952D01*
X132678571Y-127483333D01*
X132869047Y-127483333D01*
X132964285Y-127530952D01*
X133011904Y-127578571D01*
X133059523Y-127673809D01*
G04 #@! TO.C,R77*
X119692857Y-128052380D02*
X120026190Y-127576190D01*
X120264285Y-128052380D02*
X120264285Y-127052380D01*
X119883333Y-127052380D01*
X119788095Y-127100000D01*
X119740476Y-127147619D01*
X119692857Y-127242857D01*
X119692857Y-127385714D01*
X119740476Y-127480952D01*
X119788095Y-127528571D01*
X119883333Y-127576190D01*
X120264285Y-127576190D01*
X119359523Y-127052380D02*
X118692857Y-127052380D01*
X119121428Y-128052380D01*
X118407142Y-127052380D02*
X117740476Y-127052380D01*
X118169047Y-128052380D01*
G04 #@! TO.C,R70*
X102742857Y-126002380D02*
X103076190Y-125526190D01*
X103314285Y-126002380D02*
X103314285Y-125002380D01*
X102933333Y-125002380D01*
X102838095Y-125050000D01*
X102790476Y-125097619D01*
X102742857Y-125192857D01*
X102742857Y-125335714D01*
X102790476Y-125430952D01*
X102838095Y-125478571D01*
X102933333Y-125526190D01*
X103314285Y-125526190D01*
X102409523Y-125002380D02*
X101742857Y-125002380D01*
X102171428Y-126002380D01*
X101171428Y-125002380D02*
X101076190Y-125002380D01*
X100980952Y-125050000D01*
X100933333Y-125097619D01*
X100885714Y-125192857D01*
X100838095Y-125383333D01*
X100838095Y-125621428D01*
X100885714Y-125811904D01*
X100933333Y-125907142D01*
X100980952Y-125954761D01*
X101076190Y-126002380D01*
X101171428Y-126002380D01*
X101266666Y-125954761D01*
X101314285Y-125907142D01*
X101361904Y-125811904D01*
X101409523Y-125621428D01*
X101409523Y-125383333D01*
X101361904Y-125192857D01*
X101314285Y-125097619D01*
X101266666Y-125050000D01*
X101171428Y-125002380D01*
G04 #@! TO.C,R71*
X121792857Y-126052380D02*
X122126190Y-125576190D01*
X122364285Y-126052380D02*
X122364285Y-125052380D01*
X121983333Y-125052380D01*
X121888095Y-125100000D01*
X121840476Y-125147619D01*
X121792857Y-125242857D01*
X121792857Y-125385714D01*
X121840476Y-125480952D01*
X121888095Y-125528571D01*
X121983333Y-125576190D01*
X122364285Y-125576190D01*
X121459523Y-125052380D02*
X120792857Y-125052380D01*
X121221428Y-126052380D01*
X119888095Y-126052380D02*
X120459523Y-126052380D01*
X120173809Y-126052380D02*
X120173809Y-125052380D01*
X120269047Y-125195238D01*
X120364285Y-125290476D01*
X120459523Y-125338095D01*
G04 #@! TO.C,R72*
X113492857Y-126002380D02*
X113826190Y-125526190D01*
X114064285Y-126002380D02*
X114064285Y-125002380D01*
X113683333Y-125002380D01*
X113588095Y-125050000D01*
X113540476Y-125097619D01*
X113492857Y-125192857D01*
X113492857Y-125335714D01*
X113540476Y-125430952D01*
X113588095Y-125478571D01*
X113683333Y-125526190D01*
X114064285Y-125526190D01*
X113159523Y-125002380D02*
X112492857Y-125002380D01*
X112921428Y-126002380D01*
X112159523Y-125097619D02*
X112111904Y-125050000D01*
X112016666Y-125002380D01*
X111778571Y-125002380D01*
X111683333Y-125050000D01*
X111635714Y-125097619D01*
X111588095Y-125192857D01*
X111588095Y-125288095D01*
X111635714Y-125430952D01*
X112207142Y-126002380D01*
X111588095Y-126002380D01*
G04 #@! TO.C,R82*
X77042857Y-126002380D02*
X77376190Y-125526190D01*
X77614285Y-126002380D02*
X77614285Y-125002380D01*
X77233333Y-125002380D01*
X77138095Y-125050000D01*
X77090476Y-125097619D01*
X77042857Y-125192857D01*
X77042857Y-125335714D01*
X77090476Y-125430952D01*
X77138095Y-125478571D01*
X77233333Y-125526190D01*
X77614285Y-125526190D01*
X76471428Y-125430952D02*
X76566666Y-125383333D01*
X76614285Y-125335714D01*
X76661904Y-125240476D01*
X76661904Y-125192857D01*
X76614285Y-125097619D01*
X76566666Y-125050000D01*
X76471428Y-125002380D01*
X76280952Y-125002380D01*
X76185714Y-125050000D01*
X76138095Y-125097619D01*
X76090476Y-125192857D01*
X76090476Y-125240476D01*
X76138095Y-125335714D01*
X76185714Y-125383333D01*
X76280952Y-125430952D01*
X76471428Y-125430952D01*
X76566666Y-125478571D01*
X76614285Y-125526190D01*
X76661904Y-125621428D01*
X76661904Y-125811904D01*
X76614285Y-125907142D01*
X76566666Y-125954761D01*
X76471428Y-126002380D01*
X76280952Y-126002380D01*
X76185714Y-125954761D01*
X76138095Y-125907142D01*
X76090476Y-125811904D01*
X76090476Y-125621428D01*
X76138095Y-125526190D01*
X76185714Y-125478571D01*
X76280952Y-125430952D01*
X75709523Y-125097619D02*
X75661904Y-125050000D01*
X75566666Y-125002380D01*
X75328571Y-125002380D01*
X75233333Y-125050000D01*
X75185714Y-125097619D01*
X75138095Y-125192857D01*
X75138095Y-125288095D01*
X75185714Y-125430952D01*
X75757142Y-126002380D01*
X75138095Y-126002380D01*
G04 #@! TO.C,R83*
X51542857Y-126002380D02*
X51876190Y-125526190D01*
X52114285Y-126002380D02*
X52114285Y-125002380D01*
X51733333Y-125002380D01*
X51638095Y-125050000D01*
X51590476Y-125097619D01*
X51542857Y-125192857D01*
X51542857Y-125335714D01*
X51590476Y-125430952D01*
X51638095Y-125478571D01*
X51733333Y-125526190D01*
X52114285Y-125526190D01*
X50971428Y-125430952D02*
X51066666Y-125383333D01*
X51114285Y-125335714D01*
X51161904Y-125240476D01*
X51161904Y-125192857D01*
X51114285Y-125097619D01*
X51066666Y-125050000D01*
X50971428Y-125002380D01*
X50780952Y-125002380D01*
X50685714Y-125050000D01*
X50638095Y-125097619D01*
X50590476Y-125192857D01*
X50590476Y-125240476D01*
X50638095Y-125335714D01*
X50685714Y-125383333D01*
X50780952Y-125430952D01*
X50971428Y-125430952D01*
X51066666Y-125478571D01*
X51114285Y-125526190D01*
X51161904Y-125621428D01*
X51161904Y-125811904D01*
X51114285Y-125907142D01*
X51066666Y-125954761D01*
X50971428Y-126002380D01*
X50780952Y-126002380D01*
X50685714Y-125954761D01*
X50638095Y-125907142D01*
X50590476Y-125811904D01*
X50590476Y-125621428D01*
X50638095Y-125526190D01*
X50685714Y-125478571D01*
X50780952Y-125430952D01*
X50257142Y-125002380D02*
X49638095Y-125002380D01*
X49971428Y-125383333D01*
X49828571Y-125383333D01*
X49733333Y-125430952D01*
X49685714Y-125478571D01*
X49638095Y-125573809D01*
X49638095Y-125811904D01*
X49685714Y-125907142D01*
X49733333Y-125954761D01*
X49828571Y-126002380D01*
X50114285Y-126002380D01*
X50209523Y-125954761D01*
X50257142Y-125907142D01*
G04 #@! TO.C,R73*
X132392857Y-126052380D02*
X132726190Y-125576190D01*
X132964285Y-126052380D02*
X132964285Y-125052380D01*
X132583333Y-125052380D01*
X132488095Y-125100000D01*
X132440476Y-125147619D01*
X132392857Y-125242857D01*
X132392857Y-125385714D01*
X132440476Y-125480952D01*
X132488095Y-125528571D01*
X132583333Y-125576190D01*
X132964285Y-125576190D01*
X132059523Y-125052380D02*
X131392857Y-125052380D01*
X131821428Y-126052380D01*
X131107142Y-125052380D02*
X130488095Y-125052380D01*
X130821428Y-125433333D01*
X130678571Y-125433333D01*
X130583333Y-125480952D01*
X130535714Y-125528571D01*
X130488095Y-125623809D01*
X130488095Y-125861904D01*
X130535714Y-125957142D01*
X130583333Y-126004761D01*
X130678571Y-126052380D01*
X130964285Y-126052380D01*
X131059523Y-126004761D01*
X131107142Y-125957142D01*
G04 #@! TO.C,R85*
X62292857Y-125902380D02*
X62626190Y-125426190D01*
X62864285Y-125902380D02*
X62864285Y-124902380D01*
X62483333Y-124902380D01*
X62388095Y-124950000D01*
X62340476Y-124997619D01*
X62292857Y-125092857D01*
X62292857Y-125235714D01*
X62340476Y-125330952D01*
X62388095Y-125378571D01*
X62483333Y-125426190D01*
X62864285Y-125426190D01*
X61721428Y-125330952D02*
X61816666Y-125283333D01*
X61864285Y-125235714D01*
X61911904Y-125140476D01*
X61911904Y-125092857D01*
X61864285Y-124997619D01*
X61816666Y-124950000D01*
X61721428Y-124902380D01*
X61530952Y-124902380D01*
X61435714Y-124950000D01*
X61388095Y-124997619D01*
X61340476Y-125092857D01*
X61340476Y-125140476D01*
X61388095Y-125235714D01*
X61435714Y-125283333D01*
X61530952Y-125330952D01*
X61721428Y-125330952D01*
X61816666Y-125378571D01*
X61864285Y-125426190D01*
X61911904Y-125521428D01*
X61911904Y-125711904D01*
X61864285Y-125807142D01*
X61816666Y-125854761D01*
X61721428Y-125902380D01*
X61530952Y-125902380D01*
X61435714Y-125854761D01*
X61388095Y-125807142D01*
X61340476Y-125711904D01*
X61340476Y-125521428D01*
X61388095Y-125426190D01*
X61435714Y-125378571D01*
X61530952Y-125330952D01*
X60435714Y-124902380D02*
X60911904Y-124902380D01*
X60959523Y-125378571D01*
X60911904Y-125330952D01*
X60816666Y-125283333D01*
X60578571Y-125283333D01*
X60483333Y-125330952D01*
X60435714Y-125378571D01*
X60388095Y-125473809D01*
X60388095Y-125711904D01*
X60435714Y-125807142D01*
X60483333Y-125854761D01*
X60578571Y-125902380D01*
X60816666Y-125902380D01*
X60911904Y-125854761D01*
X60959523Y-125807142D01*
G04 #@! TO.C,R86*
X89692857Y-128052380D02*
X90026190Y-127576190D01*
X90264285Y-128052380D02*
X90264285Y-127052380D01*
X89883333Y-127052380D01*
X89788095Y-127100000D01*
X89740476Y-127147619D01*
X89692857Y-127242857D01*
X89692857Y-127385714D01*
X89740476Y-127480952D01*
X89788095Y-127528571D01*
X89883333Y-127576190D01*
X90264285Y-127576190D01*
X89121428Y-127480952D02*
X89216666Y-127433333D01*
X89264285Y-127385714D01*
X89311904Y-127290476D01*
X89311904Y-127242857D01*
X89264285Y-127147619D01*
X89216666Y-127100000D01*
X89121428Y-127052380D01*
X88930952Y-127052380D01*
X88835714Y-127100000D01*
X88788095Y-127147619D01*
X88740476Y-127242857D01*
X88740476Y-127290476D01*
X88788095Y-127385714D01*
X88835714Y-127433333D01*
X88930952Y-127480952D01*
X89121428Y-127480952D01*
X89216666Y-127528571D01*
X89264285Y-127576190D01*
X89311904Y-127671428D01*
X89311904Y-127861904D01*
X89264285Y-127957142D01*
X89216666Y-128004761D01*
X89121428Y-128052380D01*
X88930952Y-128052380D01*
X88835714Y-128004761D01*
X88788095Y-127957142D01*
X88740476Y-127861904D01*
X88740476Y-127671428D01*
X88788095Y-127576190D01*
X88835714Y-127528571D01*
X88930952Y-127480952D01*
X87883333Y-127052380D02*
X88073809Y-127052380D01*
X88169047Y-127100000D01*
X88216666Y-127147619D01*
X88311904Y-127290476D01*
X88359523Y-127480952D01*
X88359523Y-127861904D01*
X88311904Y-127957142D01*
X88264285Y-128004761D01*
X88169047Y-128052380D01*
X87978571Y-128052380D01*
X87883333Y-128004761D01*
X87835714Y-127957142D01*
X87788095Y-127861904D01*
X87788095Y-127623809D01*
X87835714Y-127528571D01*
X87883333Y-127480952D01*
X87978571Y-127433333D01*
X88169047Y-127433333D01*
X88264285Y-127480952D01*
X88311904Y-127528571D01*
X88359523Y-127623809D01*
G04 #@! TO.C,R87*
X74892857Y-128052380D02*
X75226190Y-127576190D01*
X75464285Y-128052380D02*
X75464285Y-127052380D01*
X75083333Y-127052380D01*
X74988095Y-127100000D01*
X74940476Y-127147619D01*
X74892857Y-127242857D01*
X74892857Y-127385714D01*
X74940476Y-127480952D01*
X74988095Y-127528571D01*
X75083333Y-127576190D01*
X75464285Y-127576190D01*
X74321428Y-127480952D02*
X74416666Y-127433333D01*
X74464285Y-127385714D01*
X74511904Y-127290476D01*
X74511904Y-127242857D01*
X74464285Y-127147619D01*
X74416666Y-127100000D01*
X74321428Y-127052380D01*
X74130952Y-127052380D01*
X74035714Y-127100000D01*
X73988095Y-127147619D01*
X73940476Y-127242857D01*
X73940476Y-127290476D01*
X73988095Y-127385714D01*
X74035714Y-127433333D01*
X74130952Y-127480952D01*
X74321428Y-127480952D01*
X74416666Y-127528571D01*
X74464285Y-127576190D01*
X74511904Y-127671428D01*
X74511904Y-127861904D01*
X74464285Y-127957142D01*
X74416666Y-128004761D01*
X74321428Y-128052380D01*
X74130952Y-128052380D01*
X74035714Y-128004761D01*
X73988095Y-127957142D01*
X73940476Y-127861904D01*
X73940476Y-127671428D01*
X73988095Y-127576190D01*
X74035714Y-127528571D01*
X74130952Y-127480952D01*
X73607142Y-127052380D02*
X72940476Y-127052380D01*
X73369047Y-128052380D01*
G04 #@! TO.C,R88*
X64192857Y-128002380D02*
X64526190Y-127526190D01*
X64764285Y-128002380D02*
X64764285Y-127002380D01*
X64383333Y-127002380D01*
X64288095Y-127050000D01*
X64240476Y-127097619D01*
X64192857Y-127192857D01*
X64192857Y-127335714D01*
X64240476Y-127430952D01*
X64288095Y-127478571D01*
X64383333Y-127526190D01*
X64764285Y-127526190D01*
X63621428Y-127430952D02*
X63716666Y-127383333D01*
X63764285Y-127335714D01*
X63811904Y-127240476D01*
X63811904Y-127192857D01*
X63764285Y-127097619D01*
X63716666Y-127050000D01*
X63621428Y-127002380D01*
X63430952Y-127002380D01*
X63335714Y-127050000D01*
X63288095Y-127097619D01*
X63240476Y-127192857D01*
X63240476Y-127240476D01*
X63288095Y-127335714D01*
X63335714Y-127383333D01*
X63430952Y-127430952D01*
X63621428Y-127430952D01*
X63716666Y-127478571D01*
X63764285Y-127526190D01*
X63811904Y-127621428D01*
X63811904Y-127811904D01*
X63764285Y-127907142D01*
X63716666Y-127954761D01*
X63621428Y-128002380D01*
X63430952Y-128002380D01*
X63335714Y-127954761D01*
X63288095Y-127907142D01*
X63240476Y-127811904D01*
X63240476Y-127621428D01*
X63288095Y-127526190D01*
X63335714Y-127478571D01*
X63430952Y-127430952D01*
X62669047Y-127430952D02*
X62764285Y-127383333D01*
X62811904Y-127335714D01*
X62859523Y-127240476D01*
X62859523Y-127192857D01*
X62811904Y-127097619D01*
X62764285Y-127050000D01*
X62669047Y-127002380D01*
X62478571Y-127002380D01*
X62383333Y-127050000D01*
X62335714Y-127097619D01*
X62288095Y-127192857D01*
X62288095Y-127240476D01*
X62335714Y-127335714D01*
X62383333Y-127383333D01*
X62478571Y-127430952D01*
X62669047Y-127430952D01*
X62764285Y-127478571D01*
X62811904Y-127526190D01*
X62859523Y-127621428D01*
X62859523Y-127811904D01*
X62811904Y-127907142D01*
X62764285Y-127954761D01*
X62669047Y-128002380D01*
X62478571Y-128002380D01*
X62383333Y-127954761D01*
X62335714Y-127907142D01*
X62288095Y-127811904D01*
X62288095Y-127621428D01*
X62335714Y-127526190D01*
X62383333Y-127478571D01*
X62478571Y-127430952D01*
G04 #@! TO.C,R89*
X49492857Y-128102380D02*
X49826190Y-127626190D01*
X50064285Y-128102380D02*
X50064285Y-127102380D01*
X49683333Y-127102380D01*
X49588095Y-127150000D01*
X49540476Y-127197619D01*
X49492857Y-127292857D01*
X49492857Y-127435714D01*
X49540476Y-127530952D01*
X49588095Y-127578571D01*
X49683333Y-127626190D01*
X50064285Y-127626190D01*
X48921428Y-127530952D02*
X49016666Y-127483333D01*
X49064285Y-127435714D01*
X49111904Y-127340476D01*
X49111904Y-127292857D01*
X49064285Y-127197619D01*
X49016666Y-127150000D01*
X48921428Y-127102380D01*
X48730952Y-127102380D01*
X48635714Y-127150000D01*
X48588095Y-127197619D01*
X48540476Y-127292857D01*
X48540476Y-127340476D01*
X48588095Y-127435714D01*
X48635714Y-127483333D01*
X48730952Y-127530952D01*
X48921428Y-127530952D01*
X49016666Y-127578571D01*
X49064285Y-127626190D01*
X49111904Y-127721428D01*
X49111904Y-127911904D01*
X49064285Y-128007142D01*
X49016666Y-128054761D01*
X48921428Y-128102380D01*
X48730952Y-128102380D01*
X48635714Y-128054761D01*
X48588095Y-128007142D01*
X48540476Y-127911904D01*
X48540476Y-127721428D01*
X48588095Y-127626190D01*
X48635714Y-127578571D01*
X48730952Y-127530952D01*
X48064285Y-128102380D02*
X47873809Y-128102380D01*
X47778571Y-128054761D01*
X47730952Y-128007142D01*
X47635714Y-127864285D01*
X47588095Y-127673809D01*
X47588095Y-127292857D01*
X47635714Y-127197619D01*
X47683333Y-127150000D01*
X47778571Y-127102380D01*
X47969047Y-127102380D01*
X48064285Y-127150000D01*
X48111904Y-127197619D01*
X48159523Y-127292857D01*
X48159523Y-127530952D01*
X48111904Y-127626190D01*
X48064285Y-127673809D01*
X47969047Y-127721428D01*
X47778571Y-127721428D01*
X47683333Y-127673809D01*
X47635714Y-127626190D01*
X47588095Y-127530952D01*
G04 #@! TO.C,C78*
X55142857Y-47307142D02*
X55190476Y-47354761D01*
X55333333Y-47402380D01*
X55428571Y-47402380D01*
X55571428Y-47354761D01*
X55666666Y-47259523D01*
X55714285Y-47164285D01*
X55761904Y-46973809D01*
X55761904Y-46830952D01*
X55714285Y-46640476D01*
X55666666Y-46545238D01*
X55571428Y-46450000D01*
X55428571Y-46402380D01*
X55333333Y-46402380D01*
X55190476Y-46450000D01*
X55142857Y-46497619D01*
X54809523Y-46402380D02*
X54142857Y-46402380D01*
X54571428Y-47402380D01*
X53619047Y-46830952D02*
X53714285Y-46783333D01*
X53761904Y-46735714D01*
X53809523Y-46640476D01*
X53809523Y-46592857D01*
X53761904Y-46497619D01*
X53714285Y-46450000D01*
X53619047Y-46402380D01*
X53428571Y-46402380D01*
X53333333Y-46450000D01*
X53285714Y-46497619D01*
X53238095Y-46592857D01*
X53238095Y-46640476D01*
X53285714Y-46735714D01*
X53333333Y-46783333D01*
X53428571Y-46830952D01*
X53619047Y-46830952D01*
X53714285Y-46878571D01*
X53761904Y-46926190D01*
X53809523Y-47021428D01*
X53809523Y-47211904D01*
X53761904Y-47307142D01*
X53714285Y-47354761D01*
X53619047Y-47402380D01*
X53428571Y-47402380D01*
X53333333Y-47354761D01*
X53285714Y-47307142D01*
X53238095Y-47211904D01*
X53238095Y-47021428D01*
X53285714Y-46926190D01*
X53333333Y-46878571D01*
X53428571Y-46830952D01*
G04 #@! TO.C,C79*
X105542857Y-47307142D02*
X105590476Y-47354761D01*
X105733333Y-47402380D01*
X105828571Y-47402380D01*
X105971428Y-47354761D01*
X106066666Y-47259523D01*
X106114285Y-47164285D01*
X106161904Y-46973809D01*
X106161904Y-46830952D01*
X106114285Y-46640476D01*
X106066666Y-46545238D01*
X105971428Y-46450000D01*
X105828571Y-46402380D01*
X105733333Y-46402380D01*
X105590476Y-46450000D01*
X105542857Y-46497619D01*
X105209523Y-46402380D02*
X104542857Y-46402380D01*
X104971428Y-47402380D01*
X104114285Y-47402380D02*
X103923809Y-47402380D01*
X103828571Y-47354761D01*
X103780952Y-47307142D01*
X103685714Y-47164285D01*
X103638095Y-46973809D01*
X103638095Y-46592857D01*
X103685714Y-46497619D01*
X103733333Y-46450000D01*
X103828571Y-46402380D01*
X104019047Y-46402380D01*
X104114285Y-46450000D01*
X104161904Y-46497619D01*
X104209523Y-46592857D01*
X104209523Y-46830952D01*
X104161904Y-46926190D01*
X104114285Y-46973809D01*
X104019047Y-47021428D01*
X103828571Y-47021428D01*
X103733333Y-46973809D01*
X103685714Y-46926190D01*
X103638095Y-46830952D01*
G04 #@! TO.C,C80*
X59642857Y-47357142D02*
X59690476Y-47404761D01*
X59833333Y-47452380D01*
X59928571Y-47452380D01*
X60071428Y-47404761D01*
X60166666Y-47309523D01*
X60214285Y-47214285D01*
X60261904Y-47023809D01*
X60261904Y-46880952D01*
X60214285Y-46690476D01*
X60166666Y-46595238D01*
X60071428Y-46500000D01*
X59928571Y-46452380D01*
X59833333Y-46452380D01*
X59690476Y-46500000D01*
X59642857Y-46547619D01*
X59071428Y-46880952D02*
X59166666Y-46833333D01*
X59214285Y-46785714D01*
X59261904Y-46690476D01*
X59261904Y-46642857D01*
X59214285Y-46547619D01*
X59166666Y-46500000D01*
X59071428Y-46452380D01*
X58880952Y-46452380D01*
X58785714Y-46500000D01*
X58738095Y-46547619D01*
X58690476Y-46642857D01*
X58690476Y-46690476D01*
X58738095Y-46785714D01*
X58785714Y-46833333D01*
X58880952Y-46880952D01*
X59071428Y-46880952D01*
X59166666Y-46928571D01*
X59214285Y-46976190D01*
X59261904Y-47071428D01*
X59261904Y-47261904D01*
X59214285Y-47357142D01*
X59166666Y-47404761D01*
X59071428Y-47452380D01*
X58880952Y-47452380D01*
X58785714Y-47404761D01*
X58738095Y-47357142D01*
X58690476Y-47261904D01*
X58690476Y-47071428D01*
X58738095Y-46976190D01*
X58785714Y-46928571D01*
X58880952Y-46880952D01*
X58071428Y-46452380D02*
X57976190Y-46452380D01*
X57880952Y-46500000D01*
X57833333Y-46547619D01*
X57785714Y-46642857D01*
X57738095Y-46833333D01*
X57738095Y-47071428D01*
X57785714Y-47261904D01*
X57833333Y-47357142D01*
X57880952Y-47404761D01*
X57976190Y-47452380D01*
X58071428Y-47452380D01*
X58166666Y-47404761D01*
X58214285Y-47357142D01*
X58261904Y-47261904D01*
X58309523Y-47071428D01*
X58309523Y-46833333D01*
X58261904Y-46642857D01*
X58214285Y-46547619D01*
X58166666Y-46500000D01*
X58071428Y-46452380D01*
G04 #@! TO.C,C81*
X110092857Y-47207142D02*
X110140476Y-47254761D01*
X110283333Y-47302380D01*
X110378571Y-47302380D01*
X110521428Y-47254761D01*
X110616666Y-47159523D01*
X110664285Y-47064285D01*
X110711904Y-46873809D01*
X110711904Y-46730952D01*
X110664285Y-46540476D01*
X110616666Y-46445238D01*
X110521428Y-46350000D01*
X110378571Y-46302380D01*
X110283333Y-46302380D01*
X110140476Y-46350000D01*
X110092857Y-46397619D01*
X109521428Y-46730952D02*
X109616666Y-46683333D01*
X109664285Y-46635714D01*
X109711904Y-46540476D01*
X109711904Y-46492857D01*
X109664285Y-46397619D01*
X109616666Y-46350000D01*
X109521428Y-46302380D01*
X109330952Y-46302380D01*
X109235714Y-46350000D01*
X109188095Y-46397619D01*
X109140476Y-46492857D01*
X109140476Y-46540476D01*
X109188095Y-46635714D01*
X109235714Y-46683333D01*
X109330952Y-46730952D01*
X109521428Y-46730952D01*
X109616666Y-46778571D01*
X109664285Y-46826190D01*
X109711904Y-46921428D01*
X109711904Y-47111904D01*
X109664285Y-47207142D01*
X109616666Y-47254761D01*
X109521428Y-47302380D01*
X109330952Y-47302380D01*
X109235714Y-47254761D01*
X109188095Y-47207142D01*
X109140476Y-47111904D01*
X109140476Y-46921428D01*
X109188095Y-46826190D01*
X109235714Y-46778571D01*
X109330952Y-46730952D01*
X108188095Y-47302380D02*
X108759523Y-47302380D01*
X108473809Y-47302380D02*
X108473809Y-46302380D01*
X108569047Y-46445238D01*
X108664285Y-46540476D01*
X108759523Y-46588095D01*
G04 #@! TO.C,C74*
X136457142Y-80307142D02*
X136504761Y-80259523D01*
X136552380Y-80116666D01*
X136552380Y-80021428D01*
X136504761Y-79878571D01*
X136409523Y-79783333D01*
X136314285Y-79735714D01*
X136123809Y-79688095D01*
X135980952Y-79688095D01*
X135790476Y-79735714D01*
X135695238Y-79783333D01*
X135600000Y-79878571D01*
X135552380Y-80021428D01*
X135552380Y-80116666D01*
X135600000Y-80259523D01*
X135647619Y-80307142D01*
X135552380Y-80640476D02*
X135552380Y-81307142D01*
X136552380Y-80878571D01*
X135885714Y-82116666D02*
X136552380Y-82116666D01*
X135504761Y-81878571D02*
X136219047Y-81640476D01*
X136219047Y-82259523D01*
G04 #@! TO.C,C75*
X136457142Y-84257142D02*
X136504761Y-84209523D01*
X136552380Y-84066666D01*
X136552380Y-83971428D01*
X136504761Y-83828571D01*
X136409523Y-83733333D01*
X136314285Y-83685714D01*
X136123809Y-83638095D01*
X135980952Y-83638095D01*
X135790476Y-83685714D01*
X135695238Y-83733333D01*
X135600000Y-83828571D01*
X135552380Y-83971428D01*
X135552380Y-84066666D01*
X135600000Y-84209523D01*
X135647619Y-84257142D01*
X135552380Y-84590476D02*
X135552380Y-85257142D01*
X136552380Y-84828571D01*
X135552380Y-86114285D02*
X135552380Y-85638095D01*
X136028571Y-85590476D01*
X135980952Y-85638095D01*
X135933333Y-85733333D01*
X135933333Y-85971428D01*
X135980952Y-86066666D01*
X136028571Y-86114285D01*
X136123809Y-86161904D01*
X136361904Y-86161904D01*
X136457142Y-86114285D01*
X136504761Y-86066666D01*
X136552380Y-85971428D01*
X136552380Y-85733333D01*
X136504761Y-85638095D01*
X136457142Y-85590476D01*
G04 #@! TO.C,R54*
X136552380Y-95507142D02*
X136076190Y-95173809D01*
X136552380Y-94935714D02*
X135552380Y-94935714D01*
X135552380Y-95316666D01*
X135600000Y-95411904D01*
X135647619Y-95459523D01*
X135742857Y-95507142D01*
X135885714Y-95507142D01*
X135980952Y-95459523D01*
X136028571Y-95411904D01*
X136076190Y-95316666D01*
X136076190Y-94935714D01*
X135552380Y-96411904D02*
X135552380Y-95935714D01*
X136028571Y-95888095D01*
X135980952Y-95935714D01*
X135933333Y-96030952D01*
X135933333Y-96269047D01*
X135980952Y-96364285D01*
X136028571Y-96411904D01*
X136123809Y-96459523D01*
X136361904Y-96459523D01*
X136457142Y-96411904D01*
X136504761Y-96364285D01*
X136552380Y-96269047D01*
X136552380Y-96030952D01*
X136504761Y-95935714D01*
X136457142Y-95888095D01*
X135885714Y-97316666D02*
X136552380Y-97316666D01*
X135504761Y-97078571D02*
X136219047Y-96840476D01*
X136219047Y-97459523D01*
G04 #@! TO.C,R55*
X136502380Y-91707142D02*
X136026190Y-91373809D01*
X136502380Y-91135714D02*
X135502380Y-91135714D01*
X135502380Y-91516666D01*
X135550000Y-91611904D01*
X135597619Y-91659523D01*
X135692857Y-91707142D01*
X135835714Y-91707142D01*
X135930952Y-91659523D01*
X135978571Y-91611904D01*
X136026190Y-91516666D01*
X136026190Y-91135714D01*
X135502380Y-92611904D02*
X135502380Y-92135714D01*
X135978571Y-92088095D01*
X135930952Y-92135714D01*
X135883333Y-92230952D01*
X135883333Y-92469047D01*
X135930952Y-92564285D01*
X135978571Y-92611904D01*
X136073809Y-92659523D01*
X136311904Y-92659523D01*
X136407142Y-92611904D01*
X136454761Y-92564285D01*
X136502380Y-92469047D01*
X136502380Y-92230952D01*
X136454761Y-92135714D01*
X136407142Y-92088095D01*
X135502380Y-93564285D02*
X135502380Y-93088095D01*
X135978571Y-93040476D01*
X135930952Y-93088095D01*
X135883333Y-93183333D01*
X135883333Y-93421428D01*
X135930952Y-93516666D01*
X135978571Y-93564285D01*
X136073809Y-93611904D01*
X136311904Y-93611904D01*
X136407142Y-93564285D01*
X136454761Y-93516666D01*
X136502380Y-93421428D01*
X136502380Y-93183333D01*
X136454761Y-93088095D01*
X136407142Y-93040476D01*
G04 #@! TO.C,C73*
X64592857Y-106907142D02*
X64640476Y-106954761D01*
X64783333Y-107002380D01*
X64878571Y-107002380D01*
X65021428Y-106954761D01*
X65116666Y-106859523D01*
X65164285Y-106764285D01*
X65211904Y-106573809D01*
X65211904Y-106430952D01*
X65164285Y-106240476D01*
X65116666Y-106145238D01*
X65021428Y-106050000D01*
X64878571Y-106002380D01*
X64783333Y-106002380D01*
X64640476Y-106050000D01*
X64592857Y-106097619D01*
X64259523Y-106002380D02*
X63592857Y-106002380D01*
X64021428Y-107002380D01*
X63307142Y-106002380D02*
X62688095Y-106002380D01*
X63021428Y-106383333D01*
X62878571Y-106383333D01*
X62783333Y-106430952D01*
X62735714Y-106478571D01*
X62688095Y-106573809D01*
X62688095Y-106811904D01*
X62735714Y-106907142D01*
X62783333Y-106954761D01*
X62878571Y-107002380D01*
X63164285Y-107002380D01*
X63259523Y-106954761D01*
X63307142Y-106907142D01*
G04 #@! TO.C,C72*
X64592857Y-104407142D02*
X64640476Y-104454761D01*
X64783333Y-104502380D01*
X64878571Y-104502380D01*
X65021428Y-104454761D01*
X65116666Y-104359523D01*
X65164285Y-104264285D01*
X65211904Y-104073809D01*
X65211904Y-103930952D01*
X65164285Y-103740476D01*
X65116666Y-103645238D01*
X65021428Y-103550000D01*
X64878571Y-103502380D01*
X64783333Y-103502380D01*
X64640476Y-103550000D01*
X64592857Y-103597619D01*
X64259523Y-103502380D02*
X63592857Y-103502380D01*
X64021428Y-104502380D01*
X63259523Y-103597619D02*
X63211904Y-103550000D01*
X63116666Y-103502380D01*
X62878571Y-103502380D01*
X62783333Y-103550000D01*
X62735714Y-103597619D01*
X62688095Y-103692857D01*
X62688095Y-103788095D01*
X62735714Y-103930952D01*
X63307142Y-104502380D01*
X62688095Y-104502380D01*
G04 #@! TO.C,C63*
X60407142Y-90607142D02*
X60454761Y-90559523D01*
X60502380Y-90416666D01*
X60502380Y-90321428D01*
X60454761Y-90178571D01*
X60359523Y-90083333D01*
X60264285Y-90035714D01*
X60073809Y-89988095D01*
X59930952Y-89988095D01*
X59740476Y-90035714D01*
X59645238Y-90083333D01*
X59550000Y-90178571D01*
X59502380Y-90321428D01*
X59502380Y-90416666D01*
X59550000Y-90559523D01*
X59597619Y-90607142D01*
X59502380Y-91464285D02*
X59502380Y-91273809D01*
X59550000Y-91178571D01*
X59597619Y-91130952D01*
X59740476Y-91035714D01*
X59930952Y-90988095D01*
X60311904Y-90988095D01*
X60407142Y-91035714D01*
X60454761Y-91083333D01*
X60502380Y-91178571D01*
X60502380Y-91369047D01*
X60454761Y-91464285D01*
X60407142Y-91511904D01*
X60311904Y-91559523D01*
X60073809Y-91559523D01*
X59978571Y-91511904D01*
X59930952Y-91464285D01*
X59883333Y-91369047D01*
X59883333Y-91178571D01*
X59930952Y-91083333D01*
X59978571Y-91035714D01*
X60073809Y-90988095D01*
X59502380Y-91892857D02*
X59502380Y-92511904D01*
X59883333Y-92178571D01*
X59883333Y-92321428D01*
X59930952Y-92416666D01*
X59978571Y-92464285D01*
X60073809Y-92511904D01*
X60311904Y-92511904D01*
X60407142Y-92464285D01*
X60454761Y-92416666D01*
X60502380Y-92321428D01*
X60502380Y-92035714D01*
X60454761Y-91940476D01*
X60407142Y-91892857D01*
G04 #@! TO.C,C64*
X69707142Y-90657142D02*
X69754761Y-90609523D01*
X69802380Y-90466666D01*
X69802380Y-90371428D01*
X69754761Y-90228571D01*
X69659523Y-90133333D01*
X69564285Y-90085714D01*
X69373809Y-90038095D01*
X69230952Y-90038095D01*
X69040476Y-90085714D01*
X68945238Y-90133333D01*
X68850000Y-90228571D01*
X68802380Y-90371428D01*
X68802380Y-90466666D01*
X68850000Y-90609523D01*
X68897619Y-90657142D01*
X68802380Y-91514285D02*
X68802380Y-91323809D01*
X68850000Y-91228571D01*
X68897619Y-91180952D01*
X69040476Y-91085714D01*
X69230952Y-91038095D01*
X69611904Y-91038095D01*
X69707142Y-91085714D01*
X69754761Y-91133333D01*
X69802380Y-91228571D01*
X69802380Y-91419047D01*
X69754761Y-91514285D01*
X69707142Y-91561904D01*
X69611904Y-91609523D01*
X69373809Y-91609523D01*
X69278571Y-91561904D01*
X69230952Y-91514285D01*
X69183333Y-91419047D01*
X69183333Y-91228571D01*
X69230952Y-91133333D01*
X69278571Y-91085714D01*
X69373809Y-91038095D01*
X69135714Y-92466666D02*
X69802380Y-92466666D01*
X68754761Y-92228571D02*
X69469047Y-91990476D01*
X69469047Y-92609523D01*
G04 #@! TO.C,C65*
X61892857Y-82057142D02*
X61940476Y-82104761D01*
X62083333Y-82152380D01*
X62178571Y-82152380D01*
X62321428Y-82104761D01*
X62416666Y-82009523D01*
X62464285Y-81914285D01*
X62511904Y-81723809D01*
X62511904Y-81580952D01*
X62464285Y-81390476D01*
X62416666Y-81295238D01*
X62321428Y-81200000D01*
X62178571Y-81152380D01*
X62083333Y-81152380D01*
X61940476Y-81200000D01*
X61892857Y-81247619D01*
X61035714Y-81152380D02*
X61226190Y-81152380D01*
X61321428Y-81200000D01*
X61369047Y-81247619D01*
X61464285Y-81390476D01*
X61511904Y-81580952D01*
X61511904Y-81961904D01*
X61464285Y-82057142D01*
X61416666Y-82104761D01*
X61321428Y-82152380D01*
X61130952Y-82152380D01*
X61035714Y-82104761D01*
X60988095Y-82057142D01*
X60940476Y-81961904D01*
X60940476Y-81723809D01*
X60988095Y-81628571D01*
X61035714Y-81580952D01*
X61130952Y-81533333D01*
X61321428Y-81533333D01*
X61416666Y-81580952D01*
X61464285Y-81628571D01*
X61511904Y-81723809D01*
X60035714Y-81152380D02*
X60511904Y-81152380D01*
X60559523Y-81628571D01*
X60511904Y-81580952D01*
X60416666Y-81533333D01*
X60178571Y-81533333D01*
X60083333Y-81580952D01*
X60035714Y-81628571D01*
X59988095Y-81723809D01*
X59988095Y-81961904D01*
X60035714Y-82057142D01*
X60083333Y-82104761D01*
X60178571Y-82152380D01*
X60416666Y-82152380D01*
X60511904Y-82104761D01*
X60559523Y-82057142D01*
G04 #@! TO.C,C66*
X67492857Y-85757142D02*
X67540476Y-85804761D01*
X67683333Y-85852380D01*
X67778571Y-85852380D01*
X67921428Y-85804761D01*
X68016666Y-85709523D01*
X68064285Y-85614285D01*
X68111904Y-85423809D01*
X68111904Y-85280952D01*
X68064285Y-85090476D01*
X68016666Y-84995238D01*
X67921428Y-84900000D01*
X67778571Y-84852380D01*
X67683333Y-84852380D01*
X67540476Y-84900000D01*
X67492857Y-84947619D01*
X66635714Y-84852380D02*
X66826190Y-84852380D01*
X66921428Y-84900000D01*
X66969047Y-84947619D01*
X67064285Y-85090476D01*
X67111904Y-85280952D01*
X67111904Y-85661904D01*
X67064285Y-85757142D01*
X67016666Y-85804761D01*
X66921428Y-85852380D01*
X66730952Y-85852380D01*
X66635714Y-85804761D01*
X66588095Y-85757142D01*
X66540476Y-85661904D01*
X66540476Y-85423809D01*
X66588095Y-85328571D01*
X66635714Y-85280952D01*
X66730952Y-85233333D01*
X66921428Y-85233333D01*
X67016666Y-85280952D01*
X67064285Y-85328571D01*
X67111904Y-85423809D01*
X65683333Y-84852380D02*
X65873809Y-84852380D01*
X65969047Y-84900000D01*
X66016666Y-84947619D01*
X66111904Y-85090476D01*
X66159523Y-85280952D01*
X66159523Y-85661904D01*
X66111904Y-85757142D01*
X66064285Y-85804761D01*
X65969047Y-85852380D01*
X65778571Y-85852380D01*
X65683333Y-85804761D01*
X65635714Y-85757142D01*
X65588095Y-85661904D01*
X65588095Y-85423809D01*
X65635714Y-85328571D01*
X65683333Y-85280952D01*
X65778571Y-85233333D01*
X65969047Y-85233333D01*
X66064285Y-85280952D01*
X66111904Y-85328571D01*
X66159523Y-85423809D01*
G04 #@! TO.C,C67*
X63457142Y-90707142D02*
X63504761Y-90659523D01*
X63552380Y-90516666D01*
X63552380Y-90421428D01*
X63504761Y-90278571D01*
X63409523Y-90183333D01*
X63314285Y-90135714D01*
X63123809Y-90088095D01*
X62980952Y-90088095D01*
X62790476Y-90135714D01*
X62695238Y-90183333D01*
X62600000Y-90278571D01*
X62552380Y-90421428D01*
X62552380Y-90516666D01*
X62600000Y-90659523D01*
X62647619Y-90707142D01*
X62552380Y-91564285D02*
X62552380Y-91373809D01*
X62600000Y-91278571D01*
X62647619Y-91230952D01*
X62790476Y-91135714D01*
X62980952Y-91088095D01*
X63361904Y-91088095D01*
X63457142Y-91135714D01*
X63504761Y-91183333D01*
X63552380Y-91278571D01*
X63552380Y-91469047D01*
X63504761Y-91564285D01*
X63457142Y-91611904D01*
X63361904Y-91659523D01*
X63123809Y-91659523D01*
X63028571Y-91611904D01*
X62980952Y-91564285D01*
X62933333Y-91469047D01*
X62933333Y-91278571D01*
X62980952Y-91183333D01*
X63028571Y-91135714D01*
X63123809Y-91088095D01*
X62552380Y-91992857D02*
X62552380Y-92659523D01*
X63552380Y-92230952D01*
G04 #@! TO.C,C68*
X67492857Y-80457142D02*
X67540476Y-80504761D01*
X67683333Y-80552380D01*
X67778571Y-80552380D01*
X67921428Y-80504761D01*
X68016666Y-80409523D01*
X68064285Y-80314285D01*
X68111904Y-80123809D01*
X68111904Y-79980952D01*
X68064285Y-79790476D01*
X68016666Y-79695238D01*
X67921428Y-79600000D01*
X67778571Y-79552380D01*
X67683333Y-79552380D01*
X67540476Y-79600000D01*
X67492857Y-79647619D01*
X66635714Y-79552380D02*
X66826190Y-79552380D01*
X66921428Y-79600000D01*
X66969047Y-79647619D01*
X67064285Y-79790476D01*
X67111904Y-79980952D01*
X67111904Y-80361904D01*
X67064285Y-80457142D01*
X67016666Y-80504761D01*
X66921428Y-80552380D01*
X66730952Y-80552380D01*
X66635714Y-80504761D01*
X66588095Y-80457142D01*
X66540476Y-80361904D01*
X66540476Y-80123809D01*
X66588095Y-80028571D01*
X66635714Y-79980952D01*
X66730952Y-79933333D01*
X66921428Y-79933333D01*
X67016666Y-79980952D01*
X67064285Y-80028571D01*
X67111904Y-80123809D01*
X65969047Y-79980952D02*
X66064285Y-79933333D01*
X66111904Y-79885714D01*
X66159523Y-79790476D01*
X66159523Y-79742857D01*
X66111904Y-79647619D01*
X66064285Y-79600000D01*
X65969047Y-79552380D01*
X65778571Y-79552380D01*
X65683333Y-79600000D01*
X65635714Y-79647619D01*
X65588095Y-79742857D01*
X65588095Y-79790476D01*
X65635714Y-79885714D01*
X65683333Y-79933333D01*
X65778571Y-79980952D01*
X65969047Y-79980952D01*
X66064285Y-80028571D01*
X66111904Y-80076190D01*
X66159523Y-80171428D01*
X66159523Y-80361904D01*
X66111904Y-80457142D01*
X66064285Y-80504761D01*
X65969047Y-80552380D01*
X65778571Y-80552380D01*
X65683333Y-80504761D01*
X65635714Y-80457142D01*
X65588095Y-80361904D01*
X65588095Y-80171428D01*
X65635714Y-80076190D01*
X65683333Y-80028571D01*
X65778571Y-79980952D01*
G04 #@! TO.C,C69*
X61742857Y-76207142D02*
X61790476Y-76254761D01*
X61933333Y-76302380D01*
X62028571Y-76302380D01*
X62171428Y-76254761D01*
X62266666Y-76159523D01*
X62314285Y-76064285D01*
X62361904Y-75873809D01*
X62361904Y-75730952D01*
X62314285Y-75540476D01*
X62266666Y-75445238D01*
X62171428Y-75350000D01*
X62028571Y-75302380D01*
X61933333Y-75302380D01*
X61790476Y-75350000D01*
X61742857Y-75397619D01*
X60885714Y-75302380D02*
X61076190Y-75302380D01*
X61171428Y-75350000D01*
X61219047Y-75397619D01*
X61314285Y-75540476D01*
X61361904Y-75730952D01*
X61361904Y-76111904D01*
X61314285Y-76207142D01*
X61266666Y-76254761D01*
X61171428Y-76302380D01*
X60980952Y-76302380D01*
X60885714Y-76254761D01*
X60838095Y-76207142D01*
X60790476Y-76111904D01*
X60790476Y-75873809D01*
X60838095Y-75778571D01*
X60885714Y-75730952D01*
X60980952Y-75683333D01*
X61171428Y-75683333D01*
X61266666Y-75730952D01*
X61314285Y-75778571D01*
X61361904Y-75873809D01*
X60314285Y-76302380D02*
X60123809Y-76302380D01*
X60028571Y-76254761D01*
X59980952Y-76207142D01*
X59885714Y-76064285D01*
X59838095Y-75873809D01*
X59838095Y-75492857D01*
X59885714Y-75397619D01*
X59933333Y-75350000D01*
X60028571Y-75302380D01*
X60219047Y-75302380D01*
X60314285Y-75350000D01*
X60361904Y-75397619D01*
X60409523Y-75492857D01*
X60409523Y-75730952D01*
X60361904Y-75826190D01*
X60314285Y-75873809D01*
X60219047Y-75921428D01*
X60028571Y-75921428D01*
X59933333Y-75873809D01*
X59885714Y-75826190D01*
X59838095Y-75730952D01*
G04 #@! TO.C,C70*
X72007142Y-90657142D02*
X72054761Y-90609523D01*
X72102380Y-90466666D01*
X72102380Y-90371428D01*
X72054761Y-90228571D01*
X71959523Y-90133333D01*
X71864285Y-90085714D01*
X71673809Y-90038095D01*
X71530952Y-90038095D01*
X71340476Y-90085714D01*
X71245238Y-90133333D01*
X71150000Y-90228571D01*
X71102380Y-90371428D01*
X71102380Y-90466666D01*
X71150000Y-90609523D01*
X71197619Y-90657142D01*
X71102380Y-90990476D02*
X71102380Y-91657142D01*
X72102380Y-91228571D01*
X71102380Y-92228571D02*
X71102380Y-92323809D01*
X71150000Y-92419047D01*
X71197619Y-92466666D01*
X71292857Y-92514285D01*
X71483333Y-92561904D01*
X71721428Y-92561904D01*
X71911904Y-92514285D01*
X72007142Y-92466666D01*
X72054761Y-92419047D01*
X72102380Y-92323809D01*
X72102380Y-92228571D01*
X72054761Y-92133333D01*
X72007142Y-92085714D01*
X71911904Y-92038095D01*
X71721428Y-91990476D01*
X71483333Y-91990476D01*
X71292857Y-92038095D01*
X71197619Y-92085714D01*
X71150000Y-92133333D01*
X71102380Y-92228571D01*
G04 #@! TO.C,C61*
X66792857Y-76807142D02*
X66840476Y-76854761D01*
X66983333Y-76902380D01*
X67078571Y-76902380D01*
X67221428Y-76854761D01*
X67316666Y-76759523D01*
X67364285Y-76664285D01*
X67411904Y-76473809D01*
X67411904Y-76330952D01*
X67364285Y-76140476D01*
X67316666Y-76045238D01*
X67221428Y-75950000D01*
X67078571Y-75902380D01*
X66983333Y-75902380D01*
X66840476Y-75950000D01*
X66792857Y-75997619D01*
X65935714Y-75902380D02*
X66126190Y-75902380D01*
X66221428Y-75950000D01*
X66269047Y-75997619D01*
X66364285Y-76140476D01*
X66411904Y-76330952D01*
X66411904Y-76711904D01*
X66364285Y-76807142D01*
X66316666Y-76854761D01*
X66221428Y-76902380D01*
X66030952Y-76902380D01*
X65935714Y-76854761D01*
X65888095Y-76807142D01*
X65840476Y-76711904D01*
X65840476Y-76473809D01*
X65888095Y-76378571D01*
X65935714Y-76330952D01*
X66030952Y-76283333D01*
X66221428Y-76283333D01*
X66316666Y-76330952D01*
X66364285Y-76378571D01*
X66411904Y-76473809D01*
X64888095Y-76902380D02*
X65459523Y-76902380D01*
X65173809Y-76902380D02*
X65173809Y-75902380D01*
X65269047Y-76045238D01*
X65364285Y-76140476D01*
X65459523Y-76188095D01*
G04 #@! TO.C,C60*
X64142857Y-71857142D02*
X64190476Y-71904761D01*
X64333333Y-71952380D01*
X64428571Y-71952380D01*
X64571428Y-71904761D01*
X64666666Y-71809523D01*
X64714285Y-71714285D01*
X64761904Y-71523809D01*
X64761904Y-71380952D01*
X64714285Y-71190476D01*
X64666666Y-71095238D01*
X64571428Y-71000000D01*
X64428571Y-70952380D01*
X64333333Y-70952380D01*
X64190476Y-71000000D01*
X64142857Y-71047619D01*
X63285714Y-70952380D02*
X63476190Y-70952380D01*
X63571428Y-71000000D01*
X63619047Y-71047619D01*
X63714285Y-71190476D01*
X63761904Y-71380952D01*
X63761904Y-71761904D01*
X63714285Y-71857142D01*
X63666666Y-71904761D01*
X63571428Y-71952380D01*
X63380952Y-71952380D01*
X63285714Y-71904761D01*
X63238095Y-71857142D01*
X63190476Y-71761904D01*
X63190476Y-71523809D01*
X63238095Y-71428571D01*
X63285714Y-71380952D01*
X63380952Y-71333333D01*
X63571428Y-71333333D01*
X63666666Y-71380952D01*
X63714285Y-71428571D01*
X63761904Y-71523809D01*
X62571428Y-70952380D02*
X62476190Y-70952380D01*
X62380952Y-71000000D01*
X62333333Y-71047619D01*
X62285714Y-71142857D01*
X62238095Y-71333333D01*
X62238095Y-71571428D01*
X62285714Y-71761904D01*
X62333333Y-71857142D01*
X62380952Y-71904761D01*
X62476190Y-71952380D01*
X62571428Y-71952380D01*
X62666666Y-71904761D01*
X62714285Y-71857142D01*
X62761904Y-71761904D01*
X62809523Y-71571428D01*
X62809523Y-71333333D01*
X62761904Y-71142857D01*
X62714285Y-71047619D01*
X62666666Y-71000000D01*
X62571428Y-70952380D01*
G04 #@! TO.C,C59*
X69242857Y-71907142D02*
X69290476Y-71954761D01*
X69433333Y-72002380D01*
X69528571Y-72002380D01*
X69671428Y-71954761D01*
X69766666Y-71859523D01*
X69814285Y-71764285D01*
X69861904Y-71573809D01*
X69861904Y-71430952D01*
X69814285Y-71240476D01*
X69766666Y-71145238D01*
X69671428Y-71050000D01*
X69528571Y-71002380D01*
X69433333Y-71002380D01*
X69290476Y-71050000D01*
X69242857Y-71097619D01*
X68338095Y-71002380D02*
X68814285Y-71002380D01*
X68861904Y-71478571D01*
X68814285Y-71430952D01*
X68719047Y-71383333D01*
X68480952Y-71383333D01*
X68385714Y-71430952D01*
X68338095Y-71478571D01*
X68290476Y-71573809D01*
X68290476Y-71811904D01*
X68338095Y-71907142D01*
X68385714Y-71954761D01*
X68480952Y-72002380D01*
X68719047Y-72002380D01*
X68814285Y-71954761D01*
X68861904Y-71907142D01*
X67814285Y-72002380D02*
X67623809Y-72002380D01*
X67528571Y-71954761D01*
X67480952Y-71907142D01*
X67385714Y-71764285D01*
X67338095Y-71573809D01*
X67338095Y-71192857D01*
X67385714Y-71097619D01*
X67433333Y-71050000D01*
X67528571Y-71002380D01*
X67719047Y-71002380D01*
X67814285Y-71050000D01*
X67861904Y-71097619D01*
X67909523Y-71192857D01*
X67909523Y-71430952D01*
X67861904Y-71526190D01*
X67814285Y-71573809D01*
X67719047Y-71621428D01*
X67528571Y-71621428D01*
X67433333Y-71573809D01*
X67385714Y-71526190D01*
X67338095Y-71430952D01*
G04 #@! TO.C,R49*
X59702380Y-71882142D02*
X59226190Y-71548809D01*
X59702380Y-71310714D02*
X58702380Y-71310714D01*
X58702380Y-71691666D01*
X58750000Y-71786904D01*
X58797619Y-71834523D01*
X58892857Y-71882142D01*
X59035714Y-71882142D01*
X59130952Y-71834523D01*
X59178571Y-71786904D01*
X59226190Y-71691666D01*
X59226190Y-71310714D01*
X59035714Y-72739285D02*
X59702380Y-72739285D01*
X58654761Y-72501190D02*
X59369047Y-72263095D01*
X59369047Y-72882142D01*
X59702380Y-73310714D02*
X59702380Y-73501190D01*
X59654761Y-73596428D01*
X59607142Y-73644047D01*
X59464285Y-73739285D01*
X59273809Y-73786904D01*
X58892857Y-73786904D01*
X58797619Y-73739285D01*
X58750000Y-73691666D01*
X58702380Y-73596428D01*
X58702380Y-73405952D01*
X58750000Y-73310714D01*
X58797619Y-73263095D01*
X58892857Y-73215476D01*
X59130952Y-73215476D01*
X59226190Y-73263095D01*
X59273809Y-73310714D01*
X59321428Y-73405952D01*
X59321428Y-73596428D01*
X59273809Y-73691666D01*
X59226190Y-73739285D01*
X59130952Y-73786904D01*
G04 #@! TO.C,R50*
X53392857Y-72002380D02*
X53726190Y-71526190D01*
X53964285Y-72002380D02*
X53964285Y-71002380D01*
X53583333Y-71002380D01*
X53488095Y-71050000D01*
X53440476Y-71097619D01*
X53392857Y-71192857D01*
X53392857Y-71335714D01*
X53440476Y-71430952D01*
X53488095Y-71478571D01*
X53583333Y-71526190D01*
X53964285Y-71526190D01*
X52488095Y-71002380D02*
X52964285Y-71002380D01*
X53011904Y-71478571D01*
X52964285Y-71430952D01*
X52869047Y-71383333D01*
X52630952Y-71383333D01*
X52535714Y-71430952D01*
X52488095Y-71478571D01*
X52440476Y-71573809D01*
X52440476Y-71811904D01*
X52488095Y-71907142D01*
X52535714Y-71954761D01*
X52630952Y-72002380D01*
X52869047Y-72002380D01*
X52964285Y-71954761D01*
X53011904Y-71907142D01*
X51821428Y-71002380D02*
X51726190Y-71002380D01*
X51630952Y-71050000D01*
X51583333Y-71097619D01*
X51535714Y-71192857D01*
X51488095Y-71383333D01*
X51488095Y-71621428D01*
X51535714Y-71811904D01*
X51583333Y-71907142D01*
X51630952Y-71954761D01*
X51726190Y-72002380D01*
X51821428Y-72002380D01*
X51916666Y-71954761D01*
X51964285Y-71907142D01*
X52011904Y-71811904D01*
X52059523Y-71621428D01*
X52059523Y-71383333D01*
X52011904Y-71192857D01*
X51964285Y-71097619D01*
X51916666Y-71050000D01*
X51821428Y-71002380D01*
G04 #@! TO.C,R51*
X71792857Y-76852380D02*
X72126190Y-76376190D01*
X72364285Y-76852380D02*
X72364285Y-75852380D01*
X71983333Y-75852380D01*
X71888095Y-75900000D01*
X71840476Y-75947619D01*
X71792857Y-76042857D01*
X71792857Y-76185714D01*
X71840476Y-76280952D01*
X71888095Y-76328571D01*
X71983333Y-76376190D01*
X72364285Y-76376190D01*
X70888095Y-75852380D02*
X71364285Y-75852380D01*
X71411904Y-76328571D01*
X71364285Y-76280952D01*
X71269047Y-76233333D01*
X71030952Y-76233333D01*
X70935714Y-76280952D01*
X70888095Y-76328571D01*
X70840476Y-76423809D01*
X70840476Y-76661904D01*
X70888095Y-76757142D01*
X70935714Y-76804761D01*
X71030952Y-76852380D01*
X71269047Y-76852380D01*
X71364285Y-76804761D01*
X71411904Y-76757142D01*
X69888095Y-76852380D02*
X70459523Y-76852380D01*
X70173809Y-76852380D02*
X70173809Y-75852380D01*
X70269047Y-75995238D01*
X70364285Y-76090476D01*
X70459523Y-76138095D01*
G04 #@! TO.C,R52*
X46292857Y-94552380D02*
X46626190Y-94076190D01*
X46864285Y-94552380D02*
X46864285Y-93552380D01*
X46483333Y-93552380D01*
X46388095Y-93600000D01*
X46340476Y-93647619D01*
X46292857Y-93742857D01*
X46292857Y-93885714D01*
X46340476Y-93980952D01*
X46388095Y-94028571D01*
X46483333Y-94076190D01*
X46864285Y-94076190D01*
X45388095Y-93552380D02*
X45864285Y-93552380D01*
X45911904Y-94028571D01*
X45864285Y-93980952D01*
X45769047Y-93933333D01*
X45530952Y-93933333D01*
X45435714Y-93980952D01*
X45388095Y-94028571D01*
X45340476Y-94123809D01*
X45340476Y-94361904D01*
X45388095Y-94457142D01*
X45435714Y-94504761D01*
X45530952Y-94552380D01*
X45769047Y-94552380D01*
X45864285Y-94504761D01*
X45911904Y-94457142D01*
X44959523Y-93647619D02*
X44911904Y-93600000D01*
X44816666Y-93552380D01*
X44578571Y-93552380D01*
X44483333Y-93600000D01*
X44435714Y-93647619D01*
X44388095Y-93742857D01*
X44388095Y-93838095D01*
X44435714Y-93980952D01*
X45007142Y-94552380D01*
X44388095Y-94552380D01*
G04 #@! TO.C,R53*
X46242857Y-82602380D02*
X46576190Y-82126190D01*
X46814285Y-82602380D02*
X46814285Y-81602380D01*
X46433333Y-81602380D01*
X46338095Y-81650000D01*
X46290476Y-81697619D01*
X46242857Y-81792857D01*
X46242857Y-81935714D01*
X46290476Y-82030952D01*
X46338095Y-82078571D01*
X46433333Y-82126190D01*
X46814285Y-82126190D01*
X45338095Y-81602380D02*
X45814285Y-81602380D01*
X45861904Y-82078571D01*
X45814285Y-82030952D01*
X45719047Y-81983333D01*
X45480952Y-81983333D01*
X45385714Y-82030952D01*
X45338095Y-82078571D01*
X45290476Y-82173809D01*
X45290476Y-82411904D01*
X45338095Y-82507142D01*
X45385714Y-82554761D01*
X45480952Y-82602380D01*
X45719047Y-82602380D01*
X45814285Y-82554761D01*
X45861904Y-82507142D01*
X44957142Y-81602380D02*
X44338095Y-81602380D01*
X44671428Y-81983333D01*
X44528571Y-81983333D01*
X44433333Y-82030952D01*
X44385714Y-82078571D01*
X44338095Y-82173809D01*
X44338095Y-82411904D01*
X44385714Y-82507142D01*
X44433333Y-82554761D01*
X44528571Y-82602380D01*
X44814285Y-82602380D01*
X44909523Y-82554761D01*
X44957142Y-82507142D01*
G04 #@! TO.C,C50*
X124957142Y-117507142D02*
X125004761Y-117459523D01*
X125052380Y-117316666D01*
X125052380Y-117221428D01*
X125004761Y-117078571D01*
X124909523Y-116983333D01*
X124814285Y-116935714D01*
X124623809Y-116888095D01*
X124480952Y-116888095D01*
X124290476Y-116935714D01*
X124195238Y-116983333D01*
X124100000Y-117078571D01*
X124052380Y-117221428D01*
X124052380Y-117316666D01*
X124100000Y-117459523D01*
X124147619Y-117507142D01*
X124052380Y-118411904D02*
X124052380Y-117935714D01*
X124528571Y-117888095D01*
X124480952Y-117935714D01*
X124433333Y-118030952D01*
X124433333Y-118269047D01*
X124480952Y-118364285D01*
X124528571Y-118411904D01*
X124623809Y-118459523D01*
X124861904Y-118459523D01*
X124957142Y-118411904D01*
X125004761Y-118364285D01*
X125052380Y-118269047D01*
X125052380Y-118030952D01*
X125004761Y-117935714D01*
X124957142Y-117888095D01*
X124052380Y-119078571D02*
X124052380Y-119173809D01*
X124100000Y-119269047D01*
X124147619Y-119316666D01*
X124242857Y-119364285D01*
X124433333Y-119411904D01*
X124671428Y-119411904D01*
X124861904Y-119364285D01*
X124957142Y-119316666D01*
X125004761Y-119269047D01*
X125052380Y-119173809D01*
X125052380Y-119078571D01*
X125004761Y-118983333D01*
X124957142Y-118935714D01*
X124861904Y-118888095D01*
X124671428Y-118840476D01*
X124433333Y-118840476D01*
X124242857Y-118888095D01*
X124147619Y-118935714D01*
X124100000Y-118983333D01*
X124052380Y-119078571D01*
G04 #@! TO.C,C51*
X97407142Y-117457142D02*
X97454761Y-117409523D01*
X97502380Y-117266666D01*
X97502380Y-117171428D01*
X97454761Y-117028571D01*
X97359523Y-116933333D01*
X97264285Y-116885714D01*
X97073809Y-116838095D01*
X96930952Y-116838095D01*
X96740476Y-116885714D01*
X96645238Y-116933333D01*
X96550000Y-117028571D01*
X96502380Y-117171428D01*
X96502380Y-117266666D01*
X96550000Y-117409523D01*
X96597619Y-117457142D01*
X96502380Y-118361904D02*
X96502380Y-117885714D01*
X96978571Y-117838095D01*
X96930952Y-117885714D01*
X96883333Y-117980952D01*
X96883333Y-118219047D01*
X96930952Y-118314285D01*
X96978571Y-118361904D01*
X97073809Y-118409523D01*
X97311904Y-118409523D01*
X97407142Y-118361904D01*
X97454761Y-118314285D01*
X97502380Y-118219047D01*
X97502380Y-117980952D01*
X97454761Y-117885714D01*
X97407142Y-117838095D01*
X97502380Y-119361904D02*
X97502380Y-118790476D01*
X97502380Y-119076190D02*
X96502380Y-119076190D01*
X96645238Y-118980952D01*
X96740476Y-118885714D01*
X96788095Y-118790476D01*
G04 #@! TO.C,C52*
X122457142Y-117507142D02*
X122504761Y-117459523D01*
X122552380Y-117316666D01*
X122552380Y-117221428D01*
X122504761Y-117078571D01*
X122409523Y-116983333D01*
X122314285Y-116935714D01*
X122123809Y-116888095D01*
X121980952Y-116888095D01*
X121790476Y-116935714D01*
X121695238Y-116983333D01*
X121600000Y-117078571D01*
X121552380Y-117221428D01*
X121552380Y-117316666D01*
X121600000Y-117459523D01*
X121647619Y-117507142D01*
X121552380Y-118411904D02*
X121552380Y-117935714D01*
X122028571Y-117888095D01*
X121980952Y-117935714D01*
X121933333Y-118030952D01*
X121933333Y-118269047D01*
X121980952Y-118364285D01*
X122028571Y-118411904D01*
X122123809Y-118459523D01*
X122361904Y-118459523D01*
X122457142Y-118411904D01*
X122504761Y-118364285D01*
X122552380Y-118269047D01*
X122552380Y-118030952D01*
X122504761Y-117935714D01*
X122457142Y-117888095D01*
X121647619Y-118840476D02*
X121600000Y-118888095D01*
X121552380Y-118983333D01*
X121552380Y-119221428D01*
X121600000Y-119316666D01*
X121647619Y-119364285D01*
X121742857Y-119411904D01*
X121838095Y-119411904D01*
X121980952Y-119364285D01*
X122552380Y-118792857D01*
X122552380Y-119411904D01*
G04 #@! TO.C,C53*
X100007142Y-117407142D02*
X100054761Y-117359523D01*
X100102380Y-117216666D01*
X100102380Y-117121428D01*
X100054761Y-116978571D01*
X99959523Y-116883333D01*
X99864285Y-116835714D01*
X99673809Y-116788095D01*
X99530952Y-116788095D01*
X99340476Y-116835714D01*
X99245238Y-116883333D01*
X99150000Y-116978571D01*
X99102380Y-117121428D01*
X99102380Y-117216666D01*
X99150000Y-117359523D01*
X99197619Y-117407142D01*
X99102380Y-118311904D02*
X99102380Y-117835714D01*
X99578571Y-117788095D01*
X99530952Y-117835714D01*
X99483333Y-117930952D01*
X99483333Y-118169047D01*
X99530952Y-118264285D01*
X99578571Y-118311904D01*
X99673809Y-118359523D01*
X99911904Y-118359523D01*
X100007142Y-118311904D01*
X100054761Y-118264285D01*
X100102380Y-118169047D01*
X100102380Y-117930952D01*
X100054761Y-117835714D01*
X100007142Y-117788095D01*
X99102380Y-118692857D02*
X99102380Y-119311904D01*
X99483333Y-118978571D01*
X99483333Y-119121428D01*
X99530952Y-119216666D01*
X99578571Y-119264285D01*
X99673809Y-119311904D01*
X99911904Y-119311904D01*
X100007142Y-119264285D01*
X100054761Y-119216666D01*
X100102380Y-119121428D01*
X100102380Y-118835714D01*
X100054761Y-118740476D01*
X100007142Y-118692857D01*
G04 #@! TO.C,C54*
X48957142Y-117407142D02*
X49004761Y-117359523D01*
X49052380Y-117216666D01*
X49052380Y-117121428D01*
X49004761Y-116978571D01*
X48909523Y-116883333D01*
X48814285Y-116835714D01*
X48623809Y-116788095D01*
X48480952Y-116788095D01*
X48290476Y-116835714D01*
X48195238Y-116883333D01*
X48100000Y-116978571D01*
X48052380Y-117121428D01*
X48052380Y-117216666D01*
X48100000Y-117359523D01*
X48147619Y-117407142D01*
X48052380Y-118311904D02*
X48052380Y-117835714D01*
X48528571Y-117788095D01*
X48480952Y-117835714D01*
X48433333Y-117930952D01*
X48433333Y-118169047D01*
X48480952Y-118264285D01*
X48528571Y-118311904D01*
X48623809Y-118359523D01*
X48861904Y-118359523D01*
X48957142Y-118311904D01*
X49004761Y-118264285D01*
X49052380Y-118169047D01*
X49052380Y-117930952D01*
X49004761Y-117835714D01*
X48957142Y-117788095D01*
X48385714Y-119216666D02*
X49052380Y-119216666D01*
X48004761Y-118978571D02*
X48719047Y-118740476D01*
X48719047Y-119359523D01*
G04 #@! TO.C,C55*
X74407142Y-117507142D02*
X74454761Y-117459523D01*
X74502380Y-117316666D01*
X74502380Y-117221428D01*
X74454761Y-117078571D01*
X74359523Y-116983333D01*
X74264285Y-116935714D01*
X74073809Y-116888095D01*
X73930952Y-116888095D01*
X73740476Y-116935714D01*
X73645238Y-116983333D01*
X73550000Y-117078571D01*
X73502380Y-117221428D01*
X73502380Y-117316666D01*
X73550000Y-117459523D01*
X73597619Y-117507142D01*
X73502380Y-118411904D02*
X73502380Y-117935714D01*
X73978571Y-117888095D01*
X73930952Y-117935714D01*
X73883333Y-118030952D01*
X73883333Y-118269047D01*
X73930952Y-118364285D01*
X73978571Y-118411904D01*
X74073809Y-118459523D01*
X74311904Y-118459523D01*
X74407142Y-118411904D01*
X74454761Y-118364285D01*
X74502380Y-118269047D01*
X74502380Y-118030952D01*
X74454761Y-117935714D01*
X74407142Y-117888095D01*
X73502380Y-119364285D02*
X73502380Y-118888095D01*
X73978571Y-118840476D01*
X73930952Y-118888095D01*
X73883333Y-118983333D01*
X73883333Y-119221428D01*
X73930952Y-119316666D01*
X73978571Y-119364285D01*
X74073809Y-119411904D01*
X74311904Y-119411904D01*
X74407142Y-119364285D01*
X74454761Y-119316666D01*
X74502380Y-119221428D01*
X74502380Y-118983333D01*
X74454761Y-118888095D01*
X74407142Y-118840476D01*
G04 #@! TO.C,C56*
X46507142Y-117557142D02*
X46554761Y-117509523D01*
X46602380Y-117366666D01*
X46602380Y-117271428D01*
X46554761Y-117128571D01*
X46459523Y-117033333D01*
X46364285Y-116985714D01*
X46173809Y-116938095D01*
X46030952Y-116938095D01*
X45840476Y-116985714D01*
X45745238Y-117033333D01*
X45650000Y-117128571D01*
X45602380Y-117271428D01*
X45602380Y-117366666D01*
X45650000Y-117509523D01*
X45697619Y-117557142D01*
X45602380Y-118461904D02*
X45602380Y-117985714D01*
X46078571Y-117938095D01*
X46030952Y-117985714D01*
X45983333Y-118080952D01*
X45983333Y-118319047D01*
X46030952Y-118414285D01*
X46078571Y-118461904D01*
X46173809Y-118509523D01*
X46411904Y-118509523D01*
X46507142Y-118461904D01*
X46554761Y-118414285D01*
X46602380Y-118319047D01*
X46602380Y-118080952D01*
X46554761Y-117985714D01*
X46507142Y-117938095D01*
X45602380Y-119366666D02*
X45602380Y-119176190D01*
X45650000Y-119080952D01*
X45697619Y-119033333D01*
X45840476Y-118938095D01*
X46030952Y-118890476D01*
X46411904Y-118890476D01*
X46507142Y-118938095D01*
X46554761Y-118985714D01*
X46602380Y-119080952D01*
X46602380Y-119271428D01*
X46554761Y-119366666D01*
X46507142Y-119414285D01*
X46411904Y-119461904D01*
X46173809Y-119461904D01*
X46078571Y-119414285D01*
X46030952Y-119366666D01*
X45983333Y-119271428D01*
X45983333Y-119080952D01*
X46030952Y-118985714D01*
X46078571Y-118938095D01*
X46173809Y-118890476D01*
G04 #@! TO.C,C57*
X71907142Y-117557142D02*
X71954761Y-117509523D01*
X72002380Y-117366666D01*
X72002380Y-117271428D01*
X71954761Y-117128571D01*
X71859523Y-117033333D01*
X71764285Y-116985714D01*
X71573809Y-116938095D01*
X71430952Y-116938095D01*
X71240476Y-116985714D01*
X71145238Y-117033333D01*
X71050000Y-117128571D01*
X71002380Y-117271428D01*
X71002380Y-117366666D01*
X71050000Y-117509523D01*
X71097619Y-117557142D01*
X71002380Y-118461904D02*
X71002380Y-117985714D01*
X71478571Y-117938095D01*
X71430952Y-117985714D01*
X71383333Y-118080952D01*
X71383333Y-118319047D01*
X71430952Y-118414285D01*
X71478571Y-118461904D01*
X71573809Y-118509523D01*
X71811904Y-118509523D01*
X71907142Y-118461904D01*
X71954761Y-118414285D01*
X72002380Y-118319047D01*
X72002380Y-118080952D01*
X71954761Y-117985714D01*
X71907142Y-117938095D01*
X71002380Y-118842857D02*
X71002380Y-119509523D01*
X72002380Y-119080952D01*
G04 #@! TO.C,C47*
X108192857Y-64557142D02*
X108240476Y-64604761D01*
X108383333Y-64652380D01*
X108478571Y-64652380D01*
X108621428Y-64604761D01*
X108716666Y-64509523D01*
X108764285Y-64414285D01*
X108811904Y-64223809D01*
X108811904Y-64080952D01*
X108764285Y-63890476D01*
X108716666Y-63795238D01*
X108621428Y-63700000D01*
X108478571Y-63652380D01*
X108383333Y-63652380D01*
X108240476Y-63700000D01*
X108192857Y-63747619D01*
X107335714Y-63985714D02*
X107335714Y-64652380D01*
X107573809Y-63604761D02*
X107811904Y-64319047D01*
X107192857Y-64319047D01*
X106907142Y-63652380D02*
X106240476Y-63652380D01*
X106669047Y-64652380D01*
G04 #@! TO.C,C48*
X108192857Y-57407142D02*
X108240476Y-57454761D01*
X108383333Y-57502380D01*
X108478571Y-57502380D01*
X108621428Y-57454761D01*
X108716666Y-57359523D01*
X108764285Y-57264285D01*
X108811904Y-57073809D01*
X108811904Y-56930952D01*
X108764285Y-56740476D01*
X108716666Y-56645238D01*
X108621428Y-56550000D01*
X108478571Y-56502380D01*
X108383333Y-56502380D01*
X108240476Y-56550000D01*
X108192857Y-56597619D01*
X107335714Y-56835714D02*
X107335714Y-57502380D01*
X107573809Y-56454761D02*
X107811904Y-57169047D01*
X107192857Y-57169047D01*
X106669047Y-56930952D02*
X106764285Y-56883333D01*
X106811904Y-56835714D01*
X106859523Y-56740476D01*
X106859523Y-56692857D01*
X106811904Y-56597619D01*
X106764285Y-56550000D01*
X106669047Y-56502380D01*
X106478571Y-56502380D01*
X106383333Y-56550000D01*
X106335714Y-56597619D01*
X106288095Y-56692857D01*
X106288095Y-56740476D01*
X106335714Y-56835714D01*
X106383333Y-56883333D01*
X106478571Y-56930952D01*
X106669047Y-56930952D01*
X106764285Y-56978571D01*
X106811904Y-57026190D01*
X106859523Y-57121428D01*
X106859523Y-57311904D01*
X106811904Y-57407142D01*
X106764285Y-57454761D01*
X106669047Y-57502380D01*
X106478571Y-57502380D01*
X106383333Y-57454761D01*
X106335714Y-57407142D01*
X106288095Y-57311904D01*
X106288095Y-57121428D01*
X106335714Y-57026190D01*
X106383333Y-56978571D01*
X106478571Y-56930952D01*
G04 #@! TO.C,C49*
X104742857Y-60007142D02*
X104790476Y-60054761D01*
X104933333Y-60102380D01*
X105028571Y-60102380D01*
X105171428Y-60054761D01*
X105266666Y-59959523D01*
X105314285Y-59864285D01*
X105361904Y-59673809D01*
X105361904Y-59530952D01*
X105314285Y-59340476D01*
X105266666Y-59245238D01*
X105171428Y-59150000D01*
X105028571Y-59102380D01*
X104933333Y-59102380D01*
X104790476Y-59150000D01*
X104742857Y-59197619D01*
X103885714Y-59435714D02*
X103885714Y-60102380D01*
X104123809Y-59054761D02*
X104361904Y-59769047D01*
X103742857Y-59769047D01*
X103314285Y-60102380D02*
X103123809Y-60102380D01*
X103028571Y-60054761D01*
X102980952Y-60007142D01*
X102885714Y-59864285D01*
X102838095Y-59673809D01*
X102838095Y-59292857D01*
X102885714Y-59197619D01*
X102933333Y-59150000D01*
X103028571Y-59102380D01*
X103219047Y-59102380D01*
X103314285Y-59150000D01*
X103361904Y-59197619D01*
X103409523Y-59292857D01*
X103409523Y-59530952D01*
X103361904Y-59626190D01*
X103314285Y-59673809D01*
X103219047Y-59721428D01*
X103028571Y-59721428D01*
X102933333Y-59673809D01*
X102885714Y-59626190D01*
X102838095Y-59530952D01*
G04 #@! TO.C,C5*
X60816666Y-60007142D02*
X60864285Y-60054761D01*
X61007142Y-60102380D01*
X61102380Y-60102380D01*
X61245238Y-60054761D01*
X61340476Y-59959523D01*
X61388095Y-59864285D01*
X61435714Y-59673809D01*
X61435714Y-59530952D01*
X61388095Y-59340476D01*
X61340476Y-59245238D01*
X61245238Y-59150000D01*
X61102380Y-59102380D01*
X61007142Y-59102380D01*
X60864285Y-59150000D01*
X60816666Y-59197619D01*
X59911904Y-59102380D02*
X60388095Y-59102380D01*
X60435714Y-59578571D01*
X60388095Y-59530952D01*
X60292857Y-59483333D01*
X60054761Y-59483333D01*
X59959523Y-59530952D01*
X59911904Y-59578571D01*
X59864285Y-59673809D01*
X59864285Y-59911904D01*
X59911904Y-60007142D01*
X59959523Y-60054761D01*
X60054761Y-60102380D01*
X60292857Y-60102380D01*
X60388095Y-60054761D01*
X60435714Y-60007142D01*
G04 #@! TO.C,C46*
X111792857Y-60057142D02*
X111840476Y-60104761D01*
X111983333Y-60152380D01*
X112078571Y-60152380D01*
X112221428Y-60104761D01*
X112316666Y-60009523D01*
X112364285Y-59914285D01*
X112411904Y-59723809D01*
X112411904Y-59580952D01*
X112364285Y-59390476D01*
X112316666Y-59295238D01*
X112221428Y-59200000D01*
X112078571Y-59152380D01*
X111983333Y-59152380D01*
X111840476Y-59200000D01*
X111792857Y-59247619D01*
X110935714Y-59485714D02*
X110935714Y-60152380D01*
X111173809Y-59104761D02*
X111411904Y-59819047D01*
X110792857Y-59819047D01*
X109983333Y-59152380D02*
X110173809Y-59152380D01*
X110269047Y-59200000D01*
X110316666Y-59247619D01*
X110411904Y-59390476D01*
X110459523Y-59580952D01*
X110459523Y-59961904D01*
X110411904Y-60057142D01*
X110364285Y-60104761D01*
X110269047Y-60152380D01*
X110078571Y-60152380D01*
X109983333Y-60104761D01*
X109935714Y-60057142D01*
X109888095Y-59961904D01*
X109888095Y-59723809D01*
X109935714Y-59628571D01*
X109983333Y-59580952D01*
X110078571Y-59533333D01*
X110269047Y-59533333D01*
X110364285Y-59580952D01*
X110411904Y-59628571D01*
X110459523Y-59723809D01*
G04 #@! TO.C,C11*
X53742857Y-60107142D02*
X53790476Y-60154761D01*
X53933333Y-60202380D01*
X54028571Y-60202380D01*
X54171428Y-60154761D01*
X54266666Y-60059523D01*
X54314285Y-59964285D01*
X54361904Y-59773809D01*
X54361904Y-59630952D01*
X54314285Y-59440476D01*
X54266666Y-59345238D01*
X54171428Y-59250000D01*
X54028571Y-59202380D01*
X53933333Y-59202380D01*
X53790476Y-59250000D01*
X53742857Y-59297619D01*
X52790476Y-60202380D02*
X53361904Y-60202380D01*
X53076190Y-60202380D02*
X53076190Y-59202380D01*
X53171428Y-59345238D01*
X53266666Y-59440476D01*
X53361904Y-59488095D01*
X51838095Y-60202380D02*
X52409523Y-60202380D01*
X52123809Y-60202380D02*
X52123809Y-59202380D01*
X52219047Y-59345238D01*
X52314285Y-59440476D01*
X52409523Y-59488095D01*
G04 #@! TO.C,C18*
X57242857Y-64557142D02*
X57290476Y-64604761D01*
X57433333Y-64652380D01*
X57528571Y-64652380D01*
X57671428Y-64604761D01*
X57766666Y-64509523D01*
X57814285Y-64414285D01*
X57861904Y-64223809D01*
X57861904Y-64080952D01*
X57814285Y-63890476D01*
X57766666Y-63795238D01*
X57671428Y-63700000D01*
X57528571Y-63652380D01*
X57433333Y-63652380D01*
X57290476Y-63700000D01*
X57242857Y-63747619D01*
X56290476Y-64652380D02*
X56861904Y-64652380D01*
X56576190Y-64652380D02*
X56576190Y-63652380D01*
X56671428Y-63795238D01*
X56766666Y-63890476D01*
X56861904Y-63938095D01*
X55719047Y-64080952D02*
X55814285Y-64033333D01*
X55861904Y-63985714D01*
X55909523Y-63890476D01*
X55909523Y-63842857D01*
X55861904Y-63747619D01*
X55814285Y-63700000D01*
X55719047Y-63652380D01*
X55528571Y-63652380D01*
X55433333Y-63700000D01*
X55385714Y-63747619D01*
X55338095Y-63842857D01*
X55338095Y-63890476D01*
X55385714Y-63985714D01*
X55433333Y-64033333D01*
X55528571Y-64080952D01*
X55719047Y-64080952D01*
X55814285Y-64128571D01*
X55861904Y-64176190D01*
X55909523Y-64271428D01*
X55909523Y-64461904D01*
X55861904Y-64557142D01*
X55814285Y-64604761D01*
X55719047Y-64652380D01*
X55528571Y-64652380D01*
X55433333Y-64604761D01*
X55385714Y-64557142D01*
X55338095Y-64461904D01*
X55338095Y-64271428D01*
X55385714Y-64176190D01*
X55433333Y-64128571D01*
X55528571Y-64080952D01*
G04 #@! TO.C,C23*
X80957142Y-55357142D02*
X81004761Y-55309523D01*
X81052380Y-55166666D01*
X81052380Y-55071428D01*
X81004761Y-54928571D01*
X80909523Y-54833333D01*
X80814285Y-54785714D01*
X80623809Y-54738095D01*
X80480952Y-54738095D01*
X80290476Y-54785714D01*
X80195238Y-54833333D01*
X80100000Y-54928571D01*
X80052380Y-55071428D01*
X80052380Y-55166666D01*
X80100000Y-55309523D01*
X80147619Y-55357142D01*
X80147619Y-55738095D02*
X80100000Y-55785714D01*
X80052380Y-55880952D01*
X80052380Y-56119047D01*
X80100000Y-56214285D01*
X80147619Y-56261904D01*
X80242857Y-56309523D01*
X80338095Y-56309523D01*
X80480952Y-56261904D01*
X81052380Y-55690476D01*
X81052380Y-56309523D01*
X80052380Y-56642857D02*
X80052380Y-57261904D01*
X80433333Y-56928571D01*
X80433333Y-57071428D01*
X80480952Y-57166666D01*
X80528571Y-57214285D01*
X80623809Y-57261904D01*
X80861904Y-57261904D01*
X80957142Y-57214285D01*
X81004761Y-57166666D01*
X81052380Y-57071428D01*
X81052380Y-56785714D01*
X81004761Y-56690476D01*
X80957142Y-56642857D01*
G04 #@! TO.C,C21*
X57242857Y-57357142D02*
X57290476Y-57404761D01*
X57433333Y-57452380D01*
X57528571Y-57452380D01*
X57671428Y-57404761D01*
X57766666Y-57309523D01*
X57814285Y-57214285D01*
X57861904Y-57023809D01*
X57861904Y-56880952D01*
X57814285Y-56690476D01*
X57766666Y-56595238D01*
X57671428Y-56500000D01*
X57528571Y-56452380D01*
X57433333Y-56452380D01*
X57290476Y-56500000D01*
X57242857Y-56547619D01*
X56861904Y-56547619D02*
X56814285Y-56500000D01*
X56719047Y-56452380D01*
X56480952Y-56452380D01*
X56385714Y-56500000D01*
X56338095Y-56547619D01*
X56290476Y-56642857D01*
X56290476Y-56738095D01*
X56338095Y-56880952D01*
X56909523Y-57452380D01*
X56290476Y-57452380D01*
X55338095Y-57452380D02*
X55909523Y-57452380D01*
X55623809Y-57452380D02*
X55623809Y-56452380D01*
X55719047Y-56595238D01*
X55814285Y-56690476D01*
X55909523Y-56738095D01*
G04 #@! TO.C,C45*
X131307142Y-55357142D02*
X131354761Y-55309523D01*
X131402380Y-55166666D01*
X131402380Y-55071428D01*
X131354761Y-54928571D01*
X131259523Y-54833333D01*
X131164285Y-54785714D01*
X130973809Y-54738095D01*
X130830952Y-54738095D01*
X130640476Y-54785714D01*
X130545238Y-54833333D01*
X130450000Y-54928571D01*
X130402380Y-55071428D01*
X130402380Y-55166666D01*
X130450000Y-55309523D01*
X130497619Y-55357142D01*
X130735714Y-56214285D02*
X131402380Y-56214285D01*
X130354761Y-55976190D02*
X131069047Y-55738095D01*
X131069047Y-56357142D01*
X130402380Y-57214285D02*
X130402380Y-56738095D01*
X130878571Y-56690476D01*
X130830952Y-56738095D01*
X130783333Y-56833333D01*
X130783333Y-57071428D01*
X130830952Y-57166666D01*
X130878571Y-57214285D01*
X130973809Y-57261904D01*
X131211904Y-57261904D01*
X131307142Y-57214285D01*
X131354761Y-57166666D01*
X131402380Y-57071428D01*
X131402380Y-56833333D01*
X131354761Y-56738095D01*
X131307142Y-56690476D01*
G04 #@! TO.C,R46*
X78702380Y-78857142D02*
X78226190Y-78523809D01*
X78702380Y-78285714D02*
X77702380Y-78285714D01*
X77702380Y-78666666D01*
X77750000Y-78761904D01*
X77797619Y-78809523D01*
X77892857Y-78857142D01*
X78035714Y-78857142D01*
X78130952Y-78809523D01*
X78178571Y-78761904D01*
X78226190Y-78666666D01*
X78226190Y-78285714D01*
X78035714Y-79714285D02*
X78702380Y-79714285D01*
X77654761Y-79476190D02*
X78369047Y-79238095D01*
X78369047Y-79857142D01*
X77702380Y-80666666D02*
X77702380Y-80476190D01*
X77750000Y-80380952D01*
X77797619Y-80333333D01*
X77940476Y-80238095D01*
X78130952Y-80190476D01*
X78511904Y-80190476D01*
X78607142Y-80238095D01*
X78654761Y-80285714D01*
X78702380Y-80380952D01*
X78702380Y-80571428D01*
X78654761Y-80666666D01*
X78607142Y-80714285D01*
X78511904Y-80761904D01*
X78273809Y-80761904D01*
X78178571Y-80714285D01*
X78130952Y-80666666D01*
X78083333Y-80571428D01*
X78083333Y-80380952D01*
X78130952Y-80285714D01*
X78178571Y-80238095D01*
X78273809Y-80190476D01*
G04 #@! TO.C,R47*
X79892857Y-85552380D02*
X80226190Y-85076190D01*
X80464285Y-85552380D02*
X80464285Y-84552380D01*
X80083333Y-84552380D01*
X79988095Y-84600000D01*
X79940476Y-84647619D01*
X79892857Y-84742857D01*
X79892857Y-84885714D01*
X79940476Y-84980952D01*
X79988095Y-85028571D01*
X80083333Y-85076190D01*
X80464285Y-85076190D01*
X79035714Y-84885714D02*
X79035714Y-85552380D01*
X79273809Y-84504761D02*
X79511904Y-85219047D01*
X78892857Y-85219047D01*
X78607142Y-84552380D02*
X77940476Y-84552380D01*
X78369047Y-85552380D01*
G04 #@! TO.C,R48*
X75492857Y-77602380D02*
X75826190Y-77126190D01*
X76064285Y-77602380D02*
X76064285Y-76602380D01*
X75683333Y-76602380D01*
X75588095Y-76650000D01*
X75540476Y-76697619D01*
X75492857Y-76792857D01*
X75492857Y-76935714D01*
X75540476Y-77030952D01*
X75588095Y-77078571D01*
X75683333Y-77126190D01*
X76064285Y-77126190D01*
X74635714Y-76935714D02*
X74635714Y-77602380D01*
X74873809Y-76554761D02*
X75111904Y-77269047D01*
X74492857Y-77269047D01*
X73969047Y-77030952D02*
X74064285Y-76983333D01*
X74111904Y-76935714D01*
X74159523Y-76840476D01*
X74159523Y-76792857D01*
X74111904Y-76697619D01*
X74064285Y-76650000D01*
X73969047Y-76602380D01*
X73778571Y-76602380D01*
X73683333Y-76650000D01*
X73635714Y-76697619D01*
X73588095Y-76792857D01*
X73588095Y-76840476D01*
X73635714Y-76935714D01*
X73683333Y-76983333D01*
X73778571Y-77030952D01*
X73969047Y-77030952D01*
X74064285Y-77078571D01*
X74111904Y-77126190D01*
X74159523Y-77221428D01*
X74159523Y-77411904D01*
X74111904Y-77507142D01*
X74064285Y-77554761D01*
X73969047Y-77602380D01*
X73778571Y-77602380D01*
X73683333Y-77554761D01*
X73635714Y-77507142D01*
X73588095Y-77411904D01*
X73588095Y-77221428D01*
X73635714Y-77126190D01*
X73683333Y-77078571D01*
X73778571Y-77030952D01*
G04 #@! TO.C,R40*
X75652380Y-73357142D02*
X75176190Y-73023809D01*
X75652380Y-72785714D02*
X74652380Y-72785714D01*
X74652380Y-73166666D01*
X74700000Y-73261904D01*
X74747619Y-73309523D01*
X74842857Y-73357142D01*
X74985714Y-73357142D01*
X75080952Y-73309523D01*
X75128571Y-73261904D01*
X75176190Y-73166666D01*
X75176190Y-72785714D01*
X74985714Y-74214285D02*
X75652380Y-74214285D01*
X74604761Y-73976190D02*
X75319047Y-73738095D01*
X75319047Y-74357142D01*
X74652380Y-74928571D02*
X74652380Y-75023809D01*
X74700000Y-75119047D01*
X74747619Y-75166666D01*
X74842857Y-75214285D01*
X75033333Y-75261904D01*
X75271428Y-75261904D01*
X75461904Y-75214285D01*
X75557142Y-75166666D01*
X75604761Y-75119047D01*
X75652380Y-75023809D01*
X75652380Y-74928571D01*
X75604761Y-74833333D01*
X75557142Y-74785714D01*
X75461904Y-74738095D01*
X75271428Y-74690476D01*
X75033333Y-74690476D01*
X74842857Y-74738095D01*
X74747619Y-74785714D01*
X74700000Y-74833333D01*
X74652380Y-74928571D01*
G04 #@! TO.C,R44*
X79892857Y-89952380D02*
X80226190Y-89476190D01*
X80464285Y-89952380D02*
X80464285Y-88952380D01*
X80083333Y-88952380D01*
X79988095Y-89000000D01*
X79940476Y-89047619D01*
X79892857Y-89142857D01*
X79892857Y-89285714D01*
X79940476Y-89380952D01*
X79988095Y-89428571D01*
X80083333Y-89476190D01*
X80464285Y-89476190D01*
X79035714Y-89285714D02*
X79035714Y-89952380D01*
X79273809Y-88904761D02*
X79511904Y-89619047D01*
X78892857Y-89619047D01*
X78083333Y-89285714D02*
X78083333Y-89952380D01*
X78321428Y-88904761D02*
X78559523Y-89619047D01*
X77940476Y-89619047D01*
G04 #@! TO.C,R45*
X79892857Y-87802380D02*
X80226190Y-87326190D01*
X80464285Y-87802380D02*
X80464285Y-86802380D01*
X80083333Y-86802380D01*
X79988095Y-86850000D01*
X79940476Y-86897619D01*
X79892857Y-86992857D01*
X79892857Y-87135714D01*
X79940476Y-87230952D01*
X79988095Y-87278571D01*
X80083333Y-87326190D01*
X80464285Y-87326190D01*
X79035714Y-87135714D02*
X79035714Y-87802380D01*
X79273809Y-86754761D02*
X79511904Y-87469047D01*
X78892857Y-87469047D01*
X78035714Y-86802380D02*
X78511904Y-86802380D01*
X78559523Y-87278571D01*
X78511904Y-87230952D01*
X78416666Y-87183333D01*
X78178571Y-87183333D01*
X78083333Y-87230952D01*
X78035714Y-87278571D01*
X77988095Y-87373809D01*
X77988095Y-87611904D01*
X78035714Y-87707142D01*
X78083333Y-87754761D01*
X78178571Y-87802380D01*
X78416666Y-87802380D01*
X78511904Y-87754761D01*
X78559523Y-87707142D01*
G04 #@! TO.C,R43*
X72152380Y-80157142D02*
X71676190Y-79823809D01*
X72152380Y-79585714D02*
X71152380Y-79585714D01*
X71152380Y-79966666D01*
X71200000Y-80061904D01*
X71247619Y-80109523D01*
X71342857Y-80157142D01*
X71485714Y-80157142D01*
X71580952Y-80109523D01*
X71628571Y-80061904D01*
X71676190Y-79966666D01*
X71676190Y-79585714D01*
X71485714Y-81014285D02*
X72152380Y-81014285D01*
X71104761Y-80776190D02*
X71819047Y-80538095D01*
X71819047Y-81157142D01*
X71152380Y-81442857D02*
X71152380Y-82061904D01*
X71533333Y-81728571D01*
X71533333Y-81871428D01*
X71580952Y-81966666D01*
X71628571Y-82014285D01*
X71723809Y-82061904D01*
X71961904Y-82061904D01*
X72057142Y-82014285D01*
X72104761Y-81966666D01*
X72152380Y-81871428D01*
X72152380Y-81585714D01*
X72104761Y-81490476D01*
X72057142Y-81442857D01*
G04 #@! TO.C,R38*
X50742857Y-82602380D02*
X51076190Y-82126190D01*
X51314285Y-82602380D02*
X51314285Y-81602380D01*
X50933333Y-81602380D01*
X50838095Y-81650000D01*
X50790476Y-81697619D01*
X50742857Y-81792857D01*
X50742857Y-81935714D01*
X50790476Y-82030952D01*
X50838095Y-82078571D01*
X50933333Y-82126190D01*
X51314285Y-82126190D01*
X50409523Y-81602380D02*
X49790476Y-81602380D01*
X50123809Y-81983333D01*
X49980952Y-81983333D01*
X49885714Y-82030952D01*
X49838095Y-82078571D01*
X49790476Y-82173809D01*
X49790476Y-82411904D01*
X49838095Y-82507142D01*
X49885714Y-82554761D01*
X49980952Y-82602380D01*
X50266666Y-82602380D01*
X50361904Y-82554761D01*
X50409523Y-82507142D01*
X49219047Y-82030952D02*
X49314285Y-81983333D01*
X49361904Y-81935714D01*
X49409523Y-81840476D01*
X49409523Y-81792857D01*
X49361904Y-81697619D01*
X49314285Y-81650000D01*
X49219047Y-81602380D01*
X49028571Y-81602380D01*
X48933333Y-81650000D01*
X48885714Y-81697619D01*
X48838095Y-81792857D01*
X48838095Y-81840476D01*
X48885714Y-81935714D01*
X48933333Y-81983333D01*
X49028571Y-82030952D01*
X49219047Y-82030952D01*
X49314285Y-82078571D01*
X49361904Y-82126190D01*
X49409523Y-82221428D01*
X49409523Y-82411904D01*
X49361904Y-82507142D01*
X49314285Y-82554761D01*
X49219047Y-82602380D01*
X49028571Y-82602380D01*
X48933333Y-82554761D01*
X48885714Y-82507142D01*
X48838095Y-82411904D01*
X48838095Y-82221428D01*
X48885714Y-82126190D01*
X48933333Y-82078571D01*
X49028571Y-82030952D01*
G04 #@! TO.C,R39*
X50742857Y-94602380D02*
X51076190Y-94126190D01*
X51314285Y-94602380D02*
X51314285Y-93602380D01*
X50933333Y-93602380D01*
X50838095Y-93650000D01*
X50790476Y-93697619D01*
X50742857Y-93792857D01*
X50742857Y-93935714D01*
X50790476Y-94030952D01*
X50838095Y-94078571D01*
X50933333Y-94126190D01*
X51314285Y-94126190D01*
X50409523Y-93602380D02*
X49790476Y-93602380D01*
X50123809Y-93983333D01*
X49980952Y-93983333D01*
X49885714Y-94030952D01*
X49838095Y-94078571D01*
X49790476Y-94173809D01*
X49790476Y-94411904D01*
X49838095Y-94507142D01*
X49885714Y-94554761D01*
X49980952Y-94602380D01*
X50266666Y-94602380D01*
X50361904Y-94554761D01*
X50409523Y-94507142D01*
X49314285Y-94602380D02*
X49123809Y-94602380D01*
X49028571Y-94554761D01*
X48980952Y-94507142D01*
X48885714Y-94364285D01*
X48838095Y-94173809D01*
X48838095Y-93792857D01*
X48885714Y-93697619D01*
X48933333Y-93650000D01*
X49028571Y-93602380D01*
X49219047Y-93602380D01*
X49314285Y-93650000D01*
X49361904Y-93697619D01*
X49409523Y-93792857D01*
X49409523Y-94030952D01*
X49361904Y-94126190D01*
X49314285Y-94173809D01*
X49219047Y-94221428D01*
X49028571Y-94221428D01*
X48933333Y-94173809D01*
X48885714Y-94126190D01*
X48838095Y-94030952D01*
G04 #@! TO.C,R41*
X79892857Y-83202380D02*
X80226190Y-82726190D01*
X80464285Y-83202380D02*
X80464285Y-82202380D01*
X80083333Y-82202380D01*
X79988095Y-82250000D01*
X79940476Y-82297619D01*
X79892857Y-82392857D01*
X79892857Y-82535714D01*
X79940476Y-82630952D01*
X79988095Y-82678571D01*
X80083333Y-82726190D01*
X80464285Y-82726190D01*
X79035714Y-82535714D02*
X79035714Y-83202380D01*
X79273809Y-82154761D02*
X79511904Y-82869047D01*
X78892857Y-82869047D01*
X77988095Y-83202380D02*
X78559523Y-83202380D01*
X78273809Y-83202380D02*
X78273809Y-82202380D01*
X78369047Y-82345238D01*
X78464285Y-82440476D01*
X78559523Y-82488095D01*
G04 #@! TO.C,R42*
X79842857Y-92102380D02*
X80176190Y-91626190D01*
X80414285Y-92102380D02*
X80414285Y-91102380D01*
X80033333Y-91102380D01*
X79938095Y-91150000D01*
X79890476Y-91197619D01*
X79842857Y-91292857D01*
X79842857Y-91435714D01*
X79890476Y-91530952D01*
X79938095Y-91578571D01*
X80033333Y-91626190D01*
X80414285Y-91626190D01*
X78985714Y-91435714D02*
X78985714Y-92102380D01*
X79223809Y-91054761D02*
X79461904Y-91769047D01*
X78842857Y-91769047D01*
X78509523Y-91197619D02*
X78461904Y-91150000D01*
X78366666Y-91102380D01*
X78128571Y-91102380D01*
X78033333Y-91150000D01*
X77985714Y-91197619D01*
X77938095Y-91292857D01*
X77938095Y-91388095D01*
X77985714Y-91530952D01*
X78557142Y-92102380D01*
X77938095Y-92102380D01*
G04 #@! TO.C,C4*
X105466666Y-105457142D02*
X105514285Y-105504761D01*
X105657142Y-105552380D01*
X105752380Y-105552380D01*
X105895238Y-105504761D01*
X105990476Y-105409523D01*
X106038095Y-105314285D01*
X106085714Y-105123809D01*
X106085714Y-104980952D01*
X106038095Y-104790476D01*
X105990476Y-104695238D01*
X105895238Y-104600000D01*
X105752380Y-104552380D01*
X105657142Y-104552380D01*
X105514285Y-104600000D01*
X105466666Y-104647619D01*
X104609523Y-104885714D02*
X104609523Y-105552380D01*
X104847619Y-104504761D02*
X105085714Y-105219047D01*
X104466666Y-105219047D01*
G04 #@! TO.C,C34*
X104957142Y-116007142D02*
X105004761Y-115959523D01*
X105052380Y-115816666D01*
X105052380Y-115721428D01*
X105004761Y-115578571D01*
X104909523Y-115483333D01*
X104814285Y-115435714D01*
X104623809Y-115388095D01*
X104480952Y-115388095D01*
X104290476Y-115435714D01*
X104195238Y-115483333D01*
X104100000Y-115578571D01*
X104052380Y-115721428D01*
X104052380Y-115816666D01*
X104100000Y-115959523D01*
X104147619Y-116007142D01*
X104052380Y-116340476D02*
X104052380Y-116959523D01*
X104433333Y-116626190D01*
X104433333Y-116769047D01*
X104480952Y-116864285D01*
X104528571Y-116911904D01*
X104623809Y-116959523D01*
X104861904Y-116959523D01*
X104957142Y-116911904D01*
X105004761Y-116864285D01*
X105052380Y-116769047D01*
X105052380Y-116483333D01*
X105004761Y-116388095D01*
X104957142Y-116340476D01*
X104385714Y-117816666D02*
X105052380Y-117816666D01*
X104004761Y-117578571D02*
X104719047Y-117340476D01*
X104719047Y-117959523D01*
G04 #@! TO.C,C33*
X129957142Y-116057142D02*
X130004761Y-116009523D01*
X130052380Y-115866666D01*
X130052380Y-115771428D01*
X130004761Y-115628571D01*
X129909523Y-115533333D01*
X129814285Y-115485714D01*
X129623809Y-115438095D01*
X129480952Y-115438095D01*
X129290476Y-115485714D01*
X129195238Y-115533333D01*
X129100000Y-115628571D01*
X129052380Y-115771428D01*
X129052380Y-115866666D01*
X129100000Y-116009523D01*
X129147619Y-116057142D01*
X129052380Y-116390476D02*
X129052380Y-117009523D01*
X129433333Y-116676190D01*
X129433333Y-116819047D01*
X129480952Y-116914285D01*
X129528571Y-116961904D01*
X129623809Y-117009523D01*
X129861904Y-117009523D01*
X129957142Y-116961904D01*
X130004761Y-116914285D01*
X130052380Y-116819047D01*
X130052380Y-116533333D01*
X130004761Y-116438095D01*
X129957142Y-116390476D01*
X129052380Y-117342857D02*
X129052380Y-117961904D01*
X129433333Y-117628571D01*
X129433333Y-117771428D01*
X129480952Y-117866666D01*
X129528571Y-117914285D01*
X129623809Y-117961904D01*
X129861904Y-117961904D01*
X129957142Y-117914285D01*
X130004761Y-117866666D01*
X130052380Y-117771428D01*
X130052380Y-117485714D01*
X130004761Y-117390476D01*
X129957142Y-117342857D01*
G04 #@! TO.C,C35*
X137507142Y-116107142D02*
X137554761Y-116059523D01*
X137602380Y-115916666D01*
X137602380Y-115821428D01*
X137554761Y-115678571D01*
X137459523Y-115583333D01*
X137364285Y-115535714D01*
X137173809Y-115488095D01*
X137030952Y-115488095D01*
X136840476Y-115535714D01*
X136745238Y-115583333D01*
X136650000Y-115678571D01*
X136602380Y-115821428D01*
X136602380Y-115916666D01*
X136650000Y-116059523D01*
X136697619Y-116107142D01*
X136602380Y-116440476D02*
X136602380Y-117059523D01*
X136983333Y-116726190D01*
X136983333Y-116869047D01*
X137030952Y-116964285D01*
X137078571Y-117011904D01*
X137173809Y-117059523D01*
X137411904Y-117059523D01*
X137507142Y-117011904D01*
X137554761Y-116964285D01*
X137602380Y-116869047D01*
X137602380Y-116583333D01*
X137554761Y-116488095D01*
X137507142Y-116440476D01*
X136602380Y-117964285D02*
X136602380Y-117488095D01*
X137078571Y-117440476D01*
X137030952Y-117488095D01*
X136983333Y-117583333D01*
X136983333Y-117821428D01*
X137030952Y-117916666D01*
X137078571Y-117964285D01*
X137173809Y-118011904D01*
X137411904Y-118011904D01*
X137507142Y-117964285D01*
X137554761Y-117916666D01*
X137602380Y-117821428D01*
X137602380Y-117583333D01*
X137554761Y-117488095D01*
X137507142Y-117440476D01*
G04 #@! TO.C,C36*
X135057142Y-116107142D02*
X135104761Y-116059523D01*
X135152380Y-115916666D01*
X135152380Y-115821428D01*
X135104761Y-115678571D01*
X135009523Y-115583333D01*
X134914285Y-115535714D01*
X134723809Y-115488095D01*
X134580952Y-115488095D01*
X134390476Y-115535714D01*
X134295238Y-115583333D01*
X134200000Y-115678571D01*
X134152380Y-115821428D01*
X134152380Y-115916666D01*
X134200000Y-116059523D01*
X134247619Y-116107142D01*
X134152380Y-116440476D02*
X134152380Y-117059523D01*
X134533333Y-116726190D01*
X134533333Y-116869047D01*
X134580952Y-116964285D01*
X134628571Y-117011904D01*
X134723809Y-117059523D01*
X134961904Y-117059523D01*
X135057142Y-117011904D01*
X135104761Y-116964285D01*
X135152380Y-116869047D01*
X135152380Y-116583333D01*
X135104761Y-116488095D01*
X135057142Y-116440476D01*
X134152380Y-117916666D02*
X134152380Y-117726190D01*
X134200000Y-117630952D01*
X134247619Y-117583333D01*
X134390476Y-117488095D01*
X134580952Y-117440476D01*
X134961904Y-117440476D01*
X135057142Y-117488095D01*
X135104761Y-117535714D01*
X135152380Y-117630952D01*
X135152380Y-117821428D01*
X135104761Y-117916666D01*
X135057142Y-117964285D01*
X134961904Y-118011904D01*
X134723809Y-118011904D01*
X134628571Y-117964285D01*
X134580952Y-117916666D01*
X134533333Y-117821428D01*
X134533333Y-117630952D01*
X134580952Y-117535714D01*
X134628571Y-117488095D01*
X134723809Y-117440476D01*
G04 #@! TO.C,C37*
X112507142Y-116007142D02*
X112554761Y-115959523D01*
X112602380Y-115816666D01*
X112602380Y-115721428D01*
X112554761Y-115578571D01*
X112459523Y-115483333D01*
X112364285Y-115435714D01*
X112173809Y-115388095D01*
X112030952Y-115388095D01*
X111840476Y-115435714D01*
X111745238Y-115483333D01*
X111650000Y-115578571D01*
X111602380Y-115721428D01*
X111602380Y-115816666D01*
X111650000Y-115959523D01*
X111697619Y-116007142D01*
X111602380Y-116340476D02*
X111602380Y-116959523D01*
X111983333Y-116626190D01*
X111983333Y-116769047D01*
X112030952Y-116864285D01*
X112078571Y-116911904D01*
X112173809Y-116959523D01*
X112411904Y-116959523D01*
X112507142Y-116911904D01*
X112554761Y-116864285D01*
X112602380Y-116769047D01*
X112602380Y-116483333D01*
X112554761Y-116388095D01*
X112507142Y-116340476D01*
X111602380Y-117292857D02*
X111602380Y-117959523D01*
X112602380Y-117530952D01*
G04 #@! TO.C,C38*
X109957142Y-116007142D02*
X110004761Y-115959523D01*
X110052380Y-115816666D01*
X110052380Y-115721428D01*
X110004761Y-115578571D01*
X109909523Y-115483333D01*
X109814285Y-115435714D01*
X109623809Y-115388095D01*
X109480952Y-115388095D01*
X109290476Y-115435714D01*
X109195238Y-115483333D01*
X109100000Y-115578571D01*
X109052380Y-115721428D01*
X109052380Y-115816666D01*
X109100000Y-115959523D01*
X109147619Y-116007142D01*
X109052380Y-116340476D02*
X109052380Y-116959523D01*
X109433333Y-116626190D01*
X109433333Y-116769047D01*
X109480952Y-116864285D01*
X109528571Y-116911904D01*
X109623809Y-116959523D01*
X109861904Y-116959523D01*
X109957142Y-116911904D01*
X110004761Y-116864285D01*
X110052380Y-116769047D01*
X110052380Y-116483333D01*
X110004761Y-116388095D01*
X109957142Y-116340476D01*
X109480952Y-117530952D02*
X109433333Y-117435714D01*
X109385714Y-117388095D01*
X109290476Y-117340476D01*
X109242857Y-117340476D01*
X109147619Y-117388095D01*
X109100000Y-117435714D01*
X109052380Y-117530952D01*
X109052380Y-117721428D01*
X109100000Y-117816666D01*
X109147619Y-117864285D01*
X109242857Y-117911904D01*
X109290476Y-117911904D01*
X109385714Y-117864285D01*
X109433333Y-117816666D01*
X109480952Y-117721428D01*
X109480952Y-117530952D01*
X109528571Y-117435714D01*
X109576190Y-117388095D01*
X109671428Y-117340476D01*
X109861904Y-117340476D01*
X109957142Y-117388095D01*
X110004761Y-117435714D01*
X110052380Y-117530952D01*
X110052380Y-117721428D01*
X110004761Y-117816666D01*
X109957142Y-117864285D01*
X109861904Y-117911904D01*
X109671428Y-117911904D01*
X109576190Y-117864285D01*
X109528571Y-117816666D01*
X109480952Y-117721428D01*
G04 #@! TO.C,C39*
X54007142Y-115857142D02*
X54054761Y-115809523D01*
X54102380Y-115666666D01*
X54102380Y-115571428D01*
X54054761Y-115428571D01*
X53959523Y-115333333D01*
X53864285Y-115285714D01*
X53673809Y-115238095D01*
X53530952Y-115238095D01*
X53340476Y-115285714D01*
X53245238Y-115333333D01*
X53150000Y-115428571D01*
X53102380Y-115571428D01*
X53102380Y-115666666D01*
X53150000Y-115809523D01*
X53197619Y-115857142D01*
X53102380Y-116190476D02*
X53102380Y-116809523D01*
X53483333Y-116476190D01*
X53483333Y-116619047D01*
X53530952Y-116714285D01*
X53578571Y-116761904D01*
X53673809Y-116809523D01*
X53911904Y-116809523D01*
X54007142Y-116761904D01*
X54054761Y-116714285D01*
X54102380Y-116619047D01*
X54102380Y-116333333D01*
X54054761Y-116238095D01*
X54007142Y-116190476D01*
X54102380Y-117285714D02*
X54102380Y-117476190D01*
X54054761Y-117571428D01*
X54007142Y-117619047D01*
X53864285Y-117714285D01*
X53673809Y-117761904D01*
X53292857Y-117761904D01*
X53197619Y-117714285D01*
X53150000Y-117666666D01*
X53102380Y-117571428D01*
X53102380Y-117380952D01*
X53150000Y-117285714D01*
X53197619Y-117238095D01*
X53292857Y-117190476D01*
X53530952Y-117190476D01*
X53626190Y-117238095D01*
X53673809Y-117285714D01*
X53721428Y-117380952D01*
X53721428Y-117571428D01*
X53673809Y-117666666D01*
X53626190Y-117714285D01*
X53530952Y-117761904D01*
G04 #@! TO.C,C40*
X79557142Y-116007142D02*
X79604761Y-115959523D01*
X79652380Y-115816666D01*
X79652380Y-115721428D01*
X79604761Y-115578571D01*
X79509523Y-115483333D01*
X79414285Y-115435714D01*
X79223809Y-115388095D01*
X79080952Y-115388095D01*
X78890476Y-115435714D01*
X78795238Y-115483333D01*
X78700000Y-115578571D01*
X78652380Y-115721428D01*
X78652380Y-115816666D01*
X78700000Y-115959523D01*
X78747619Y-116007142D01*
X78985714Y-116864285D02*
X79652380Y-116864285D01*
X78604761Y-116626190D02*
X79319047Y-116388095D01*
X79319047Y-117007142D01*
X78652380Y-117578571D02*
X78652380Y-117673809D01*
X78700000Y-117769047D01*
X78747619Y-117816666D01*
X78842857Y-117864285D01*
X79033333Y-117911904D01*
X79271428Y-117911904D01*
X79461904Y-117864285D01*
X79557142Y-117816666D01*
X79604761Y-117769047D01*
X79652380Y-117673809D01*
X79652380Y-117578571D01*
X79604761Y-117483333D01*
X79557142Y-117435714D01*
X79461904Y-117388095D01*
X79271428Y-117340476D01*
X79033333Y-117340476D01*
X78842857Y-117388095D01*
X78747619Y-117435714D01*
X78700000Y-117483333D01*
X78652380Y-117578571D01*
G04 #@! TO.C,C41*
X61457142Y-115857142D02*
X61504761Y-115809523D01*
X61552380Y-115666666D01*
X61552380Y-115571428D01*
X61504761Y-115428571D01*
X61409523Y-115333333D01*
X61314285Y-115285714D01*
X61123809Y-115238095D01*
X60980952Y-115238095D01*
X60790476Y-115285714D01*
X60695238Y-115333333D01*
X60600000Y-115428571D01*
X60552380Y-115571428D01*
X60552380Y-115666666D01*
X60600000Y-115809523D01*
X60647619Y-115857142D01*
X60885714Y-116714285D02*
X61552380Y-116714285D01*
X60504761Y-116476190D02*
X61219047Y-116238095D01*
X61219047Y-116857142D01*
X61552380Y-117761904D02*
X61552380Y-117190476D01*
X61552380Y-117476190D02*
X60552380Y-117476190D01*
X60695238Y-117380952D01*
X60790476Y-117285714D01*
X60838095Y-117190476D01*
G04 #@! TO.C,C42*
X58957142Y-115857142D02*
X59004761Y-115809523D01*
X59052380Y-115666666D01*
X59052380Y-115571428D01*
X59004761Y-115428571D01*
X58909523Y-115333333D01*
X58814285Y-115285714D01*
X58623809Y-115238095D01*
X58480952Y-115238095D01*
X58290476Y-115285714D01*
X58195238Y-115333333D01*
X58100000Y-115428571D01*
X58052380Y-115571428D01*
X58052380Y-115666666D01*
X58100000Y-115809523D01*
X58147619Y-115857142D01*
X58385714Y-116714285D02*
X59052380Y-116714285D01*
X58004761Y-116476190D02*
X58719047Y-116238095D01*
X58719047Y-116857142D01*
X58147619Y-117190476D02*
X58100000Y-117238095D01*
X58052380Y-117333333D01*
X58052380Y-117571428D01*
X58100000Y-117666666D01*
X58147619Y-117714285D01*
X58242857Y-117761904D01*
X58338095Y-117761904D01*
X58480952Y-117714285D01*
X59052380Y-117142857D01*
X59052380Y-117761904D01*
G04 #@! TO.C,C43*
X87007142Y-115907142D02*
X87054761Y-115859523D01*
X87102380Y-115716666D01*
X87102380Y-115621428D01*
X87054761Y-115478571D01*
X86959523Y-115383333D01*
X86864285Y-115335714D01*
X86673809Y-115288095D01*
X86530952Y-115288095D01*
X86340476Y-115335714D01*
X86245238Y-115383333D01*
X86150000Y-115478571D01*
X86102380Y-115621428D01*
X86102380Y-115716666D01*
X86150000Y-115859523D01*
X86197619Y-115907142D01*
X86435714Y-116764285D02*
X87102380Y-116764285D01*
X86054761Y-116526190D02*
X86769047Y-116288095D01*
X86769047Y-116907142D01*
X86102380Y-117192857D02*
X86102380Y-117811904D01*
X86483333Y-117478571D01*
X86483333Y-117621428D01*
X86530952Y-117716666D01*
X86578571Y-117764285D01*
X86673809Y-117811904D01*
X86911904Y-117811904D01*
X87007142Y-117764285D01*
X87054761Y-117716666D01*
X87102380Y-117621428D01*
X87102380Y-117335714D01*
X87054761Y-117240476D01*
X87007142Y-117192857D01*
G04 #@! TO.C,C44*
X84557142Y-115857142D02*
X84604761Y-115809523D01*
X84652380Y-115666666D01*
X84652380Y-115571428D01*
X84604761Y-115428571D01*
X84509523Y-115333333D01*
X84414285Y-115285714D01*
X84223809Y-115238095D01*
X84080952Y-115238095D01*
X83890476Y-115285714D01*
X83795238Y-115333333D01*
X83700000Y-115428571D01*
X83652380Y-115571428D01*
X83652380Y-115666666D01*
X83700000Y-115809523D01*
X83747619Y-115857142D01*
X83985714Y-116714285D02*
X84652380Y-116714285D01*
X83604761Y-116476190D02*
X84319047Y-116238095D01*
X84319047Y-116857142D01*
X83985714Y-117666666D02*
X84652380Y-117666666D01*
X83604761Y-117428571D02*
X84319047Y-117190476D01*
X84319047Y-117809523D01*
G04 #@! TO.C,R14*
X127552380Y-117607142D02*
X127076190Y-117273809D01*
X127552380Y-117035714D02*
X126552380Y-117035714D01*
X126552380Y-117416666D01*
X126600000Y-117511904D01*
X126647619Y-117559523D01*
X126742857Y-117607142D01*
X126885714Y-117607142D01*
X126980952Y-117559523D01*
X127028571Y-117511904D01*
X127076190Y-117416666D01*
X127076190Y-117035714D01*
X127552380Y-118559523D02*
X127552380Y-117988095D01*
X127552380Y-118273809D02*
X126552380Y-118273809D01*
X126695238Y-118178571D01*
X126790476Y-118083333D01*
X126838095Y-117988095D01*
X126885714Y-119416666D02*
X127552380Y-119416666D01*
X126504761Y-119178571D02*
X127219047Y-118940476D01*
X127219047Y-119559523D01*
G04 #@! TO.C,R15*
X102652380Y-117557142D02*
X102176190Y-117223809D01*
X102652380Y-116985714D02*
X101652380Y-116985714D01*
X101652380Y-117366666D01*
X101700000Y-117461904D01*
X101747619Y-117509523D01*
X101842857Y-117557142D01*
X101985714Y-117557142D01*
X102080952Y-117509523D01*
X102128571Y-117461904D01*
X102176190Y-117366666D01*
X102176190Y-116985714D01*
X102652380Y-118509523D02*
X102652380Y-117938095D01*
X102652380Y-118223809D02*
X101652380Y-118223809D01*
X101795238Y-118128571D01*
X101890476Y-118033333D01*
X101938095Y-117938095D01*
X101652380Y-119414285D02*
X101652380Y-118938095D01*
X102128571Y-118890476D01*
X102080952Y-118938095D01*
X102033333Y-119033333D01*
X102033333Y-119271428D01*
X102080952Y-119366666D01*
X102128571Y-119414285D01*
X102223809Y-119461904D01*
X102461904Y-119461904D01*
X102557142Y-119414285D01*
X102604761Y-119366666D01*
X102652380Y-119271428D01*
X102652380Y-119033333D01*
X102604761Y-118938095D01*
X102557142Y-118890476D01*
G04 #@! TO.C,R16*
X132552380Y-116057142D02*
X132076190Y-115723809D01*
X132552380Y-115485714D02*
X131552380Y-115485714D01*
X131552380Y-115866666D01*
X131600000Y-115961904D01*
X131647619Y-116009523D01*
X131742857Y-116057142D01*
X131885714Y-116057142D01*
X131980952Y-116009523D01*
X132028571Y-115961904D01*
X132076190Y-115866666D01*
X132076190Y-115485714D01*
X132552380Y-117009523D02*
X132552380Y-116438095D01*
X132552380Y-116723809D02*
X131552380Y-116723809D01*
X131695238Y-116628571D01*
X131790476Y-116533333D01*
X131838095Y-116438095D01*
X131552380Y-117866666D02*
X131552380Y-117676190D01*
X131600000Y-117580952D01*
X131647619Y-117533333D01*
X131790476Y-117438095D01*
X131980952Y-117390476D01*
X132361904Y-117390476D01*
X132457142Y-117438095D01*
X132504761Y-117485714D01*
X132552380Y-117580952D01*
X132552380Y-117771428D01*
X132504761Y-117866666D01*
X132457142Y-117914285D01*
X132361904Y-117961904D01*
X132123809Y-117961904D01*
X132028571Y-117914285D01*
X131980952Y-117866666D01*
X131933333Y-117771428D01*
X131933333Y-117580952D01*
X131980952Y-117485714D01*
X132028571Y-117438095D01*
X132123809Y-117390476D01*
G04 #@! TO.C,R17*
X107602380Y-115957142D02*
X107126190Y-115623809D01*
X107602380Y-115385714D02*
X106602380Y-115385714D01*
X106602380Y-115766666D01*
X106650000Y-115861904D01*
X106697619Y-115909523D01*
X106792857Y-115957142D01*
X106935714Y-115957142D01*
X107030952Y-115909523D01*
X107078571Y-115861904D01*
X107126190Y-115766666D01*
X107126190Y-115385714D01*
X107602380Y-116909523D02*
X107602380Y-116338095D01*
X107602380Y-116623809D02*
X106602380Y-116623809D01*
X106745238Y-116528571D01*
X106840476Y-116433333D01*
X106888095Y-116338095D01*
X106602380Y-117242857D02*
X106602380Y-117909523D01*
X107602380Y-117480952D01*
G04 #@! TO.C,R34*
X115552380Y-50507142D02*
X115076190Y-50173809D01*
X115552380Y-49935714D02*
X114552380Y-49935714D01*
X114552380Y-50316666D01*
X114600000Y-50411904D01*
X114647619Y-50459523D01*
X114742857Y-50507142D01*
X114885714Y-50507142D01*
X114980952Y-50459523D01*
X115028571Y-50411904D01*
X115076190Y-50316666D01*
X115076190Y-49935714D01*
X114552380Y-50840476D02*
X114552380Y-51459523D01*
X114933333Y-51126190D01*
X114933333Y-51269047D01*
X114980952Y-51364285D01*
X115028571Y-51411904D01*
X115123809Y-51459523D01*
X115361904Y-51459523D01*
X115457142Y-51411904D01*
X115504761Y-51364285D01*
X115552380Y-51269047D01*
X115552380Y-50983333D01*
X115504761Y-50888095D01*
X115457142Y-50840476D01*
X114885714Y-52316666D02*
X115552380Y-52316666D01*
X114504761Y-52078571D02*
X115219047Y-51840476D01*
X115219047Y-52459523D01*
G04 #@! TO.C,R33*
X118552380Y-50557142D02*
X118076190Y-50223809D01*
X118552380Y-49985714D02*
X117552380Y-49985714D01*
X117552380Y-50366666D01*
X117600000Y-50461904D01*
X117647619Y-50509523D01*
X117742857Y-50557142D01*
X117885714Y-50557142D01*
X117980952Y-50509523D01*
X118028571Y-50461904D01*
X118076190Y-50366666D01*
X118076190Y-49985714D01*
X117552380Y-50890476D02*
X117552380Y-51509523D01*
X117933333Y-51176190D01*
X117933333Y-51319047D01*
X117980952Y-51414285D01*
X118028571Y-51461904D01*
X118123809Y-51509523D01*
X118361904Y-51509523D01*
X118457142Y-51461904D01*
X118504761Y-51414285D01*
X118552380Y-51319047D01*
X118552380Y-51033333D01*
X118504761Y-50938095D01*
X118457142Y-50890476D01*
X117552380Y-51842857D02*
X117552380Y-52461904D01*
X117933333Y-52128571D01*
X117933333Y-52271428D01*
X117980952Y-52366666D01*
X118028571Y-52414285D01*
X118123809Y-52461904D01*
X118361904Y-52461904D01*
X118457142Y-52414285D01*
X118504761Y-52366666D01*
X118552380Y-52271428D01*
X118552380Y-51985714D01*
X118504761Y-51890476D01*
X118457142Y-51842857D01*
G04 #@! TO.C,R32*
X115552380Y-61707142D02*
X115076190Y-61373809D01*
X115552380Y-61135714D02*
X114552380Y-61135714D01*
X114552380Y-61516666D01*
X114600000Y-61611904D01*
X114647619Y-61659523D01*
X114742857Y-61707142D01*
X114885714Y-61707142D01*
X114980952Y-61659523D01*
X115028571Y-61611904D01*
X115076190Y-61516666D01*
X115076190Y-61135714D01*
X114552380Y-62040476D02*
X114552380Y-62659523D01*
X114933333Y-62326190D01*
X114933333Y-62469047D01*
X114980952Y-62564285D01*
X115028571Y-62611904D01*
X115123809Y-62659523D01*
X115361904Y-62659523D01*
X115457142Y-62611904D01*
X115504761Y-62564285D01*
X115552380Y-62469047D01*
X115552380Y-62183333D01*
X115504761Y-62088095D01*
X115457142Y-62040476D01*
X114647619Y-63040476D02*
X114600000Y-63088095D01*
X114552380Y-63183333D01*
X114552380Y-63421428D01*
X114600000Y-63516666D01*
X114647619Y-63564285D01*
X114742857Y-63611904D01*
X114838095Y-63611904D01*
X114980952Y-63564285D01*
X115552380Y-62992857D01*
X115552380Y-63611904D01*
G04 #@! TO.C,R31*
X118552380Y-61657142D02*
X118076190Y-61323809D01*
X118552380Y-61085714D02*
X117552380Y-61085714D01*
X117552380Y-61466666D01*
X117600000Y-61561904D01*
X117647619Y-61609523D01*
X117742857Y-61657142D01*
X117885714Y-61657142D01*
X117980952Y-61609523D01*
X118028571Y-61561904D01*
X118076190Y-61466666D01*
X118076190Y-61085714D01*
X117552380Y-61990476D02*
X117552380Y-62609523D01*
X117933333Y-62276190D01*
X117933333Y-62419047D01*
X117980952Y-62514285D01*
X118028571Y-62561904D01*
X118123809Y-62609523D01*
X118361904Y-62609523D01*
X118457142Y-62561904D01*
X118504761Y-62514285D01*
X118552380Y-62419047D01*
X118552380Y-62133333D01*
X118504761Y-62038095D01*
X118457142Y-61990476D01*
X118552380Y-63561904D02*
X118552380Y-62990476D01*
X118552380Y-63276190D02*
X117552380Y-63276190D01*
X117695238Y-63180952D01*
X117790476Y-63085714D01*
X117838095Y-62990476D01*
G04 #@! TO.C,R30*
X111192857Y-52502380D02*
X111526190Y-52026190D01*
X111764285Y-52502380D02*
X111764285Y-51502380D01*
X111383333Y-51502380D01*
X111288095Y-51550000D01*
X111240476Y-51597619D01*
X111192857Y-51692857D01*
X111192857Y-51835714D01*
X111240476Y-51930952D01*
X111288095Y-51978571D01*
X111383333Y-52026190D01*
X111764285Y-52026190D01*
X110859523Y-51502380D02*
X110240476Y-51502380D01*
X110573809Y-51883333D01*
X110430952Y-51883333D01*
X110335714Y-51930952D01*
X110288095Y-51978571D01*
X110240476Y-52073809D01*
X110240476Y-52311904D01*
X110288095Y-52407142D01*
X110335714Y-52454761D01*
X110430952Y-52502380D01*
X110716666Y-52502380D01*
X110811904Y-52454761D01*
X110859523Y-52407142D01*
X109621428Y-51502380D02*
X109526190Y-51502380D01*
X109430952Y-51550000D01*
X109383333Y-51597619D01*
X109335714Y-51692857D01*
X109288095Y-51883333D01*
X109288095Y-52121428D01*
X109335714Y-52311904D01*
X109383333Y-52407142D01*
X109430952Y-52454761D01*
X109526190Y-52502380D01*
X109621428Y-52502380D01*
X109716666Y-52454761D01*
X109764285Y-52407142D01*
X109811904Y-52311904D01*
X109859523Y-52121428D01*
X109859523Y-51883333D01*
X109811904Y-51692857D01*
X109764285Y-51597619D01*
X109716666Y-51550000D01*
X109621428Y-51502380D01*
G04 #@! TO.C,R29*
X65052380Y-50357142D02*
X64576190Y-50023809D01*
X65052380Y-49785714D02*
X64052380Y-49785714D01*
X64052380Y-50166666D01*
X64100000Y-50261904D01*
X64147619Y-50309523D01*
X64242857Y-50357142D01*
X64385714Y-50357142D01*
X64480952Y-50309523D01*
X64528571Y-50261904D01*
X64576190Y-50166666D01*
X64576190Y-49785714D01*
X64147619Y-50738095D02*
X64100000Y-50785714D01*
X64052380Y-50880952D01*
X64052380Y-51119047D01*
X64100000Y-51214285D01*
X64147619Y-51261904D01*
X64242857Y-51309523D01*
X64338095Y-51309523D01*
X64480952Y-51261904D01*
X65052380Y-50690476D01*
X65052380Y-51309523D01*
X65052380Y-51785714D02*
X65052380Y-51976190D01*
X65004761Y-52071428D01*
X64957142Y-52119047D01*
X64814285Y-52214285D01*
X64623809Y-52261904D01*
X64242857Y-52261904D01*
X64147619Y-52214285D01*
X64100000Y-52166666D01*
X64052380Y-52071428D01*
X64052380Y-51880952D01*
X64100000Y-51785714D01*
X64147619Y-51738095D01*
X64242857Y-51690476D01*
X64480952Y-51690476D01*
X64576190Y-51738095D01*
X64623809Y-51785714D01*
X64671428Y-51880952D01*
X64671428Y-52071428D01*
X64623809Y-52166666D01*
X64576190Y-52214285D01*
X64480952Y-52261904D01*
G04 #@! TO.C,R28*
X68102380Y-50407142D02*
X67626190Y-50073809D01*
X68102380Y-49835714D02*
X67102380Y-49835714D01*
X67102380Y-50216666D01*
X67150000Y-50311904D01*
X67197619Y-50359523D01*
X67292857Y-50407142D01*
X67435714Y-50407142D01*
X67530952Y-50359523D01*
X67578571Y-50311904D01*
X67626190Y-50216666D01*
X67626190Y-49835714D01*
X67197619Y-50788095D02*
X67150000Y-50835714D01*
X67102380Y-50930952D01*
X67102380Y-51169047D01*
X67150000Y-51264285D01*
X67197619Y-51311904D01*
X67292857Y-51359523D01*
X67388095Y-51359523D01*
X67530952Y-51311904D01*
X68102380Y-50740476D01*
X68102380Y-51359523D01*
X67530952Y-51930952D02*
X67483333Y-51835714D01*
X67435714Y-51788095D01*
X67340476Y-51740476D01*
X67292857Y-51740476D01*
X67197619Y-51788095D01*
X67150000Y-51835714D01*
X67102380Y-51930952D01*
X67102380Y-52121428D01*
X67150000Y-52216666D01*
X67197619Y-52264285D01*
X67292857Y-52311904D01*
X67340476Y-52311904D01*
X67435714Y-52264285D01*
X67483333Y-52216666D01*
X67530952Y-52121428D01*
X67530952Y-51930952D01*
X67578571Y-51835714D01*
X67626190Y-51788095D01*
X67721428Y-51740476D01*
X67911904Y-51740476D01*
X68007142Y-51788095D01*
X68054761Y-51835714D01*
X68102380Y-51930952D01*
X68102380Y-52121428D01*
X68054761Y-52216666D01*
X68007142Y-52264285D01*
X67911904Y-52311904D01*
X67721428Y-52311904D01*
X67626190Y-52264285D01*
X67578571Y-52216666D01*
X67530952Y-52121428D01*
G04 #@! TO.C,R27*
X65052380Y-61657142D02*
X64576190Y-61323809D01*
X65052380Y-61085714D02*
X64052380Y-61085714D01*
X64052380Y-61466666D01*
X64100000Y-61561904D01*
X64147619Y-61609523D01*
X64242857Y-61657142D01*
X64385714Y-61657142D01*
X64480952Y-61609523D01*
X64528571Y-61561904D01*
X64576190Y-61466666D01*
X64576190Y-61085714D01*
X64147619Y-62038095D02*
X64100000Y-62085714D01*
X64052380Y-62180952D01*
X64052380Y-62419047D01*
X64100000Y-62514285D01*
X64147619Y-62561904D01*
X64242857Y-62609523D01*
X64338095Y-62609523D01*
X64480952Y-62561904D01*
X65052380Y-61990476D01*
X65052380Y-62609523D01*
X64052380Y-62942857D02*
X64052380Y-63609523D01*
X65052380Y-63180952D01*
G04 #@! TO.C,R26*
X68102380Y-61607142D02*
X67626190Y-61273809D01*
X68102380Y-61035714D02*
X67102380Y-61035714D01*
X67102380Y-61416666D01*
X67150000Y-61511904D01*
X67197619Y-61559523D01*
X67292857Y-61607142D01*
X67435714Y-61607142D01*
X67530952Y-61559523D01*
X67578571Y-61511904D01*
X67626190Y-61416666D01*
X67626190Y-61035714D01*
X67197619Y-61988095D02*
X67150000Y-62035714D01*
X67102380Y-62130952D01*
X67102380Y-62369047D01*
X67150000Y-62464285D01*
X67197619Y-62511904D01*
X67292857Y-62559523D01*
X67388095Y-62559523D01*
X67530952Y-62511904D01*
X68102380Y-61940476D01*
X68102380Y-62559523D01*
X67102380Y-63416666D02*
X67102380Y-63226190D01*
X67150000Y-63130952D01*
X67197619Y-63083333D01*
X67340476Y-62988095D01*
X67530952Y-62940476D01*
X67911904Y-62940476D01*
X68007142Y-62988095D01*
X68054761Y-63035714D01*
X68102380Y-63130952D01*
X68102380Y-63321428D01*
X68054761Y-63416666D01*
X68007142Y-63464285D01*
X67911904Y-63511904D01*
X67673809Y-63511904D01*
X67578571Y-63464285D01*
X67530952Y-63416666D01*
X67483333Y-63321428D01*
X67483333Y-63130952D01*
X67530952Y-63035714D01*
X67578571Y-62988095D01*
X67673809Y-62940476D01*
G04 #@! TO.C,R25*
X60242857Y-52602380D02*
X60576190Y-52126190D01*
X60814285Y-52602380D02*
X60814285Y-51602380D01*
X60433333Y-51602380D01*
X60338095Y-51650000D01*
X60290476Y-51697619D01*
X60242857Y-51792857D01*
X60242857Y-51935714D01*
X60290476Y-52030952D01*
X60338095Y-52078571D01*
X60433333Y-52126190D01*
X60814285Y-52126190D01*
X59861904Y-51697619D02*
X59814285Y-51650000D01*
X59719047Y-51602380D01*
X59480952Y-51602380D01*
X59385714Y-51650000D01*
X59338095Y-51697619D01*
X59290476Y-51792857D01*
X59290476Y-51888095D01*
X59338095Y-52030952D01*
X59909523Y-52602380D01*
X59290476Y-52602380D01*
X58385714Y-51602380D02*
X58861904Y-51602380D01*
X58909523Y-52078571D01*
X58861904Y-52030952D01*
X58766666Y-51983333D01*
X58528571Y-51983333D01*
X58433333Y-52030952D01*
X58385714Y-52078571D01*
X58338095Y-52173809D01*
X58338095Y-52411904D01*
X58385714Y-52507142D01*
X58433333Y-52554761D01*
X58528571Y-52602380D01*
X58766666Y-52602380D01*
X58861904Y-52554761D01*
X58909523Y-52507142D01*
G04 #@! TO.C,R24*
X82152380Y-116057142D02*
X81676190Y-115723809D01*
X82152380Y-115485714D02*
X81152380Y-115485714D01*
X81152380Y-115866666D01*
X81200000Y-115961904D01*
X81247619Y-116009523D01*
X81342857Y-116057142D01*
X81485714Y-116057142D01*
X81580952Y-116009523D01*
X81628571Y-115961904D01*
X81676190Y-115866666D01*
X81676190Y-115485714D01*
X81247619Y-116438095D02*
X81200000Y-116485714D01*
X81152380Y-116580952D01*
X81152380Y-116819047D01*
X81200000Y-116914285D01*
X81247619Y-116961904D01*
X81342857Y-117009523D01*
X81438095Y-117009523D01*
X81580952Y-116961904D01*
X82152380Y-116390476D01*
X82152380Y-117009523D01*
X81485714Y-117866666D02*
X82152380Y-117866666D01*
X81104761Y-117628571D02*
X81819047Y-117390476D01*
X81819047Y-118009523D01*
G04 #@! TO.C,R23*
X56602380Y-115857142D02*
X56126190Y-115523809D01*
X56602380Y-115285714D02*
X55602380Y-115285714D01*
X55602380Y-115666666D01*
X55650000Y-115761904D01*
X55697619Y-115809523D01*
X55792857Y-115857142D01*
X55935714Y-115857142D01*
X56030952Y-115809523D01*
X56078571Y-115761904D01*
X56126190Y-115666666D01*
X56126190Y-115285714D01*
X55697619Y-116238095D02*
X55650000Y-116285714D01*
X55602380Y-116380952D01*
X55602380Y-116619047D01*
X55650000Y-116714285D01*
X55697619Y-116761904D01*
X55792857Y-116809523D01*
X55888095Y-116809523D01*
X56030952Y-116761904D01*
X56602380Y-116190476D01*
X56602380Y-116809523D01*
X55602380Y-117142857D02*
X55602380Y-117761904D01*
X55983333Y-117428571D01*
X55983333Y-117571428D01*
X56030952Y-117666666D01*
X56078571Y-117714285D01*
X56173809Y-117761904D01*
X56411904Y-117761904D01*
X56507142Y-117714285D01*
X56554761Y-117666666D01*
X56602380Y-117571428D01*
X56602380Y-117285714D01*
X56554761Y-117190476D01*
X56507142Y-117142857D01*
G04 #@! TO.C,R22*
X77102380Y-117407142D02*
X76626190Y-117073809D01*
X77102380Y-116835714D02*
X76102380Y-116835714D01*
X76102380Y-117216666D01*
X76150000Y-117311904D01*
X76197619Y-117359523D01*
X76292857Y-117407142D01*
X76435714Y-117407142D01*
X76530952Y-117359523D01*
X76578571Y-117311904D01*
X76626190Y-117216666D01*
X76626190Y-116835714D01*
X76197619Y-117788095D02*
X76150000Y-117835714D01*
X76102380Y-117930952D01*
X76102380Y-118169047D01*
X76150000Y-118264285D01*
X76197619Y-118311904D01*
X76292857Y-118359523D01*
X76388095Y-118359523D01*
X76530952Y-118311904D01*
X77102380Y-117740476D01*
X77102380Y-118359523D01*
X76197619Y-118740476D02*
X76150000Y-118788095D01*
X76102380Y-118883333D01*
X76102380Y-119121428D01*
X76150000Y-119216666D01*
X76197619Y-119264285D01*
X76292857Y-119311904D01*
X76388095Y-119311904D01*
X76530952Y-119264285D01*
X77102380Y-118692857D01*
X77102380Y-119311904D01*
G04 #@! TO.C,R21*
X51552380Y-117607142D02*
X51076190Y-117273809D01*
X51552380Y-117035714D02*
X50552380Y-117035714D01*
X50552380Y-117416666D01*
X50600000Y-117511904D01*
X50647619Y-117559523D01*
X50742857Y-117607142D01*
X50885714Y-117607142D01*
X50980952Y-117559523D01*
X51028571Y-117511904D01*
X51076190Y-117416666D01*
X51076190Y-117035714D01*
X50647619Y-117988095D02*
X50600000Y-118035714D01*
X50552380Y-118130952D01*
X50552380Y-118369047D01*
X50600000Y-118464285D01*
X50647619Y-118511904D01*
X50742857Y-118559523D01*
X50838095Y-118559523D01*
X50980952Y-118511904D01*
X51552380Y-117940476D01*
X51552380Y-118559523D01*
X51552380Y-119511904D02*
X51552380Y-118940476D01*
X51552380Y-119226190D02*
X50552380Y-119226190D01*
X50695238Y-119130952D01*
X50790476Y-119035714D01*
X50838095Y-118940476D01*
G04 #@! TO.C,C32*
X110342857Y-79957142D02*
X110390476Y-80004761D01*
X110533333Y-80052380D01*
X110628571Y-80052380D01*
X110771428Y-80004761D01*
X110866666Y-79909523D01*
X110914285Y-79814285D01*
X110961904Y-79623809D01*
X110961904Y-79480952D01*
X110914285Y-79290476D01*
X110866666Y-79195238D01*
X110771428Y-79100000D01*
X110628571Y-79052380D01*
X110533333Y-79052380D01*
X110390476Y-79100000D01*
X110342857Y-79147619D01*
X110009523Y-79052380D02*
X109390476Y-79052380D01*
X109723809Y-79433333D01*
X109580952Y-79433333D01*
X109485714Y-79480952D01*
X109438095Y-79528571D01*
X109390476Y-79623809D01*
X109390476Y-79861904D01*
X109438095Y-79957142D01*
X109485714Y-80004761D01*
X109580952Y-80052380D01*
X109866666Y-80052380D01*
X109961904Y-80004761D01*
X110009523Y-79957142D01*
X109009523Y-79147619D02*
X108961904Y-79100000D01*
X108866666Y-79052380D01*
X108628571Y-79052380D01*
X108533333Y-79100000D01*
X108485714Y-79147619D01*
X108438095Y-79242857D01*
X108438095Y-79338095D01*
X108485714Y-79480952D01*
X109057142Y-80052380D01*
X108438095Y-80052380D01*
G04 #@! TO.C,C31*
X103007142Y-74307142D02*
X103054761Y-74259523D01*
X103102380Y-74116666D01*
X103102380Y-74021428D01*
X103054761Y-73878571D01*
X102959523Y-73783333D01*
X102864285Y-73735714D01*
X102673809Y-73688095D01*
X102530952Y-73688095D01*
X102340476Y-73735714D01*
X102245238Y-73783333D01*
X102150000Y-73878571D01*
X102102380Y-74021428D01*
X102102380Y-74116666D01*
X102150000Y-74259523D01*
X102197619Y-74307142D01*
X102102380Y-74640476D02*
X102102380Y-75259523D01*
X102483333Y-74926190D01*
X102483333Y-75069047D01*
X102530952Y-75164285D01*
X102578571Y-75211904D01*
X102673809Y-75259523D01*
X102911904Y-75259523D01*
X103007142Y-75211904D01*
X103054761Y-75164285D01*
X103102380Y-75069047D01*
X103102380Y-74783333D01*
X103054761Y-74688095D01*
X103007142Y-74640476D01*
X103102380Y-76211904D02*
X103102380Y-75640476D01*
X103102380Y-75926190D02*
X102102380Y-75926190D01*
X102245238Y-75830952D01*
X102340476Y-75735714D01*
X102388095Y-75640476D01*
G04 #@! TO.C,C30*
X94357142Y-85357142D02*
X94404761Y-85309523D01*
X94452380Y-85166666D01*
X94452380Y-85071428D01*
X94404761Y-84928571D01*
X94309523Y-84833333D01*
X94214285Y-84785714D01*
X94023809Y-84738095D01*
X93880952Y-84738095D01*
X93690476Y-84785714D01*
X93595238Y-84833333D01*
X93500000Y-84928571D01*
X93452380Y-85071428D01*
X93452380Y-85166666D01*
X93500000Y-85309523D01*
X93547619Y-85357142D01*
X93452380Y-85690476D02*
X93452380Y-86309523D01*
X93833333Y-85976190D01*
X93833333Y-86119047D01*
X93880952Y-86214285D01*
X93928571Y-86261904D01*
X94023809Y-86309523D01*
X94261904Y-86309523D01*
X94357142Y-86261904D01*
X94404761Y-86214285D01*
X94452380Y-86119047D01*
X94452380Y-85833333D01*
X94404761Y-85738095D01*
X94357142Y-85690476D01*
X93452380Y-86928571D02*
X93452380Y-87023809D01*
X93500000Y-87119047D01*
X93547619Y-87166666D01*
X93642857Y-87214285D01*
X93833333Y-87261904D01*
X94071428Y-87261904D01*
X94261904Y-87214285D01*
X94357142Y-87166666D01*
X94404761Y-87119047D01*
X94452380Y-87023809D01*
X94452380Y-86928571D01*
X94404761Y-86833333D01*
X94357142Y-86785714D01*
X94261904Y-86738095D01*
X94071428Y-86690476D01*
X93833333Y-86690476D01*
X93642857Y-86738095D01*
X93547619Y-86785714D01*
X93500000Y-86833333D01*
X93452380Y-86928571D01*
G04 #@! TO.C,C29*
X103342857Y-93557142D02*
X103390476Y-93604761D01*
X103533333Y-93652380D01*
X103628571Y-93652380D01*
X103771428Y-93604761D01*
X103866666Y-93509523D01*
X103914285Y-93414285D01*
X103961904Y-93223809D01*
X103961904Y-93080952D01*
X103914285Y-92890476D01*
X103866666Y-92795238D01*
X103771428Y-92700000D01*
X103628571Y-92652380D01*
X103533333Y-92652380D01*
X103390476Y-92700000D01*
X103342857Y-92747619D01*
X102961904Y-92747619D02*
X102914285Y-92700000D01*
X102819047Y-92652380D01*
X102580952Y-92652380D01*
X102485714Y-92700000D01*
X102438095Y-92747619D01*
X102390476Y-92842857D01*
X102390476Y-92938095D01*
X102438095Y-93080952D01*
X103009523Y-93652380D01*
X102390476Y-93652380D01*
X101914285Y-93652380D02*
X101723809Y-93652380D01*
X101628571Y-93604761D01*
X101580952Y-93557142D01*
X101485714Y-93414285D01*
X101438095Y-93223809D01*
X101438095Y-92842857D01*
X101485714Y-92747619D01*
X101533333Y-92700000D01*
X101628571Y-92652380D01*
X101819047Y-92652380D01*
X101914285Y-92700000D01*
X101961904Y-92747619D01*
X102009523Y-92842857D01*
X102009523Y-93080952D01*
X101961904Y-93176190D01*
X101914285Y-93223809D01*
X101819047Y-93271428D01*
X101628571Y-93271428D01*
X101533333Y-93223809D01*
X101485714Y-93176190D01*
X101438095Y-93080952D01*
G04 #@! TO.C,C28*
X102907142Y-99482142D02*
X102954761Y-99434523D01*
X103002380Y-99291666D01*
X103002380Y-99196428D01*
X102954761Y-99053571D01*
X102859523Y-98958333D01*
X102764285Y-98910714D01*
X102573809Y-98863095D01*
X102430952Y-98863095D01*
X102240476Y-98910714D01*
X102145238Y-98958333D01*
X102050000Y-99053571D01*
X102002380Y-99196428D01*
X102002380Y-99291666D01*
X102050000Y-99434523D01*
X102097619Y-99482142D01*
X102097619Y-99863095D02*
X102050000Y-99910714D01*
X102002380Y-100005952D01*
X102002380Y-100244047D01*
X102050000Y-100339285D01*
X102097619Y-100386904D01*
X102192857Y-100434523D01*
X102288095Y-100434523D01*
X102430952Y-100386904D01*
X103002380Y-99815476D01*
X103002380Y-100434523D01*
X102430952Y-101005952D02*
X102383333Y-100910714D01*
X102335714Y-100863095D01*
X102240476Y-100815476D01*
X102192857Y-100815476D01*
X102097619Y-100863095D01*
X102050000Y-100910714D01*
X102002380Y-101005952D01*
X102002380Y-101196428D01*
X102050000Y-101291666D01*
X102097619Y-101339285D01*
X102192857Y-101386904D01*
X102240476Y-101386904D01*
X102335714Y-101339285D01*
X102383333Y-101291666D01*
X102430952Y-101196428D01*
X102430952Y-101005952D01*
X102478571Y-100910714D01*
X102526190Y-100863095D01*
X102621428Y-100815476D01*
X102811904Y-100815476D01*
X102907142Y-100863095D01*
X102954761Y-100910714D01*
X103002380Y-101005952D01*
X103002380Y-101196428D01*
X102954761Y-101291666D01*
X102907142Y-101339285D01*
X102811904Y-101386904D01*
X102621428Y-101386904D01*
X102526190Y-101339285D01*
X102478571Y-101291666D01*
X102430952Y-101196428D01*
G04 #@! TO.C,C27*
X102342857Y-79757142D02*
X102390476Y-79804761D01*
X102533333Y-79852380D01*
X102628571Y-79852380D01*
X102771428Y-79804761D01*
X102866666Y-79709523D01*
X102914285Y-79614285D01*
X102961904Y-79423809D01*
X102961904Y-79280952D01*
X102914285Y-79090476D01*
X102866666Y-78995238D01*
X102771428Y-78900000D01*
X102628571Y-78852380D01*
X102533333Y-78852380D01*
X102390476Y-78900000D01*
X102342857Y-78947619D01*
X101961904Y-78947619D02*
X101914285Y-78900000D01*
X101819047Y-78852380D01*
X101580952Y-78852380D01*
X101485714Y-78900000D01*
X101438095Y-78947619D01*
X101390476Y-79042857D01*
X101390476Y-79138095D01*
X101438095Y-79280952D01*
X102009523Y-79852380D01*
X101390476Y-79852380D01*
X101057142Y-78852380D02*
X100390476Y-78852380D01*
X100819047Y-79852380D01*
G04 #@! TO.C,C26*
X97892857Y-96707142D02*
X97940476Y-96754761D01*
X98083333Y-96802380D01*
X98178571Y-96802380D01*
X98321428Y-96754761D01*
X98416666Y-96659523D01*
X98464285Y-96564285D01*
X98511904Y-96373809D01*
X98511904Y-96230952D01*
X98464285Y-96040476D01*
X98416666Y-95945238D01*
X98321428Y-95850000D01*
X98178571Y-95802380D01*
X98083333Y-95802380D01*
X97940476Y-95850000D01*
X97892857Y-95897619D01*
X97511904Y-95897619D02*
X97464285Y-95850000D01*
X97369047Y-95802380D01*
X97130952Y-95802380D01*
X97035714Y-95850000D01*
X96988095Y-95897619D01*
X96940476Y-95992857D01*
X96940476Y-96088095D01*
X96988095Y-96230952D01*
X97559523Y-96802380D01*
X96940476Y-96802380D01*
X96083333Y-95802380D02*
X96273809Y-95802380D01*
X96369047Y-95850000D01*
X96416666Y-95897619D01*
X96511904Y-96040476D01*
X96559523Y-96230952D01*
X96559523Y-96611904D01*
X96511904Y-96707142D01*
X96464285Y-96754761D01*
X96369047Y-96802380D01*
X96178571Y-96802380D01*
X96083333Y-96754761D01*
X96035714Y-96707142D01*
X95988095Y-96611904D01*
X95988095Y-96373809D01*
X96035714Y-96278571D01*
X96083333Y-96230952D01*
X96178571Y-96183333D01*
X96369047Y-96183333D01*
X96464285Y-96230952D01*
X96511904Y-96278571D01*
X96559523Y-96373809D01*
G04 #@! TO.C,C25*
X100757142Y-87407142D02*
X100804761Y-87359523D01*
X100852380Y-87216666D01*
X100852380Y-87121428D01*
X100804761Y-86978571D01*
X100709523Y-86883333D01*
X100614285Y-86835714D01*
X100423809Y-86788095D01*
X100280952Y-86788095D01*
X100090476Y-86835714D01*
X99995238Y-86883333D01*
X99900000Y-86978571D01*
X99852380Y-87121428D01*
X99852380Y-87216666D01*
X99900000Y-87359523D01*
X99947619Y-87407142D01*
X99947619Y-87788095D02*
X99900000Y-87835714D01*
X99852380Y-87930952D01*
X99852380Y-88169047D01*
X99900000Y-88264285D01*
X99947619Y-88311904D01*
X100042857Y-88359523D01*
X100138095Y-88359523D01*
X100280952Y-88311904D01*
X100852380Y-87740476D01*
X100852380Y-88359523D01*
X99852380Y-89264285D02*
X99852380Y-88788095D01*
X100328571Y-88740476D01*
X100280952Y-88788095D01*
X100233333Y-88883333D01*
X100233333Y-89121428D01*
X100280952Y-89216666D01*
X100328571Y-89264285D01*
X100423809Y-89311904D01*
X100661904Y-89311904D01*
X100757142Y-89264285D01*
X100804761Y-89216666D01*
X100852380Y-89121428D01*
X100852380Y-88883333D01*
X100804761Y-88788095D01*
X100757142Y-88740476D01*
G04 #@! TO.C,C24*
X132992857Y-74957142D02*
X133040476Y-75004761D01*
X133183333Y-75052380D01*
X133278571Y-75052380D01*
X133421428Y-75004761D01*
X133516666Y-74909523D01*
X133564285Y-74814285D01*
X133611904Y-74623809D01*
X133611904Y-74480952D01*
X133564285Y-74290476D01*
X133516666Y-74195238D01*
X133421428Y-74100000D01*
X133278571Y-74052380D01*
X133183333Y-74052380D01*
X133040476Y-74100000D01*
X132992857Y-74147619D01*
X132611904Y-74147619D02*
X132564285Y-74100000D01*
X132469047Y-74052380D01*
X132230952Y-74052380D01*
X132135714Y-74100000D01*
X132088095Y-74147619D01*
X132040476Y-74242857D01*
X132040476Y-74338095D01*
X132088095Y-74480952D01*
X132659523Y-75052380D01*
X132040476Y-75052380D01*
X131183333Y-74385714D02*
X131183333Y-75052380D01*
X131421428Y-74004761D02*
X131659523Y-74719047D01*
X131040476Y-74719047D01*
G04 #@! TO.C,C22*
X108907142Y-74282142D02*
X108954761Y-74234523D01*
X109002380Y-74091666D01*
X109002380Y-73996428D01*
X108954761Y-73853571D01*
X108859523Y-73758333D01*
X108764285Y-73710714D01*
X108573809Y-73663095D01*
X108430952Y-73663095D01*
X108240476Y-73710714D01*
X108145238Y-73758333D01*
X108050000Y-73853571D01*
X108002380Y-73996428D01*
X108002380Y-74091666D01*
X108050000Y-74234523D01*
X108097619Y-74282142D01*
X108097619Y-74663095D02*
X108050000Y-74710714D01*
X108002380Y-74805952D01*
X108002380Y-75044047D01*
X108050000Y-75139285D01*
X108097619Y-75186904D01*
X108192857Y-75234523D01*
X108288095Y-75234523D01*
X108430952Y-75186904D01*
X109002380Y-74615476D01*
X109002380Y-75234523D01*
X108097619Y-75615476D02*
X108050000Y-75663095D01*
X108002380Y-75758333D01*
X108002380Y-75996428D01*
X108050000Y-76091666D01*
X108097619Y-76139285D01*
X108192857Y-76186904D01*
X108288095Y-76186904D01*
X108430952Y-76139285D01*
X109002380Y-75567857D01*
X109002380Y-76186904D01*
G04 #@! TO.C,C8*
X126807142Y-72808333D02*
X126854761Y-72760714D01*
X126902380Y-72617857D01*
X126902380Y-72522619D01*
X126854761Y-72379761D01*
X126759523Y-72284523D01*
X126664285Y-72236904D01*
X126473809Y-72189285D01*
X126330952Y-72189285D01*
X126140476Y-72236904D01*
X126045238Y-72284523D01*
X125950000Y-72379761D01*
X125902380Y-72522619D01*
X125902380Y-72617857D01*
X125950000Y-72760714D01*
X125997619Y-72808333D01*
X126330952Y-73379761D02*
X126283333Y-73284523D01*
X126235714Y-73236904D01*
X126140476Y-73189285D01*
X126092857Y-73189285D01*
X125997619Y-73236904D01*
X125950000Y-73284523D01*
X125902380Y-73379761D01*
X125902380Y-73570238D01*
X125950000Y-73665476D01*
X125997619Y-73713095D01*
X126092857Y-73760714D01*
X126140476Y-73760714D01*
X126235714Y-73713095D01*
X126283333Y-73665476D01*
X126330952Y-73570238D01*
X126330952Y-73379761D01*
X126378571Y-73284523D01*
X126426190Y-73236904D01*
X126521428Y-73189285D01*
X126711904Y-73189285D01*
X126807142Y-73236904D01*
X126854761Y-73284523D01*
X126902380Y-73379761D01*
X126902380Y-73570238D01*
X126854761Y-73665476D01*
X126807142Y-73713095D01*
X126711904Y-73760714D01*
X126521428Y-73760714D01*
X126426190Y-73713095D01*
X126378571Y-73665476D01*
X126330952Y-73570238D01*
G04 #@! TO.C,C9*
X117366666Y-92607142D02*
X117414285Y-92654761D01*
X117557142Y-92702380D01*
X117652380Y-92702380D01*
X117795238Y-92654761D01*
X117890476Y-92559523D01*
X117938095Y-92464285D01*
X117985714Y-92273809D01*
X117985714Y-92130952D01*
X117938095Y-91940476D01*
X117890476Y-91845238D01*
X117795238Y-91750000D01*
X117652380Y-91702380D01*
X117557142Y-91702380D01*
X117414285Y-91750000D01*
X117366666Y-91797619D01*
X116890476Y-92702380D02*
X116700000Y-92702380D01*
X116604761Y-92654761D01*
X116557142Y-92607142D01*
X116461904Y-92464285D01*
X116414285Y-92273809D01*
X116414285Y-91892857D01*
X116461904Y-91797619D01*
X116509523Y-91750000D01*
X116604761Y-91702380D01*
X116795238Y-91702380D01*
X116890476Y-91750000D01*
X116938095Y-91797619D01*
X116985714Y-91892857D01*
X116985714Y-92130952D01*
X116938095Y-92226190D01*
X116890476Y-92273809D01*
X116795238Y-92321428D01*
X116604761Y-92321428D01*
X116509523Y-92273809D01*
X116461904Y-92226190D01*
X116414285Y-92130952D01*
G04 #@! TO.C,C10*
X123692857Y-82257142D02*
X123740476Y-82304761D01*
X123883333Y-82352380D01*
X123978571Y-82352380D01*
X124121428Y-82304761D01*
X124216666Y-82209523D01*
X124264285Y-82114285D01*
X124311904Y-81923809D01*
X124311904Y-81780952D01*
X124264285Y-81590476D01*
X124216666Y-81495238D01*
X124121428Y-81400000D01*
X123978571Y-81352380D01*
X123883333Y-81352380D01*
X123740476Y-81400000D01*
X123692857Y-81447619D01*
X122740476Y-82352380D02*
X123311904Y-82352380D01*
X123026190Y-82352380D02*
X123026190Y-81352380D01*
X123121428Y-81495238D01*
X123216666Y-81590476D01*
X123311904Y-81638095D01*
X122121428Y-81352380D02*
X122026190Y-81352380D01*
X121930952Y-81400000D01*
X121883333Y-81447619D01*
X121835714Y-81542857D01*
X121788095Y-81733333D01*
X121788095Y-81971428D01*
X121835714Y-82161904D01*
X121883333Y-82257142D01*
X121930952Y-82304761D01*
X122026190Y-82352380D01*
X122121428Y-82352380D01*
X122216666Y-82304761D01*
X122264285Y-82257142D01*
X122311904Y-82161904D01*
X122359523Y-81971428D01*
X122359523Y-81733333D01*
X122311904Y-81542857D01*
X122264285Y-81447619D01*
X122216666Y-81400000D01*
X122121428Y-81352380D01*
G04 #@! TO.C,C12*
X118607142Y-80932142D02*
X118654761Y-80884523D01*
X118702380Y-80741666D01*
X118702380Y-80646428D01*
X118654761Y-80503571D01*
X118559523Y-80408333D01*
X118464285Y-80360714D01*
X118273809Y-80313095D01*
X118130952Y-80313095D01*
X117940476Y-80360714D01*
X117845238Y-80408333D01*
X117750000Y-80503571D01*
X117702380Y-80646428D01*
X117702380Y-80741666D01*
X117750000Y-80884523D01*
X117797619Y-80932142D01*
X118702380Y-81884523D02*
X118702380Y-81313095D01*
X118702380Y-81598809D02*
X117702380Y-81598809D01*
X117845238Y-81503571D01*
X117940476Y-81408333D01*
X117988095Y-81313095D01*
X117797619Y-82265476D02*
X117750000Y-82313095D01*
X117702380Y-82408333D01*
X117702380Y-82646428D01*
X117750000Y-82741666D01*
X117797619Y-82789285D01*
X117892857Y-82836904D01*
X117988095Y-82836904D01*
X118130952Y-82789285D01*
X118702380Y-82217857D01*
X118702380Y-82836904D01*
G04 #@! TO.C,C13*
X113507142Y-90307142D02*
X113554761Y-90259523D01*
X113602380Y-90116666D01*
X113602380Y-90021428D01*
X113554761Y-89878571D01*
X113459523Y-89783333D01*
X113364285Y-89735714D01*
X113173809Y-89688095D01*
X113030952Y-89688095D01*
X112840476Y-89735714D01*
X112745238Y-89783333D01*
X112650000Y-89878571D01*
X112602380Y-90021428D01*
X112602380Y-90116666D01*
X112650000Y-90259523D01*
X112697619Y-90307142D01*
X113602380Y-91259523D02*
X113602380Y-90688095D01*
X113602380Y-90973809D02*
X112602380Y-90973809D01*
X112745238Y-90878571D01*
X112840476Y-90783333D01*
X112888095Y-90688095D01*
X112602380Y-91592857D02*
X112602380Y-92211904D01*
X112983333Y-91878571D01*
X112983333Y-92021428D01*
X113030952Y-92116666D01*
X113078571Y-92164285D01*
X113173809Y-92211904D01*
X113411904Y-92211904D01*
X113507142Y-92164285D01*
X113554761Y-92116666D01*
X113602380Y-92021428D01*
X113602380Y-91735714D01*
X113554761Y-91640476D01*
X113507142Y-91592857D01*
G04 #@! TO.C,C7*
X97416666Y-102807142D02*
X97464285Y-102854761D01*
X97607142Y-102902380D01*
X97702380Y-102902380D01*
X97845238Y-102854761D01*
X97940476Y-102759523D01*
X97988095Y-102664285D01*
X98035714Y-102473809D01*
X98035714Y-102330952D01*
X97988095Y-102140476D01*
X97940476Y-102045238D01*
X97845238Y-101950000D01*
X97702380Y-101902380D01*
X97607142Y-101902380D01*
X97464285Y-101950000D01*
X97416666Y-101997619D01*
X97083333Y-101902380D02*
X96416666Y-101902380D01*
X96845238Y-102902380D01*
G04 #@! TO.C,C6*
X108516666Y-94207142D02*
X108564285Y-94254761D01*
X108707142Y-94302380D01*
X108802380Y-94302380D01*
X108945238Y-94254761D01*
X109040476Y-94159523D01*
X109088095Y-94064285D01*
X109135714Y-93873809D01*
X109135714Y-93730952D01*
X109088095Y-93540476D01*
X109040476Y-93445238D01*
X108945238Y-93350000D01*
X108802380Y-93302380D01*
X108707142Y-93302380D01*
X108564285Y-93350000D01*
X108516666Y-93397619D01*
X107659523Y-93302380D02*
X107850000Y-93302380D01*
X107945238Y-93350000D01*
X107992857Y-93397619D01*
X108088095Y-93540476D01*
X108135714Y-93730952D01*
X108135714Y-94111904D01*
X108088095Y-94207142D01*
X108040476Y-94254761D01*
X107945238Y-94302380D01*
X107754761Y-94302380D01*
X107659523Y-94254761D01*
X107611904Y-94207142D01*
X107564285Y-94111904D01*
X107564285Y-93873809D01*
X107611904Y-93778571D01*
X107659523Y-93730952D01*
X107754761Y-93683333D01*
X107945238Y-93683333D01*
X108040476Y-93730952D01*
X108088095Y-93778571D01*
X108135714Y-93873809D01*
G04 #@! TO.C,C2*
X106993881Y-84763638D02*
X107057929Y-84742828D01*
X107165213Y-84637160D01*
X107208451Y-84552302D01*
X107230877Y-84403397D01*
X107189257Y-84275302D01*
X107126018Y-84189636D01*
X106977921Y-84060732D01*
X106850634Y-83995876D01*
X106659300Y-83951831D01*
X106552824Y-83951023D01*
X106424729Y-83992643D01*
X106317444Y-84098311D01*
X106274207Y-84183169D01*
X106251780Y-84332074D01*
X106272590Y-84396122D01*
X106099641Y-84735553D02*
X106035594Y-84756363D01*
X105949928Y-84819602D01*
X105841835Y-85031747D01*
X105841027Y-85138223D01*
X105861837Y-85202271D01*
X105925076Y-85287937D01*
X106009934Y-85331174D01*
X106158839Y-85353601D01*
X106927409Y-85103877D01*
X106646367Y-85655453D01*
G04 #@! TO.C,C3*
X109893881Y-86163639D02*
X109957929Y-86142829D01*
X110065213Y-86037161D01*
X110108451Y-85952303D01*
X110130877Y-85803398D01*
X110089257Y-85675303D01*
X110026018Y-85589637D01*
X109877921Y-85460733D01*
X109750634Y-85395877D01*
X109559300Y-85351832D01*
X109452824Y-85351024D01*
X109324729Y-85392644D01*
X109217444Y-85498312D01*
X109174207Y-85583170D01*
X109151780Y-85732075D01*
X109172590Y-85796123D01*
X108936402Y-86049888D02*
X108655361Y-86601463D01*
X109146122Y-86477410D01*
X109081266Y-86604696D01*
X109080458Y-86711173D01*
X109101268Y-86775220D01*
X109164507Y-86860886D01*
X109376652Y-86968979D01*
X109483128Y-86969788D01*
X109547175Y-86948977D01*
X109632841Y-86885738D01*
X109762553Y-86631165D01*
X109763361Y-86524689D01*
X109742551Y-86460641D01*
G04 #@! TD*
M02*
