M48
;DRILL file {KiCad 5.0.2+dfsg1-1} date Wed 05 May 2021 10:51:09 AM CEST
;FORMAT={3:3/ absolute / metric / suppress leading zeros}
FMAT,2
METRIC,TZ
T1C0.200
T2C0.400
T3C0.762
T4C0.800
T5C1.000
T6C1.520
T7C3.250
%
G90
G05
T1
X40750Y-121800
X41600Y-129000
X42200Y-53200
X43400Y-62850
X44100Y-116300
X44100Y-120500
X44100Y-122000
X44100Y-123500
X44850Y-55500
X45250Y-62850
X47100Y-73500
X47100Y-85000
X47200Y-62850
X47800Y-92500
X47850Y-80500
X48100Y-118810
X48600Y-129000
X49100Y-118810
X49350Y-62850
X49500Y-124400
X50090Y-118810
X50350Y-61750
X51700Y-53050
X52150Y-127600
X52600Y-123500
X53600Y-123000
X54600Y-123500
X54800Y-129800
X55500Y-46900
X55600Y-123000
X56250Y-127050
X56250Y-127750
X56600Y-123500
X57050Y-94000
X57200Y-96300
X57250Y-91700
X57500Y-129800
X57600Y-123000
X58000Y-46900
X58100Y-94000
X58150Y-51700
X58200Y-91700
X58200Y-96300
X58600Y-123500
X59100Y-75000
X59100Y-94000
X59350Y-91700
X59500Y-96300
X59600Y-123000
X60075Y-78750
X60300Y-127600
X60600Y-123500
X61600Y-53050
X61600Y-87000
X61600Y-89000
X63100Y-55700
X63100Y-79000
X63150Y-61750
X63600Y-76300
X64400Y-80200
X64400Y-81400
X64400Y-82150
X64400Y-83150
X64400Y-83900
X64400Y-84650
X65150Y-85100
X65600Y-61500
X65650Y-80200
X65900Y-85100
X65900Y-121900
X66100Y-55700
X66150Y-76300
X66600Y-129000
X66650Y-80200
X66650Y-85100
X66900Y-82650
X67150Y-77100
X67350Y-89000
X67400Y-85100
X67600Y-71500
X67650Y-80200
X68150Y-85100
X68650Y-80200
X69350Y-80900
X69350Y-81900
X69350Y-82900
X69350Y-83900
X69350Y-85100
X69400Y-116200
X69600Y-120500
X69600Y-122000
X69600Y-123500
X71250Y-55550
X72000Y-77100
X72000Y-80400
X72350Y-82250
X72450Y-83300
X73600Y-118850
X73600Y-129000
X74600Y-118850
X74750Y-124450
X75357Y-78416
X75600Y-118850
X76300Y-53000
X77700Y-127600
X78100Y-87800
X78100Y-88500
X78100Y-89500
X78100Y-123500
X78500Y-87200
X78600Y-80500
X78600Y-81500
X78600Y-82500
X78600Y-89100
X79100Y-123000
X80100Y-123500
X80450Y-129700
X81100Y-58500
X81100Y-59500
X81100Y-123000
X81750Y-127050
X81750Y-127750
X82100Y-58500
X82100Y-123500
X82350Y-93000
X82350Y-94000
X83100Y-58500
X83100Y-123000
X83200Y-129700
X83850Y-95400
X83850Y-96400
X84100Y-123500
X84600Y-55500
X84600Y-56500
X84600Y-57500
X84600Y-58500
X84850Y-62800
X85100Y-123000
X85600Y-79250
X85850Y-127600
X86100Y-123500
X86600Y-79250
X86850Y-56550
X89000Y-54900
X89000Y-55900
X89000Y-56900
X89000Y-57900
X89100Y-79250
X89100Y-121000
X89100Y-122000
X89100Y-123000
X89100Y-124000
X90100Y-79250
X90100Y-94250
X90500Y-59900
X90500Y-60900
X90500Y-61900
X90500Y-62900
X90600Y-121000
X90600Y-122000
X90600Y-123000
X90600Y-124000
X92100Y-129000
X92800Y-53000
X93050Y-121800
X94200Y-63200
X94800Y-80750
X94950Y-116300
X95100Y-106500
X95100Y-120500
X95100Y-122000
X95100Y-123500
X96100Y-63100
X96650Y-103150
X97350Y-82350
X97400Y-84500
X97459Y-81650
X97500Y-102300
X97600Y-79250
X97600Y-92800
X97642Y-83852
X97650Y-82954
X97802Y-79955
X98000Y-63100
X98007Y-82079
X98050Y-84750
X98100Y-80550
X98100Y-129000
X98250Y-93050
X98250Y-93700
X98250Y-94350
X98250Y-95000
X98250Y-95650
X98302Y-82999
X99050Y-78850
X99050Y-79500
X99100Y-118850
X99300Y-73300
X99700Y-79500
X100100Y-63100
X100100Y-118850
X100300Y-124300
X100350Y-79500
X100695Y-94055
X100700Y-100700
X100700Y-83050
X100700Y-85050
X100700Y-86050
X100700Y-88050
X100700Y-90050
X100700Y-92050
X100750Y-103250
X101000Y-79500
X101100Y-118850
X101300Y-61750
X101450Y-101300
X101700Y-81050
X101700Y-83050
X101700Y-84050
X101700Y-85050
X101700Y-86050
X101700Y-87050
X101700Y-88050
X101700Y-90050
X101700Y-91050
X101700Y-92050
X101700Y-93050
X101700Y-97200
X102200Y-96650
X102550Y-75650
X102600Y-53100
X102699Y-86051
X102700Y-94050
X102700Y-83050
X102700Y-84050
X102700Y-85050
X102700Y-87050
X102700Y-88050
X102700Y-89050
X102700Y-90050
X102700Y-91050
X102700Y-92050
X102700Y-93050
X102700Y-97200
X102700Y-97950
X102900Y-76350
X102950Y-73900
X103200Y-96650
X103250Y-127600
X103600Y-123500
X103695Y-85045
X103700Y-82050
X103700Y-83050
X103700Y-84050
X103700Y-86050
X103700Y-87050
X103700Y-88050
X103700Y-89050
X103700Y-90050
X103700Y-91050
X103700Y-92050
X103700Y-93050
X103729Y-97162
X104200Y-96650
X104300Y-77300
X104350Y-79650
X104600Y-123000
X104695Y-90055
X104700Y-83050
X104700Y-84050
X104700Y-86050
X104700Y-91050
X104700Y-93050
X104700Y-94050
X104700Y-97200
X104713Y-92053
X104750Y-77850
X105199Y-96651
X105400Y-77600
X105600Y-123500
X105692Y-82050
X105692Y-83050
X105700Y-97200
X105700Y-78200
X105700Y-84050
X105700Y-85050
X105700Y-89050
X105700Y-91000
X105700Y-92050
X106000Y-46900
X106000Y-78800
X106050Y-129700
X106200Y-79550
X106600Y-123000
X106695Y-91055
X106700Y-83050
X106700Y-84050
X106700Y-85050
X106700Y-87050
X106700Y-88050
X106700Y-89050
X106700Y-92050
X106700Y-93050
X107100Y-79550
X107350Y-127050
X107350Y-127750
X107600Y-123500
X107700Y-82050
X107700Y-83050
X107700Y-84050
X107700Y-85050
X107700Y-87050
X107700Y-91050
X107700Y-92050
X107700Y-94050
X107705Y-86055
X107800Y-78850
X107800Y-79550
X108400Y-78150
X108500Y-46900
X108600Y-123000
X108695Y-90045
X108700Y-83050
X108700Y-84050
X108700Y-85050
X108700Y-91050
X108700Y-92050
X108700Y-93050
X108750Y-129700
X109000Y-79800
X109050Y-51850
X109150Y-98650
X109150Y-99300
X109200Y-100950
X109600Y-72850
X109600Y-79050
X109600Y-123500
X109700Y-82050
X109700Y-83050
X109700Y-84050
X109700Y-85050
X109700Y-86050
X109700Y-87050
X109700Y-88050
X109700Y-89050
X109700Y-91050
X109700Y-92050
X109700Y-93050
X109700Y-94050
X109850Y-101550
X109900Y-79650
X110600Y-123000
X110686Y-92954
X110700Y-83050
X110700Y-84050
X110700Y-85050
X110700Y-87050
X110700Y-88050
X110700Y-89050
X110700Y-90050
X110700Y-91050
X110700Y-92050
X110700Y-94050
X111450Y-127600
X111550Y-108300
X111600Y-123500
X111700Y-90050
X111700Y-78750
X111700Y-82050
X111700Y-84050
X111700Y-85050
X111700Y-86050
X111700Y-88050
X111700Y-91050
X111700Y-92050
X111700Y-94050
X111700Y-95050
X111700Y-89050
X111703Y-83037
X112400Y-53100
X112500Y-98299
X112600Y-78750
X112700Y-85050
X112700Y-83050
X112700Y-88050
X112700Y-89050
X112700Y-86050
X112700Y-92050
X112703Y-90036
X113050Y-100750
X113100Y-79250
X113550Y-108300
X113600Y-78750
X113650Y-55800
X113695Y-86050
X113700Y-83050
X113700Y-88050
X113700Y-90059
X113850Y-61750
X114300Y-101150
X114900Y-93250
X115050Y-83500
X115050Y-103650
X115050Y-105250
X115100Y-86550
X115150Y-85700
X115450Y-80550
X115450Y-90650
X115600Y-61500
X115650Y-102100
X116150Y-95550
X116600Y-55750
X116600Y-122000
X117100Y-86050
X117100Y-129000
X117200Y-93550
X117200Y-99500
X117500Y-92800
X117750Y-82100
X118000Y-83600
X118000Y-86950
X118150Y-89450
X118450Y-75200
X118500Y-95050
X118650Y-83600
X119050Y-82100
X119100Y-92400
X119150Y-94750
X119200Y-98600
X119300Y-83600
X119300Y-86000
X119850Y-98600
X119950Y-83600
X120050Y-93550
X120050Y-116250
X120100Y-120500
X120100Y-122000
X120100Y-123500
X120250Y-94450
X120350Y-82100
X120367Y-86050
X120500Y-98600
X120700Y-80000
X120850Y-83600
X120900Y-94450
X121100Y-108350
X121200Y-55500
X121200Y-98000
X121200Y-86950
X121500Y-83600
X121850Y-93250
X122150Y-83600
X122250Y-99700
X122350Y-127600
X122750Y-84900
X122800Y-83600
X122900Y-86950
X122900Y-96650
X123400Y-92050
X123400Y-108350
X123450Y-95050
X123550Y-86950
X123600Y-90850
X124050Y-75900
X124050Y-78550
X124100Y-118850
X124150Y-85150
X124200Y-86050
X124200Y-86950
X124400Y-90850
X124400Y-91750
X124500Y-83600
X124600Y-95400
X124700Y-102100
X125000Y-97100
X125100Y-118850
X125150Y-129800
X125500Y-124250
X125650Y-89450
X125650Y-93450
X125650Y-97099
X125700Y-82050
X125800Y-100850
X126100Y-118850
X126450Y-89450
X126450Y-93450
X126450Y-95050
X126450Y-95850
X126450Y-127050
X126450Y-127750
X126500Y-71950
X126600Y-75900
X126600Y-78550
X126750Y-82050
X127450Y-87500
X127450Y-88150
X127492Y-91298
X127500Y-92196
X127500Y-92834
X127650Y-90650
X127701Y-85100
X127800Y-86900
X128000Y-129800
X128028Y-91747
X128250Y-86050
X128300Y-96400
X128400Y-93250
X128400Y-92600
X128600Y-123500
X128650Y-53250
X128950Y-83550
X129050Y-82350
X129050Y-93250
X129300Y-89900
X129350Y-85300
X129400Y-88650
X129400Y-91416
X129400Y-92314
X129600Y-123000
X130445Y-86255
X130450Y-89450
X130450Y-105750
X130600Y-123500
X130650Y-101000
X131100Y-58500
X131100Y-59500
X131241Y-87050
X131250Y-84650
X131250Y-90250
X131250Y-93450
X131250Y-95850
X131259Y-86250
X131600Y-123000
X131850Y-71400
X132100Y-58500
X132300Y-96250
X132300Y-86650
X132300Y-94650
X132300Y-85050
X132300Y-92250
X132400Y-88350
X132600Y-123500
X132750Y-89900
X132800Y-127900
X132950Y-71400
X133100Y-58500
X133100Y-84800
X133350Y-91000
X133450Y-86500
X133550Y-89000
X133600Y-123000
X134250Y-73400
X134325Y-97300
X134350Y-92450
X134350Y-93250
X134350Y-94050
X134350Y-94850
X134500Y-83100
X134500Y-83900
X134500Y-84700
X134600Y-123500
X135100Y-55500
X135100Y-56500
X135100Y-57500
X135100Y-58500
X135250Y-63150
X135600Y-123000
X136250Y-81550
X136350Y-91350
X136400Y-86000
X136600Y-123500
X137600Y-129000
X138550Y-57150
T2
X106310Y-56776
X106310Y-59276
X108810Y-56776
X108810Y-59276
X55510Y-56776
X55510Y-59276
X58010Y-56776
X58010Y-59276
T3
X59560Y-101750
X62100Y-101750
X67180Y-101750
X69720Y-101750
X72260Y-101750
X44340Y-75025
X44340Y-77565
X44340Y-85735
X44340Y-88275
X54750Y-77205
X54750Y-79745
X54750Y-82285
X54750Y-84825
X54750Y-87365
X57290Y-75935
X57290Y-78475
X57290Y-81015
X57290Y-83555
X57290Y-86095
T4
X117440Y-66916
X117440Y-69456
X119980Y-66916
X119980Y-69456
X122520Y-66916
X122520Y-69456
X125060Y-66916
X125060Y-69456
X127600Y-66916
X127600Y-69456
X130140Y-66916
X130140Y-69456
X132680Y-66916
X132680Y-69456
X135220Y-66916
X135220Y-69456
X137760Y-66916
X137760Y-69456
X66880Y-110350
X66880Y-112890
X69420Y-110350
X69420Y-112890
X71960Y-110350
X71960Y-112890
X74500Y-110350
X74500Y-112890
X77040Y-110350
X77040Y-112890
X79580Y-110350
X79580Y-112890
X82120Y-110350
X82120Y-112890
X84660Y-110350
X84660Y-112890
X87200Y-110350
X87200Y-112890
X117690Y-76850
X120230Y-76850
X122770Y-76850
X125310Y-76850
X127850Y-76850
X130390Y-76850
X132930Y-76850
X41480Y-66916
X41480Y-69456
X44020Y-66916
X44020Y-69456
X46560Y-66916
X46560Y-69456
X49100Y-66916
X49100Y-69456
X51640Y-66916
X51640Y-69456
X54180Y-66916
X54180Y-69456
X56720Y-66916
X56720Y-69456
X59260Y-66916
X59260Y-69456
X61800Y-66916
X61800Y-69456
X117680Y-110350
X117680Y-112890
X120220Y-110350
X120220Y-112890
X122760Y-110350
X122760Y-112890
X125300Y-110350
X125300Y-112890
X127840Y-110350
X127840Y-112890
X130380Y-110350
X130380Y-112890
X132920Y-110350
X132920Y-112890
X135460Y-110350
X135460Y-112890
X138000Y-110350
X138000Y-112890
X66880Y-66916
X66880Y-69456
X69420Y-66916
X69420Y-69456
X71960Y-66916
X71960Y-69456
X74500Y-66916
X74500Y-69456
X77040Y-66916
X77040Y-69456
X79580Y-66916
X79580Y-69456
X82120Y-66916
X82120Y-69456
X84660Y-66916
X84660Y-69456
X87200Y-66916
X87200Y-69456
X92280Y-66916
X92280Y-69456
X94820Y-66916
X94820Y-69456
X97360Y-66916
X97360Y-69456
X99900Y-66916
X99900Y-69456
X102440Y-66916
X102440Y-69456
X104980Y-66916
X104980Y-69456
X107520Y-66916
X107520Y-69456
X110060Y-66916
X110060Y-69456
X112600Y-66916
X112600Y-69456
X92280Y-110350
X92280Y-112890
X94820Y-110350
X94820Y-112890
X97360Y-110350
X97360Y-112890
X99900Y-110350
X99900Y-112890
X102440Y-110350
X102440Y-112890
X104980Y-110350
X104980Y-112890
X107520Y-110350
X107520Y-112890
X110060Y-110350
X110060Y-112890
X112600Y-110350
X112600Y-112890
X41480Y-110350
X41480Y-112890
X44020Y-110350
X44020Y-112890
X46560Y-110350
X46560Y-112890
X49100Y-110350
X49100Y-112890
X51640Y-110350
X51640Y-112890
X54180Y-110350
X54180Y-112890
X56720Y-110350
X56720Y-112890
X59260Y-110350
X59260Y-112890
X61800Y-110350
X61800Y-112890
T5
X75000Y-47400
X77540Y-47400
X80080Y-47400
X82620Y-47400
X85160Y-47400
X87700Y-47400
X90240Y-47400
X92780Y-47400
X95320Y-47400
X76900Y-134000
X79440Y-134000
X81980Y-134000
X84520Y-134000
X87060Y-134000
X89600Y-134000
X92140Y-134000
X94680Y-134000
X97220Y-134000
X99760Y-134000
X102300Y-134000
T6
X45350Y-96920
X45350Y-102000
T7
X48400Y-75935
X48400Y-87365
T5
X51125Y-73905G85X51775Y-73905
G05
X51125Y-89395G85X51775Y-89395
G05
T0
M30
