G04 #@! TF.GenerationSoftware,KiCad,Pcbnew,5.0.2+dfsg1-1*
G04 #@! TF.CreationDate,2021-05-05T10:51:01+02:00*
G04 #@! TF.ProjectId,fpga_adda,66706761-5f61-4646-9461-2e6b69636164,rev?*
G04 #@! TF.SameCoordinates,Original*
G04 #@! TF.FileFunction,Legend,Top*
G04 #@! TF.FilePolarity,Positive*
%FSLAX46Y46*%
G04 Gerber Fmt 4.6, Leading zero omitted, Abs format (unit mm)*
G04 Created by KiCad (PCBNEW 5.0.2+dfsg1-1) date Wed 05 May 2021 10:51:01 AM CEST*
%MOMM*%
%LPD*%
G01*
G04 APERTURE LIST*
%ADD10C,0.120000*%
%ADD11C,0.150000*%
G04 APERTURE END LIST*
D10*
G04 #@! TO.C,C98*
X70810000Y-93261252D02*
X70810000Y-92738748D01*
X69390000Y-93261252D02*
X69390000Y-92738748D01*
G04 #@! TO.C,C99*
X81460000Y-96163748D02*
X81460000Y-96686252D01*
X80040000Y-96163748D02*
X80040000Y-96686252D01*
G04 #@! TO.C,J4*
X47890000Y-94380000D02*
X47890000Y-104540000D01*
X49160000Y-94380000D02*
X41540000Y-94380000D01*
X41540000Y-94380000D02*
X41540000Y-104540000D01*
X41540000Y-104540000D02*
X49160000Y-104540000D01*
X49160000Y-104540000D02*
X49160000Y-94380000D01*
G04 #@! TO.C,J2*
X96650000Y-48730000D02*
X96650000Y-46070000D01*
X76270000Y-48730000D02*
X96650000Y-48730000D01*
X76270000Y-46070000D02*
X96650000Y-46070000D01*
X76270000Y-48730000D02*
X76270000Y-46070000D01*
X75000000Y-48730000D02*
X73670000Y-48730000D01*
X73670000Y-48730000D02*
X73670000Y-47400000D01*
G04 #@! TO.C,J3*
X75570000Y-132670000D02*
X75570000Y-135330000D01*
X101030000Y-132670000D02*
X75570000Y-132670000D01*
X101030000Y-135330000D02*
X75570000Y-135330000D01*
X101030000Y-132670000D02*
X101030000Y-135330000D01*
X102300000Y-132670000D02*
X103630000Y-132670000D01*
X103630000Y-132670000D02*
X103630000Y-134000000D01*
G04 #@! TO.C,C84*
X105110000Y-128886252D02*
X105110000Y-128363748D01*
X103690000Y-128886252D02*
X103690000Y-128363748D01*
G04 #@! TO.C,C85*
X120490000Y-128886252D02*
X120490000Y-128363748D01*
X121910000Y-128886252D02*
X121910000Y-128363748D01*
G04 #@! TO.C,C88*
X78140000Y-128886252D02*
X78140000Y-128363748D01*
X79560000Y-128886252D02*
X79560000Y-128363748D01*
G04 #@! TO.C,C89*
X51710000Y-128886252D02*
X51710000Y-128363748D01*
X50290000Y-128886252D02*
X50290000Y-128363748D01*
G04 #@! TO.C,U32*
X82300000Y-131310000D02*
X85250000Y-131310000D01*
X84100000Y-128090000D02*
X82300000Y-128090000D01*
G04 #@! TO.C,U31*
X128850000Y-128190000D02*
X127050000Y-128190000D01*
X127050000Y-131410000D02*
X130000000Y-131410000D01*
G04 #@! TO.C,U33*
X56600000Y-131410000D02*
X59550000Y-131410000D01*
X58400000Y-128190000D02*
X56600000Y-128190000D01*
G04 #@! TO.C,U30*
X109650000Y-128090000D02*
X107850000Y-128090000D01*
X107850000Y-131310000D02*
X110800000Y-131310000D01*
G04 #@! TO.C,R78*
X113310000Y-128886252D02*
X113310000Y-128363748D01*
X111890000Y-128886252D02*
X111890000Y-128363748D01*
G04 #@! TO.C,R80*
X101390000Y-128886252D02*
X101390000Y-128363748D01*
X102810000Y-128886252D02*
X102810000Y-128363748D01*
G04 #@! TO.C,R81*
X124210000Y-128886252D02*
X124210000Y-128363748D01*
X122790000Y-128886252D02*
X122790000Y-128363748D01*
G04 #@! TO.C,R90*
X86290000Y-128886252D02*
X86290000Y-128363748D01*
X87710000Y-128886252D02*
X87710000Y-128363748D01*
G04 #@! TO.C,R91*
X62160000Y-128886252D02*
X62160000Y-128363748D01*
X60740000Y-128886252D02*
X60740000Y-128363748D01*
G04 #@! TO.C,R92*
X75840000Y-128886252D02*
X75840000Y-128363748D01*
X77260000Y-128886252D02*
X77260000Y-128363748D01*
G04 #@! TO.C,R93*
X54010000Y-128886252D02*
X54010000Y-128363748D01*
X52590000Y-128886252D02*
X52590000Y-128363748D01*
G04 #@! TO.C,R79*
X135211252Y-129060000D02*
X134688748Y-129060000D01*
X135211252Y-127640000D02*
X134688748Y-127640000D01*
D11*
G04 #@! TO.C,U29*
X104500000Y-44050000D02*
X102750000Y-44050000D01*
X104500000Y-49805000D02*
X110000000Y-49805000D01*
X104500000Y-43395000D02*
X110000000Y-43395000D01*
X104500000Y-49805000D02*
X104500000Y-49055000D01*
X110000000Y-49805000D02*
X110000000Y-49055000D01*
X110000000Y-43395000D02*
X110000000Y-44145000D01*
X104500000Y-43395000D02*
X104500000Y-44050000D01*
G04 #@! TO.C,U28*
X54050000Y-43245000D02*
X54050000Y-43900000D01*
X59550000Y-43245000D02*
X59550000Y-43995000D01*
X59550000Y-49655000D02*
X59550000Y-48905000D01*
X54050000Y-49655000D02*
X54050000Y-48905000D01*
X54050000Y-43245000D02*
X59550000Y-43245000D01*
X54050000Y-49655000D02*
X59550000Y-49655000D01*
X54050000Y-43900000D02*
X52300000Y-43900000D01*
D10*
G04 #@! TO.C,R68*
X91263748Y-51110000D02*
X91786252Y-51110000D01*
X91263748Y-49690000D02*
X91786252Y-49690000D01*
G04 #@! TO.C,R69*
X99840000Y-49461252D02*
X99840000Y-48938748D01*
X101260000Y-49461252D02*
X101260000Y-48938748D01*
G04 #@! TO.C,R66*
X105611252Y-49540000D02*
X105088748Y-49540000D01*
X105611252Y-50960000D02*
X105088748Y-50960000D01*
G04 #@! TO.C,R65*
X108938748Y-49540000D02*
X109461252Y-49540000D01*
X108938748Y-50960000D02*
X109461252Y-50960000D01*
G04 #@! TO.C,R64*
X114710000Y-43911252D02*
X114710000Y-43388748D01*
X113290000Y-43911252D02*
X113290000Y-43388748D01*
G04 #@! TO.C,R63*
X113290000Y-49511252D02*
X113290000Y-48988748D01*
X114710000Y-49511252D02*
X114710000Y-48988748D01*
G04 #@! TO.C,R62*
X51110000Y-49486252D02*
X51110000Y-48963748D01*
X49690000Y-49486252D02*
X49690000Y-48963748D01*
G04 #@! TO.C,R61*
X83738748Y-49690000D02*
X84261252Y-49690000D01*
X83738748Y-51110000D02*
X84261252Y-51110000D01*
G04 #@! TO.C,R60*
X51110000Y-43761252D02*
X51110000Y-43238748D01*
X49690000Y-43761252D02*
X49690000Y-43238748D01*
G04 #@! TO.C,R59*
X55011252Y-50960000D02*
X54488748Y-50960000D01*
X55011252Y-49540000D02*
X54488748Y-49540000D01*
G04 #@! TO.C,R58*
X58288748Y-50960000D02*
X58811252Y-50960000D01*
X58288748Y-49540000D02*
X58811252Y-49540000D01*
G04 #@! TO.C,R57*
X63738748Y-44190000D02*
X64261252Y-44190000D01*
X63738748Y-45610000D02*
X64261252Y-45610000D01*
G04 #@! TO.C,R56*
X63760000Y-49486252D02*
X63760000Y-48963748D01*
X62340000Y-49486252D02*
X62340000Y-48963748D01*
G04 #@! TO.C,R67*
X99861252Y-45410000D02*
X99338748Y-45410000D01*
X99861252Y-43990000D02*
X99338748Y-43990000D01*
G04 #@! TO.C,C76*
X65388748Y-53210000D02*
X65911252Y-53210000D01*
X65388748Y-51790000D02*
X65911252Y-51790000D01*
G04 #@! TO.C,C77*
X116411252Y-53160000D02*
X115888748Y-53160000D01*
X116411252Y-51740000D02*
X115888748Y-51740000D01*
G04 #@! TO.C,U26*
X77360000Y-95100000D02*
X77360000Y-96300000D01*
X73360000Y-95100000D02*
X77360000Y-95100000D01*
X77360000Y-99900000D02*
X74660000Y-99900000D01*
X77360000Y-98700000D02*
X77360000Y-99900000D01*
G04 #@! TO.C,U27*
X66703500Y-96300000D02*
X66703500Y-95100000D01*
X66703500Y-95100000D02*
X69403500Y-95100000D01*
X70703500Y-99900000D02*
X66703500Y-99900000D01*
X66703500Y-99900000D02*
X66703500Y-98700000D01*
D11*
G04 #@! TO.C,U25*
X57020000Y-100480000D02*
X57020000Y-108100000D01*
X57020000Y-108100000D02*
X77340000Y-108100000D01*
X77340000Y-108100000D02*
X77340000Y-100480000D01*
X77340000Y-100480000D02*
X57020000Y-100480000D01*
D10*
G04 #@! TO.C,C71*
X136088748Y-86290000D02*
X136611252Y-86290000D01*
X136088748Y-87710000D02*
X136611252Y-87710000D01*
D11*
G04 #@! TO.C,Y1*
X62100000Y-76500000D02*
X62100000Y-71600000D01*
X75100000Y-76500000D02*
X62100000Y-76500000D01*
X75100000Y-71550000D02*
X75100000Y-76500000D01*
X62100000Y-71550000D02*
X75100000Y-71550000D01*
D10*
G04 #@! TO.C,C62*
X82310000Y-82436252D02*
X82310000Y-81913748D01*
X80890000Y-82436252D02*
X80890000Y-81913748D01*
G04 #@! TO.C,U23*
X62200000Y-97410000D02*
X56190000Y-97410000D01*
X59950000Y-90590000D02*
X56190000Y-90590000D01*
X56190000Y-97410000D02*
X56190000Y-96150000D01*
X56190000Y-90590000D02*
X56190000Y-91850000D01*
D11*
G04 #@! TO.C,U24*
X59200000Y-72950000D02*
X59200000Y-90350000D01*
X37610000Y-72950000D02*
X59200000Y-72950000D01*
X37610000Y-90350000D02*
X59200000Y-90350000D01*
X37610000Y-72950000D02*
X37610000Y-90350000D01*
D10*
G04 #@! TO.C,C58*
X89810000Y-104236252D02*
X89810000Y-103713748D01*
X88390000Y-104236252D02*
X88390000Y-103713748D01*
G04 #@! TO.C,U22*
X93050000Y-86610000D02*
X87040000Y-86610000D01*
X90800000Y-79790000D02*
X87040000Y-79790000D01*
X87040000Y-86610000D02*
X87040000Y-85350000D01*
X87040000Y-79790000D02*
X87040000Y-81050000D01*
G04 #@! TO.C,U21*
X90550000Y-78310000D02*
X84540000Y-78310000D01*
X88300000Y-71490000D02*
X84540000Y-71490000D01*
X84540000Y-78310000D02*
X84540000Y-77050000D01*
X84540000Y-71490000D02*
X84540000Y-72750000D01*
G04 #@! TO.C,U17*
X123510000Y-117900000D02*
X123510000Y-123910000D01*
X116690000Y-120150000D02*
X116690000Y-123910000D01*
X123510000Y-123910000D02*
X122250000Y-123910000D01*
X116690000Y-123910000D02*
X117950000Y-123910000D01*
G04 #@! TO.C,U18*
X98510000Y-117900000D02*
X98510000Y-123910000D01*
X91690000Y-120150000D02*
X91690000Y-123910000D01*
X98510000Y-123910000D02*
X97250000Y-123910000D01*
X91690000Y-123910000D02*
X92950000Y-123910000D01*
G04 #@! TO.C,U19*
X47510000Y-117859880D02*
X47510000Y-123869880D01*
X40690000Y-120109880D02*
X40690000Y-123869880D01*
X47510000Y-123869880D02*
X46250000Y-123869880D01*
X40690000Y-123869880D02*
X41950000Y-123869880D01*
G04 #@! TO.C,U20*
X73010000Y-117900000D02*
X73010000Y-123910000D01*
X66190000Y-120150000D02*
X66190000Y-123910000D01*
X73010000Y-123910000D02*
X71750000Y-123910000D01*
X66190000Y-123910000D02*
X67450000Y-123910000D01*
G04 #@! TO.C,U16*
X131690000Y-61100000D02*
X131690000Y-55090000D01*
X138510000Y-58850000D02*
X138510000Y-55090000D01*
X131690000Y-55090000D02*
X132950000Y-55090000D01*
X138510000Y-55090000D02*
X137250000Y-55090000D01*
G04 #@! TO.C,U15*
X81190000Y-61100000D02*
X81190000Y-55090000D01*
X88010000Y-58850000D02*
X88010000Y-55090000D01*
X81190000Y-55090000D02*
X82450000Y-55090000D01*
X88010000Y-55090000D02*
X86750000Y-55090000D01*
G04 #@! TO.C,U12*
X91400000Y-101590000D02*
X97410000Y-101590000D01*
X93650000Y-108410000D02*
X97410000Y-108410000D01*
X97410000Y-101590000D02*
X97410000Y-102850000D01*
X97410000Y-108410000D02*
X97410000Y-107150000D01*
G04 #@! TO.C,U7*
X93600000Y-72690000D02*
X99610000Y-72690000D01*
X95850000Y-79510000D02*
X99610000Y-79510000D01*
X99610000Y-72690000D02*
X99610000Y-73950000D01*
X99610000Y-79510000D02*
X99610000Y-78250000D01*
G04 #@! TO.C,U13*
X78350000Y-101590000D02*
X84360000Y-101590000D01*
X80600000Y-108410000D02*
X84360000Y-108410000D01*
X84360000Y-101590000D02*
X84360000Y-102850000D01*
X84360000Y-108410000D02*
X84360000Y-107150000D01*
G04 #@! TO.C,U8*
X101650000Y-101590000D02*
X107660000Y-101590000D01*
X103900000Y-108410000D02*
X107660000Y-108410000D01*
X107660000Y-101590000D02*
X107660000Y-102850000D01*
X107660000Y-108410000D02*
X107660000Y-107150000D01*
D11*
G04 #@! TO.C,U9*
X114700000Y-96050000D02*
X114700000Y-95050000D01*
X113700000Y-96050000D02*
X114700000Y-96050000D01*
X98700000Y-96050000D02*
X99700000Y-96050000D01*
X98700000Y-95050000D02*
X98700000Y-96050000D01*
X114700000Y-80050000D02*
X114700000Y-81050000D01*
X113700000Y-80050000D02*
X114700000Y-80050000D01*
X98700000Y-80050000D02*
X99700000Y-80050000D01*
X98700000Y-81050000D02*
X98700000Y-80050000D01*
G04 #@! TO.C,U10*
X132450000Y-96750000D02*
X131950000Y-97250000D01*
X132450000Y-97250000D02*
X132450000Y-96250000D01*
X131450000Y-97250000D02*
X132450000Y-97250000D01*
X124450000Y-97250000D02*
X125450000Y-97250000D01*
X124450000Y-96250000D02*
X124450000Y-97250000D01*
X124450000Y-83250000D02*
X124450000Y-84250000D01*
X125450000Y-83250000D02*
X124450000Y-83250000D01*
X132450000Y-83250000D02*
X131450000Y-83250000D01*
X132450000Y-84250000D02*
X132450000Y-83250000D01*
D10*
G04 #@! TO.C,R37*
X98363748Y-100010000D02*
X98886252Y-100010000D01*
X98363748Y-98590000D02*
X98886252Y-98590000D01*
G04 #@! TO.C,R35*
X98363748Y-98060000D02*
X98886252Y-98060000D01*
X98363748Y-96640000D02*
X98886252Y-96640000D01*
G04 #@! TO.C,R36*
X104236252Y-71690000D02*
X103713748Y-71690000D01*
X104236252Y-73110000D02*
X103713748Y-73110000D01*
G04 #@! TO.C,C16*
X136511252Y-95690000D02*
X135988748Y-95690000D01*
X136511252Y-97110000D02*
X135988748Y-97110000D01*
G04 #@! TO.C,C19*
X136511252Y-80840000D02*
X135988748Y-80840000D01*
X136511252Y-82260000D02*
X135988748Y-82260000D01*
G04 #@! TO.C,C20*
X136511252Y-97590000D02*
X135988748Y-97590000D01*
X136511252Y-99010000D02*
X135988748Y-99010000D01*
G04 #@! TO.C,RN2*
X136800000Y-82580000D02*
X136000000Y-82580000D01*
X136800000Y-86020000D02*
X136000000Y-86020000D01*
G04 #@! TO.C,RN1*
X136800000Y-91930000D02*
X136000000Y-91930000D01*
X136800000Y-95370000D02*
X136000000Y-95370000D01*
G04 #@! TO.C,R20*
X122661252Y-71240000D02*
X122138748Y-71240000D01*
X122661252Y-72660000D02*
X122138748Y-72660000D01*
G04 #@! TO.C,C14*
X136088748Y-91710000D02*
X136611252Y-91710000D01*
X136088748Y-90290000D02*
X136611252Y-90290000D01*
G04 #@! TO.C,C15*
X118711252Y-73290000D02*
X118188748Y-73290000D01*
X118711252Y-74710000D02*
X118188748Y-74710000D01*
G04 #@! TO.C,C17*
X122661252Y-73290000D02*
X122138748Y-73290000D01*
X122661252Y-74710000D02*
X122138748Y-74710000D01*
G04 #@! TO.C,R12*
X121340000Y-88938748D02*
X121340000Y-89461252D01*
X122760000Y-88938748D02*
X122760000Y-89461252D01*
G04 #@! TO.C,R13*
X136088748Y-89710000D02*
X136611252Y-89710000D01*
X136088748Y-88290000D02*
X136611252Y-88290000D01*
G04 #@! TO.C,R19*
X118711252Y-71240000D02*
X118188748Y-71240000D01*
X118711252Y-72660000D02*
X118188748Y-72660000D01*
G04 #@! TO.C,R18*
X131060000Y-80261252D02*
X131060000Y-79738748D01*
X129640000Y-80261252D02*
X129640000Y-79738748D01*
G04 #@! TO.C,D1*
X110690000Y-104260000D02*
X113550000Y-104260000D01*
X110690000Y-102340000D02*
X110690000Y-104260000D01*
X113550000Y-102340000D02*
X110690000Y-102340000D01*
G04 #@! TO.C,R11*
X112260000Y-106461252D02*
X112260000Y-105938748D01*
X110840000Y-106461252D02*
X110840000Y-105938748D01*
G04 #@! TO.C,R10*
X114260000Y-106461252D02*
X114260000Y-105938748D01*
X112840000Y-106461252D02*
X112840000Y-105938748D01*
G04 #@! TO.C,C1*
X122411252Y-106390000D02*
X121888748Y-106390000D01*
X122411252Y-107810000D02*
X121888748Y-107810000D01*
G04 #@! TO.C,R5*
X126811252Y-106340000D02*
X126288748Y-106340000D01*
X126811252Y-107760000D02*
X126288748Y-107760000D01*
G04 #@! TO.C,R7*
X135186252Y-101840000D02*
X134663748Y-101840000D01*
X135186252Y-103260000D02*
X134663748Y-103260000D01*
G04 #@! TO.C,R9*
X117288748Y-103810000D02*
X117811252Y-103810000D01*
X117288748Y-102390000D02*
X117811252Y-102390000D01*
G04 #@! TO.C,R8*
X117288748Y-107810000D02*
X117811252Y-107810000D01*
X117288748Y-106390000D02*
X117811252Y-106390000D01*
G04 #@! TO.C,R6*
X133161252Y-104140000D02*
X132638748Y-104140000D01*
X133161252Y-105560000D02*
X132638748Y-105560000D01*
G04 #@! TO.C,R4*
X117288748Y-105810000D02*
X117811252Y-105810000D01*
X117288748Y-104390000D02*
X117811252Y-104390000D01*
G04 #@! TO.C,R3*
X117811252Y-100390000D02*
X117288748Y-100390000D01*
X117811252Y-101810000D02*
X117288748Y-101810000D01*
G04 #@! TO.C,R2*
X131136252Y-106340000D02*
X130613748Y-106340000D01*
X131136252Y-107760000D02*
X130613748Y-107760000D01*
G04 #@! TO.C,R1*
X135186252Y-106290000D02*
X134663748Y-106290000D01*
X135186252Y-107710000D02*
X134663748Y-107710000D01*
D11*
G04 #@! TO.C,U11*
X122150000Y-99900000D02*
X123150000Y-99900000D01*
X122150000Y-105900000D02*
X122150000Y-99900000D01*
X128150000Y-105900000D02*
X122150000Y-105900000D01*
X128150000Y-99900000D02*
X128150000Y-105900000D01*
X123150000Y-99900000D02*
X128150000Y-99900000D01*
X122150000Y-100900000D02*
X123150000Y-99900000D01*
G04 #@! TO.C,U4*
X86850000Y-119125000D02*
X86850000Y-117525000D01*
X76775000Y-119125000D02*
X76775000Y-124875000D01*
X87425000Y-119125000D02*
X87425000Y-124875000D01*
X76775000Y-119125000D02*
X77425000Y-119125000D01*
X76775000Y-124875000D02*
X77425000Y-124875000D01*
X87425000Y-124875000D02*
X86775000Y-124875000D01*
X87425000Y-119125000D02*
X86850000Y-119125000D01*
G04 #@! TO.C,U3*
X61350000Y-119125000D02*
X61350000Y-117525000D01*
X51275000Y-119125000D02*
X51275000Y-124875000D01*
X61925000Y-119125000D02*
X61925000Y-124875000D01*
X51275000Y-119125000D02*
X51925000Y-119125000D01*
X51275000Y-124875000D02*
X51925000Y-124875000D01*
X61925000Y-124875000D02*
X61275000Y-124875000D01*
X61925000Y-119125000D02*
X61350000Y-119125000D01*
G04 #@! TO.C,U2*
X112425000Y-119125000D02*
X112425000Y-117525000D01*
X102350000Y-119125000D02*
X102350000Y-124875000D01*
X113000000Y-119125000D02*
X113000000Y-124875000D01*
X102350000Y-119125000D02*
X103000000Y-119125000D01*
X102350000Y-124875000D02*
X103000000Y-124875000D01*
X113000000Y-124875000D02*
X112350000Y-124875000D01*
X113000000Y-119125000D02*
X112425000Y-119125000D01*
G04 #@! TO.C,U1*
X137350000Y-119125000D02*
X137350000Y-117525000D01*
X127275000Y-119125000D02*
X127275000Y-124875000D01*
X137925000Y-119125000D02*
X137925000Y-124875000D01*
X127275000Y-119125000D02*
X127925000Y-119125000D01*
X127275000Y-124875000D02*
X127925000Y-124875000D01*
X137925000Y-124875000D02*
X137275000Y-124875000D01*
X137925000Y-119125000D02*
X137350000Y-119125000D01*
D10*
G04 #@! TO.C,X1*
X89300000Y-92930000D02*
X89300000Y-93170000D01*
X89300000Y-93170000D02*
X90900000Y-93170000D01*
X90900000Y-100570000D02*
X89300000Y-100570000D01*
X92840000Y-95430000D02*
X92840000Y-98310000D01*
X87360000Y-98310000D02*
X87360000Y-95430000D01*
X87360000Y-95430000D02*
X85900000Y-95430000D01*
G04 #@! TO.C,C98*
D11*
X68807142Y-93642857D02*
X68854761Y-93690476D01*
X68902380Y-93833333D01*
X68902380Y-93928571D01*
X68854761Y-94071428D01*
X68759523Y-94166666D01*
X68664285Y-94214285D01*
X68473809Y-94261904D01*
X68330952Y-94261904D01*
X68140476Y-94214285D01*
X68045238Y-94166666D01*
X67950000Y-94071428D01*
X67902380Y-93928571D01*
X67902380Y-93833333D01*
X67950000Y-93690476D01*
X67997619Y-93642857D01*
X68902380Y-93166666D02*
X68902380Y-92976190D01*
X68854761Y-92880952D01*
X68807142Y-92833333D01*
X68664285Y-92738095D01*
X68473809Y-92690476D01*
X68092857Y-92690476D01*
X67997619Y-92738095D01*
X67950000Y-92785714D01*
X67902380Y-92880952D01*
X67902380Y-93071428D01*
X67950000Y-93166666D01*
X67997619Y-93214285D01*
X68092857Y-93261904D01*
X68330952Y-93261904D01*
X68426190Y-93214285D01*
X68473809Y-93166666D01*
X68521428Y-93071428D01*
X68521428Y-92880952D01*
X68473809Y-92785714D01*
X68426190Y-92738095D01*
X68330952Y-92690476D01*
X68330952Y-92119047D02*
X68283333Y-92214285D01*
X68235714Y-92261904D01*
X68140476Y-92309523D01*
X68092857Y-92309523D01*
X67997619Y-92261904D01*
X67950000Y-92214285D01*
X67902380Y-92119047D01*
X67902380Y-91928571D01*
X67950000Y-91833333D01*
X67997619Y-91785714D01*
X68092857Y-91738095D01*
X68140476Y-91738095D01*
X68235714Y-91785714D01*
X68283333Y-91833333D01*
X68330952Y-91928571D01*
X68330952Y-92119047D01*
X68378571Y-92214285D01*
X68426190Y-92261904D01*
X68521428Y-92309523D01*
X68711904Y-92309523D01*
X68807142Y-92261904D01*
X68854761Y-92214285D01*
X68902380Y-92119047D01*
X68902380Y-91928571D01*
X68854761Y-91833333D01*
X68807142Y-91785714D01*
X68711904Y-91738095D01*
X68521428Y-91738095D01*
X68426190Y-91785714D01*
X68378571Y-91833333D01*
X68330952Y-91928571D01*
G04 #@! TO.C,C99*
X82757142Y-97067857D02*
X82804761Y-97115476D01*
X82852380Y-97258333D01*
X82852380Y-97353571D01*
X82804761Y-97496428D01*
X82709523Y-97591666D01*
X82614285Y-97639285D01*
X82423809Y-97686904D01*
X82280952Y-97686904D01*
X82090476Y-97639285D01*
X81995238Y-97591666D01*
X81900000Y-97496428D01*
X81852380Y-97353571D01*
X81852380Y-97258333D01*
X81900000Y-97115476D01*
X81947619Y-97067857D01*
X82852380Y-96591666D02*
X82852380Y-96401190D01*
X82804761Y-96305952D01*
X82757142Y-96258333D01*
X82614285Y-96163095D01*
X82423809Y-96115476D01*
X82042857Y-96115476D01*
X81947619Y-96163095D01*
X81900000Y-96210714D01*
X81852380Y-96305952D01*
X81852380Y-96496428D01*
X81900000Y-96591666D01*
X81947619Y-96639285D01*
X82042857Y-96686904D01*
X82280952Y-96686904D01*
X82376190Y-96639285D01*
X82423809Y-96591666D01*
X82471428Y-96496428D01*
X82471428Y-96305952D01*
X82423809Y-96210714D01*
X82376190Y-96163095D01*
X82280952Y-96115476D01*
X82852380Y-95639285D02*
X82852380Y-95448809D01*
X82804761Y-95353571D01*
X82757142Y-95305952D01*
X82614285Y-95210714D01*
X82423809Y-95163095D01*
X82042857Y-95163095D01*
X81947619Y-95210714D01*
X81900000Y-95258333D01*
X81852380Y-95353571D01*
X81852380Y-95544047D01*
X81900000Y-95639285D01*
X81947619Y-95686904D01*
X82042857Y-95734523D01*
X82280952Y-95734523D01*
X82376190Y-95686904D01*
X82423809Y-95639285D01*
X82471428Y-95544047D01*
X82471428Y-95353571D01*
X82423809Y-95258333D01*
X82376190Y-95210714D01*
X82280952Y-95163095D01*
G04 #@! TO.C,J4*
X39722380Y-99793333D02*
X40436666Y-99793333D01*
X40579523Y-99840952D01*
X40674761Y-99936190D01*
X40722380Y-100079047D01*
X40722380Y-100174285D01*
X40055714Y-98888571D02*
X40722380Y-98888571D01*
X39674761Y-99126666D02*
X40389047Y-99364761D01*
X40389047Y-98745714D01*
G04 #@! TO.C,J2*
X84716666Y-43902380D02*
X84716666Y-44616666D01*
X84669047Y-44759523D01*
X84573809Y-44854761D01*
X84430952Y-44902380D01*
X84335714Y-44902380D01*
X85145238Y-43997619D02*
X85192857Y-43950000D01*
X85288095Y-43902380D01*
X85526190Y-43902380D01*
X85621428Y-43950000D01*
X85669047Y-43997619D01*
X85716666Y-44092857D01*
X85716666Y-44188095D01*
X85669047Y-44330952D01*
X85097619Y-44902380D01*
X85716666Y-44902380D01*
G04 #@! TO.C,J3*
X88766666Y-136602380D02*
X88766666Y-137316666D01*
X88719047Y-137459523D01*
X88623809Y-137554761D01*
X88480952Y-137602380D01*
X88385714Y-137602380D01*
X89147619Y-136602380D02*
X89766666Y-136602380D01*
X89433333Y-136983333D01*
X89576190Y-136983333D01*
X89671428Y-137030952D01*
X89719047Y-137078571D01*
X89766666Y-137173809D01*
X89766666Y-137411904D01*
X89719047Y-137507142D01*
X89671428Y-137554761D01*
X89576190Y-137602380D01*
X89290476Y-137602380D01*
X89195238Y-137554761D01*
X89147619Y-137507142D01*
G04 #@! TO.C,C84*
X103507142Y-131557142D02*
X103459523Y-131604761D01*
X103316666Y-131652380D01*
X103221428Y-131652380D01*
X103078571Y-131604761D01*
X102983333Y-131509523D01*
X102935714Y-131414285D01*
X102888095Y-131223809D01*
X102888095Y-131080952D01*
X102935714Y-130890476D01*
X102983333Y-130795238D01*
X103078571Y-130700000D01*
X103221428Y-130652380D01*
X103316666Y-130652380D01*
X103459523Y-130700000D01*
X103507142Y-130747619D01*
X104078571Y-131080952D02*
X103983333Y-131033333D01*
X103935714Y-130985714D01*
X103888095Y-130890476D01*
X103888095Y-130842857D01*
X103935714Y-130747619D01*
X103983333Y-130700000D01*
X104078571Y-130652380D01*
X104269047Y-130652380D01*
X104364285Y-130700000D01*
X104411904Y-130747619D01*
X104459523Y-130842857D01*
X104459523Y-130890476D01*
X104411904Y-130985714D01*
X104364285Y-131033333D01*
X104269047Y-131080952D01*
X104078571Y-131080952D01*
X103983333Y-131128571D01*
X103935714Y-131176190D01*
X103888095Y-131271428D01*
X103888095Y-131461904D01*
X103935714Y-131557142D01*
X103983333Y-131604761D01*
X104078571Y-131652380D01*
X104269047Y-131652380D01*
X104364285Y-131604761D01*
X104411904Y-131557142D01*
X104459523Y-131461904D01*
X104459523Y-131271428D01*
X104411904Y-131176190D01*
X104364285Y-131128571D01*
X104269047Y-131080952D01*
X105316666Y-130985714D02*
X105316666Y-131652380D01*
X105078571Y-130604761D02*
X104840476Y-131319047D01*
X105459523Y-131319047D01*
G04 #@! TO.C,C85*
X119907142Y-129267857D02*
X119954761Y-129315476D01*
X120002380Y-129458333D01*
X120002380Y-129553571D01*
X119954761Y-129696428D01*
X119859523Y-129791666D01*
X119764285Y-129839285D01*
X119573809Y-129886904D01*
X119430952Y-129886904D01*
X119240476Y-129839285D01*
X119145238Y-129791666D01*
X119050000Y-129696428D01*
X119002380Y-129553571D01*
X119002380Y-129458333D01*
X119050000Y-129315476D01*
X119097619Y-129267857D01*
X119430952Y-128696428D02*
X119383333Y-128791666D01*
X119335714Y-128839285D01*
X119240476Y-128886904D01*
X119192857Y-128886904D01*
X119097619Y-128839285D01*
X119050000Y-128791666D01*
X119002380Y-128696428D01*
X119002380Y-128505952D01*
X119050000Y-128410714D01*
X119097619Y-128363095D01*
X119192857Y-128315476D01*
X119240476Y-128315476D01*
X119335714Y-128363095D01*
X119383333Y-128410714D01*
X119430952Y-128505952D01*
X119430952Y-128696428D01*
X119478571Y-128791666D01*
X119526190Y-128839285D01*
X119621428Y-128886904D01*
X119811904Y-128886904D01*
X119907142Y-128839285D01*
X119954761Y-128791666D01*
X120002380Y-128696428D01*
X120002380Y-128505952D01*
X119954761Y-128410714D01*
X119907142Y-128363095D01*
X119811904Y-128315476D01*
X119621428Y-128315476D01*
X119526190Y-128363095D01*
X119478571Y-128410714D01*
X119430952Y-128505952D01*
X119002380Y-127410714D02*
X119002380Y-127886904D01*
X119478571Y-127934523D01*
X119430952Y-127886904D01*
X119383333Y-127791666D01*
X119383333Y-127553571D01*
X119430952Y-127458333D01*
X119478571Y-127410714D01*
X119573809Y-127363095D01*
X119811904Y-127363095D01*
X119907142Y-127410714D01*
X119954761Y-127458333D01*
X120002380Y-127553571D01*
X120002380Y-127791666D01*
X119954761Y-127886904D01*
X119907142Y-127934523D01*
G04 #@! TO.C,C88*
X77657142Y-131557142D02*
X77609523Y-131604761D01*
X77466666Y-131652380D01*
X77371428Y-131652380D01*
X77228571Y-131604761D01*
X77133333Y-131509523D01*
X77085714Y-131414285D01*
X77038095Y-131223809D01*
X77038095Y-131080952D01*
X77085714Y-130890476D01*
X77133333Y-130795238D01*
X77228571Y-130700000D01*
X77371428Y-130652380D01*
X77466666Y-130652380D01*
X77609523Y-130700000D01*
X77657142Y-130747619D01*
X78228571Y-131080952D02*
X78133333Y-131033333D01*
X78085714Y-130985714D01*
X78038095Y-130890476D01*
X78038095Y-130842857D01*
X78085714Y-130747619D01*
X78133333Y-130700000D01*
X78228571Y-130652380D01*
X78419047Y-130652380D01*
X78514285Y-130700000D01*
X78561904Y-130747619D01*
X78609523Y-130842857D01*
X78609523Y-130890476D01*
X78561904Y-130985714D01*
X78514285Y-131033333D01*
X78419047Y-131080952D01*
X78228571Y-131080952D01*
X78133333Y-131128571D01*
X78085714Y-131176190D01*
X78038095Y-131271428D01*
X78038095Y-131461904D01*
X78085714Y-131557142D01*
X78133333Y-131604761D01*
X78228571Y-131652380D01*
X78419047Y-131652380D01*
X78514285Y-131604761D01*
X78561904Y-131557142D01*
X78609523Y-131461904D01*
X78609523Y-131271428D01*
X78561904Y-131176190D01*
X78514285Y-131128571D01*
X78419047Y-131080952D01*
X79180952Y-131080952D02*
X79085714Y-131033333D01*
X79038095Y-130985714D01*
X78990476Y-130890476D01*
X78990476Y-130842857D01*
X79038095Y-130747619D01*
X79085714Y-130700000D01*
X79180952Y-130652380D01*
X79371428Y-130652380D01*
X79466666Y-130700000D01*
X79514285Y-130747619D01*
X79561904Y-130842857D01*
X79561904Y-130890476D01*
X79514285Y-130985714D01*
X79466666Y-131033333D01*
X79371428Y-131080952D01*
X79180952Y-131080952D01*
X79085714Y-131128571D01*
X79038095Y-131176190D01*
X78990476Y-131271428D01*
X78990476Y-131461904D01*
X79038095Y-131557142D01*
X79085714Y-131604761D01*
X79180952Y-131652380D01*
X79371428Y-131652380D01*
X79466666Y-131604761D01*
X79514285Y-131557142D01*
X79561904Y-131461904D01*
X79561904Y-131271428D01*
X79514285Y-131176190D01*
X79466666Y-131128571D01*
X79371428Y-131080952D01*
G04 #@! TO.C,C89*
X49707142Y-129192857D02*
X49754761Y-129240476D01*
X49802380Y-129383333D01*
X49802380Y-129478571D01*
X49754761Y-129621428D01*
X49659523Y-129716666D01*
X49564285Y-129764285D01*
X49373809Y-129811904D01*
X49230952Y-129811904D01*
X49040476Y-129764285D01*
X48945238Y-129716666D01*
X48850000Y-129621428D01*
X48802380Y-129478571D01*
X48802380Y-129383333D01*
X48850000Y-129240476D01*
X48897619Y-129192857D01*
X49230952Y-128621428D02*
X49183333Y-128716666D01*
X49135714Y-128764285D01*
X49040476Y-128811904D01*
X48992857Y-128811904D01*
X48897619Y-128764285D01*
X48850000Y-128716666D01*
X48802380Y-128621428D01*
X48802380Y-128430952D01*
X48850000Y-128335714D01*
X48897619Y-128288095D01*
X48992857Y-128240476D01*
X49040476Y-128240476D01*
X49135714Y-128288095D01*
X49183333Y-128335714D01*
X49230952Y-128430952D01*
X49230952Y-128621428D01*
X49278571Y-128716666D01*
X49326190Y-128764285D01*
X49421428Y-128811904D01*
X49611904Y-128811904D01*
X49707142Y-128764285D01*
X49754761Y-128716666D01*
X49802380Y-128621428D01*
X49802380Y-128430952D01*
X49754761Y-128335714D01*
X49707142Y-128288095D01*
X49611904Y-128240476D01*
X49421428Y-128240476D01*
X49326190Y-128288095D01*
X49278571Y-128335714D01*
X49230952Y-128430952D01*
X49802380Y-127764285D02*
X49802380Y-127573809D01*
X49754761Y-127478571D01*
X49707142Y-127430952D01*
X49564285Y-127335714D01*
X49373809Y-127288095D01*
X48992857Y-127288095D01*
X48897619Y-127335714D01*
X48850000Y-127383333D01*
X48802380Y-127478571D01*
X48802380Y-127669047D01*
X48850000Y-127764285D01*
X48897619Y-127811904D01*
X48992857Y-127859523D01*
X49230952Y-127859523D01*
X49326190Y-127811904D01*
X49373809Y-127764285D01*
X49421428Y-127669047D01*
X49421428Y-127478571D01*
X49373809Y-127383333D01*
X49326190Y-127335714D01*
X49230952Y-127288095D01*
G04 #@! TO.C,U32*
X81961904Y-126902380D02*
X81961904Y-127711904D01*
X82009523Y-127807142D01*
X82057142Y-127854761D01*
X82152380Y-127902380D01*
X82342857Y-127902380D01*
X82438095Y-127854761D01*
X82485714Y-127807142D01*
X82533333Y-127711904D01*
X82533333Y-126902380D01*
X82914285Y-126902380D02*
X83533333Y-126902380D01*
X83200000Y-127283333D01*
X83342857Y-127283333D01*
X83438095Y-127330952D01*
X83485714Y-127378571D01*
X83533333Y-127473809D01*
X83533333Y-127711904D01*
X83485714Y-127807142D01*
X83438095Y-127854761D01*
X83342857Y-127902380D01*
X83057142Y-127902380D01*
X82961904Y-127854761D01*
X82914285Y-127807142D01*
X83914285Y-126997619D02*
X83961904Y-126950000D01*
X84057142Y-126902380D01*
X84295238Y-126902380D01*
X84390476Y-126950000D01*
X84438095Y-126997619D01*
X84485714Y-127092857D01*
X84485714Y-127188095D01*
X84438095Y-127330952D01*
X83866666Y-127902380D01*
X84485714Y-127902380D01*
G04 #@! TO.C,U31*
X126711904Y-132152380D02*
X126711904Y-132961904D01*
X126759523Y-133057142D01*
X126807142Y-133104761D01*
X126902380Y-133152380D01*
X127092857Y-133152380D01*
X127188095Y-133104761D01*
X127235714Y-133057142D01*
X127283333Y-132961904D01*
X127283333Y-132152380D01*
X127664285Y-132152380D02*
X128283333Y-132152380D01*
X127950000Y-132533333D01*
X128092857Y-132533333D01*
X128188095Y-132580952D01*
X128235714Y-132628571D01*
X128283333Y-132723809D01*
X128283333Y-132961904D01*
X128235714Y-133057142D01*
X128188095Y-133104761D01*
X128092857Y-133152380D01*
X127807142Y-133152380D01*
X127711904Y-133104761D01*
X127664285Y-133057142D01*
X129235714Y-133152380D02*
X128664285Y-133152380D01*
X128950000Y-133152380D02*
X128950000Y-132152380D01*
X128854761Y-132295238D01*
X128759523Y-132390476D01*
X128664285Y-132438095D01*
G04 #@! TO.C,U33*
X56261904Y-132152380D02*
X56261904Y-132961904D01*
X56309523Y-133057142D01*
X56357142Y-133104761D01*
X56452380Y-133152380D01*
X56642857Y-133152380D01*
X56738095Y-133104761D01*
X56785714Y-133057142D01*
X56833333Y-132961904D01*
X56833333Y-132152380D01*
X57214285Y-132152380D02*
X57833333Y-132152380D01*
X57500000Y-132533333D01*
X57642857Y-132533333D01*
X57738095Y-132580952D01*
X57785714Y-132628571D01*
X57833333Y-132723809D01*
X57833333Y-132961904D01*
X57785714Y-133057142D01*
X57738095Y-133104761D01*
X57642857Y-133152380D01*
X57357142Y-133152380D01*
X57261904Y-133104761D01*
X57214285Y-133057142D01*
X58166666Y-132152380D02*
X58785714Y-132152380D01*
X58452380Y-132533333D01*
X58595238Y-132533333D01*
X58690476Y-132580952D01*
X58738095Y-132628571D01*
X58785714Y-132723809D01*
X58785714Y-132961904D01*
X58738095Y-133057142D01*
X58690476Y-133104761D01*
X58595238Y-133152380D01*
X58309523Y-133152380D01*
X58214285Y-133104761D01*
X58166666Y-133057142D01*
G04 #@! TO.C,U30*
X107461904Y-131652380D02*
X107461904Y-132461904D01*
X107509523Y-132557142D01*
X107557142Y-132604761D01*
X107652380Y-132652380D01*
X107842857Y-132652380D01*
X107938095Y-132604761D01*
X107985714Y-132557142D01*
X108033333Y-132461904D01*
X108033333Y-131652380D01*
X108414285Y-131652380D02*
X109033333Y-131652380D01*
X108700000Y-132033333D01*
X108842857Y-132033333D01*
X108938095Y-132080952D01*
X108985714Y-132128571D01*
X109033333Y-132223809D01*
X109033333Y-132461904D01*
X108985714Y-132557142D01*
X108938095Y-132604761D01*
X108842857Y-132652380D01*
X108557142Y-132652380D01*
X108461904Y-132604761D01*
X108414285Y-132557142D01*
X109652380Y-131652380D02*
X109747619Y-131652380D01*
X109842857Y-131700000D01*
X109890476Y-131747619D01*
X109938095Y-131842857D01*
X109985714Y-132033333D01*
X109985714Y-132271428D01*
X109938095Y-132461904D01*
X109890476Y-132557142D01*
X109842857Y-132604761D01*
X109747619Y-132652380D01*
X109652380Y-132652380D01*
X109557142Y-132604761D01*
X109509523Y-132557142D01*
X109461904Y-132461904D01*
X109414285Y-132271428D01*
X109414285Y-132033333D01*
X109461904Y-131842857D01*
X109509523Y-131747619D01*
X109557142Y-131700000D01*
X109652380Y-131652380D01*
G04 #@! TO.C,R78*
X112457142Y-131602380D02*
X112123809Y-131126190D01*
X111885714Y-131602380D02*
X111885714Y-130602380D01*
X112266666Y-130602380D01*
X112361904Y-130650000D01*
X112409523Y-130697619D01*
X112457142Y-130792857D01*
X112457142Y-130935714D01*
X112409523Y-131030952D01*
X112361904Y-131078571D01*
X112266666Y-131126190D01*
X111885714Y-131126190D01*
X112790476Y-130602380D02*
X113457142Y-130602380D01*
X113028571Y-131602380D01*
X113980952Y-131030952D02*
X113885714Y-130983333D01*
X113838095Y-130935714D01*
X113790476Y-130840476D01*
X113790476Y-130792857D01*
X113838095Y-130697619D01*
X113885714Y-130650000D01*
X113980952Y-130602380D01*
X114171428Y-130602380D01*
X114266666Y-130650000D01*
X114314285Y-130697619D01*
X114361904Y-130792857D01*
X114361904Y-130840476D01*
X114314285Y-130935714D01*
X114266666Y-130983333D01*
X114171428Y-131030952D01*
X113980952Y-131030952D01*
X113885714Y-131078571D01*
X113838095Y-131126190D01*
X113790476Y-131221428D01*
X113790476Y-131411904D01*
X113838095Y-131507142D01*
X113885714Y-131554761D01*
X113980952Y-131602380D01*
X114171428Y-131602380D01*
X114266666Y-131554761D01*
X114314285Y-131507142D01*
X114361904Y-131411904D01*
X114361904Y-131221428D01*
X114314285Y-131126190D01*
X114266666Y-131078571D01*
X114171428Y-131030952D01*
G04 #@! TO.C,R80*
X100902380Y-129267857D02*
X100426190Y-129601190D01*
X100902380Y-129839285D02*
X99902380Y-129839285D01*
X99902380Y-129458333D01*
X99950000Y-129363095D01*
X99997619Y-129315476D01*
X100092857Y-129267857D01*
X100235714Y-129267857D01*
X100330952Y-129315476D01*
X100378571Y-129363095D01*
X100426190Y-129458333D01*
X100426190Y-129839285D01*
X100330952Y-128696428D02*
X100283333Y-128791666D01*
X100235714Y-128839285D01*
X100140476Y-128886904D01*
X100092857Y-128886904D01*
X99997619Y-128839285D01*
X99950000Y-128791666D01*
X99902380Y-128696428D01*
X99902380Y-128505952D01*
X99950000Y-128410714D01*
X99997619Y-128363095D01*
X100092857Y-128315476D01*
X100140476Y-128315476D01*
X100235714Y-128363095D01*
X100283333Y-128410714D01*
X100330952Y-128505952D01*
X100330952Y-128696428D01*
X100378571Y-128791666D01*
X100426190Y-128839285D01*
X100521428Y-128886904D01*
X100711904Y-128886904D01*
X100807142Y-128839285D01*
X100854761Y-128791666D01*
X100902380Y-128696428D01*
X100902380Y-128505952D01*
X100854761Y-128410714D01*
X100807142Y-128363095D01*
X100711904Y-128315476D01*
X100521428Y-128315476D01*
X100426190Y-128363095D01*
X100378571Y-128410714D01*
X100330952Y-128505952D01*
X99902380Y-127696428D02*
X99902380Y-127601190D01*
X99950000Y-127505952D01*
X99997619Y-127458333D01*
X100092857Y-127410714D01*
X100283333Y-127363095D01*
X100521428Y-127363095D01*
X100711904Y-127410714D01*
X100807142Y-127458333D01*
X100854761Y-127505952D01*
X100902380Y-127601190D01*
X100902380Y-127696428D01*
X100854761Y-127791666D01*
X100807142Y-127839285D01*
X100711904Y-127886904D01*
X100521428Y-127934523D01*
X100283333Y-127934523D01*
X100092857Y-127886904D01*
X99997619Y-127839285D01*
X99950000Y-127791666D01*
X99902380Y-127696428D01*
G04 #@! TO.C,R81*
X122507142Y-131902380D02*
X122173809Y-131426190D01*
X121935714Y-131902380D02*
X121935714Y-130902380D01*
X122316666Y-130902380D01*
X122411904Y-130950000D01*
X122459523Y-130997619D01*
X122507142Y-131092857D01*
X122507142Y-131235714D01*
X122459523Y-131330952D01*
X122411904Y-131378571D01*
X122316666Y-131426190D01*
X121935714Y-131426190D01*
X123078571Y-131330952D02*
X122983333Y-131283333D01*
X122935714Y-131235714D01*
X122888095Y-131140476D01*
X122888095Y-131092857D01*
X122935714Y-130997619D01*
X122983333Y-130950000D01*
X123078571Y-130902380D01*
X123269047Y-130902380D01*
X123364285Y-130950000D01*
X123411904Y-130997619D01*
X123459523Y-131092857D01*
X123459523Y-131140476D01*
X123411904Y-131235714D01*
X123364285Y-131283333D01*
X123269047Y-131330952D01*
X123078571Y-131330952D01*
X122983333Y-131378571D01*
X122935714Y-131426190D01*
X122888095Y-131521428D01*
X122888095Y-131711904D01*
X122935714Y-131807142D01*
X122983333Y-131854761D01*
X123078571Y-131902380D01*
X123269047Y-131902380D01*
X123364285Y-131854761D01*
X123411904Y-131807142D01*
X123459523Y-131711904D01*
X123459523Y-131521428D01*
X123411904Y-131426190D01*
X123364285Y-131378571D01*
X123269047Y-131330952D01*
X124411904Y-131902380D02*
X123840476Y-131902380D01*
X124126190Y-131902380D02*
X124126190Y-130902380D01*
X124030952Y-131045238D01*
X123935714Y-131140476D01*
X123840476Y-131188095D01*
G04 #@! TO.C,R90*
X86957142Y-131602380D02*
X86623809Y-131126190D01*
X86385714Y-131602380D02*
X86385714Y-130602380D01*
X86766666Y-130602380D01*
X86861904Y-130650000D01*
X86909523Y-130697619D01*
X86957142Y-130792857D01*
X86957142Y-130935714D01*
X86909523Y-131030952D01*
X86861904Y-131078571D01*
X86766666Y-131126190D01*
X86385714Y-131126190D01*
X87433333Y-131602380D02*
X87623809Y-131602380D01*
X87719047Y-131554761D01*
X87766666Y-131507142D01*
X87861904Y-131364285D01*
X87909523Y-131173809D01*
X87909523Y-130792857D01*
X87861904Y-130697619D01*
X87814285Y-130650000D01*
X87719047Y-130602380D01*
X87528571Y-130602380D01*
X87433333Y-130650000D01*
X87385714Y-130697619D01*
X87338095Y-130792857D01*
X87338095Y-131030952D01*
X87385714Y-131126190D01*
X87433333Y-131173809D01*
X87528571Y-131221428D01*
X87719047Y-131221428D01*
X87814285Y-131173809D01*
X87861904Y-131126190D01*
X87909523Y-131030952D01*
X88528571Y-130602380D02*
X88623809Y-130602380D01*
X88719047Y-130650000D01*
X88766666Y-130697619D01*
X88814285Y-130792857D01*
X88861904Y-130983333D01*
X88861904Y-131221428D01*
X88814285Y-131411904D01*
X88766666Y-131507142D01*
X88719047Y-131554761D01*
X88623809Y-131602380D01*
X88528571Y-131602380D01*
X88433333Y-131554761D01*
X88385714Y-131507142D01*
X88338095Y-131411904D01*
X88290476Y-131221428D01*
X88290476Y-130983333D01*
X88338095Y-130792857D01*
X88385714Y-130697619D01*
X88433333Y-130650000D01*
X88528571Y-130602380D01*
G04 #@! TO.C,R91*
X61257142Y-131652380D02*
X60923809Y-131176190D01*
X60685714Y-131652380D02*
X60685714Y-130652380D01*
X61066666Y-130652380D01*
X61161904Y-130700000D01*
X61209523Y-130747619D01*
X61257142Y-130842857D01*
X61257142Y-130985714D01*
X61209523Y-131080952D01*
X61161904Y-131128571D01*
X61066666Y-131176190D01*
X60685714Y-131176190D01*
X61733333Y-131652380D02*
X61923809Y-131652380D01*
X62019047Y-131604761D01*
X62066666Y-131557142D01*
X62161904Y-131414285D01*
X62209523Y-131223809D01*
X62209523Y-130842857D01*
X62161904Y-130747619D01*
X62114285Y-130700000D01*
X62019047Y-130652380D01*
X61828571Y-130652380D01*
X61733333Y-130700000D01*
X61685714Y-130747619D01*
X61638095Y-130842857D01*
X61638095Y-131080952D01*
X61685714Y-131176190D01*
X61733333Y-131223809D01*
X61828571Y-131271428D01*
X62019047Y-131271428D01*
X62114285Y-131223809D01*
X62161904Y-131176190D01*
X62209523Y-131080952D01*
X63161904Y-131652380D02*
X62590476Y-131652380D01*
X62876190Y-131652380D02*
X62876190Y-130652380D01*
X62780952Y-130795238D01*
X62685714Y-130890476D01*
X62590476Y-130938095D01*
G04 #@! TO.C,R92*
X75352380Y-129267857D02*
X74876190Y-129601190D01*
X75352380Y-129839285D02*
X74352380Y-129839285D01*
X74352380Y-129458333D01*
X74400000Y-129363095D01*
X74447619Y-129315476D01*
X74542857Y-129267857D01*
X74685714Y-129267857D01*
X74780952Y-129315476D01*
X74828571Y-129363095D01*
X74876190Y-129458333D01*
X74876190Y-129839285D01*
X75352380Y-128791666D02*
X75352380Y-128601190D01*
X75304761Y-128505952D01*
X75257142Y-128458333D01*
X75114285Y-128363095D01*
X74923809Y-128315476D01*
X74542857Y-128315476D01*
X74447619Y-128363095D01*
X74400000Y-128410714D01*
X74352380Y-128505952D01*
X74352380Y-128696428D01*
X74400000Y-128791666D01*
X74447619Y-128839285D01*
X74542857Y-128886904D01*
X74780952Y-128886904D01*
X74876190Y-128839285D01*
X74923809Y-128791666D01*
X74971428Y-128696428D01*
X74971428Y-128505952D01*
X74923809Y-128410714D01*
X74876190Y-128363095D01*
X74780952Y-128315476D01*
X74447619Y-127934523D02*
X74400000Y-127886904D01*
X74352380Y-127791666D01*
X74352380Y-127553571D01*
X74400000Y-127458333D01*
X74447619Y-127410714D01*
X74542857Y-127363095D01*
X74638095Y-127363095D01*
X74780952Y-127410714D01*
X75352380Y-127982142D01*
X75352380Y-127363095D01*
G04 #@! TO.C,R93*
X52507142Y-131802380D02*
X52173809Y-131326190D01*
X51935714Y-131802380D02*
X51935714Y-130802380D01*
X52316666Y-130802380D01*
X52411904Y-130850000D01*
X52459523Y-130897619D01*
X52507142Y-130992857D01*
X52507142Y-131135714D01*
X52459523Y-131230952D01*
X52411904Y-131278571D01*
X52316666Y-131326190D01*
X51935714Y-131326190D01*
X52983333Y-131802380D02*
X53173809Y-131802380D01*
X53269047Y-131754761D01*
X53316666Y-131707142D01*
X53411904Y-131564285D01*
X53459523Y-131373809D01*
X53459523Y-130992857D01*
X53411904Y-130897619D01*
X53364285Y-130850000D01*
X53269047Y-130802380D01*
X53078571Y-130802380D01*
X52983333Y-130850000D01*
X52935714Y-130897619D01*
X52888095Y-130992857D01*
X52888095Y-131230952D01*
X52935714Y-131326190D01*
X52983333Y-131373809D01*
X53078571Y-131421428D01*
X53269047Y-131421428D01*
X53364285Y-131373809D01*
X53411904Y-131326190D01*
X53459523Y-131230952D01*
X53792857Y-130802380D02*
X54411904Y-130802380D01*
X54078571Y-131183333D01*
X54221428Y-131183333D01*
X54316666Y-131230952D01*
X54364285Y-131278571D01*
X54411904Y-131373809D01*
X54411904Y-131611904D01*
X54364285Y-131707142D01*
X54316666Y-131754761D01*
X54221428Y-131802380D01*
X53935714Y-131802380D01*
X53840476Y-131754761D01*
X53792857Y-131707142D01*
G04 #@! TO.C,R79*
X134307142Y-130452380D02*
X133973809Y-129976190D01*
X133735714Y-130452380D02*
X133735714Y-129452380D01*
X134116666Y-129452380D01*
X134211904Y-129500000D01*
X134259523Y-129547619D01*
X134307142Y-129642857D01*
X134307142Y-129785714D01*
X134259523Y-129880952D01*
X134211904Y-129928571D01*
X134116666Y-129976190D01*
X133735714Y-129976190D01*
X134640476Y-129452380D02*
X135307142Y-129452380D01*
X134878571Y-130452380D01*
X135735714Y-130452380D02*
X135926190Y-130452380D01*
X136021428Y-130404761D01*
X136069047Y-130357142D01*
X136164285Y-130214285D01*
X136211904Y-130023809D01*
X136211904Y-129642857D01*
X136164285Y-129547619D01*
X136116666Y-129500000D01*
X136021428Y-129452380D01*
X135830952Y-129452380D01*
X135735714Y-129500000D01*
X135688095Y-129547619D01*
X135640476Y-129642857D01*
X135640476Y-129880952D01*
X135688095Y-129976190D01*
X135735714Y-130023809D01*
X135830952Y-130071428D01*
X136021428Y-130071428D01*
X136116666Y-130023809D01*
X136164285Y-129976190D01*
X136211904Y-129880952D01*
G04 #@! TO.C,U29*
X106011904Y-41922380D02*
X106011904Y-42731904D01*
X106059523Y-42827142D01*
X106107142Y-42874761D01*
X106202380Y-42922380D01*
X106392857Y-42922380D01*
X106488095Y-42874761D01*
X106535714Y-42827142D01*
X106583333Y-42731904D01*
X106583333Y-41922380D01*
X107011904Y-42017619D02*
X107059523Y-41970000D01*
X107154761Y-41922380D01*
X107392857Y-41922380D01*
X107488095Y-41970000D01*
X107535714Y-42017619D01*
X107583333Y-42112857D01*
X107583333Y-42208095D01*
X107535714Y-42350952D01*
X106964285Y-42922380D01*
X107583333Y-42922380D01*
X108059523Y-42922380D02*
X108250000Y-42922380D01*
X108345238Y-42874761D01*
X108392857Y-42827142D01*
X108488095Y-42684285D01*
X108535714Y-42493809D01*
X108535714Y-42112857D01*
X108488095Y-42017619D01*
X108440476Y-41970000D01*
X108345238Y-41922380D01*
X108154761Y-41922380D01*
X108059523Y-41970000D01*
X108011904Y-42017619D01*
X107964285Y-42112857D01*
X107964285Y-42350952D01*
X108011904Y-42446190D01*
X108059523Y-42493809D01*
X108154761Y-42541428D01*
X108345238Y-42541428D01*
X108440476Y-42493809D01*
X108488095Y-42446190D01*
X108535714Y-42350952D01*
G04 #@! TO.C,U28*
X55561904Y-41772380D02*
X55561904Y-42581904D01*
X55609523Y-42677142D01*
X55657142Y-42724761D01*
X55752380Y-42772380D01*
X55942857Y-42772380D01*
X56038095Y-42724761D01*
X56085714Y-42677142D01*
X56133333Y-42581904D01*
X56133333Y-41772380D01*
X56561904Y-41867619D02*
X56609523Y-41820000D01*
X56704761Y-41772380D01*
X56942857Y-41772380D01*
X57038095Y-41820000D01*
X57085714Y-41867619D01*
X57133333Y-41962857D01*
X57133333Y-42058095D01*
X57085714Y-42200952D01*
X56514285Y-42772380D01*
X57133333Y-42772380D01*
X57704761Y-42200952D02*
X57609523Y-42153333D01*
X57561904Y-42105714D01*
X57514285Y-42010476D01*
X57514285Y-41962857D01*
X57561904Y-41867619D01*
X57609523Y-41820000D01*
X57704761Y-41772380D01*
X57895238Y-41772380D01*
X57990476Y-41820000D01*
X58038095Y-41867619D01*
X58085714Y-41962857D01*
X58085714Y-42010476D01*
X58038095Y-42105714D01*
X57990476Y-42153333D01*
X57895238Y-42200952D01*
X57704761Y-42200952D01*
X57609523Y-42248571D01*
X57561904Y-42296190D01*
X57514285Y-42391428D01*
X57514285Y-42581904D01*
X57561904Y-42677142D01*
X57609523Y-42724761D01*
X57704761Y-42772380D01*
X57895238Y-42772380D01*
X57990476Y-42724761D01*
X58038095Y-42677142D01*
X58085714Y-42581904D01*
X58085714Y-42391428D01*
X58038095Y-42296190D01*
X57990476Y-42248571D01*
X57895238Y-42200952D01*
G04 #@! TO.C,R68*
X94157142Y-50802380D02*
X93823809Y-50326190D01*
X93585714Y-50802380D02*
X93585714Y-49802380D01*
X93966666Y-49802380D01*
X94061904Y-49850000D01*
X94109523Y-49897619D01*
X94157142Y-49992857D01*
X94157142Y-50135714D01*
X94109523Y-50230952D01*
X94061904Y-50278571D01*
X93966666Y-50326190D01*
X93585714Y-50326190D01*
X95014285Y-49802380D02*
X94823809Y-49802380D01*
X94728571Y-49850000D01*
X94680952Y-49897619D01*
X94585714Y-50040476D01*
X94538095Y-50230952D01*
X94538095Y-50611904D01*
X94585714Y-50707142D01*
X94633333Y-50754761D01*
X94728571Y-50802380D01*
X94919047Y-50802380D01*
X95014285Y-50754761D01*
X95061904Y-50707142D01*
X95109523Y-50611904D01*
X95109523Y-50373809D01*
X95061904Y-50278571D01*
X95014285Y-50230952D01*
X94919047Y-50183333D01*
X94728571Y-50183333D01*
X94633333Y-50230952D01*
X94585714Y-50278571D01*
X94538095Y-50373809D01*
X95680952Y-50230952D02*
X95585714Y-50183333D01*
X95538095Y-50135714D01*
X95490476Y-50040476D01*
X95490476Y-49992857D01*
X95538095Y-49897619D01*
X95585714Y-49850000D01*
X95680952Y-49802380D01*
X95871428Y-49802380D01*
X95966666Y-49850000D01*
X96014285Y-49897619D01*
X96061904Y-49992857D01*
X96061904Y-50040476D01*
X96014285Y-50135714D01*
X95966666Y-50183333D01*
X95871428Y-50230952D01*
X95680952Y-50230952D01*
X95585714Y-50278571D01*
X95538095Y-50326190D01*
X95490476Y-50421428D01*
X95490476Y-50611904D01*
X95538095Y-50707142D01*
X95585714Y-50754761D01*
X95680952Y-50802380D01*
X95871428Y-50802380D01*
X95966666Y-50754761D01*
X96014285Y-50707142D01*
X96061904Y-50611904D01*
X96061904Y-50421428D01*
X96014285Y-50326190D01*
X95966666Y-50278571D01*
X95871428Y-50230952D01*
G04 #@! TO.C,R69*
X99352380Y-49842857D02*
X98876190Y-50176190D01*
X99352380Y-50414285D02*
X98352380Y-50414285D01*
X98352380Y-50033333D01*
X98400000Y-49938095D01*
X98447619Y-49890476D01*
X98542857Y-49842857D01*
X98685714Y-49842857D01*
X98780952Y-49890476D01*
X98828571Y-49938095D01*
X98876190Y-50033333D01*
X98876190Y-50414285D01*
X98352380Y-48985714D02*
X98352380Y-49176190D01*
X98400000Y-49271428D01*
X98447619Y-49319047D01*
X98590476Y-49414285D01*
X98780952Y-49461904D01*
X99161904Y-49461904D01*
X99257142Y-49414285D01*
X99304761Y-49366666D01*
X99352380Y-49271428D01*
X99352380Y-49080952D01*
X99304761Y-48985714D01*
X99257142Y-48938095D01*
X99161904Y-48890476D01*
X98923809Y-48890476D01*
X98828571Y-48938095D01*
X98780952Y-48985714D01*
X98733333Y-49080952D01*
X98733333Y-49271428D01*
X98780952Y-49366666D01*
X98828571Y-49414285D01*
X98923809Y-49461904D01*
X99352380Y-48414285D02*
X99352380Y-48223809D01*
X99304761Y-48128571D01*
X99257142Y-48080952D01*
X99114285Y-47985714D01*
X98923809Y-47938095D01*
X98542857Y-47938095D01*
X98447619Y-47985714D01*
X98400000Y-48033333D01*
X98352380Y-48128571D01*
X98352380Y-48319047D01*
X98400000Y-48414285D01*
X98447619Y-48461904D01*
X98542857Y-48509523D01*
X98780952Y-48509523D01*
X98876190Y-48461904D01*
X98923809Y-48414285D01*
X98971428Y-48319047D01*
X98971428Y-48128571D01*
X98923809Y-48033333D01*
X98876190Y-47985714D01*
X98780952Y-47938095D01*
G04 #@! TO.C,R66*
X104707142Y-52202380D02*
X104373809Y-51726190D01*
X104135714Y-52202380D02*
X104135714Y-51202380D01*
X104516666Y-51202380D01*
X104611904Y-51250000D01*
X104659523Y-51297619D01*
X104707142Y-51392857D01*
X104707142Y-51535714D01*
X104659523Y-51630952D01*
X104611904Y-51678571D01*
X104516666Y-51726190D01*
X104135714Y-51726190D01*
X105564285Y-51202380D02*
X105373809Y-51202380D01*
X105278571Y-51250000D01*
X105230952Y-51297619D01*
X105135714Y-51440476D01*
X105088095Y-51630952D01*
X105088095Y-52011904D01*
X105135714Y-52107142D01*
X105183333Y-52154761D01*
X105278571Y-52202380D01*
X105469047Y-52202380D01*
X105564285Y-52154761D01*
X105611904Y-52107142D01*
X105659523Y-52011904D01*
X105659523Y-51773809D01*
X105611904Y-51678571D01*
X105564285Y-51630952D01*
X105469047Y-51583333D01*
X105278571Y-51583333D01*
X105183333Y-51630952D01*
X105135714Y-51678571D01*
X105088095Y-51773809D01*
X106516666Y-51202380D02*
X106326190Y-51202380D01*
X106230952Y-51250000D01*
X106183333Y-51297619D01*
X106088095Y-51440476D01*
X106040476Y-51630952D01*
X106040476Y-52011904D01*
X106088095Y-52107142D01*
X106135714Y-52154761D01*
X106230952Y-52202380D01*
X106421428Y-52202380D01*
X106516666Y-52154761D01*
X106564285Y-52107142D01*
X106611904Y-52011904D01*
X106611904Y-51773809D01*
X106564285Y-51678571D01*
X106516666Y-51630952D01*
X106421428Y-51583333D01*
X106230952Y-51583333D01*
X106135714Y-51630952D01*
X106088095Y-51678571D01*
X106040476Y-51773809D01*
G04 #@! TO.C,R65*
X108557142Y-52202380D02*
X108223809Y-51726190D01*
X107985714Y-52202380D02*
X107985714Y-51202380D01*
X108366666Y-51202380D01*
X108461904Y-51250000D01*
X108509523Y-51297619D01*
X108557142Y-51392857D01*
X108557142Y-51535714D01*
X108509523Y-51630952D01*
X108461904Y-51678571D01*
X108366666Y-51726190D01*
X107985714Y-51726190D01*
X109414285Y-51202380D02*
X109223809Y-51202380D01*
X109128571Y-51250000D01*
X109080952Y-51297619D01*
X108985714Y-51440476D01*
X108938095Y-51630952D01*
X108938095Y-52011904D01*
X108985714Y-52107142D01*
X109033333Y-52154761D01*
X109128571Y-52202380D01*
X109319047Y-52202380D01*
X109414285Y-52154761D01*
X109461904Y-52107142D01*
X109509523Y-52011904D01*
X109509523Y-51773809D01*
X109461904Y-51678571D01*
X109414285Y-51630952D01*
X109319047Y-51583333D01*
X109128571Y-51583333D01*
X109033333Y-51630952D01*
X108985714Y-51678571D01*
X108938095Y-51773809D01*
X110414285Y-51202380D02*
X109938095Y-51202380D01*
X109890476Y-51678571D01*
X109938095Y-51630952D01*
X110033333Y-51583333D01*
X110271428Y-51583333D01*
X110366666Y-51630952D01*
X110414285Y-51678571D01*
X110461904Y-51773809D01*
X110461904Y-52011904D01*
X110414285Y-52107142D01*
X110366666Y-52154761D01*
X110271428Y-52202380D01*
X110033333Y-52202380D01*
X109938095Y-52154761D01*
X109890476Y-52107142D01*
G04 #@! TO.C,R64*
X116002380Y-44292857D02*
X115526190Y-44626190D01*
X116002380Y-44864285D02*
X115002380Y-44864285D01*
X115002380Y-44483333D01*
X115050000Y-44388095D01*
X115097619Y-44340476D01*
X115192857Y-44292857D01*
X115335714Y-44292857D01*
X115430952Y-44340476D01*
X115478571Y-44388095D01*
X115526190Y-44483333D01*
X115526190Y-44864285D01*
X115002380Y-43435714D02*
X115002380Y-43626190D01*
X115050000Y-43721428D01*
X115097619Y-43769047D01*
X115240476Y-43864285D01*
X115430952Y-43911904D01*
X115811904Y-43911904D01*
X115907142Y-43864285D01*
X115954761Y-43816666D01*
X116002380Y-43721428D01*
X116002380Y-43530952D01*
X115954761Y-43435714D01*
X115907142Y-43388095D01*
X115811904Y-43340476D01*
X115573809Y-43340476D01*
X115478571Y-43388095D01*
X115430952Y-43435714D01*
X115383333Y-43530952D01*
X115383333Y-43721428D01*
X115430952Y-43816666D01*
X115478571Y-43864285D01*
X115573809Y-43911904D01*
X115335714Y-42483333D02*
X116002380Y-42483333D01*
X114954761Y-42721428D02*
X115669047Y-42959523D01*
X115669047Y-42340476D01*
G04 #@! TO.C,R63*
X116102380Y-49842857D02*
X115626190Y-50176190D01*
X116102380Y-50414285D02*
X115102380Y-50414285D01*
X115102380Y-50033333D01*
X115150000Y-49938095D01*
X115197619Y-49890476D01*
X115292857Y-49842857D01*
X115435714Y-49842857D01*
X115530952Y-49890476D01*
X115578571Y-49938095D01*
X115626190Y-50033333D01*
X115626190Y-50414285D01*
X115102380Y-48985714D02*
X115102380Y-49176190D01*
X115150000Y-49271428D01*
X115197619Y-49319047D01*
X115340476Y-49414285D01*
X115530952Y-49461904D01*
X115911904Y-49461904D01*
X116007142Y-49414285D01*
X116054761Y-49366666D01*
X116102380Y-49271428D01*
X116102380Y-49080952D01*
X116054761Y-48985714D01*
X116007142Y-48938095D01*
X115911904Y-48890476D01*
X115673809Y-48890476D01*
X115578571Y-48938095D01*
X115530952Y-48985714D01*
X115483333Y-49080952D01*
X115483333Y-49271428D01*
X115530952Y-49366666D01*
X115578571Y-49414285D01*
X115673809Y-49461904D01*
X115102380Y-48557142D02*
X115102380Y-47938095D01*
X115483333Y-48271428D01*
X115483333Y-48128571D01*
X115530952Y-48033333D01*
X115578571Y-47985714D01*
X115673809Y-47938095D01*
X115911904Y-47938095D01*
X116007142Y-47985714D01*
X116054761Y-48033333D01*
X116102380Y-48128571D01*
X116102380Y-48414285D01*
X116054761Y-48509523D01*
X116007142Y-48557142D01*
G04 #@! TO.C,R62*
X49202380Y-49867857D02*
X48726190Y-50201190D01*
X49202380Y-50439285D02*
X48202380Y-50439285D01*
X48202380Y-50058333D01*
X48250000Y-49963095D01*
X48297619Y-49915476D01*
X48392857Y-49867857D01*
X48535714Y-49867857D01*
X48630952Y-49915476D01*
X48678571Y-49963095D01*
X48726190Y-50058333D01*
X48726190Y-50439285D01*
X48202380Y-49010714D02*
X48202380Y-49201190D01*
X48250000Y-49296428D01*
X48297619Y-49344047D01*
X48440476Y-49439285D01*
X48630952Y-49486904D01*
X49011904Y-49486904D01*
X49107142Y-49439285D01*
X49154761Y-49391666D01*
X49202380Y-49296428D01*
X49202380Y-49105952D01*
X49154761Y-49010714D01*
X49107142Y-48963095D01*
X49011904Y-48915476D01*
X48773809Y-48915476D01*
X48678571Y-48963095D01*
X48630952Y-49010714D01*
X48583333Y-49105952D01*
X48583333Y-49296428D01*
X48630952Y-49391666D01*
X48678571Y-49439285D01*
X48773809Y-49486904D01*
X48297619Y-48534523D02*
X48250000Y-48486904D01*
X48202380Y-48391666D01*
X48202380Y-48153571D01*
X48250000Y-48058333D01*
X48297619Y-48010714D01*
X48392857Y-47963095D01*
X48488095Y-47963095D01*
X48630952Y-48010714D01*
X49202380Y-48582142D01*
X49202380Y-47963095D01*
G04 #@! TO.C,R61*
X86607142Y-50902380D02*
X86273809Y-50426190D01*
X86035714Y-50902380D02*
X86035714Y-49902380D01*
X86416666Y-49902380D01*
X86511904Y-49950000D01*
X86559523Y-49997619D01*
X86607142Y-50092857D01*
X86607142Y-50235714D01*
X86559523Y-50330952D01*
X86511904Y-50378571D01*
X86416666Y-50426190D01*
X86035714Y-50426190D01*
X87464285Y-49902380D02*
X87273809Y-49902380D01*
X87178571Y-49950000D01*
X87130952Y-49997619D01*
X87035714Y-50140476D01*
X86988095Y-50330952D01*
X86988095Y-50711904D01*
X87035714Y-50807142D01*
X87083333Y-50854761D01*
X87178571Y-50902380D01*
X87369047Y-50902380D01*
X87464285Y-50854761D01*
X87511904Y-50807142D01*
X87559523Y-50711904D01*
X87559523Y-50473809D01*
X87511904Y-50378571D01*
X87464285Y-50330952D01*
X87369047Y-50283333D01*
X87178571Y-50283333D01*
X87083333Y-50330952D01*
X87035714Y-50378571D01*
X86988095Y-50473809D01*
X88511904Y-50902380D02*
X87940476Y-50902380D01*
X88226190Y-50902380D02*
X88226190Y-49902380D01*
X88130952Y-50045238D01*
X88035714Y-50140476D01*
X87940476Y-50188095D01*
G04 #@! TO.C,R60*
X49202380Y-44142857D02*
X48726190Y-44476190D01*
X49202380Y-44714285D02*
X48202380Y-44714285D01*
X48202380Y-44333333D01*
X48250000Y-44238095D01*
X48297619Y-44190476D01*
X48392857Y-44142857D01*
X48535714Y-44142857D01*
X48630952Y-44190476D01*
X48678571Y-44238095D01*
X48726190Y-44333333D01*
X48726190Y-44714285D01*
X48202380Y-43285714D02*
X48202380Y-43476190D01*
X48250000Y-43571428D01*
X48297619Y-43619047D01*
X48440476Y-43714285D01*
X48630952Y-43761904D01*
X49011904Y-43761904D01*
X49107142Y-43714285D01*
X49154761Y-43666666D01*
X49202380Y-43571428D01*
X49202380Y-43380952D01*
X49154761Y-43285714D01*
X49107142Y-43238095D01*
X49011904Y-43190476D01*
X48773809Y-43190476D01*
X48678571Y-43238095D01*
X48630952Y-43285714D01*
X48583333Y-43380952D01*
X48583333Y-43571428D01*
X48630952Y-43666666D01*
X48678571Y-43714285D01*
X48773809Y-43761904D01*
X48202380Y-42571428D02*
X48202380Y-42476190D01*
X48250000Y-42380952D01*
X48297619Y-42333333D01*
X48392857Y-42285714D01*
X48583333Y-42238095D01*
X48821428Y-42238095D01*
X49011904Y-42285714D01*
X49107142Y-42333333D01*
X49154761Y-42380952D01*
X49202380Y-42476190D01*
X49202380Y-42571428D01*
X49154761Y-42666666D01*
X49107142Y-42714285D01*
X49011904Y-42761904D01*
X48821428Y-42809523D01*
X48583333Y-42809523D01*
X48392857Y-42761904D01*
X48297619Y-42714285D01*
X48250000Y-42666666D01*
X48202380Y-42571428D01*
G04 #@! TO.C,R59*
X54107142Y-52202380D02*
X53773809Y-51726190D01*
X53535714Y-52202380D02*
X53535714Y-51202380D01*
X53916666Y-51202380D01*
X54011904Y-51250000D01*
X54059523Y-51297619D01*
X54107142Y-51392857D01*
X54107142Y-51535714D01*
X54059523Y-51630952D01*
X54011904Y-51678571D01*
X53916666Y-51726190D01*
X53535714Y-51726190D01*
X55011904Y-51202380D02*
X54535714Y-51202380D01*
X54488095Y-51678571D01*
X54535714Y-51630952D01*
X54630952Y-51583333D01*
X54869047Y-51583333D01*
X54964285Y-51630952D01*
X55011904Y-51678571D01*
X55059523Y-51773809D01*
X55059523Y-52011904D01*
X55011904Y-52107142D01*
X54964285Y-52154761D01*
X54869047Y-52202380D01*
X54630952Y-52202380D01*
X54535714Y-52154761D01*
X54488095Y-52107142D01*
X55535714Y-52202380D02*
X55726190Y-52202380D01*
X55821428Y-52154761D01*
X55869047Y-52107142D01*
X55964285Y-51964285D01*
X56011904Y-51773809D01*
X56011904Y-51392857D01*
X55964285Y-51297619D01*
X55916666Y-51250000D01*
X55821428Y-51202380D01*
X55630952Y-51202380D01*
X55535714Y-51250000D01*
X55488095Y-51297619D01*
X55440476Y-51392857D01*
X55440476Y-51630952D01*
X55488095Y-51726190D01*
X55535714Y-51773809D01*
X55630952Y-51821428D01*
X55821428Y-51821428D01*
X55916666Y-51773809D01*
X55964285Y-51726190D01*
X56011904Y-51630952D01*
G04 #@! TO.C,R58*
X57907142Y-52202380D02*
X57573809Y-51726190D01*
X57335714Y-52202380D02*
X57335714Y-51202380D01*
X57716666Y-51202380D01*
X57811904Y-51250000D01*
X57859523Y-51297619D01*
X57907142Y-51392857D01*
X57907142Y-51535714D01*
X57859523Y-51630952D01*
X57811904Y-51678571D01*
X57716666Y-51726190D01*
X57335714Y-51726190D01*
X58811904Y-51202380D02*
X58335714Y-51202380D01*
X58288095Y-51678571D01*
X58335714Y-51630952D01*
X58430952Y-51583333D01*
X58669047Y-51583333D01*
X58764285Y-51630952D01*
X58811904Y-51678571D01*
X58859523Y-51773809D01*
X58859523Y-52011904D01*
X58811904Y-52107142D01*
X58764285Y-52154761D01*
X58669047Y-52202380D01*
X58430952Y-52202380D01*
X58335714Y-52154761D01*
X58288095Y-52107142D01*
X59430952Y-51630952D02*
X59335714Y-51583333D01*
X59288095Y-51535714D01*
X59240476Y-51440476D01*
X59240476Y-51392857D01*
X59288095Y-51297619D01*
X59335714Y-51250000D01*
X59430952Y-51202380D01*
X59621428Y-51202380D01*
X59716666Y-51250000D01*
X59764285Y-51297619D01*
X59811904Y-51392857D01*
X59811904Y-51440476D01*
X59764285Y-51535714D01*
X59716666Y-51583333D01*
X59621428Y-51630952D01*
X59430952Y-51630952D01*
X59335714Y-51678571D01*
X59288095Y-51726190D01*
X59240476Y-51821428D01*
X59240476Y-52011904D01*
X59288095Y-52107142D01*
X59335714Y-52154761D01*
X59430952Y-52202380D01*
X59621428Y-52202380D01*
X59716666Y-52154761D01*
X59764285Y-52107142D01*
X59811904Y-52011904D01*
X59811904Y-51821428D01*
X59764285Y-51726190D01*
X59716666Y-51678571D01*
X59621428Y-51630952D01*
G04 #@! TO.C,R57*
X63357142Y-43702380D02*
X63023809Y-43226190D01*
X62785714Y-43702380D02*
X62785714Y-42702380D01*
X63166666Y-42702380D01*
X63261904Y-42750000D01*
X63309523Y-42797619D01*
X63357142Y-42892857D01*
X63357142Y-43035714D01*
X63309523Y-43130952D01*
X63261904Y-43178571D01*
X63166666Y-43226190D01*
X62785714Y-43226190D01*
X64261904Y-42702380D02*
X63785714Y-42702380D01*
X63738095Y-43178571D01*
X63785714Y-43130952D01*
X63880952Y-43083333D01*
X64119047Y-43083333D01*
X64214285Y-43130952D01*
X64261904Y-43178571D01*
X64309523Y-43273809D01*
X64309523Y-43511904D01*
X64261904Y-43607142D01*
X64214285Y-43654761D01*
X64119047Y-43702380D01*
X63880952Y-43702380D01*
X63785714Y-43654761D01*
X63738095Y-43607142D01*
X64642857Y-42702380D02*
X65309523Y-42702380D01*
X64880952Y-43702380D01*
G04 #@! TO.C,R56*
X65102380Y-49792857D02*
X64626190Y-50126190D01*
X65102380Y-50364285D02*
X64102380Y-50364285D01*
X64102380Y-49983333D01*
X64150000Y-49888095D01*
X64197619Y-49840476D01*
X64292857Y-49792857D01*
X64435714Y-49792857D01*
X64530952Y-49840476D01*
X64578571Y-49888095D01*
X64626190Y-49983333D01*
X64626190Y-50364285D01*
X64102380Y-48888095D02*
X64102380Y-49364285D01*
X64578571Y-49411904D01*
X64530952Y-49364285D01*
X64483333Y-49269047D01*
X64483333Y-49030952D01*
X64530952Y-48935714D01*
X64578571Y-48888095D01*
X64673809Y-48840476D01*
X64911904Y-48840476D01*
X65007142Y-48888095D01*
X65054761Y-48935714D01*
X65102380Y-49030952D01*
X65102380Y-49269047D01*
X65054761Y-49364285D01*
X65007142Y-49411904D01*
X64102380Y-47983333D02*
X64102380Y-48173809D01*
X64150000Y-48269047D01*
X64197619Y-48316666D01*
X64340476Y-48411904D01*
X64530952Y-48459523D01*
X64911904Y-48459523D01*
X65007142Y-48411904D01*
X65054761Y-48364285D01*
X65102380Y-48269047D01*
X65102380Y-48078571D01*
X65054761Y-47983333D01*
X65007142Y-47935714D01*
X64911904Y-47888095D01*
X64673809Y-47888095D01*
X64578571Y-47935714D01*
X64530952Y-47983333D01*
X64483333Y-48078571D01*
X64483333Y-48269047D01*
X64530952Y-48364285D01*
X64578571Y-48411904D01*
X64673809Y-48459523D01*
G04 #@! TO.C,R67*
X98957142Y-46802380D02*
X98623809Y-46326190D01*
X98385714Y-46802380D02*
X98385714Y-45802380D01*
X98766666Y-45802380D01*
X98861904Y-45850000D01*
X98909523Y-45897619D01*
X98957142Y-45992857D01*
X98957142Y-46135714D01*
X98909523Y-46230952D01*
X98861904Y-46278571D01*
X98766666Y-46326190D01*
X98385714Y-46326190D01*
X99814285Y-45802380D02*
X99623809Y-45802380D01*
X99528571Y-45850000D01*
X99480952Y-45897619D01*
X99385714Y-46040476D01*
X99338095Y-46230952D01*
X99338095Y-46611904D01*
X99385714Y-46707142D01*
X99433333Y-46754761D01*
X99528571Y-46802380D01*
X99719047Y-46802380D01*
X99814285Y-46754761D01*
X99861904Y-46707142D01*
X99909523Y-46611904D01*
X99909523Y-46373809D01*
X99861904Y-46278571D01*
X99814285Y-46230952D01*
X99719047Y-46183333D01*
X99528571Y-46183333D01*
X99433333Y-46230952D01*
X99385714Y-46278571D01*
X99338095Y-46373809D01*
X100242857Y-45802380D02*
X100909523Y-45802380D01*
X100480952Y-46802380D01*
G04 #@! TO.C,C76*
X68357142Y-52957142D02*
X68309523Y-53004761D01*
X68166666Y-53052380D01*
X68071428Y-53052380D01*
X67928571Y-53004761D01*
X67833333Y-52909523D01*
X67785714Y-52814285D01*
X67738095Y-52623809D01*
X67738095Y-52480952D01*
X67785714Y-52290476D01*
X67833333Y-52195238D01*
X67928571Y-52100000D01*
X68071428Y-52052380D01*
X68166666Y-52052380D01*
X68309523Y-52100000D01*
X68357142Y-52147619D01*
X68690476Y-52052380D02*
X69357142Y-52052380D01*
X68928571Y-53052380D01*
X70166666Y-52052380D02*
X69976190Y-52052380D01*
X69880952Y-52100000D01*
X69833333Y-52147619D01*
X69738095Y-52290476D01*
X69690476Y-52480952D01*
X69690476Y-52861904D01*
X69738095Y-52957142D01*
X69785714Y-53004761D01*
X69880952Y-53052380D01*
X70071428Y-53052380D01*
X70166666Y-53004761D01*
X70214285Y-52957142D01*
X70261904Y-52861904D01*
X70261904Y-52623809D01*
X70214285Y-52528571D01*
X70166666Y-52480952D01*
X70071428Y-52433333D01*
X69880952Y-52433333D01*
X69785714Y-52480952D01*
X69738095Y-52528571D01*
X69690476Y-52623809D01*
G04 #@! TO.C,C77*
X115507142Y-54457142D02*
X115459523Y-54504761D01*
X115316666Y-54552380D01*
X115221428Y-54552380D01*
X115078571Y-54504761D01*
X114983333Y-54409523D01*
X114935714Y-54314285D01*
X114888095Y-54123809D01*
X114888095Y-53980952D01*
X114935714Y-53790476D01*
X114983333Y-53695238D01*
X115078571Y-53600000D01*
X115221428Y-53552380D01*
X115316666Y-53552380D01*
X115459523Y-53600000D01*
X115507142Y-53647619D01*
X115840476Y-53552380D02*
X116507142Y-53552380D01*
X116078571Y-54552380D01*
X116792857Y-53552380D02*
X117459523Y-53552380D01*
X117030952Y-54552380D01*
G04 #@! TO.C,U26*
X74791904Y-93752380D02*
X74791904Y-94561904D01*
X74839523Y-94657142D01*
X74887142Y-94704761D01*
X74982380Y-94752380D01*
X75172857Y-94752380D01*
X75268095Y-94704761D01*
X75315714Y-94657142D01*
X75363333Y-94561904D01*
X75363333Y-93752380D01*
X75791904Y-93847619D02*
X75839523Y-93800000D01*
X75934761Y-93752380D01*
X76172857Y-93752380D01*
X76268095Y-93800000D01*
X76315714Y-93847619D01*
X76363333Y-93942857D01*
X76363333Y-94038095D01*
X76315714Y-94180952D01*
X75744285Y-94752380D01*
X76363333Y-94752380D01*
X77220476Y-93752380D02*
X77030000Y-93752380D01*
X76934761Y-93800000D01*
X76887142Y-93847619D01*
X76791904Y-93990476D01*
X76744285Y-94180952D01*
X76744285Y-94561904D01*
X76791904Y-94657142D01*
X76839523Y-94704761D01*
X76934761Y-94752380D01*
X77125238Y-94752380D01*
X77220476Y-94704761D01*
X77268095Y-94657142D01*
X77315714Y-94561904D01*
X77315714Y-94323809D01*
X77268095Y-94228571D01*
X77220476Y-94180952D01*
X77125238Y-94133333D01*
X76934761Y-94133333D01*
X76839523Y-94180952D01*
X76791904Y-94228571D01*
X76744285Y-94323809D01*
G04 #@! TO.C,U27*
X66861904Y-93602380D02*
X66861904Y-94411904D01*
X66909523Y-94507142D01*
X66957142Y-94554761D01*
X67052380Y-94602380D01*
X67242857Y-94602380D01*
X67338095Y-94554761D01*
X67385714Y-94507142D01*
X67433333Y-94411904D01*
X67433333Y-93602380D01*
X67861904Y-93697619D02*
X67909523Y-93650000D01*
X68004761Y-93602380D01*
X68242857Y-93602380D01*
X68338095Y-93650000D01*
X68385714Y-93697619D01*
X68433333Y-93792857D01*
X68433333Y-93888095D01*
X68385714Y-94030952D01*
X67814285Y-94602380D01*
X68433333Y-94602380D01*
X68766666Y-93602380D02*
X69433333Y-93602380D01*
X69004761Y-94602380D01*
G04 #@! TO.C,U25*
X55602380Y-105088095D02*
X56411904Y-105088095D01*
X56507142Y-105040476D01*
X56554761Y-104992857D01*
X56602380Y-104897619D01*
X56602380Y-104707142D01*
X56554761Y-104611904D01*
X56507142Y-104564285D01*
X56411904Y-104516666D01*
X55602380Y-104516666D01*
X55697619Y-104088095D02*
X55650000Y-104040476D01*
X55602380Y-103945238D01*
X55602380Y-103707142D01*
X55650000Y-103611904D01*
X55697619Y-103564285D01*
X55792857Y-103516666D01*
X55888095Y-103516666D01*
X56030952Y-103564285D01*
X56602380Y-104135714D01*
X56602380Y-103516666D01*
X55602380Y-102611904D02*
X55602380Y-103088095D01*
X56078571Y-103135714D01*
X56030952Y-103088095D01*
X55983333Y-102992857D01*
X55983333Y-102754761D01*
X56030952Y-102659523D01*
X56078571Y-102611904D01*
X56173809Y-102564285D01*
X56411904Y-102564285D01*
X56507142Y-102611904D01*
X56554761Y-102659523D01*
X56602380Y-102754761D01*
X56602380Y-102992857D01*
X56554761Y-103088095D01*
X56507142Y-103135714D01*
G04 #@! TO.C,C71*
X139257142Y-87692857D02*
X139304761Y-87740476D01*
X139352380Y-87883333D01*
X139352380Y-87978571D01*
X139304761Y-88121428D01*
X139209523Y-88216666D01*
X139114285Y-88264285D01*
X138923809Y-88311904D01*
X138780952Y-88311904D01*
X138590476Y-88264285D01*
X138495238Y-88216666D01*
X138400000Y-88121428D01*
X138352380Y-87978571D01*
X138352380Y-87883333D01*
X138400000Y-87740476D01*
X138447619Y-87692857D01*
X138352380Y-87359523D02*
X138352380Y-86692857D01*
X139352380Y-87121428D01*
X139352380Y-85788095D02*
X139352380Y-86359523D01*
X139352380Y-86073809D02*
X138352380Y-86073809D01*
X138495238Y-86169047D01*
X138590476Y-86264285D01*
X138638095Y-86359523D01*
G04 #@! TO.C,Y1*
X76023809Y-76326190D02*
X76023809Y-76802380D01*
X75690476Y-75802380D02*
X76023809Y-76326190D01*
X76357142Y-75802380D01*
X77214285Y-76802380D02*
X76642857Y-76802380D01*
X76928571Y-76802380D02*
X76928571Y-75802380D01*
X76833333Y-75945238D01*
X76738095Y-76040476D01*
X76642857Y-76088095D01*
G04 #@! TO.C,C62*
X80307142Y-82817857D02*
X80354761Y-82865476D01*
X80402380Y-83008333D01*
X80402380Y-83103571D01*
X80354761Y-83246428D01*
X80259523Y-83341666D01*
X80164285Y-83389285D01*
X79973809Y-83436904D01*
X79830952Y-83436904D01*
X79640476Y-83389285D01*
X79545238Y-83341666D01*
X79450000Y-83246428D01*
X79402380Y-83103571D01*
X79402380Y-83008333D01*
X79450000Y-82865476D01*
X79497619Y-82817857D01*
X79402380Y-81960714D02*
X79402380Y-82151190D01*
X79450000Y-82246428D01*
X79497619Y-82294047D01*
X79640476Y-82389285D01*
X79830952Y-82436904D01*
X80211904Y-82436904D01*
X80307142Y-82389285D01*
X80354761Y-82341666D01*
X80402380Y-82246428D01*
X80402380Y-82055952D01*
X80354761Y-81960714D01*
X80307142Y-81913095D01*
X80211904Y-81865476D01*
X79973809Y-81865476D01*
X79878571Y-81913095D01*
X79830952Y-81960714D01*
X79783333Y-82055952D01*
X79783333Y-82246428D01*
X79830952Y-82341666D01*
X79878571Y-82389285D01*
X79973809Y-82436904D01*
X79497619Y-81484523D02*
X79450000Y-81436904D01*
X79402380Y-81341666D01*
X79402380Y-81103571D01*
X79450000Y-81008333D01*
X79497619Y-80960714D01*
X79592857Y-80913095D01*
X79688095Y-80913095D01*
X79830952Y-80960714D01*
X80402380Y-81532142D01*
X80402380Y-80913095D01*
G04 #@! TO.C,U23*
X56861904Y-97952380D02*
X56861904Y-98761904D01*
X56909523Y-98857142D01*
X56957142Y-98904761D01*
X57052380Y-98952380D01*
X57242857Y-98952380D01*
X57338095Y-98904761D01*
X57385714Y-98857142D01*
X57433333Y-98761904D01*
X57433333Y-97952380D01*
X57861904Y-98047619D02*
X57909523Y-98000000D01*
X58004761Y-97952380D01*
X58242857Y-97952380D01*
X58338095Y-98000000D01*
X58385714Y-98047619D01*
X58433333Y-98142857D01*
X58433333Y-98238095D01*
X58385714Y-98380952D01*
X57814285Y-98952380D01*
X58433333Y-98952380D01*
X58766666Y-97952380D02*
X59385714Y-97952380D01*
X59052380Y-98333333D01*
X59195238Y-98333333D01*
X59290476Y-98380952D01*
X59338095Y-98428571D01*
X59385714Y-98523809D01*
X59385714Y-98761904D01*
X59338095Y-98857142D01*
X59290476Y-98904761D01*
X59195238Y-98952380D01*
X58909523Y-98952380D01*
X58814285Y-98904761D01*
X58766666Y-98857142D01*
G04 #@! TO.C,U24*
X46261904Y-90652380D02*
X46261904Y-91461904D01*
X46309523Y-91557142D01*
X46357142Y-91604761D01*
X46452380Y-91652380D01*
X46642857Y-91652380D01*
X46738095Y-91604761D01*
X46785714Y-91557142D01*
X46833333Y-91461904D01*
X46833333Y-90652380D01*
X47261904Y-90747619D02*
X47309523Y-90700000D01*
X47404761Y-90652380D01*
X47642857Y-90652380D01*
X47738095Y-90700000D01*
X47785714Y-90747619D01*
X47833333Y-90842857D01*
X47833333Y-90938095D01*
X47785714Y-91080952D01*
X47214285Y-91652380D01*
X47833333Y-91652380D01*
X48690476Y-90985714D02*
X48690476Y-91652380D01*
X48452380Y-90604761D02*
X48214285Y-91319047D01*
X48833333Y-91319047D01*
G04 #@! TO.C,U14*
X65061904Y-87852380D02*
X65061904Y-88661904D01*
X65109523Y-88757142D01*
X65157142Y-88804761D01*
X65252380Y-88852380D01*
X65442857Y-88852380D01*
X65538095Y-88804761D01*
X65585714Y-88757142D01*
X65633333Y-88661904D01*
X65633333Y-87852380D01*
X66633333Y-88852380D02*
X66061904Y-88852380D01*
X66347619Y-88852380D02*
X66347619Y-87852380D01*
X66252380Y-87995238D01*
X66157142Y-88090476D01*
X66061904Y-88138095D01*
X67490476Y-88185714D02*
X67490476Y-88852380D01*
X67252380Y-87804761D02*
X67014285Y-88519047D01*
X67633333Y-88519047D01*
G04 #@! TO.C,C58*
X88407142Y-107007142D02*
X88359523Y-107054761D01*
X88216666Y-107102380D01*
X88121428Y-107102380D01*
X87978571Y-107054761D01*
X87883333Y-106959523D01*
X87835714Y-106864285D01*
X87788095Y-106673809D01*
X87788095Y-106530952D01*
X87835714Y-106340476D01*
X87883333Y-106245238D01*
X87978571Y-106150000D01*
X88121428Y-106102380D01*
X88216666Y-106102380D01*
X88359523Y-106150000D01*
X88407142Y-106197619D01*
X89311904Y-106102380D02*
X88835714Y-106102380D01*
X88788095Y-106578571D01*
X88835714Y-106530952D01*
X88930952Y-106483333D01*
X89169047Y-106483333D01*
X89264285Y-106530952D01*
X89311904Y-106578571D01*
X89359523Y-106673809D01*
X89359523Y-106911904D01*
X89311904Y-107007142D01*
X89264285Y-107054761D01*
X89169047Y-107102380D01*
X88930952Y-107102380D01*
X88835714Y-107054761D01*
X88788095Y-107007142D01*
X89930952Y-106530952D02*
X89835714Y-106483333D01*
X89788095Y-106435714D01*
X89740476Y-106340476D01*
X89740476Y-106292857D01*
X89788095Y-106197619D01*
X89835714Y-106150000D01*
X89930952Y-106102380D01*
X90121428Y-106102380D01*
X90216666Y-106150000D01*
X90264285Y-106197619D01*
X90311904Y-106292857D01*
X90311904Y-106340476D01*
X90264285Y-106435714D01*
X90216666Y-106483333D01*
X90121428Y-106530952D01*
X89930952Y-106530952D01*
X89835714Y-106578571D01*
X89788095Y-106626190D01*
X89740476Y-106721428D01*
X89740476Y-106911904D01*
X89788095Y-107007142D01*
X89835714Y-107054761D01*
X89930952Y-107102380D01*
X90121428Y-107102380D01*
X90216666Y-107054761D01*
X90264285Y-107007142D01*
X90311904Y-106911904D01*
X90311904Y-106721428D01*
X90264285Y-106626190D01*
X90216666Y-106578571D01*
X90121428Y-106530952D01*
G04 #@! TO.C,U22*
X87711904Y-87152380D02*
X87711904Y-87961904D01*
X87759523Y-88057142D01*
X87807142Y-88104761D01*
X87902380Y-88152380D01*
X88092857Y-88152380D01*
X88188095Y-88104761D01*
X88235714Y-88057142D01*
X88283333Y-87961904D01*
X88283333Y-87152380D01*
X88711904Y-87247619D02*
X88759523Y-87200000D01*
X88854761Y-87152380D01*
X89092857Y-87152380D01*
X89188095Y-87200000D01*
X89235714Y-87247619D01*
X89283333Y-87342857D01*
X89283333Y-87438095D01*
X89235714Y-87580952D01*
X88664285Y-88152380D01*
X89283333Y-88152380D01*
X89664285Y-87247619D02*
X89711904Y-87200000D01*
X89807142Y-87152380D01*
X90045238Y-87152380D01*
X90140476Y-87200000D01*
X90188095Y-87247619D01*
X90235714Y-87342857D01*
X90235714Y-87438095D01*
X90188095Y-87580952D01*
X89616666Y-88152380D01*
X90235714Y-88152380D01*
G04 #@! TO.C,U21*
X85211904Y-78852380D02*
X85211904Y-79661904D01*
X85259523Y-79757142D01*
X85307142Y-79804761D01*
X85402380Y-79852380D01*
X85592857Y-79852380D01*
X85688095Y-79804761D01*
X85735714Y-79757142D01*
X85783333Y-79661904D01*
X85783333Y-78852380D01*
X86211904Y-78947619D02*
X86259523Y-78900000D01*
X86354761Y-78852380D01*
X86592857Y-78852380D01*
X86688095Y-78900000D01*
X86735714Y-78947619D01*
X86783333Y-79042857D01*
X86783333Y-79138095D01*
X86735714Y-79280952D01*
X86164285Y-79852380D01*
X86783333Y-79852380D01*
X87735714Y-79852380D02*
X87164285Y-79852380D01*
X87450000Y-79852380D02*
X87450000Y-78852380D01*
X87354761Y-78995238D01*
X87259523Y-79090476D01*
X87164285Y-79138095D01*
G04 #@! TO.C,U17*
X124052380Y-123238095D02*
X124861904Y-123238095D01*
X124957142Y-123190476D01*
X125004761Y-123142857D01*
X125052380Y-123047619D01*
X125052380Y-122857142D01*
X125004761Y-122761904D01*
X124957142Y-122714285D01*
X124861904Y-122666666D01*
X124052380Y-122666666D01*
X125052380Y-121666666D02*
X125052380Y-122238095D01*
X125052380Y-121952380D02*
X124052380Y-121952380D01*
X124195238Y-122047619D01*
X124290476Y-122142857D01*
X124338095Y-122238095D01*
X124052380Y-121333333D02*
X124052380Y-120666666D01*
X125052380Y-121095238D01*
G04 #@! TO.C,U18*
X99052380Y-123238095D02*
X99861904Y-123238095D01*
X99957142Y-123190476D01*
X100004761Y-123142857D01*
X100052380Y-123047619D01*
X100052380Y-122857142D01*
X100004761Y-122761904D01*
X99957142Y-122714285D01*
X99861904Y-122666666D01*
X99052380Y-122666666D01*
X100052380Y-121666666D02*
X100052380Y-122238095D01*
X100052380Y-121952380D02*
X99052380Y-121952380D01*
X99195238Y-122047619D01*
X99290476Y-122142857D01*
X99338095Y-122238095D01*
X99480952Y-121095238D02*
X99433333Y-121190476D01*
X99385714Y-121238095D01*
X99290476Y-121285714D01*
X99242857Y-121285714D01*
X99147619Y-121238095D01*
X99100000Y-121190476D01*
X99052380Y-121095238D01*
X99052380Y-120904761D01*
X99100000Y-120809523D01*
X99147619Y-120761904D01*
X99242857Y-120714285D01*
X99290476Y-120714285D01*
X99385714Y-120761904D01*
X99433333Y-120809523D01*
X99480952Y-120904761D01*
X99480952Y-121095238D01*
X99528571Y-121190476D01*
X99576190Y-121238095D01*
X99671428Y-121285714D01*
X99861904Y-121285714D01*
X99957142Y-121238095D01*
X100004761Y-121190476D01*
X100052380Y-121095238D01*
X100052380Y-120904761D01*
X100004761Y-120809523D01*
X99957142Y-120761904D01*
X99861904Y-120714285D01*
X99671428Y-120714285D01*
X99576190Y-120761904D01*
X99528571Y-120809523D01*
X99480952Y-120904761D01*
G04 #@! TO.C,U19*
X48052380Y-123197975D02*
X48861904Y-123197975D01*
X48957142Y-123150356D01*
X49004761Y-123102737D01*
X49052380Y-123007499D01*
X49052380Y-122817022D01*
X49004761Y-122721784D01*
X48957142Y-122674165D01*
X48861904Y-122626546D01*
X48052380Y-122626546D01*
X49052380Y-121626546D02*
X49052380Y-122197975D01*
X49052380Y-121912260D02*
X48052380Y-121912260D01*
X48195238Y-122007499D01*
X48290476Y-122102737D01*
X48338095Y-122197975D01*
X49052380Y-121150356D02*
X49052380Y-120959880D01*
X49004761Y-120864641D01*
X48957142Y-120817022D01*
X48814285Y-120721784D01*
X48623809Y-120674165D01*
X48242857Y-120674165D01*
X48147619Y-120721784D01*
X48100000Y-120769403D01*
X48052380Y-120864641D01*
X48052380Y-121055118D01*
X48100000Y-121150356D01*
X48147619Y-121197975D01*
X48242857Y-121245594D01*
X48480952Y-121245594D01*
X48576190Y-121197975D01*
X48623809Y-121150356D01*
X48671428Y-121055118D01*
X48671428Y-120864641D01*
X48623809Y-120769403D01*
X48576190Y-120721784D01*
X48480952Y-120674165D01*
G04 #@! TO.C,U20*
X73552380Y-123238095D02*
X74361904Y-123238095D01*
X74457142Y-123190476D01*
X74504761Y-123142857D01*
X74552380Y-123047619D01*
X74552380Y-122857142D01*
X74504761Y-122761904D01*
X74457142Y-122714285D01*
X74361904Y-122666666D01*
X73552380Y-122666666D01*
X73647619Y-122238095D02*
X73600000Y-122190476D01*
X73552380Y-122095238D01*
X73552380Y-121857142D01*
X73600000Y-121761904D01*
X73647619Y-121714285D01*
X73742857Y-121666666D01*
X73838095Y-121666666D01*
X73980952Y-121714285D01*
X74552380Y-122285714D01*
X74552380Y-121666666D01*
X73552380Y-121047619D02*
X73552380Y-120952380D01*
X73600000Y-120857142D01*
X73647619Y-120809523D01*
X73742857Y-120761904D01*
X73933333Y-120714285D01*
X74171428Y-120714285D01*
X74361904Y-120761904D01*
X74457142Y-120809523D01*
X74504761Y-120857142D01*
X74552380Y-120952380D01*
X74552380Y-121047619D01*
X74504761Y-121142857D01*
X74457142Y-121190476D01*
X74361904Y-121238095D01*
X74171428Y-121285714D01*
X73933333Y-121285714D01*
X73742857Y-121238095D01*
X73647619Y-121190476D01*
X73600000Y-121142857D01*
X73552380Y-121047619D01*
G04 #@! TO.C,U16*
X130052380Y-58238095D02*
X130861904Y-58238095D01*
X130957142Y-58190476D01*
X131004761Y-58142857D01*
X131052380Y-58047619D01*
X131052380Y-57857142D01*
X131004761Y-57761904D01*
X130957142Y-57714285D01*
X130861904Y-57666666D01*
X130052380Y-57666666D01*
X131052380Y-56666666D02*
X131052380Y-57238095D01*
X131052380Y-56952380D02*
X130052380Y-56952380D01*
X130195238Y-57047619D01*
X130290476Y-57142857D01*
X130338095Y-57238095D01*
X130052380Y-55809523D02*
X130052380Y-56000000D01*
X130100000Y-56095238D01*
X130147619Y-56142857D01*
X130290476Y-56238095D01*
X130480952Y-56285714D01*
X130861904Y-56285714D01*
X130957142Y-56238095D01*
X131004761Y-56190476D01*
X131052380Y-56095238D01*
X131052380Y-55904761D01*
X131004761Y-55809523D01*
X130957142Y-55761904D01*
X130861904Y-55714285D01*
X130623809Y-55714285D01*
X130528571Y-55761904D01*
X130480952Y-55809523D01*
X130433333Y-55904761D01*
X130433333Y-56095238D01*
X130480952Y-56190476D01*
X130528571Y-56238095D01*
X130623809Y-56285714D01*
G04 #@! TO.C,U15*
X79552380Y-58238095D02*
X80361904Y-58238095D01*
X80457142Y-58190476D01*
X80504761Y-58142857D01*
X80552380Y-58047619D01*
X80552380Y-57857142D01*
X80504761Y-57761904D01*
X80457142Y-57714285D01*
X80361904Y-57666666D01*
X79552380Y-57666666D01*
X80552380Y-56666666D02*
X80552380Y-57238095D01*
X80552380Y-56952380D02*
X79552380Y-56952380D01*
X79695238Y-57047619D01*
X79790476Y-57142857D01*
X79838095Y-57238095D01*
X79552380Y-55761904D02*
X79552380Y-56238095D01*
X80028571Y-56285714D01*
X79980952Y-56238095D01*
X79933333Y-56142857D01*
X79933333Y-55904761D01*
X79980952Y-55809523D01*
X80028571Y-55761904D01*
X80123809Y-55714285D01*
X80361904Y-55714285D01*
X80457142Y-55761904D01*
X80504761Y-55809523D01*
X80552380Y-55904761D01*
X80552380Y-56142857D01*
X80504761Y-56238095D01*
X80457142Y-56285714D01*
G04 #@! TO.C,J1*
X124262380Y-77183333D02*
X124976666Y-77183333D01*
X125119523Y-77230952D01*
X125214761Y-77326190D01*
X125262380Y-77469047D01*
X125262380Y-77564285D01*
X125262380Y-76183333D02*
X125262380Y-76754761D01*
X125262380Y-76469047D02*
X124262380Y-76469047D01*
X124405238Y-76564285D01*
X124500476Y-76659523D01*
X124548095Y-76754761D01*
G04 #@! TO.C,U12*
X94261904Y-99952380D02*
X94261904Y-100761904D01*
X94309523Y-100857142D01*
X94357142Y-100904761D01*
X94452380Y-100952380D01*
X94642857Y-100952380D01*
X94738095Y-100904761D01*
X94785714Y-100857142D01*
X94833333Y-100761904D01*
X94833333Y-99952380D01*
X95833333Y-100952380D02*
X95261904Y-100952380D01*
X95547619Y-100952380D02*
X95547619Y-99952380D01*
X95452380Y-100095238D01*
X95357142Y-100190476D01*
X95261904Y-100238095D01*
X96214285Y-100047619D02*
X96261904Y-100000000D01*
X96357142Y-99952380D01*
X96595238Y-99952380D01*
X96690476Y-100000000D01*
X96738095Y-100047619D01*
X96785714Y-100142857D01*
X96785714Y-100238095D01*
X96738095Y-100380952D01*
X96166666Y-100952380D01*
X96785714Y-100952380D01*
G04 #@! TO.C,U7*
X96938095Y-71052380D02*
X96938095Y-71861904D01*
X96985714Y-71957142D01*
X97033333Y-72004761D01*
X97128571Y-72052380D01*
X97319047Y-72052380D01*
X97414285Y-72004761D01*
X97461904Y-71957142D01*
X97509523Y-71861904D01*
X97509523Y-71052380D01*
X97890476Y-71052380D02*
X98557142Y-71052380D01*
X98128571Y-72052380D01*
G04 #@! TO.C,U13*
X81211904Y-99952380D02*
X81211904Y-100761904D01*
X81259523Y-100857142D01*
X81307142Y-100904761D01*
X81402380Y-100952380D01*
X81592857Y-100952380D01*
X81688095Y-100904761D01*
X81735714Y-100857142D01*
X81783333Y-100761904D01*
X81783333Y-99952380D01*
X82783333Y-100952380D02*
X82211904Y-100952380D01*
X82497619Y-100952380D02*
X82497619Y-99952380D01*
X82402380Y-100095238D01*
X82307142Y-100190476D01*
X82211904Y-100238095D01*
X83116666Y-99952380D02*
X83735714Y-99952380D01*
X83402380Y-100333333D01*
X83545238Y-100333333D01*
X83640476Y-100380952D01*
X83688095Y-100428571D01*
X83735714Y-100523809D01*
X83735714Y-100761904D01*
X83688095Y-100857142D01*
X83640476Y-100904761D01*
X83545238Y-100952380D01*
X83259523Y-100952380D01*
X83164285Y-100904761D01*
X83116666Y-100857142D01*
G04 #@! TO.C,U8*
X104988095Y-99952380D02*
X104988095Y-100761904D01*
X105035714Y-100857142D01*
X105083333Y-100904761D01*
X105178571Y-100952380D01*
X105369047Y-100952380D01*
X105464285Y-100904761D01*
X105511904Y-100857142D01*
X105559523Y-100761904D01*
X105559523Y-99952380D01*
X106178571Y-100380952D02*
X106083333Y-100333333D01*
X106035714Y-100285714D01*
X105988095Y-100190476D01*
X105988095Y-100142857D01*
X106035714Y-100047619D01*
X106083333Y-100000000D01*
X106178571Y-99952380D01*
X106369047Y-99952380D01*
X106464285Y-100000000D01*
X106511904Y-100047619D01*
X106559523Y-100142857D01*
X106559523Y-100190476D01*
X106511904Y-100285714D01*
X106464285Y-100333333D01*
X106369047Y-100380952D01*
X106178571Y-100380952D01*
X106083333Y-100428571D01*
X106035714Y-100476190D01*
X105988095Y-100571428D01*
X105988095Y-100761904D01*
X106035714Y-100857142D01*
X106083333Y-100904761D01*
X106178571Y-100952380D01*
X106369047Y-100952380D01*
X106464285Y-100904761D01*
X106511904Y-100857142D01*
X106559523Y-100761904D01*
X106559523Y-100571428D01*
X106511904Y-100476190D01*
X106464285Y-100428571D01*
X106369047Y-100380952D01*
G04 #@! TO.C,U9*
X115252380Y-88811904D02*
X116061904Y-88811904D01*
X116157142Y-88764285D01*
X116204761Y-88716666D01*
X116252380Y-88621428D01*
X116252380Y-88430952D01*
X116204761Y-88335714D01*
X116157142Y-88288095D01*
X116061904Y-88240476D01*
X115252380Y-88240476D01*
X116252380Y-87716666D02*
X116252380Y-87526190D01*
X116204761Y-87430952D01*
X116157142Y-87383333D01*
X116014285Y-87288095D01*
X115823809Y-87240476D01*
X115442857Y-87240476D01*
X115347619Y-87288095D01*
X115300000Y-87335714D01*
X115252380Y-87430952D01*
X115252380Y-87621428D01*
X115300000Y-87716666D01*
X115347619Y-87764285D01*
X115442857Y-87811904D01*
X115680952Y-87811904D01*
X115776190Y-87764285D01*
X115823809Y-87716666D01*
X115871428Y-87621428D01*
X115871428Y-87430952D01*
X115823809Y-87335714D01*
X115776190Y-87288095D01*
X115680952Y-87240476D01*
D10*
X114561904Y-78702380D02*
X114561904Y-79159523D01*
X114561904Y-78930952D02*
X113761904Y-78930952D01*
X113876190Y-79007142D01*
X113952380Y-79083333D01*
X113990476Y-79159523D01*
X113761904Y-78016666D02*
X113761904Y-78169047D01*
X113800000Y-78245238D01*
X113838095Y-78283333D01*
X113952380Y-78359523D01*
X114104761Y-78397619D01*
X114409523Y-78397619D01*
X114485714Y-78359523D01*
X114523809Y-78321428D01*
X114561904Y-78245238D01*
X114561904Y-78092857D01*
X114523809Y-78016666D01*
X114485714Y-77978571D01*
X114409523Y-77940476D01*
X114219047Y-77940476D01*
X114142857Y-77978571D01*
X114104761Y-78016666D01*
X114066666Y-78092857D01*
X114066666Y-78245238D01*
X114104761Y-78321428D01*
X114142857Y-78359523D01*
X114219047Y-78397619D01*
X113561904Y-78702380D02*
X113561904Y-79159523D01*
X113561904Y-78930952D02*
X112761904Y-78930952D01*
X112876190Y-79007142D01*
X112952380Y-79083333D01*
X112990476Y-79159523D01*
X112761904Y-77978571D02*
X112761904Y-78359523D01*
X113142857Y-78397619D01*
X113104761Y-78359523D01*
X113066666Y-78283333D01*
X113066666Y-78092857D01*
X113104761Y-78016666D01*
X113142857Y-77978571D01*
X113219047Y-77940476D01*
X113409523Y-77940476D01*
X113485714Y-77978571D01*
X113523809Y-78016666D01*
X113561904Y-78092857D01*
X113561904Y-78283333D01*
X113523809Y-78359523D01*
X113485714Y-78397619D01*
X112561904Y-78702380D02*
X112561904Y-79159523D01*
X112561904Y-78930952D02*
X111761904Y-78930952D01*
X111876190Y-79007142D01*
X111952380Y-79083333D01*
X111990476Y-79159523D01*
X112028571Y-78016666D02*
X112561904Y-78016666D01*
X111723809Y-78207142D02*
X112295238Y-78397619D01*
X112295238Y-77902380D01*
X111561904Y-78702380D02*
X111561904Y-79159523D01*
X111561904Y-78930952D02*
X110761904Y-78930952D01*
X110876190Y-79007142D01*
X110952380Y-79083333D01*
X110990476Y-79159523D01*
X110761904Y-78435714D02*
X110761904Y-77940476D01*
X111066666Y-78207142D01*
X111066666Y-78092857D01*
X111104761Y-78016666D01*
X111142857Y-77978571D01*
X111219047Y-77940476D01*
X111409523Y-77940476D01*
X111485714Y-77978571D01*
X111523809Y-78016666D01*
X111561904Y-78092857D01*
X111561904Y-78321428D01*
X111523809Y-78397619D01*
X111485714Y-78435714D01*
X110561904Y-78702380D02*
X110561904Y-79159523D01*
X110561904Y-78930952D02*
X109761904Y-78930952D01*
X109876190Y-79007142D01*
X109952380Y-79083333D01*
X109990476Y-79159523D01*
X109838095Y-78397619D02*
X109800000Y-78359523D01*
X109761904Y-78283333D01*
X109761904Y-78092857D01*
X109800000Y-78016666D01*
X109838095Y-77978571D01*
X109914285Y-77940476D01*
X109990476Y-77940476D01*
X110104761Y-77978571D01*
X110561904Y-78435714D01*
X110561904Y-77940476D01*
X109561904Y-78702380D02*
X109561904Y-79159523D01*
X109561904Y-78930952D02*
X108761904Y-78930952D01*
X108876190Y-79007142D01*
X108952380Y-79083333D01*
X108990476Y-79159523D01*
X109561904Y-77940476D02*
X109561904Y-78397619D01*
X109561904Y-78169047D02*
X108761904Y-78169047D01*
X108876190Y-78245238D01*
X108952380Y-78321428D01*
X108990476Y-78397619D01*
X108561904Y-78702380D02*
X108561904Y-79159523D01*
X108561904Y-78930952D02*
X107761904Y-78930952D01*
X107876190Y-79007142D01*
X107952380Y-79083333D01*
X107990476Y-79159523D01*
X107761904Y-78207142D02*
X107761904Y-78130952D01*
X107800000Y-78054761D01*
X107838095Y-78016666D01*
X107914285Y-77978571D01*
X108066666Y-77940476D01*
X108257142Y-77940476D01*
X108409523Y-77978571D01*
X108485714Y-78016666D01*
X108523809Y-78054761D01*
X108561904Y-78130952D01*
X108561904Y-78207142D01*
X108523809Y-78283333D01*
X108485714Y-78321428D01*
X108409523Y-78359523D01*
X108257142Y-78397619D01*
X108066666Y-78397619D01*
X107914285Y-78359523D01*
X107838095Y-78321428D01*
X107800000Y-78283333D01*
X107761904Y-78207142D01*
X107561904Y-79202380D02*
X107561904Y-79050000D01*
X107523809Y-78973809D01*
X107485714Y-78935714D01*
X107371428Y-78859523D01*
X107219047Y-78821428D01*
X106914285Y-78821428D01*
X106838095Y-78859523D01*
X106800000Y-78897619D01*
X106761904Y-78973809D01*
X106761904Y-79126190D01*
X106800000Y-79202380D01*
X106838095Y-79240476D01*
X106914285Y-79278571D01*
X107104761Y-79278571D01*
X107180952Y-79240476D01*
X107219047Y-79202380D01*
X107257142Y-79126190D01*
X107257142Y-78973809D01*
X107219047Y-78897619D01*
X107180952Y-78859523D01*
X107104761Y-78821428D01*
X106104761Y-79126190D02*
X106066666Y-79202380D01*
X106028571Y-79240476D01*
X105952380Y-79278571D01*
X105914285Y-79278571D01*
X105838095Y-79240476D01*
X105800000Y-79202380D01*
X105761904Y-79126190D01*
X105761904Y-78973809D01*
X105800000Y-78897619D01*
X105838095Y-78859523D01*
X105914285Y-78821428D01*
X105952380Y-78821428D01*
X106028571Y-78859523D01*
X106066666Y-78897619D01*
X106104761Y-78973809D01*
X106104761Y-79126190D01*
X106142857Y-79202380D01*
X106180952Y-79240476D01*
X106257142Y-79278571D01*
X106409523Y-79278571D01*
X106485714Y-79240476D01*
X106523809Y-79202380D01*
X106561904Y-79126190D01*
X106561904Y-78973809D01*
X106523809Y-78897619D01*
X106485714Y-78859523D01*
X106409523Y-78821428D01*
X106257142Y-78821428D01*
X106180952Y-78859523D01*
X106142857Y-78897619D01*
X106104761Y-78973809D01*
X104761904Y-79316666D02*
X104761904Y-78783333D01*
X105561904Y-79126190D01*
X103761904Y-78897619D02*
X103761904Y-79050000D01*
X103800000Y-79126190D01*
X103838095Y-79164285D01*
X103952380Y-79240476D01*
X104104761Y-79278571D01*
X104409523Y-79278571D01*
X104485714Y-79240476D01*
X104523809Y-79202380D01*
X104561904Y-79126190D01*
X104561904Y-78973809D01*
X104523809Y-78897619D01*
X104485714Y-78859523D01*
X104409523Y-78821428D01*
X104219047Y-78821428D01*
X104142857Y-78859523D01*
X104104761Y-78897619D01*
X104066666Y-78973809D01*
X104066666Y-79126190D01*
X104104761Y-79202380D01*
X104142857Y-79240476D01*
X104219047Y-79278571D01*
X102761904Y-78859523D02*
X102761904Y-79240476D01*
X103142857Y-79278571D01*
X103104761Y-79240476D01*
X103066666Y-79164285D01*
X103066666Y-78973809D01*
X103104761Y-78897619D01*
X103142857Y-78859523D01*
X103219047Y-78821428D01*
X103409523Y-78821428D01*
X103485714Y-78859523D01*
X103523809Y-78897619D01*
X103561904Y-78973809D01*
X103561904Y-79164285D01*
X103523809Y-79240476D01*
X103485714Y-79278571D01*
X102028571Y-78897619D02*
X102561904Y-78897619D01*
X101723809Y-79088095D02*
X102295238Y-79278571D01*
X102295238Y-78783333D01*
X100761904Y-79316666D02*
X100761904Y-78821428D01*
X101066666Y-79088095D01*
X101066666Y-78973809D01*
X101104761Y-78897619D01*
X101142857Y-78859523D01*
X101219047Y-78821428D01*
X101409523Y-78821428D01*
X101485714Y-78859523D01*
X101523809Y-78897619D01*
X101561904Y-78973809D01*
X101561904Y-79202380D01*
X101523809Y-79278571D01*
X101485714Y-79316666D01*
X99838095Y-79278571D02*
X99800000Y-79240476D01*
X99761904Y-79164285D01*
X99761904Y-78973809D01*
X99800000Y-78897619D01*
X99838095Y-78859523D01*
X99914285Y-78821428D01*
X99990476Y-78821428D01*
X100104761Y-78859523D01*
X100561904Y-79316666D01*
X100561904Y-78821428D01*
X99561904Y-78821428D02*
X99561904Y-79278571D01*
X99561904Y-79050000D02*
X98761904Y-79050000D01*
X98876190Y-79126190D01*
X98952380Y-79202380D01*
X98990476Y-79278571D01*
X96471428Y-95111904D02*
X96928571Y-95111904D01*
X96700000Y-95911904D02*
X96700000Y-95111904D01*
X96947619Y-94911904D02*
X96680952Y-94530952D01*
X96490476Y-94911904D02*
X96490476Y-94111904D01*
X96795238Y-94111904D01*
X96871428Y-94150000D01*
X96909523Y-94188095D01*
X96947619Y-94264285D01*
X96947619Y-94378571D01*
X96909523Y-94454761D01*
X96871428Y-94492857D01*
X96795238Y-94530952D01*
X96490476Y-94530952D01*
X96490476Y-93911904D02*
X96490476Y-93111904D01*
X96795238Y-93111904D01*
X96871428Y-93150000D01*
X96909523Y-93188095D01*
X96947619Y-93264285D01*
X96947619Y-93378571D01*
X96909523Y-93454761D01*
X96871428Y-93492857D01*
X96795238Y-93530952D01*
X96490476Y-93530952D01*
X96471428Y-92911904D02*
X96471428Y-92111904D01*
X96928571Y-92911904D01*
X96928571Y-92111904D01*
X96433333Y-91911904D02*
X96433333Y-91111904D01*
X96700000Y-91683333D01*
X96966666Y-91111904D01*
X96966666Y-91911904D01*
X96947619Y-90911904D02*
X96566666Y-90911904D01*
X96566666Y-90111904D01*
X96490476Y-89911904D02*
X96490476Y-89111904D01*
X96947619Y-89911904D02*
X96604761Y-89454761D01*
X96947619Y-89111904D02*
X96490476Y-89569047D01*
X96814285Y-88111904D02*
X96814285Y-88683333D01*
X96776190Y-88797619D01*
X96700000Y-88873809D01*
X96585714Y-88911904D01*
X96509523Y-88911904D01*
X96471428Y-87911904D02*
X96471428Y-87111904D01*
X96471428Y-87492857D02*
X96928571Y-87492857D01*
X96928571Y-87911904D02*
X96928571Y-87111904D01*
X96909523Y-86150000D02*
X96833333Y-86111904D01*
X96719047Y-86111904D01*
X96604761Y-86150000D01*
X96528571Y-86226190D01*
X96490476Y-86302380D01*
X96452380Y-86454761D01*
X96452380Y-86569047D01*
X96490476Y-86721428D01*
X96528571Y-86797619D01*
X96604761Y-86873809D01*
X96719047Y-86911904D01*
X96795238Y-86911904D01*
X96909523Y-86873809D01*
X96947619Y-86835714D01*
X96947619Y-86569047D01*
X96795238Y-86569047D01*
X96814285Y-85492857D02*
X96547619Y-85492857D01*
X96547619Y-85911904D02*
X96547619Y-85111904D01*
X96928571Y-85111904D01*
X96528571Y-84492857D02*
X96795238Y-84492857D01*
X96909523Y-84911904D02*
X96528571Y-84911904D01*
X96528571Y-84111904D01*
X96909523Y-84111904D01*
X96490476Y-83911904D02*
X96490476Y-83111904D01*
X96680952Y-83111904D01*
X96795238Y-83150000D01*
X96871428Y-83226190D01*
X96909523Y-83302380D01*
X96947619Y-83454761D01*
X96947619Y-83569047D01*
X96909523Y-83721428D01*
X96871428Y-83797619D01*
X96795238Y-83873809D01*
X96680952Y-83911904D01*
X96490476Y-83911904D01*
X96947619Y-82835714D02*
X96909523Y-82873809D01*
X96795238Y-82911904D01*
X96719047Y-82911904D01*
X96604761Y-82873809D01*
X96528571Y-82797619D01*
X96490476Y-82721428D01*
X96452380Y-82569047D01*
X96452380Y-82454761D01*
X96490476Y-82302380D01*
X96528571Y-82226190D01*
X96604761Y-82150000D01*
X96719047Y-82111904D01*
X96795238Y-82111904D01*
X96909523Y-82150000D01*
X96947619Y-82188095D01*
X96757142Y-81492857D02*
X96871428Y-81530952D01*
X96909523Y-81569047D01*
X96947619Y-81645238D01*
X96947619Y-81759523D01*
X96909523Y-81835714D01*
X96871428Y-81873809D01*
X96795238Y-81911904D01*
X96490476Y-81911904D01*
X96490476Y-81111904D01*
X96757142Y-81111904D01*
X96833333Y-81150000D01*
X96871428Y-81188095D01*
X96909523Y-81264285D01*
X96909523Y-81340476D01*
X96871428Y-81416666D01*
X96833333Y-81454761D01*
X96757142Y-81492857D01*
X96490476Y-81492857D01*
X96509523Y-80683333D02*
X96890476Y-80683333D01*
X96433333Y-80911904D02*
X96700000Y-80111904D01*
X96966666Y-80911904D01*
G04 #@! TO.C,U10*
D11*
X127211904Y-81852380D02*
X127211904Y-82661904D01*
X127259523Y-82757142D01*
X127307142Y-82804761D01*
X127402380Y-82852380D01*
X127592857Y-82852380D01*
X127688095Y-82804761D01*
X127735714Y-82757142D01*
X127783333Y-82661904D01*
X127783333Y-81852380D01*
X128783333Y-82852380D02*
X128211904Y-82852380D01*
X128497619Y-82852380D02*
X128497619Y-81852380D01*
X128402380Y-81995238D01*
X128307142Y-82090476D01*
X128211904Y-82138095D01*
X129402380Y-81852380D02*
X129497619Y-81852380D01*
X129592857Y-81900000D01*
X129640476Y-81947619D01*
X129688095Y-82042857D01*
X129735714Y-82233333D01*
X129735714Y-82471428D01*
X129688095Y-82661904D01*
X129640476Y-82757142D01*
X129592857Y-82804761D01*
X129497619Y-82852380D01*
X129402380Y-82852380D01*
X129307142Y-82804761D01*
X129259523Y-82757142D01*
X129211904Y-82661904D01*
X129164285Y-82471428D01*
X129164285Y-82233333D01*
X129211904Y-82042857D01*
X129259523Y-81947619D01*
X129307142Y-81900000D01*
X129402380Y-81852380D01*
G04 #@! TO.C,R37*
X101307142Y-99802380D02*
X100973809Y-99326190D01*
X100735714Y-99802380D02*
X100735714Y-98802380D01*
X101116666Y-98802380D01*
X101211904Y-98850000D01*
X101259523Y-98897619D01*
X101307142Y-98992857D01*
X101307142Y-99135714D01*
X101259523Y-99230952D01*
X101211904Y-99278571D01*
X101116666Y-99326190D01*
X100735714Y-99326190D01*
X101640476Y-98802380D02*
X102259523Y-98802380D01*
X101926190Y-99183333D01*
X102069047Y-99183333D01*
X102164285Y-99230952D01*
X102211904Y-99278571D01*
X102259523Y-99373809D01*
X102259523Y-99611904D01*
X102211904Y-99707142D01*
X102164285Y-99754761D01*
X102069047Y-99802380D01*
X101783333Y-99802380D01*
X101688095Y-99754761D01*
X101640476Y-99707142D01*
X102592857Y-98802380D02*
X103259523Y-98802380D01*
X102830952Y-99802380D01*
G04 #@! TO.C,R35*
X101307142Y-97902380D02*
X100973809Y-97426190D01*
X100735714Y-97902380D02*
X100735714Y-96902380D01*
X101116666Y-96902380D01*
X101211904Y-96950000D01*
X101259523Y-96997619D01*
X101307142Y-97092857D01*
X101307142Y-97235714D01*
X101259523Y-97330952D01*
X101211904Y-97378571D01*
X101116666Y-97426190D01*
X100735714Y-97426190D01*
X101640476Y-96902380D02*
X102259523Y-96902380D01*
X101926190Y-97283333D01*
X102069047Y-97283333D01*
X102164285Y-97330952D01*
X102211904Y-97378571D01*
X102259523Y-97473809D01*
X102259523Y-97711904D01*
X102211904Y-97807142D01*
X102164285Y-97854761D01*
X102069047Y-97902380D01*
X101783333Y-97902380D01*
X101688095Y-97854761D01*
X101640476Y-97807142D01*
X103164285Y-96902380D02*
X102688095Y-96902380D01*
X102640476Y-97378571D01*
X102688095Y-97330952D01*
X102783333Y-97283333D01*
X103021428Y-97283333D01*
X103116666Y-97330952D01*
X103164285Y-97378571D01*
X103211904Y-97473809D01*
X103211904Y-97711904D01*
X103164285Y-97807142D01*
X103116666Y-97854761D01*
X103021428Y-97902380D01*
X102783333Y-97902380D01*
X102688095Y-97854761D01*
X102640476Y-97807142D01*
G04 #@! TO.C,R36*
X106707142Y-72802380D02*
X106373809Y-72326190D01*
X106135714Y-72802380D02*
X106135714Y-71802380D01*
X106516666Y-71802380D01*
X106611904Y-71850000D01*
X106659523Y-71897619D01*
X106707142Y-71992857D01*
X106707142Y-72135714D01*
X106659523Y-72230952D01*
X106611904Y-72278571D01*
X106516666Y-72326190D01*
X106135714Y-72326190D01*
X107040476Y-71802380D02*
X107659523Y-71802380D01*
X107326190Y-72183333D01*
X107469047Y-72183333D01*
X107564285Y-72230952D01*
X107611904Y-72278571D01*
X107659523Y-72373809D01*
X107659523Y-72611904D01*
X107611904Y-72707142D01*
X107564285Y-72754761D01*
X107469047Y-72802380D01*
X107183333Y-72802380D01*
X107088095Y-72754761D01*
X107040476Y-72707142D01*
X108516666Y-71802380D02*
X108326190Y-71802380D01*
X108230952Y-71850000D01*
X108183333Y-71897619D01*
X108088095Y-72040476D01*
X108040476Y-72230952D01*
X108040476Y-72611904D01*
X108088095Y-72707142D01*
X108135714Y-72754761D01*
X108230952Y-72802380D01*
X108421428Y-72802380D01*
X108516666Y-72754761D01*
X108564285Y-72707142D01*
X108611904Y-72611904D01*
X108611904Y-72373809D01*
X108564285Y-72278571D01*
X108516666Y-72230952D01*
X108421428Y-72183333D01*
X108230952Y-72183333D01*
X108135714Y-72230952D01*
X108088095Y-72278571D01*
X108040476Y-72373809D01*
G04 #@! TO.C,x3*
X76261904Y-65552380D02*
X76785714Y-64885714D01*
X76261904Y-64885714D02*
X76785714Y-65552380D01*
X77071428Y-64552380D02*
X77690476Y-64552380D01*
X77357142Y-64933333D01*
X77500000Y-64933333D01*
X77595238Y-64980952D01*
X77642857Y-65028571D01*
X77690476Y-65123809D01*
X77690476Y-65361904D01*
X77642857Y-65457142D01*
X77595238Y-65504761D01*
X77500000Y-65552380D01*
X77214285Y-65552380D01*
X77119047Y-65504761D01*
X77071428Y-65457142D01*
G04 #@! TO.C,x4*
X50961904Y-65702380D02*
X51485714Y-65035714D01*
X50961904Y-65035714D02*
X51485714Y-65702380D01*
X52295238Y-65035714D02*
X52295238Y-65702380D01*
X52057142Y-64654761D02*
X51819047Y-65369047D01*
X52438095Y-65369047D01*
G04 #@! TO.C,x7*
X126861904Y-65502380D02*
X127385714Y-64835714D01*
X126861904Y-64835714D02*
X127385714Y-65502380D01*
X127671428Y-64502380D02*
X128338095Y-64502380D01*
X127909523Y-65502380D01*
G04 #@! TO.C,x8*
X101711904Y-65602380D02*
X102235714Y-64935714D01*
X101711904Y-64935714D02*
X102235714Y-65602380D01*
X102759523Y-65030952D02*
X102664285Y-64983333D01*
X102616666Y-64935714D01*
X102569047Y-64840476D01*
X102569047Y-64792857D01*
X102616666Y-64697619D01*
X102664285Y-64650000D01*
X102759523Y-64602380D01*
X102950000Y-64602380D01*
X103045238Y-64650000D01*
X103092857Y-64697619D01*
X103140476Y-64792857D01*
X103140476Y-64840476D01*
X103092857Y-64935714D01*
X103045238Y-64983333D01*
X102950000Y-65030952D01*
X102759523Y-65030952D01*
X102664285Y-65078571D01*
X102616666Y-65126190D01*
X102569047Y-65221428D01*
X102569047Y-65411904D01*
X102616666Y-65507142D01*
X102664285Y-65554761D01*
X102759523Y-65602380D01*
X102950000Y-65602380D01*
X103045238Y-65554761D01*
X103092857Y-65507142D01*
X103140476Y-65411904D01*
X103140476Y-65221428D01*
X103092857Y-65126190D01*
X103045238Y-65078571D01*
X102950000Y-65030952D01*
G04 #@! TO.C,x1*
X127211904Y-115152380D02*
X127735714Y-114485714D01*
X127211904Y-114485714D02*
X127735714Y-115152380D01*
X128640476Y-115152380D02*
X128069047Y-115152380D01*
X128354761Y-115152380D02*
X128354761Y-114152380D01*
X128259523Y-114295238D01*
X128164285Y-114390476D01*
X128069047Y-114438095D01*
G04 #@! TO.C,x2*
X101661904Y-115352380D02*
X102185714Y-114685714D01*
X101661904Y-114685714D02*
X102185714Y-115352380D01*
X102519047Y-114447619D02*
X102566666Y-114400000D01*
X102661904Y-114352380D01*
X102900000Y-114352380D01*
X102995238Y-114400000D01*
X103042857Y-114447619D01*
X103090476Y-114542857D01*
X103090476Y-114638095D01*
X103042857Y-114780952D01*
X102471428Y-115352380D01*
X103090476Y-115352380D01*
G04 #@! TO.C,x5*
X50961904Y-115402380D02*
X51485714Y-114735714D01*
X50961904Y-114735714D02*
X51485714Y-115402380D01*
X52342857Y-114402380D02*
X51866666Y-114402380D01*
X51819047Y-114878571D01*
X51866666Y-114830952D01*
X51961904Y-114783333D01*
X52200000Y-114783333D01*
X52295238Y-114830952D01*
X52342857Y-114878571D01*
X52390476Y-114973809D01*
X52390476Y-115211904D01*
X52342857Y-115307142D01*
X52295238Y-115354761D01*
X52200000Y-115402380D01*
X51961904Y-115402380D01*
X51866666Y-115354761D01*
X51819047Y-115307142D01*
G04 #@! TO.C,x6*
X76261904Y-115302380D02*
X76785714Y-114635714D01*
X76261904Y-114635714D02*
X76785714Y-115302380D01*
X77595238Y-114302380D02*
X77404761Y-114302380D01*
X77309523Y-114350000D01*
X77261904Y-114397619D01*
X77166666Y-114540476D01*
X77119047Y-114730952D01*
X77119047Y-115111904D01*
X77166666Y-115207142D01*
X77214285Y-115254761D01*
X77309523Y-115302380D01*
X77500000Y-115302380D01*
X77595238Y-115254761D01*
X77642857Y-115207142D01*
X77690476Y-115111904D01*
X77690476Y-114873809D01*
X77642857Y-114778571D01*
X77595238Y-114730952D01*
X77500000Y-114683333D01*
X77309523Y-114683333D01*
X77214285Y-114730952D01*
X77166666Y-114778571D01*
X77119047Y-114873809D01*
G04 #@! TO.C,C16*
X139107142Y-96992857D02*
X139154761Y-97040476D01*
X139202380Y-97183333D01*
X139202380Y-97278571D01*
X139154761Y-97421428D01*
X139059523Y-97516666D01*
X138964285Y-97564285D01*
X138773809Y-97611904D01*
X138630952Y-97611904D01*
X138440476Y-97564285D01*
X138345238Y-97516666D01*
X138250000Y-97421428D01*
X138202380Y-97278571D01*
X138202380Y-97183333D01*
X138250000Y-97040476D01*
X138297619Y-96992857D01*
X139202380Y-96040476D02*
X139202380Y-96611904D01*
X139202380Y-96326190D02*
X138202380Y-96326190D01*
X138345238Y-96421428D01*
X138440476Y-96516666D01*
X138488095Y-96611904D01*
X138202380Y-95183333D02*
X138202380Y-95373809D01*
X138250000Y-95469047D01*
X138297619Y-95516666D01*
X138440476Y-95611904D01*
X138630952Y-95659523D01*
X139011904Y-95659523D01*
X139107142Y-95611904D01*
X139154761Y-95564285D01*
X139202380Y-95469047D01*
X139202380Y-95278571D01*
X139154761Y-95183333D01*
X139107142Y-95135714D01*
X139011904Y-95088095D01*
X138773809Y-95088095D01*
X138678571Y-95135714D01*
X138630952Y-95183333D01*
X138583333Y-95278571D01*
X138583333Y-95469047D01*
X138630952Y-95564285D01*
X138678571Y-95611904D01*
X138773809Y-95659523D01*
G04 #@! TO.C,C19*
X135557142Y-80257142D02*
X135509523Y-80304761D01*
X135366666Y-80352380D01*
X135271428Y-80352380D01*
X135128571Y-80304761D01*
X135033333Y-80209523D01*
X134985714Y-80114285D01*
X134938095Y-79923809D01*
X134938095Y-79780952D01*
X134985714Y-79590476D01*
X135033333Y-79495238D01*
X135128571Y-79400000D01*
X135271428Y-79352380D01*
X135366666Y-79352380D01*
X135509523Y-79400000D01*
X135557142Y-79447619D01*
X136509523Y-80352380D02*
X135938095Y-80352380D01*
X136223809Y-80352380D02*
X136223809Y-79352380D01*
X136128571Y-79495238D01*
X136033333Y-79590476D01*
X135938095Y-79638095D01*
X136985714Y-80352380D02*
X137176190Y-80352380D01*
X137271428Y-80304761D01*
X137319047Y-80257142D01*
X137414285Y-80114285D01*
X137461904Y-79923809D01*
X137461904Y-79542857D01*
X137414285Y-79447619D01*
X137366666Y-79400000D01*
X137271428Y-79352380D01*
X137080952Y-79352380D01*
X136985714Y-79400000D01*
X136938095Y-79447619D01*
X136890476Y-79542857D01*
X136890476Y-79780952D01*
X136938095Y-79876190D01*
X136985714Y-79923809D01*
X137080952Y-79971428D01*
X137271428Y-79971428D01*
X137366666Y-79923809D01*
X137414285Y-79876190D01*
X137461904Y-79780952D01*
G04 #@! TO.C,C20*
X134157142Y-99042857D02*
X134204761Y-99090476D01*
X134252380Y-99233333D01*
X134252380Y-99328571D01*
X134204761Y-99471428D01*
X134109523Y-99566666D01*
X134014285Y-99614285D01*
X133823809Y-99661904D01*
X133680952Y-99661904D01*
X133490476Y-99614285D01*
X133395238Y-99566666D01*
X133300000Y-99471428D01*
X133252380Y-99328571D01*
X133252380Y-99233333D01*
X133300000Y-99090476D01*
X133347619Y-99042857D01*
X133347619Y-98661904D02*
X133300000Y-98614285D01*
X133252380Y-98519047D01*
X133252380Y-98280952D01*
X133300000Y-98185714D01*
X133347619Y-98138095D01*
X133442857Y-98090476D01*
X133538095Y-98090476D01*
X133680952Y-98138095D01*
X134252380Y-98709523D01*
X134252380Y-98090476D01*
X133252380Y-97471428D02*
X133252380Y-97376190D01*
X133300000Y-97280952D01*
X133347619Y-97233333D01*
X133442857Y-97185714D01*
X133633333Y-97138095D01*
X133871428Y-97138095D01*
X134061904Y-97185714D01*
X134157142Y-97233333D01*
X134204761Y-97280952D01*
X134252380Y-97376190D01*
X134252380Y-97471428D01*
X134204761Y-97566666D01*
X134157142Y-97614285D01*
X134061904Y-97661904D01*
X133871428Y-97709523D01*
X133633333Y-97709523D01*
X133442857Y-97661904D01*
X133347619Y-97614285D01*
X133300000Y-97566666D01*
X133252380Y-97471428D01*
G04 #@! TO.C,RN2*
X134402380Y-84990476D02*
X133926190Y-85323809D01*
X134402380Y-85561904D02*
X133402380Y-85561904D01*
X133402380Y-85180952D01*
X133450000Y-85085714D01*
X133497619Y-85038095D01*
X133592857Y-84990476D01*
X133735714Y-84990476D01*
X133830952Y-85038095D01*
X133878571Y-85085714D01*
X133926190Y-85180952D01*
X133926190Y-85561904D01*
X134402380Y-84561904D02*
X133402380Y-84561904D01*
X134402380Y-83990476D01*
X133402380Y-83990476D01*
X133497619Y-83561904D02*
X133450000Y-83514285D01*
X133402380Y-83419047D01*
X133402380Y-83180952D01*
X133450000Y-83085714D01*
X133497619Y-83038095D01*
X133592857Y-82990476D01*
X133688095Y-82990476D01*
X133830952Y-83038095D01*
X134402380Y-83609523D01*
X134402380Y-82990476D01*
G04 #@! TO.C,RN1*
X134402380Y-94290476D02*
X133926190Y-94623809D01*
X134402380Y-94861904D02*
X133402380Y-94861904D01*
X133402380Y-94480952D01*
X133450000Y-94385714D01*
X133497619Y-94338095D01*
X133592857Y-94290476D01*
X133735714Y-94290476D01*
X133830952Y-94338095D01*
X133878571Y-94385714D01*
X133926190Y-94480952D01*
X133926190Y-94861904D01*
X134402380Y-93861904D02*
X133402380Y-93861904D01*
X134402380Y-93290476D01*
X133402380Y-93290476D01*
X134402380Y-92290476D02*
X134402380Y-92861904D01*
X134402380Y-92576190D02*
X133402380Y-92576190D01*
X133545238Y-92671428D01*
X133640476Y-92766666D01*
X133688095Y-92861904D01*
G04 #@! TO.C,R20*
X125107142Y-72352380D02*
X124773809Y-71876190D01*
X124535714Y-72352380D02*
X124535714Y-71352380D01*
X124916666Y-71352380D01*
X125011904Y-71400000D01*
X125059523Y-71447619D01*
X125107142Y-71542857D01*
X125107142Y-71685714D01*
X125059523Y-71780952D01*
X125011904Y-71828571D01*
X124916666Y-71876190D01*
X124535714Y-71876190D01*
X125488095Y-71447619D02*
X125535714Y-71400000D01*
X125630952Y-71352380D01*
X125869047Y-71352380D01*
X125964285Y-71400000D01*
X126011904Y-71447619D01*
X126059523Y-71542857D01*
X126059523Y-71638095D01*
X126011904Y-71780952D01*
X125440476Y-72352380D01*
X126059523Y-72352380D01*
X126678571Y-71352380D02*
X126773809Y-71352380D01*
X126869047Y-71400000D01*
X126916666Y-71447619D01*
X126964285Y-71542857D01*
X127011904Y-71733333D01*
X127011904Y-71971428D01*
X126964285Y-72161904D01*
X126916666Y-72257142D01*
X126869047Y-72304761D01*
X126773809Y-72352380D01*
X126678571Y-72352380D01*
X126583333Y-72304761D01*
X126535714Y-72257142D01*
X126488095Y-72161904D01*
X126440476Y-71971428D01*
X126440476Y-71733333D01*
X126488095Y-71542857D01*
X126535714Y-71447619D01*
X126583333Y-71400000D01*
X126678571Y-71352380D01*
G04 #@! TO.C,C14*
X139157142Y-91692857D02*
X139204761Y-91740476D01*
X139252380Y-91883333D01*
X139252380Y-91978571D01*
X139204761Y-92121428D01*
X139109523Y-92216666D01*
X139014285Y-92264285D01*
X138823809Y-92311904D01*
X138680952Y-92311904D01*
X138490476Y-92264285D01*
X138395238Y-92216666D01*
X138300000Y-92121428D01*
X138252380Y-91978571D01*
X138252380Y-91883333D01*
X138300000Y-91740476D01*
X138347619Y-91692857D01*
X139252380Y-90740476D02*
X139252380Y-91311904D01*
X139252380Y-91026190D02*
X138252380Y-91026190D01*
X138395238Y-91121428D01*
X138490476Y-91216666D01*
X138538095Y-91311904D01*
X138585714Y-89883333D02*
X139252380Y-89883333D01*
X138204761Y-90121428D02*
X138919047Y-90359523D01*
X138919047Y-89740476D01*
G04 #@! TO.C,C15*
X114407142Y-74357142D02*
X114359523Y-74404761D01*
X114216666Y-74452380D01*
X114121428Y-74452380D01*
X113978571Y-74404761D01*
X113883333Y-74309523D01*
X113835714Y-74214285D01*
X113788095Y-74023809D01*
X113788095Y-73880952D01*
X113835714Y-73690476D01*
X113883333Y-73595238D01*
X113978571Y-73500000D01*
X114121428Y-73452380D01*
X114216666Y-73452380D01*
X114359523Y-73500000D01*
X114407142Y-73547619D01*
X115359523Y-74452380D02*
X114788095Y-74452380D01*
X115073809Y-74452380D02*
X115073809Y-73452380D01*
X114978571Y-73595238D01*
X114883333Y-73690476D01*
X114788095Y-73738095D01*
X116264285Y-73452380D02*
X115788095Y-73452380D01*
X115740476Y-73928571D01*
X115788095Y-73880952D01*
X115883333Y-73833333D01*
X116121428Y-73833333D01*
X116216666Y-73880952D01*
X116264285Y-73928571D01*
X116311904Y-74023809D01*
X116311904Y-74261904D01*
X116264285Y-74357142D01*
X116216666Y-74404761D01*
X116121428Y-74452380D01*
X115883333Y-74452380D01*
X115788095Y-74404761D01*
X115740476Y-74357142D01*
G04 #@! TO.C,C17*
X125157142Y-74357142D02*
X125109523Y-74404761D01*
X124966666Y-74452380D01*
X124871428Y-74452380D01*
X124728571Y-74404761D01*
X124633333Y-74309523D01*
X124585714Y-74214285D01*
X124538095Y-74023809D01*
X124538095Y-73880952D01*
X124585714Y-73690476D01*
X124633333Y-73595238D01*
X124728571Y-73500000D01*
X124871428Y-73452380D01*
X124966666Y-73452380D01*
X125109523Y-73500000D01*
X125157142Y-73547619D01*
X126109523Y-74452380D02*
X125538095Y-74452380D01*
X125823809Y-74452380D02*
X125823809Y-73452380D01*
X125728571Y-73595238D01*
X125633333Y-73690476D01*
X125538095Y-73738095D01*
X126442857Y-73452380D02*
X127109523Y-73452380D01*
X126680952Y-74452380D01*
G04 #@! TO.C,R12*
X122452380Y-86392857D02*
X121976190Y-86726190D01*
X122452380Y-86964285D02*
X121452380Y-86964285D01*
X121452380Y-86583333D01*
X121500000Y-86488095D01*
X121547619Y-86440476D01*
X121642857Y-86392857D01*
X121785714Y-86392857D01*
X121880952Y-86440476D01*
X121928571Y-86488095D01*
X121976190Y-86583333D01*
X121976190Y-86964285D01*
X122452380Y-85440476D02*
X122452380Y-86011904D01*
X122452380Y-85726190D02*
X121452380Y-85726190D01*
X121595238Y-85821428D01*
X121690476Y-85916666D01*
X121738095Y-86011904D01*
X121547619Y-85059523D02*
X121500000Y-85011904D01*
X121452380Y-84916666D01*
X121452380Y-84678571D01*
X121500000Y-84583333D01*
X121547619Y-84535714D01*
X121642857Y-84488095D01*
X121738095Y-84488095D01*
X121880952Y-84535714D01*
X122452380Y-85107142D01*
X122452380Y-84488095D01*
G04 #@! TO.C,R13*
X134252380Y-89892857D02*
X133776190Y-90226190D01*
X134252380Y-90464285D02*
X133252380Y-90464285D01*
X133252380Y-90083333D01*
X133300000Y-89988095D01*
X133347619Y-89940476D01*
X133442857Y-89892857D01*
X133585714Y-89892857D01*
X133680952Y-89940476D01*
X133728571Y-89988095D01*
X133776190Y-90083333D01*
X133776190Y-90464285D01*
X134252380Y-88940476D02*
X134252380Y-89511904D01*
X134252380Y-89226190D02*
X133252380Y-89226190D01*
X133395238Y-89321428D01*
X133490476Y-89416666D01*
X133538095Y-89511904D01*
X133252380Y-88607142D02*
X133252380Y-87988095D01*
X133633333Y-88321428D01*
X133633333Y-88178571D01*
X133680952Y-88083333D01*
X133728571Y-88035714D01*
X133823809Y-87988095D01*
X134061904Y-87988095D01*
X134157142Y-88035714D01*
X134204761Y-88083333D01*
X134252380Y-88178571D01*
X134252380Y-88464285D01*
X134204761Y-88559523D01*
X134157142Y-88607142D01*
G04 #@! TO.C,R19*
X114457142Y-72452380D02*
X114123809Y-71976190D01*
X113885714Y-72452380D02*
X113885714Y-71452380D01*
X114266666Y-71452380D01*
X114361904Y-71500000D01*
X114409523Y-71547619D01*
X114457142Y-71642857D01*
X114457142Y-71785714D01*
X114409523Y-71880952D01*
X114361904Y-71928571D01*
X114266666Y-71976190D01*
X113885714Y-71976190D01*
X115409523Y-72452380D02*
X114838095Y-72452380D01*
X115123809Y-72452380D02*
X115123809Y-71452380D01*
X115028571Y-71595238D01*
X114933333Y-71690476D01*
X114838095Y-71738095D01*
X115885714Y-72452380D02*
X116076190Y-72452380D01*
X116171428Y-72404761D01*
X116219047Y-72357142D01*
X116314285Y-72214285D01*
X116361904Y-72023809D01*
X116361904Y-71642857D01*
X116314285Y-71547619D01*
X116266666Y-71500000D01*
X116171428Y-71452380D01*
X115980952Y-71452380D01*
X115885714Y-71500000D01*
X115838095Y-71547619D01*
X115790476Y-71642857D01*
X115790476Y-71880952D01*
X115838095Y-71976190D01*
X115885714Y-72023809D01*
X115980952Y-72071428D01*
X116171428Y-72071428D01*
X116266666Y-72023809D01*
X116314285Y-71976190D01*
X116361904Y-71880952D01*
G04 #@! TO.C,R18*
X129152380Y-80642857D02*
X128676190Y-80976190D01*
X129152380Y-81214285D02*
X128152380Y-81214285D01*
X128152380Y-80833333D01*
X128200000Y-80738095D01*
X128247619Y-80690476D01*
X128342857Y-80642857D01*
X128485714Y-80642857D01*
X128580952Y-80690476D01*
X128628571Y-80738095D01*
X128676190Y-80833333D01*
X128676190Y-81214285D01*
X129152380Y-79690476D02*
X129152380Y-80261904D01*
X129152380Y-79976190D02*
X128152380Y-79976190D01*
X128295238Y-80071428D01*
X128390476Y-80166666D01*
X128438095Y-80261904D01*
X128580952Y-79119047D02*
X128533333Y-79214285D01*
X128485714Y-79261904D01*
X128390476Y-79309523D01*
X128342857Y-79309523D01*
X128247619Y-79261904D01*
X128200000Y-79214285D01*
X128152380Y-79119047D01*
X128152380Y-78928571D01*
X128200000Y-78833333D01*
X128247619Y-78785714D01*
X128342857Y-78738095D01*
X128390476Y-78738095D01*
X128485714Y-78785714D01*
X128533333Y-78833333D01*
X128580952Y-78928571D01*
X128580952Y-79119047D01*
X128628571Y-79214285D01*
X128676190Y-79261904D01*
X128771428Y-79309523D01*
X128961904Y-79309523D01*
X129057142Y-79261904D01*
X129104761Y-79214285D01*
X129152380Y-79119047D01*
X129152380Y-78928571D01*
X129104761Y-78833333D01*
X129057142Y-78785714D01*
X128961904Y-78738095D01*
X128771428Y-78738095D01*
X128676190Y-78785714D01*
X128628571Y-78833333D01*
X128580952Y-78928571D01*
G04 #@! TO.C,D1*
X111811904Y-102102380D02*
X111811904Y-101102380D01*
X112050000Y-101102380D01*
X112192857Y-101150000D01*
X112288095Y-101245238D01*
X112335714Y-101340476D01*
X112383333Y-101530952D01*
X112383333Y-101673809D01*
X112335714Y-101864285D01*
X112288095Y-101959523D01*
X112192857Y-102054761D01*
X112050000Y-102102380D01*
X111811904Y-102102380D01*
X113335714Y-102102380D02*
X112764285Y-102102380D01*
X113050000Y-102102380D02*
X113050000Y-101102380D01*
X112954761Y-101245238D01*
X112859523Y-101340476D01*
X112764285Y-101388095D01*
G04 #@! TO.C,R11*
X110357142Y-109202380D02*
X110023809Y-108726190D01*
X109785714Y-109202380D02*
X109785714Y-108202380D01*
X110166666Y-108202380D01*
X110261904Y-108250000D01*
X110309523Y-108297619D01*
X110357142Y-108392857D01*
X110357142Y-108535714D01*
X110309523Y-108630952D01*
X110261904Y-108678571D01*
X110166666Y-108726190D01*
X109785714Y-108726190D01*
X111309523Y-109202380D02*
X110738095Y-109202380D01*
X111023809Y-109202380D02*
X111023809Y-108202380D01*
X110928571Y-108345238D01*
X110833333Y-108440476D01*
X110738095Y-108488095D01*
X112261904Y-109202380D02*
X111690476Y-109202380D01*
X111976190Y-109202380D02*
X111976190Y-108202380D01*
X111880952Y-108345238D01*
X111785714Y-108440476D01*
X111690476Y-108488095D01*
G04 #@! TO.C,R10*
X113457142Y-109252380D02*
X113123809Y-108776190D01*
X112885714Y-109252380D02*
X112885714Y-108252380D01*
X113266666Y-108252380D01*
X113361904Y-108300000D01*
X113409523Y-108347619D01*
X113457142Y-108442857D01*
X113457142Y-108585714D01*
X113409523Y-108680952D01*
X113361904Y-108728571D01*
X113266666Y-108776190D01*
X112885714Y-108776190D01*
X114409523Y-109252380D02*
X113838095Y-109252380D01*
X114123809Y-109252380D02*
X114123809Y-108252380D01*
X114028571Y-108395238D01*
X113933333Y-108490476D01*
X113838095Y-108538095D01*
X115028571Y-108252380D02*
X115123809Y-108252380D01*
X115219047Y-108300000D01*
X115266666Y-108347619D01*
X115314285Y-108442857D01*
X115361904Y-108633333D01*
X115361904Y-108871428D01*
X115314285Y-109061904D01*
X115266666Y-109157142D01*
X115219047Y-109204761D01*
X115123809Y-109252380D01*
X115028571Y-109252380D01*
X114933333Y-109204761D01*
X114885714Y-109157142D01*
X114838095Y-109061904D01*
X114790476Y-108871428D01*
X114790476Y-108633333D01*
X114838095Y-108442857D01*
X114885714Y-108347619D01*
X114933333Y-108300000D01*
X115028571Y-108252380D01*
G04 #@! TO.C,C1*
X121983333Y-109107142D02*
X121935714Y-109154761D01*
X121792857Y-109202380D01*
X121697619Y-109202380D01*
X121554761Y-109154761D01*
X121459523Y-109059523D01*
X121411904Y-108964285D01*
X121364285Y-108773809D01*
X121364285Y-108630952D01*
X121411904Y-108440476D01*
X121459523Y-108345238D01*
X121554761Y-108250000D01*
X121697619Y-108202380D01*
X121792857Y-108202380D01*
X121935714Y-108250000D01*
X121983333Y-108297619D01*
X122935714Y-109202380D02*
X122364285Y-109202380D01*
X122650000Y-109202380D02*
X122650000Y-108202380D01*
X122554761Y-108345238D01*
X122459523Y-108440476D01*
X122364285Y-108488095D01*
G04 #@! TO.C,R5*
X126383333Y-109152380D02*
X126050000Y-108676190D01*
X125811904Y-109152380D02*
X125811904Y-108152380D01*
X126192857Y-108152380D01*
X126288095Y-108200000D01*
X126335714Y-108247619D01*
X126383333Y-108342857D01*
X126383333Y-108485714D01*
X126335714Y-108580952D01*
X126288095Y-108628571D01*
X126192857Y-108676190D01*
X125811904Y-108676190D01*
X127288095Y-108152380D02*
X126811904Y-108152380D01*
X126764285Y-108628571D01*
X126811904Y-108580952D01*
X126907142Y-108533333D01*
X127145238Y-108533333D01*
X127240476Y-108580952D01*
X127288095Y-108628571D01*
X127335714Y-108723809D01*
X127335714Y-108961904D01*
X127288095Y-109057142D01*
X127240476Y-109104761D01*
X127145238Y-109152380D01*
X126907142Y-109152380D01*
X126811904Y-109104761D01*
X126764285Y-109057142D01*
G04 #@! TO.C,R7*
X137433333Y-103002380D02*
X137100000Y-102526190D01*
X136861904Y-103002380D02*
X136861904Y-102002380D01*
X137242857Y-102002380D01*
X137338095Y-102050000D01*
X137385714Y-102097619D01*
X137433333Y-102192857D01*
X137433333Y-102335714D01*
X137385714Y-102430952D01*
X137338095Y-102478571D01*
X137242857Y-102526190D01*
X136861904Y-102526190D01*
X137766666Y-102002380D02*
X138433333Y-102002380D01*
X138004761Y-103002380D01*
G04 #@! TO.C,R9*
X115502380Y-103016666D02*
X115026190Y-103350000D01*
X115502380Y-103588095D02*
X114502380Y-103588095D01*
X114502380Y-103207142D01*
X114550000Y-103111904D01*
X114597619Y-103064285D01*
X114692857Y-103016666D01*
X114835714Y-103016666D01*
X114930952Y-103064285D01*
X114978571Y-103111904D01*
X115026190Y-103207142D01*
X115026190Y-103588095D01*
X115502380Y-102540476D02*
X115502380Y-102350000D01*
X115454761Y-102254761D01*
X115407142Y-102207142D01*
X115264285Y-102111904D01*
X115073809Y-102064285D01*
X114692857Y-102064285D01*
X114597619Y-102111904D01*
X114550000Y-102159523D01*
X114502380Y-102254761D01*
X114502380Y-102445238D01*
X114550000Y-102540476D01*
X114597619Y-102588095D01*
X114692857Y-102635714D01*
X114930952Y-102635714D01*
X115026190Y-102588095D01*
X115073809Y-102540476D01*
X115121428Y-102445238D01*
X115121428Y-102254761D01*
X115073809Y-102159523D01*
X115026190Y-102111904D01*
X114930952Y-102064285D01*
G04 #@! TO.C,R8*
X115652380Y-107366666D02*
X115176190Y-107700000D01*
X115652380Y-107938095D02*
X114652380Y-107938095D01*
X114652380Y-107557142D01*
X114700000Y-107461904D01*
X114747619Y-107414285D01*
X114842857Y-107366666D01*
X114985714Y-107366666D01*
X115080952Y-107414285D01*
X115128571Y-107461904D01*
X115176190Y-107557142D01*
X115176190Y-107938095D01*
X115080952Y-106795238D02*
X115033333Y-106890476D01*
X114985714Y-106938095D01*
X114890476Y-106985714D01*
X114842857Y-106985714D01*
X114747619Y-106938095D01*
X114700000Y-106890476D01*
X114652380Y-106795238D01*
X114652380Y-106604761D01*
X114700000Y-106509523D01*
X114747619Y-106461904D01*
X114842857Y-106414285D01*
X114890476Y-106414285D01*
X114985714Y-106461904D01*
X115033333Y-106509523D01*
X115080952Y-106604761D01*
X115080952Y-106795238D01*
X115128571Y-106890476D01*
X115176190Y-106938095D01*
X115271428Y-106985714D01*
X115461904Y-106985714D01*
X115557142Y-106938095D01*
X115604761Y-106890476D01*
X115652380Y-106795238D01*
X115652380Y-106604761D01*
X115604761Y-106509523D01*
X115557142Y-106461904D01*
X115461904Y-106414285D01*
X115271428Y-106414285D01*
X115176190Y-106461904D01*
X115128571Y-106509523D01*
X115080952Y-106604761D01*
G04 #@! TO.C,R6*
X135483333Y-105202380D02*
X135150000Y-104726190D01*
X134911904Y-105202380D02*
X134911904Y-104202380D01*
X135292857Y-104202380D01*
X135388095Y-104250000D01*
X135435714Y-104297619D01*
X135483333Y-104392857D01*
X135483333Y-104535714D01*
X135435714Y-104630952D01*
X135388095Y-104678571D01*
X135292857Y-104726190D01*
X134911904Y-104726190D01*
X136340476Y-104202380D02*
X136150000Y-104202380D01*
X136054761Y-104250000D01*
X136007142Y-104297619D01*
X135911904Y-104440476D01*
X135864285Y-104630952D01*
X135864285Y-105011904D01*
X135911904Y-105107142D01*
X135959523Y-105154761D01*
X136054761Y-105202380D01*
X136245238Y-105202380D01*
X136340476Y-105154761D01*
X136388095Y-105107142D01*
X136435714Y-105011904D01*
X136435714Y-104773809D01*
X136388095Y-104678571D01*
X136340476Y-104630952D01*
X136245238Y-104583333D01*
X136054761Y-104583333D01*
X135959523Y-104630952D01*
X135911904Y-104678571D01*
X135864285Y-104773809D01*
G04 #@! TO.C,R4*
X115652380Y-105066666D02*
X115176190Y-105400000D01*
X115652380Y-105638095D02*
X114652380Y-105638095D01*
X114652380Y-105257142D01*
X114700000Y-105161904D01*
X114747619Y-105114285D01*
X114842857Y-105066666D01*
X114985714Y-105066666D01*
X115080952Y-105114285D01*
X115128571Y-105161904D01*
X115176190Y-105257142D01*
X115176190Y-105638095D01*
X114985714Y-104209523D02*
X115652380Y-104209523D01*
X114604761Y-104447619D02*
X115319047Y-104685714D01*
X115319047Y-104066666D01*
G04 #@! TO.C,R3*
X117383333Y-99902380D02*
X117050000Y-99426190D01*
X116811904Y-99902380D02*
X116811904Y-98902380D01*
X117192857Y-98902380D01*
X117288095Y-98950000D01*
X117335714Y-98997619D01*
X117383333Y-99092857D01*
X117383333Y-99235714D01*
X117335714Y-99330952D01*
X117288095Y-99378571D01*
X117192857Y-99426190D01*
X116811904Y-99426190D01*
X117716666Y-98902380D02*
X118335714Y-98902380D01*
X118002380Y-99283333D01*
X118145238Y-99283333D01*
X118240476Y-99330952D01*
X118288095Y-99378571D01*
X118335714Y-99473809D01*
X118335714Y-99711904D01*
X118288095Y-99807142D01*
X118240476Y-99854761D01*
X118145238Y-99902380D01*
X117859523Y-99902380D01*
X117764285Y-99854761D01*
X117716666Y-99807142D01*
G04 #@! TO.C,R2*
X130708333Y-109152380D02*
X130375000Y-108676190D01*
X130136904Y-109152380D02*
X130136904Y-108152380D01*
X130517857Y-108152380D01*
X130613095Y-108200000D01*
X130660714Y-108247619D01*
X130708333Y-108342857D01*
X130708333Y-108485714D01*
X130660714Y-108580952D01*
X130613095Y-108628571D01*
X130517857Y-108676190D01*
X130136904Y-108676190D01*
X131089285Y-108247619D02*
X131136904Y-108200000D01*
X131232142Y-108152380D01*
X131470238Y-108152380D01*
X131565476Y-108200000D01*
X131613095Y-108247619D01*
X131660714Y-108342857D01*
X131660714Y-108438095D01*
X131613095Y-108580952D01*
X131041666Y-109152380D01*
X131660714Y-109152380D01*
G04 #@! TO.C,R1*
X134758333Y-109102380D02*
X134425000Y-108626190D01*
X134186904Y-109102380D02*
X134186904Y-108102380D01*
X134567857Y-108102380D01*
X134663095Y-108150000D01*
X134710714Y-108197619D01*
X134758333Y-108292857D01*
X134758333Y-108435714D01*
X134710714Y-108530952D01*
X134663095Y-108578571D01*
X134567857Y-108626190D01*
X134186904Y-108626190D01*
X135710714Y-109102380D02*
X135139285Y-109102380D01*
X135425000Y-109102380D02*
X135425000Y-108102380D01*
X135329761Y-108245238D01*
X135234523Y-108340476D01*
X135139285Y-108388095D01*
G04 #@! TO.C,U11*
X123961904Y-98502380D02*
X123961904Y-99311904D01*
X124009523Y-99407142D01*
X124057142Y-99454761D01*
X124152380Y-99502380D01*
X124342857Y-99502380D01*
X124438095Y-99454761D01*
X124485714Y-99407142D01*
X124533333Y-99311904D01*
X124533333Y-98502380D01*
X125533333Y-99502380D02*
X124961904Y-99502380D01*
X125247619Y-99502380D02*
X125247619Y-98502380D01*
X125152380Y-98645238D01*
X125057142Y-98740476D01*
X124961904Y-98788095D01*
X126485714Y-99502380D02*
X125914285Y-99502380D01*
X126200000Y-99502380D02*
X126200000Y-98502380D01*
X126104761Y-98645238D01*
X126009523Y-98740476D01*
X125914285Y-98788095D01*
G04 #@! TO.C,U4*
X87802380Y-122761904D02*
X88611904Y-122761904D01*
X88707142Y-122714285D01*
X88754761Y-122666666D01*
X88802380Y-122571428D01*
X88802380Y-122380952D01*
X88754761Y-122285714D01*
X88707142Y-122238095D01*
X88611904Y-122190476D01*
X87802380Y-122190476D01*
X88135714Y-121285714D02*
X88802380Y-121285714D01*
X87754761Y-121523809D02*
X88469047Y-121761904D01*
X88469047Y-121142857D01*
G04 #@! TO.C,U3*
X62302380Y-122761904D02*
X63111904Y-122761904D01*
X63207142Y-122714285D01*
X63254761Y-122666666D01*
X63302380Y-122571428D01*
X63302380Y-122380952D01*
X63254761Y-122285714D01*
X63207142Y-122238095D01*
X63111904Y-122190476D01*
X62302380Y-122190476D01*
X62302380Y-121809523D02*
X62302380Y-121190476D01*
X62683333Y-121523809D01*
X62683333Y-121380952D01*
X62730952Y-121285714D01*
X62778571Y-121238095D01*
X62873809Y-121190476D01*
X63111904Y-121190476D01*
X63207142Y-121238095D01*
X63254761Y-121285714D01*
X63302380Y-121380952D01*
X63302380Y-121666666D01*
X63254761Y-121761904D01*
X63207142Y-121809523D01*
G04 #@! TO.C,U2*
X113377380Y-122761904D02*
X114186904Y-122761904D01*
X114282142Y-122714285D01*
X114329761Y-122666666D01*
X114377380Y-122571428D01*
X114377380Y-122380952D01*
X114329761Y-122285714D01*
X114282142Y-122238095D01*
X114186904Y-122190476D01*
X113377380Y-122190476D01*
X113472619Y-121761904D02*
X113425000Y-121714285D01*
X113377380Y-121619047D01*
X113377380Y-121380952D01*
X113425000Y-121285714D01*
X113472619Y-121238095D01*
X113567857Y-121190476D01*
X113663095Y-121190476D01*
X113805952Y-121238095D01*
X114377380Y-121809523D01*
X114377380Y-121190476D01*
G04 #@! TO.C,U1*
X138302380Y-122761904D02*
X139111904Y-122761904D01*
X139207142Y-122714285D01*
X139254761Y-122666666D01*
X139302380Y-122571428D01*
X139302380Y-122380952D01*
X139254761Y-122285714D01*
X139207142Y-122238095D01*
X139111904Y-122190476D01*
X138302380Y-122190476D01*
X139302380Y-121190476D02*
X139302380Y-121761904D01*
X139302380Y-121476190D02*
X138302380Y-121476190D01*
X138445238Y-121571428D01*
X138540476Y-121666666D01*
X138588095Y-121761904D01*
G04 #@! TO.C,U6*
X99738095Y-57502380D02*
X99738095Y-58311904D01*
X99785714Y-58407142D01*
X99833333Y-58454761D01*
X99928571Y-58502380D01*
X100119047Y-58502380D01*
X100214285Y-58454761D01*
X100261904Y-58407142D01*
X100309523Y-58311904D01*
X100309523Y-57502380D01*
X101214285Y-57502380D02*
X101023809Y-57502380D01*
X100928571Y-57550000D01*
X100880952Y-57597619D01*
X100785714Y-57740476D01*
X100738095Y-57930952D01*
X100738095Y-58311904D01*
X100785714Y-58407142D01*
X100833333Y-58454761D01*
X100928571Y-58502380D01*
X101119047Y-58502380D01*
X101214285Y-58454761D01*
X101261904Y-58407142D01*
X101309523Y-58311904D01*
X101309523Y-58073809D01*
X101261904Y-57978571D01*
X101214285Y-57930952D01*
X101119047Y-57883333D01*
X100928571Y-57883333D01*
X100833333Y-57930952D01*
X100785714Y-57978571D01*
X100738095Y-58073809D01*
G04 #@! TO.C,U5*
X49088095Y-57452380D02*
X49088095Y-58261904D01*
X49135714Y-58357142D01*
X49183333Y-58404761D01*
X49278571Y-58452380D01*
X49469047Y-58452380D01*
X49564285Y-58404761D01*
X49611904Y-58357142D01*
X49659523Y-58261904D01*
X49659523Y-57452380D01*
X50611904Y-57452380D02*
X50135714Y-57452380D01*
X50088095Y-57928571D01*
X50135714Y-57880952D01*
X50230952Y-57833333D01*
X50469047Y-57833333D01*
X50564285Y-57880952D01*
X50611904Y-57928571D01*
X50659523Y-58023809D01*
X50659523Y-58261904D01*
X50611904Y-58357142D01*
X50564285Y-58404761D01*
X50469047Y-58452380D01*
X50230952Y-58452380D01*
X50135714Y-58404761D01*
X50088095Y-58357142D01*
G04 #@! TO.C,X1*
X89390476Y-91752380D02*
X90057142Y-92752380D01*
X90057142Y-91752380D02*
X89390476Y-92752380D01*
X90961904Y-92752380D02*
X90390476Y-92752380D01*
X90676190Y-92752380D02*
X90676190Y-91752380D01*
X90580952Y-91895238D01*
X90485714Y-91990476D01*
X90390476Y-92038095D01*
G04 #@! TD*
M02*
